<svg width="193" height="149" viewBox="0 0 193 149" fill="none" xmlns="http://www.w3.org/2000/svg">
<g clip-path="url(#clip0)">
<path fill-rule="evenodd" clip-rule="evenodd" d="M188.555 96.377C188.922 95.4187 189.328 94.7827 189.377 94.149C189.568 91.4962 189.669 88.844 189.761 86.195C189.788 85.5111 189.228 85.2542 188.474 85.5594C185.591 86.7353 182.714 87.9285 179.846 89.1287C178.274 89.7881 178.142 90.6454 179.538 91.4081C181.753 92.6249 184.042 93.76 186.284 94.9392C186.967 95.3182 187.606 95.7836 188.555 96.377Z" fill="#464451"/>
<path fill-rule="evenodd" clip-rule="evenodd" d="M175.585 72.1804C173.907 69.096 171.748 66.2622 169.165 63.7544C168.114 62.7491 167.357 62.7728 166.338 63.6529C165.922 64.0508 165.682 64.5621 165.668 65.0797C165.655 65.5972 165.869 66.0809 166.266 66.4295C168.408 68.599 170.49 70.7883 172.607 72.9996C172.825 73.2202 173.044 73.4451 173.236 73.6886C173.64 74.2215 174.096 74.6079 174.935 74.1507C175.774 73.6934 175.982 73.0841 175.585 72.1804Z" fill="#464451"/>
<path fill-rule="evenodd" clip-rule="evenodd" d="M30.9258 68.3457L18.6586 63.3137L16.8394 66.4866C18.9021 67.3751 20.8145 68.2651 22.798 69.0313C24.207 69.579 25.7269 69.9372 27.1671 70.4268C28.1059 70.7507 28.8337 70.7894 29.4177 69.7599C29.6875 69.2883 30.2762 68.9371 30.9258 68.3457Z" fill="#464451"/>
<path fill-rule="evenodd" clip-rule="evenodd" d="M108.998 51.0463L106.492 53.0801L107.201 55.2412C108.297 55.0731 109.374 54.9348 110.45 54.7397C114.249 54.0578 118.057 53.3871 121.847 52.6267C122.545 52.4887 123.183 51.9634 123.876 51.6066C123.693 50.7091 123.191 50.2369 122.362 50.2984C119.723 50.4799 117.08 50.7346 114.438 51.0081C113.534 51.1242 112.635 51.2962 111.746 51.523C110.722 51.7729 109.665 52.2446 108.998 51.0463Z" fill="#464451"/>
<path fill-rule="evenodd" clip-rule="evenodd" d="M52.2443 67.4906C50.4886 69.0866 48.6465 69.0066 46.7916 68.8877C46.0314 68.8356 45.2675 68.823 44.5174 68.7676C42.807 68.6635 41.051 68.7946 39.7347 67.8142C38.6711 68.6421 37.8621 69.6497 38.1732 70.6488C38.5492 71.7942 39.9565 71.9115 41.2279 72.0401C44.2116 72.296 47.1968 71.7901 50.1921 71.4007C51.7975 71.185 52.2437 70.8422 52.4308 69.1482C52.4216 68.5878 52.3592 68.0333 52.2443 67.4906Z" fill="#464451"/>
<path fill-rule="evenodd" clip-rule="evenodd" d="M145.325 53.1118C144.798 52.734 144.352 52.1239 143.749 52.0205C140.682 51.495 137.583 51.0758 134.482 50.6668C133.463 50.5227 132.416 50.5693 131.383 50.5015C129.904 50.403 129.911 50.391 129.404 51.74C129.297 52.0287 129.157 52.2997 129.05 52.5505C129.657 53.3469 130.565 53.3889 131.463 53.4342C133.865 53.5697 136.279 53.6727 138.682 53.8272C139.979 53.9139 141.266 54.0753 142.555 54.2221C143.569 54.3344 144.483 54.2404 145.325 53.1118Z" fill="#464451"/>
<path fill-rule="evenodd" clip-rule="evenodd" d="M84.4639 62.3795C85.4676 62.8161 86.4978 62.5163 87.4654 62.0599C90.9177 60.424 94.3728 58.7968 97.763 57.0569C98.4186 56.722 98.8668 55.9429 99.2713 55.3027C99.3379 55.1355 99.3563 54.9599 99.3249 54.7925C99.2934 54.6252 99.2131 54.4717 99.0916 54.3467C98.8915 54.27 98.6716 54.2325 98.446 54.2365C98.2203 54.2405 97.9938 54.286 97.7807 54.37C95.0222 55.6344 92.3123 56.9788 89.551 58.2346C88.579 58.6661 87.5633 58.9995 86.5247 59.2279C84.1141 59.7989 83.8983 60.0947 84.4639 62.3795Z" fill="#464451"/>
<path fill-rule="evenodd" clip-rule="evenodd" d="M77.7848 63.4735C77.2843 63.4308 76.775 63.4374 76.266 63.4932C71.8511 64.4093 67.4413 65.3523 63.0367 66.3225C62.2561 66.4973 61.2273 66.4951 61.0908 67.5261C60.9931 68.2668 61.8291 68.7201 63.2817 68.5497C65.3728 68.2991 67.4636 67.9623 69.5354 67.5504C71.6071 67.1386 73.8004 66.5862 75.921 66.0338C77.8182 65.55 77.8141 65.5034 77.7848 63.4735Z" fill="#464451"/>
<path fill-rule="evenodd" clip-rule="evenodd" d="M149.473 56.6677C149.912 57.007 150.386 57.3111 150.889 57.577C153.851 58.8391 156.824 60.0672 159.808 61.2613C160.733 61.628 161.656 61.4257 162.621 60.7739C162.484 60.4444 162.3 60.135 162.072 59.8526C159.415 57.3735 155.894 56.2309 152.108 55.5539C151.233 55.391 150.382 55.8283 149.473 56.6677Z" fill="#464451"/>
<path fill-rule="evenodd" clip-rule="evenodd" d="M8.21986 60.7979L9.9973 58.8596C8.62884 57.8054 7.26984 56.8821 6.10282 55.8289C4.9358 54.7756 3.91945 53.5005 2.66668 52.1689L0.353338 54.0917C2.00475 57.2506 5.08874 58.8333 8.21986 60.7979Z" fill="#464451"/>
<path fill-rule="evenodd" clip-rule="evenodd" d="M182.482 83.7295C181.639 82.0478 180.819 80.3639 179.952 78.6948C179.544 77.9286 178.886 77.982 178.061 78.4824C176.815 79.2313 176.467 79.6855 177.012 80.3924C178.163 81.8388 179.397 83.2338 180.611 84.6355C181.086 85.1787 181.761 85.3305 182.411 84.8062C182.697 84.5732 182.728 84.0701 182.858 83.7017L182.482 83.7295Z" fill="#464451"/>
</g>
<defs>
<clipPath id="clip0">
<rect width="170" height="100" transform="matrix(0.950129 -0.311856 -0.311856 -0.950129 31.1875 148.028)" fill="white"/>
</clipPath>
</defs>
</svg>
