<svg width="191" height="143" viewBox="0 0 191 143" fill="none" xmlns="http://www.w3.org/2000/svg">
<g clip-path="url(#clip0)">
<path fill-rule="evenodd" clip-rule="evenodd" d="M186.75 45.5803C187.154 46.5238 187.584 47.1437 187.657 47.7751C187.949 50.4186 188.152 53.065 188.345 55.7085C188.399 56.3909 187.85 56.669 187.084 56.393C184.158 55.3285 181.238 54.2465 178.325 53.1571C176.729 52.5585 176.565 51.7069 177.93 50.8912C180.097 49.5904 182.341 48.3684 184.536 47.1041C185.204 46.6991 185.824 46.2096 186.75 45.5803Z" fill="#464451"/>
<path fill-rule="evenodd" clip-rule="evenodd" d="M174.718 70.256C173.16 73.4024 171.111 76.3168 168.626 78.9218C167.614 79.9667 166.856 79.9721 165.805 79.1317C165.373 78.75 165.114 78.2483 165.081 77.7316C165.047 77.215 165.243 76.7234 165.626 76.3599C167.684 74.1099 169.68 71.8423 171.711 69.5515C171.92 69.3227 172.13 69.0895 172.313 68.8389C172.696 68.2909 173.137 67.8873 173.993 68.312C174.849 68.7368 175.08 69.3376 174.718 70.256Z" fill="#464451"/>
<path fill-rule="evenodd" clip-rule="evenodd" d="M30.3116 79.634L18.2463 85.1326L16.3068 82.0318C18.334 81.0648 20.2108 80.1021 22.1635 79.2605C23.5504 78.6591 25.0555 78.243 26.4758 77.6985C27.4015 77.3389 28.1274 77.2722 28.7504 78.2786C29.0381 78.7395 29.6398 79.0679 30.3116 79.634Z" fill="#464451"/>
<path fill-rule="evenodd" clip-rule="evenodd" d="M108.992 93.9278L106.41 91.9915L107.036 89.8049C108.137 89.9309 109.219 90.0277 110.302 90.1814C114.124 90.7172 117.955 91.2414 121.771 91.8559C122.474 91.9671 123.131 92.4676 123.838 92.7975C123.689 93.7014 123.206 94.1924 122.375 94.1628C119.731 94.0826 117.081 93.9294 114.43 93.7574C113.522 93.676 112.617 93.5386 111.72 93.3461C110.687 93.1356 109.612 92.7049 108.992 93.9278Z" fill="#464451"/>
<path fill-rule="evenodd" clip-rule="evenodd" d="M51.6479 79.671C49.8323 78.1435 47.9947 78.2941 46.1457 78.484C45.3881 78.5652 44.6251 78.6071 43.8777 78.6912C42.1726 78.8608 40.4129 78.7971 39.1351 79.8272C38.0406 79.0407 37.1935 78.0649 37.4661 77.0546C37.7979 75.8957 39.1997 75.7244 40.4652 75.5473C43.4369 75.1772 46.4393 75.5682 49.4474 75.8425C51.0598 75.9965 51.5188 76.3219 51.7707 78.0075C51.783 78.5678 51.742 79.1243 51.6479 79.671Z" fill="#464451"/>
<path fill-rule="evenodd" clip-rule="evenodd" d="M145.213 90.4707C144.701 90.8685 144.279 91.4952 143.679 91.6217C140.635 92.2644 137.555 92.8021 134.472 93.3296C133.459 93.5128 132.411 93.5063 131.381 93.6137C129.907 93.7688 129.914 93.7805 129.356 92.4519C129.238 92.1676 129.088 91.9021 128.971 91.6556C129.548 90.8366 130.453 90.7598 131.348 90.6801C133.744 90.4526 136.152 90.2571 138.547 90.0106C139.84 89.8743 141.12 89.6636 142.402 89.4675C143.412 89.3164 144.328 89.3752 145.213 90.4707Z" fill="#464451"/>
<path fill-rule="evenodd" clip-rule="evenodd" d="M84.04 83.5433C85.0263 83.0685 86.0672 83.3286 87.0516 83.7476C90.5641 85.2499 94.0791 86.7435 97.5335 88.3521C98.2014 88.6616 98.6792 89.423 99.1079 90.0472C99.1808 90.2118 99.206 90.3866 99.181 90.555C99.156 90.7234 99.0816 90.8798 98.965 91.0094C98.7679 91.0937 98.5497 91.1396 98.324 91.1442C98.0984 91.1489 97.8703 91.1122 97.6541 91.0364C94.8492 89.8786 92.0897 88.6392 89.2823 87.4902C88.2945 87.0962 87.2668 86.802 86.2202 86.6136C83.7894 86.1355 83.5625 85.8481 84.04 83.5433Z" fill="#464451"/>
<path fill-rule="evenodd" clip-rule="evenodd" d="M77.3253 82.7062C76.8269 82.768 76.3177 82.7809 75.8069 82.7447C71.3601 81.9986 66.9174 81.2253 62.4789 80.4247C61.6921 80.2799 60.6642 80.3216 60.4882 79.2966C60.3622 78.5602 61.1802 78.0751 62.6383 78.1897C64.7375 78.36 66.8397 78.6163 68.9257 78.9485C71.0117 79.2806 73.2245 79.7485 75.3647 80.2192C77.2791 80.6299 77.2768 80.6766 77.3253 82.7062Z" fill="#464451"/>
<path fill-rule="evenodd" clip-rule="evenodd" d="M149.222 86.7584C149.648 86.4025 150.109 86.0804 150.602 85.7954C153.513 84.4207 156.437 83.0795 159.374 81.7719C160.284 81.37 161.213 81.5367 162.203 82.1511C162.079 82.4856 161.906 82.8019 161.69 83.0927C159.13 85.6719 155.655 86.9486 151.897 87.7703C151.029 87.9666 150.162 87.5623 149.222 86.7584Z" fill="#464451"/>
<path fill-rule="evenodd" clip-rule="evenodd" d="M7.91327 88.0468L9.76372 89.9155C8.43669 91.0214 7.11408 91.9961 5.9883 93.0933C4.86252 94.1906 3.89581 95.5037 2.69501 96.8823L0.309649 95.0497C1.83874 91.8298 4.85978 90.13 7.91327 88.0468Z" fill="#464451"/>
<path fill-rule="evenodd" clip-rule="evenodd" d="M181.168 58.4512C180.39 60.164 179.635 61.8781 178.833 63.5792C178.455 64.3605 177.795 64.3324 176.951 63.8639C175.678 63.1633 175.312 62.7228 175.83 61.9955C176.924 60.5061 178.104 59.0648 179.264 57.6176C179.717 57.0565 180.387 56.879 181.055 57.3781C181.351 57.5999 181.4 58.1014 181.545 58.4646L181.168 58.4512Z" fill="#464451"/>
</g>
<defs>
<clipPath id="clip0">
<rect x="27.5195" width="170" height="100" transform="rotate(15.9739 27.5195 0)" fill="white"/>
</clipPath>
</defs>
</svg>
