<svg width="126" height="1135" viewBox="0 0 126 1135" fill="none" xmlns="http://www.w3.org/2000/svg">
<path d="M68.7613 996.891L84.112 971.435C84.7453 970.386 84.8482 969.101 84.3913 967.968C83.9358 966.834 82.9711 965.983 81.7904 965.67L54.0003 958.32C51.9285 957.773 49.8005 959.012 49.2466 961.089C48.6945 963.167 49.9246 965.295 51.998 965.842L74.7878 971.869L61.6134 993.714L-9.73823 974.843L3.43474 952.998L23.4874 958.302C25.5592 958.85 27.689 957.612 28.2411 955.534C28.795 953.457 27.563 951.328 25.4897 950.781L2.62083 944.731C0.951892 944.29 -0.810639 945.006 -1.70313 946.488L-17.0549 971.946L-42.433 956.642C-43.9109 955.751 -45.8014 955.947 -47.0718 957.12L-107.387 1012.83C-108.286 1013.66 -108.745 1014.87 -108.622 1016.09C-108.501 1017.3 -107.814 1018.39 -106.768 1019.02L-81.3919 1034.32L-96.743 1059.78C-97.376 1060.83 -97.4792 1062.11 -97.0219 1063.25C-96.5664 1064.38 -95.6018 1065.23 -94.4214 1065.54L-70.4974 1071.87L-60.9752 1110.58C-60.6361 1111.96 -59.5744 1113.04 -58.2047 1113.41L20.9644 1134.34C21.6066 1134.51 22.2693 1134.51 22.894 1134.36C23.5186 1134.2 24.1051 1133.89 24.5943 1133.44L84.9097 1077.73C85.9531 1076.76 86.391 1075.31 86.052 1073.93L76.5297 1035.22L94.7562 1018.38C95.6556 1017.55 96.114 1016.34 95.9914 1015.13C95.8703 1013.91 95.1836 1012.82 94.1376 1012.19L68.7613 996.891ZM2.05225 1049.63L-68.2223 1031.04L-14.684 981.585L55.5909 1000.17L2.05225 1049.63ZM-43.9583 964.813L-22.1835 977.945L-76.5425 1028.16L-98.3187 1015.03L-43.9583 964.813ZM-74.2414 1037.5L-2.88984 1056.37L-16.0639 1078.22L-87.417 1059.35L-74.2414 1037.5ZM77.9604 1073.58L24.1681 1123.26L14.6781 1084.68C14.1654 1082.6 12.0615 1081.33 9.9785 1081.85C7.89545 1082.37 6.6228 1084.48 7.13557 1086.56L16.6255 1125.14L-53.9817 1106.47L-61.9351 1074.14L-15.2515 1086.48C-14.6045 1086.65 -13.9422 1086.65 -13.3234 1086.5C-12.3467 1086.25 -11.4739 1085.63 -10.9275 1084.73L4.42429 1059.27L29.8024 1074.57C30.706 1075.12 31.7656 1075.26 32.7423 1075.01C33.361 1074.86 33.9479 1074.55 34.4411 1074.1L70.0069 1041.24L77.9604 1073.58ZM31.3291 1066.4L9.55063 1053.27L63.91 1003.06L85.6892 1016.19L31.3291 1066.4Z" fill="#F1F1F1" fill-opacity="0.1"/>
<path opacity="0.5" d="M4.6895 40.1481C3.3556 30.6569 8.47694 21.7268 17.0553 18.0633C18.4911 8.84646 25.8833 1.6821 35.4104 0.635278C47.2296 -0.663386 58.1901 7.85836 59.8449 19.6329C60.3465 23.202 59.932 26.7555 58.6433 30.0627L90.7576 55.0344C93.6481 52.9665 96.9897 51.6888 100.569 51.2955C112.388 49.9968 123.349 58.5186 125.003 70.2931C126.337 79.7843 121.216 88.7144 112.638 92.3779C111.202 101.595 103.81 108.759 94.2825 109.806C82.4633 111.105 71.5028 102.583 69.848 90.8083C69.3464 87.2392 69.7609 83.6857 71.0496 80.3785L38.9356 55.4105C36.0481 57.4746 32.7067 58.7523 29.1238 59.146C17.3046 60.4444 6.34434 51.9229 4.6895 40.1481ZM52.7005 20.4179C51.5971 12.5669 44.2914 6.88686 36.4107 7.75278C29.5313 8.50867 24.3238 14.0532 24.0271 20.9394C23.9625 22.4215 22.9816 23.6834 21.5609 24.1113C14.9606 26.0963 10.8706 32.5099 11.8338 39.3633C12.9372 47.2143 20.2428 52.8944 28.1235 52.0285C31.1829 51.6923 33.9871 50.3712 36.2331 48.2047C37.506 46.9779 39.5211 46.8977 40.9567 48.0138L77.7196 76.5968C79.1633 77.7192 79.5712 79.6894 78.699 81.2216C77.1529 83.9323 76.5639 86.9757 76.9922 90.0235C78.0956 97.8745 85.4013 103.555 93.282 102.689C100.161 101.933 105.369 96.3883 105.666 89.5021C105.73 88.02 106.711 86.7581 108.132 86.3302C114.732 84.3452 118.822 77.9316 117.859 71.0781C116.756 63.2272 109.45 57.5471 101.569 58.413C98.5132 58.7488 95.7097 60.0733 93.4601 62.2402C92.1867 63.4635 90.1716 63.5438 88.736 62.4276L51.973 33.8447C50.5313 32.7362 50.1154 30.7597 50.9937 29.2199C52.5397 26.5089 53.1288 23.4658 52.7005 20.4179Z" fill="#F1F1F1" fill-opacity="0.1"/>
</svg>
