<svg width="414" height="834" viewBox="0 0 414 834" fill="none" xmlns="http://www.w3.org/2000/svg">
<path d="M428.898 192.031L439.544 174.378C439.983 173.651 440.054 172.76 439.737 171.974C439.421 171.188 438.753 170.597 437.934 170.38L418.663 165.284C417.226 164.904 415.75 165.764 415.366 167.204C414.983 168.645 415.836 170.121 417.274 170.5L433.078 174.679L423.941 189.829L374.462 176.743L383.597 161.594L397.503 165.272C398.94 165.652 400.417 164.793 400.8 163.352C401.184 161.912 400.329 160.435 398.892 160.056L383.033 155.861C381.876 155.555 380.654 156.052 380.035 157.079L369.388 174.734L351.79 164.122C350.765 163.504 349.454 163.64 348.573 164.453L306.746 203.089C306.123 203.666 305.804 204.501 305.89 205.346C305.974 206.19 306.45 206.945 307.175 207.381L324.772 217.993L314.127 235.645C313.688 236.373 313.616 237.263 313.933 238.05C314.249 238.836 314.918 239.427 315.737 239.643L332.327 244.031L338.93 270.876C339.165 271.832 339.901 272.582 340.851 272.833L395.751 287.352C396.196 287.47 396.656 287.469 397.089 287.361C397.522 287.253 397.929 287.038 398.268 286.724L440.095 248.089C440.819 247.42 441.123 246.411 440.887 245.455L434.285 218.61L446.924 206.935C447.548 206.358 447.866 205.522 447.781 204.678C447.697 203.834 447.221 203.079 446.495 202.643L428.898 192.031ZM382.637 228.603L333.905 215.715L371.032 181.418L419.765 194.307L382.637 228.603ZM350.732 169.788L365.832 178.894L328.135 213.716L313.035 204.609L350.732 169.788ZM329.731 220.194L379.21 233.28L370.074 248.43L320.594 235.344L329.731 220.194ZM435.276 245.212L397.973 279.669L391.392 252.914C391.037 251.469 389.578 250.589 388.133 250.949C386.689 251.309 385.806 252.773 386.162 254.218L392.742 280.973L343.779 268.024L338.264 245.601L370.637 254.163C371.086 254.281 371.545 254.28 371.974 254.173C372.652 254.004 373.257 253.573 373.636 252.945L384.282 235.29L401.881 245.902C402.507 246.281 403.242 246.377 403.919 246.208C404.348 246.101 404.755 245.887 405.097 245.571L429.761 222.789L435.276 245.212ZM402.939 240.236L387.837 231.128L425.534 196.308L440.637 205.413L402.939 240.236Z" fill="#F1F1F1" fill-opacity="0.5"/>
<path d="M55.5028 174.517C56.2514 172.695 56.4764 170.801 56.2258 169.225C55.9755 167.651 55.262 166.436 54.1612 165.851C51.9548 164.677 48.8216 166.256 47.1865 170.08C46.4391 171.901 46.2145 173.793 46.465 175.367C46.7153 176.942 47.4288 178.157 48.5295 178.742C49.6353 179.33 50.985 179.205 52.2767 178.449C53.5665 177.693 54.7605 176.324 55.5028 174.517Z" fill="#F1F1F1" stroke="white"/>
<path d="M42.2842 174.897C43.092 173.145 43.3463 171.359 43.1426 169.874C42.939 168.391 42.2876 167.242 41.3047 166.657C40.4038 166.152 39.2554 166.26 38.0847 166.98C36.9156 167.699 35.7744 169.004 34.9638 170.761C34.156 172.513 33.9017 174.299 34.1055 175.784C34.309 177.267 34.9604 178.416 35.9433 179.001C36.8442 179.506 37.9926 179.398 39.1633 178.678C40.3325 177.959 41.4736 176.654 42.2842 174.897Z" fill="#F1F1F1" stroke="white"/>
<path d="M66.0426 178.295L66.0374 178.285L66.0327 178.275C65.4704 177.088 64.3325 176.371 62.8582 176.201C61.384 176.032 59.6239 176.421 57.9467 177.393C56.274 178.363 55.0208 179.752 54.3437 181.167C53.6646 182.586 53.5904 183.96 54.1331 184.999C54.7578 186.14 55.913 186.858 57.3711 187.044C58.8302 187.23 60.5574 186.875 62.2311 185.905C63.9039 184.935 65.157 183.546 65.8342 182.131C66.5141 180.711 66.5877 179.335 66.0426 178.295Z" fill="#F1F1F1" stroke="white"/>
<path d="M65.782 192.308C65.2263 191.249 64.1464 190.594 62.7455 190.44C61.3465 190.285 59.6773 190.641 58.0602 191.544C56.4524 192.442 55.2943 193.723 54.6638 195.047C54.0362 196.365 53.9442 197.687 54.384 198.748C54.9427 199.796 56.0178 200.442 57.4098 200.596C58.8088 200.75 60.478 200.395 62.0951 199.492C63.7096 198.59 64.9305 197.303 65.5903 195.978C66.2501 194.654 66.3281 193.349 65.782 192.308Z" fill="#F1F1F1" stroke="white"/>
<path d="M35.109 192.877C35.1764 192.906 35.2313 192.927 35.271 192.942C35.2919 192.942 35.3162 192.941 35.3436 192.94C35.4451 192.938 35.5903 192.936 35.7686 192.94C36.1247 192.947 36.6169 192.975 37.1611 193.056C38.2229 193.215 39.5911 193.595 40.4791 194.545L40.8654 194.958C41.2875 195.41 41.5892 196.016 41.8087 196.634C42.0299 197.256 42.1792 197.923 42.2807 198.528C42.3825 199.135 42.4381 199.691 42.4684 200.095C42.4835 200.297 42.4924 200.462 42.4975 200.577C42.4992 200.616 42.5005 200.649 42.5014 200.676C42.5156 200.718 42.5368 200.78 42.5652 200.858C42.6251 201.02 42.7164 201.249 42.84 201.507C43.0905 202.03 43.4586 202.643 43.9443 203.087C44.4198 203.522 44.9932 203.786 45.6978 203.672C46.4207 203.555 47.3592 203.028 48.5227 201.685C52.4767 197.122 52.9195 192.594 52.4002 189.213C52.1389 187.512 51.6316 186.091 51.1891 185.095C50.9681 184.598 50.7641 184.209 50.6167 183.946C50.543 183.815 50.4836 183.715 50.4433 183.649C50.4284 183.625 50.4162 183.605 50.4068 183.591L50.0838 183.245C50.0702 183.235 50.0521 183.222 50.0297 183.207C49.9693 183.165 49.8776 183.103 49.7569 183.026C49.5156 182.873 49.159 182.662 48.7058 182.438C47.798 181.989 46.5101 181.488 44.9877 181.279C41.9651 180.865 37.9769 181.591 34.1495 186.286L34.1406 186.297L34.1312 186.307C32.9369 187.616 32.4877 188.66 32.4054 189.455C32.3251 190.23 32.5845 190.86 33.0035 191.382C33.4306 191.915 34.0088 192.313 34.5002 192.583C34.7426 192.716 34.9567 192.814 35.109 192.877Z" fill="#F1F1F1" stroke="white"/>
<path d="M71.3048 110.852C72.6002 110.093 73.8267 108.753 74.6317 107.013C75.3765 105.194 75.6 103.305 75.3497 101.732C75.0992 100.157 74.3855 98.9427 73.2847 98.3574C71.0781 97.1842 67.9449 98.7631 66.3101 102.587C65.5629 104.408 65.3385 106.3 65.5891 107.875C65.8393 109.447 66.5513 110.661 67.6495 111.247C68.6847 111.765 70.0027 111.615 71.3048 110.852Z" fill="#F1F1F1" stroke="white"/>
<path d="M54.2223 103.096L54.2165 103.111L54.2099 103.125C53.4021 104.877 53.1477 106.663 53.3515 108.148C53.555 109.631 54.2064 110.78 55.1894 111.365C56.0902 111.87 57.2387 111.762 58.4094 111.042C59.5785 110.323 60.7197 109.018 61.5303 107.261C62.338 105.509 62.5924 103.723 62.3886 102.238C62.1857 100.76 61.5378 99.6127 60.56 99.0269C59.5173 98.509 58.2974 98.6369 57.1416 99.3474C55.9798 100.062 54.9066 101.355 54.2223 103.096Z" fill="#F1F1F1" stroke="white"/>
<path d="M85.1636 110.802L85.1584 110.792L85.1536 110.782C84.5913 109.595 83.4533 108.878 81.979 108.708C80.5047 108.539 78.7446 108.929 77.0674 109.901C75.3946 110.871 74.1415 112.26 73.4644 113.674C72.7845 115.095 72.711 116.471 73.2561 117.51C73.8118 118.57 74.9251 119.261 76.3955 119.448C77.8586 119.635 79.621 119.311 81.3611 118.407C83.0295 117.437 84.2793 116.05 84.9553 114.638C85.6352 113.218 85.7087 111.842 85.1636 110.802Z" fill="#F1F1F1" stroke="white"/>
<path d="M84.7722 124.675C84.2166 123.615 83.1367 122.961 81.7357 122.807C80.3367 122.652 78.6675 123.007 77.0504 123.911C75.4426 124.809 74.2845 126.09 73.654 127.414C73.0264 128.732 72.9345 130.054 73.3742 131.115C73.9329 132.162 75.008 132.809 76.4001 132.963C77.799 133.117 79.4682 132.762 81.0853 131.859C82.6998 130.957 83.9207 129.67 84.5806 128.345C85.2404 127.021 85.3184 125.716 84.7722 124.675Z" fill="#F1F1F1" stroke="white"/>
<path d="M54.1068 125.246C54.1742 125.275 54.2292 125.296 54.2688 125.311C54.2897 125.31 54.314 125.31 54.3415 125.309C54.443 125.307 54.5881 125.305 54.7665 125.309C55.1225 125.316 55.6147 125.344 56.1589 125.425C57.2208 125.584 58.589 125.964 59.477 126.914L59.8633 127.327C60.2854 127.779 60.5871 128.385 60.8066 129.003C61.0278 129.625 61.1771 130.292 61.2786 130.897C61.3804 131.504 61.436 132.06 61.4663 132.463C61.4814 132.666 61.4903 132.831 61.4954 132.946C61.4971 132.985 61.4983 133.018 61.4993 133.045C61.5135 133.087 61.5347 133.149 61.5631 133.226C61.623 133.389 61.7143 133.618 61.8379 133.876C62.0884 134.399 62.4565 135.012 62.9422 135.456C63.4177 135.891 63.9911 136.155 64.6958 136.041C65.4186 135.924 66.3572 135.397 67.5207 134.054C71.4747 129.491 71.9175 124.963 71.3982 121.582C71.1369 119.881 70.6296 118.46 70.187 117.464C69.9661 116.967 69.7621 116.578 69.6147 116.315C69.541 116.184 69.4816 116.084 69.4413 116.018C69.4264 115.994 69.4141 115.974 69.4048 115.959L69.0818 115.614C69.0681 115.604 69.0501 115.591 69.0277 115.576C68.9673 115.534 68.8756 115.472 68.7549 115.395C68.5135 115.242 68.157 115.031 67.7037 114.807C66.796 114.358 65.508 113.857 63.9856 113.648C60.963 113.234 56.9748 113.96 53.1473 118.655L53.1384 118.666L53.129 118.676C51.9347 119.985 51.4855 121.029 51.4032 121.824C51.3229 122.599 51.5823 123.229 52.0013 123.751C52.4285 124.284 53.0067 124.682 53.498 124.952C53.7405 125.085 53.9545 125.182 54.1068 125.246Z" fill="#F1F1F1" stroke="white"/>
<path d="M139.839 93.256C141.135 92.4969 142.361 91.1567 143.166 89.4166C143.911 87.5978 144.135 85.7087 143.885 84.136C143.635 82.5615 142.921 81.3468 141.82 80.7614C139.614 79.5879 136.481 81.1666 134.845 84.9904C134.098 86.8115 133.873 88.7035 134.124 90.2782C134.374 91.8506 135.086 93.0641 136.184 93.6504C137.219 94.1689 138.537 94.019 139.839 93.256Z" fill="#F1F1F1" stroke="white"/>
<path d="M122.759 85.5005L122.754 85.5153L122.747 85.5297C121.939 87.2812 121.685 89.0671 121.889 90.5522C122.092 92.0352 122.744 93.1847 123.726 93.7688C124.627 94.2743 125.776 94.166 126.946 93.4462C128.116 92.7275 129.257 91.4225 130.067 89.6649C130.875 87.9133 131.13 86.1274 130.926 84.6424C130.723 83.164 130.075 82.017 129.097 81.4312C128.054 80.9133 126.835 81.0412 125.679 81.7517C124.517 82.4659 123.444 83.7595 122.759 85.5005Z" fill="#F1F1F1" stroke="white"/>
<path d="M153.568 93.0705L153.563 93.0607L153.558 93.0505C152.996 91.8629 151.858 91.1463 150.383 90.9768C148.909 90.8072 147.149 91.1969 145.472 92.1692C143.799 93.1389 142.546 94.528 141.868 95.9428C141.189 97.3616 141.115 98.7357 141.658 99.7748C142.283 100.916 143.438 101.634 144.896 101.82C146.355 102.006 148.083 101.65 149.756 100.68C151.429 99.7105 152.682 98.3213 153.36 96.9065C154.039 95.486 154.113 94.1101 153.568 93.0705Z" fill="#F1F1F1" stroke="white"/>
<path d="M153.311 107.084C152.756 106.024 151.676 105.37 150.275 105.215C148.876 105.061 147.207 105.416 145.59 106.32C143.982 107.218 142.824 108.499 142.193 109.823C141.566 111.14 141.474 112.463 141.913 113.523C142.472 114.571 143.547 115.218 144.939 115.372C146.338 115.526 148.007 115.171 149.624 114.267C151.239 113.365 152.46 112.079 153.12 110.754C153.779 109.429 153.857 108.125 153.311 107.084Z" fill="#F1F1F1" stroke="white"/>
<path d="M122.386 107.655C122.454 107.684 122.509 107.705 122.548 107.72C122.569 107.719 122.594 107.719 122.621 107.718C122.723 107.716 122.868 107.714 123.046 107.718C123.402 107.725 123.894 107.753 124.438 107.834C125.5 107.993 126.868 108.373 127.756 109.323L128.143 109.736C128.565 110.188 128.867 110.794 129.086 111.411C129.307 112.034 129.457 112.701 129.558 113.306C129.66 113.913 129.715 114.469 129.746 114.872C129.761 115.075 129.77 115.24 129.775 115.355C129.776 115.392 129.778 115.424 129.779 115.45C129.794 115.494 129.816 115.557 129.846 115.635C129.909 115.801 130.006 116.034 130.136 116.298C130.4 116.832 130.788 117.458 131.297 117.912C131.796 118.357 132.398 118.627 133.135 118.506C133.888 118.382 134.858 117.836 136.052 116.459C140.006 111.896 140.449 107.368 139.93 103.987C139.668 102.285 139.161 100.864 138.718 99.8686C138.497 99.3714 138.293 98.9822 138.146 98.7193C138.072 98.5879 138.013 98.4882 137.973 98.4226C137.958 98.3983 137.946 98.3787 137.936 98.3638L137.613 98.0183C137.6 98.0085 137.582 97.9957 137.559 97.9802C137.499 97.9381 137.407 97.8761 137.286 97.7996C137.044 97.6465 136.687 97.436 136.232 97.2118C135.321 96.7627 134.025 96.2621 132.486 96.0534C129.431 95.6389 125.376 96.367 121.422 101.07L121.415 101.077L121.409 101.085C120.214 102.394 119.765 103.438 119.683 104.233C119.603 105.008 119.862 105.638 120.281 106.16C120.708 106.692 121.286 107.091 121.778 107.361C122.02 107.494 122.234 107.591 122.386 107.655Z" fill="#F1F1F1" stroke="white"/>
<path d="M149.48 23.8632C150.775 23.1041 152.002 21.7639 152.807 20.0238C153.552 18.2049 153.776 16.3159 153.526 14.7432C153.275 13.1686 152.562 11.954 151.461 11.3686C149.255 10.1951 146.122 11.7738 144.486 15.5976C143.739 17.4186 143.514 19.3107 143.765 20.8854C144.015 22.4578 144.727 23.6713 145.825 24.2576C146.86 24.7761 148.178 24.6261 149.48 23.8632Z" fill="#F1F1F1" stroke="white"/>
<path d="M132.398 16.104L132.392 16.1188L132.386 16.1332C131.578 17.8847 131.323 19.6706 131.527 21.1556C131.731 22.6386 132.382 23.7882 133.365 24.3723C134.266 24.8777 135.414 24.7694 136.585 24.0497C137.754 23.331 138.895 22.0259 139.706 20.2684C140.514 18.5168 140.768 16.7309 140.564 15.2459C140.362 13.7675 139.714 12.6205 138.736 12.0347C137.693 11.5168 136.473 11.6447 135.317 12.3552C134.156 13.0694 133.082 14.363 132.398 16.104Z" fill="#F1F1F1" stroke="white"/>
<path d="M163.211 23.6748L163.205 23.6649L163.201 23.6548C162.638 22.4671 161.5 21.7505 160.026 21.5808C158.552 21.4112 156.792 21.8008 155.114 22.773C153.442 23.7426 152.189 25.1317 151.511 26.5465C150.832 27.9653 150.758 29.3395 151.301 30.3786C151.926 31.52 153.081 32.2378 154.539 32.4238C155.998 32.61 157.725 32.2545 159.399 31.2843C161.072 30.3147 162.325 28.9256 163.002 27.5108C163.682 26.0903 163.756 24.7144 163.211 23.6748Z" fill="#F1F1F1" stroke="white"/>
<path d="M162.95 37.6869C162.395 36.6274 161.315 35.973 159.914 35.8184C158.515 35.664 156.846 36.019 155.229 36.9224C153.621 37.8207 152.463 39.1014 151.832 40.4253C151.205 41.743 151.113 43.0656 151.552 44.1262C152.111 45.1739 153.186 45.8209 154.578 45.9745C155.977 46.1289 157.646 45.7739 159.263 44.8705C160.877 43.9686 162.098 42.6821 162.758 41.3573C163.418 40.0327 163.496 38.7283 162.95 37.6869Z" fill="#F1F1F1" stroke="white"/>
<path d="M132.277 38.254C132.344 38.2823 132.399 38.3038 132.439 38.3188C132.46 38.3181 132.484 38.3174 132.511 38.3168C132.613 38.3144 132.758 38.3129 132.936 38.3165C133.292 38.3238 133.785 38.3513 134.329 38.4329C135.391 38.5921 136.759 38.9717 137.647 39.9218L138.033 40.3351C138.455 40.7867 138.757 41.3926 138.977 42.0103C139.198 42.6325 139.347 43.2998 139.449 43.9049C139.55 44.5116 139.606 45.0674 139.636 45.4711C139.651 45.6734 139.66 45.8384 139.665 45.9539C139.667 45.9923 139.668 46.0253 139.669 46.0523C139.683 46.0951 139.705 46.157 139.733 46.2341C139.793 46.3969 139.884 46.6255 140.008 46.8837C140.258 47.407 140.626 48.0194 141.112 48.4639C141.588 48.899 142.161 49.1626 142.866 49.0484C143.589 48.9313 144.527 48.4046 145.691 47.0619C149.645 42.4988 150.087 37.9709 149.568 34.59C149.307 32.8885 148.799 31.4675 148.357 30.4719C148.136 29.9747 147.932 29.5855 147.785 29.3226C147.711 29.1912 147.651 29.0915 147.611 29.0259C147.596 29.0016 147.584 28.982 147.575 28.9671L147.252 28.6216C147.238 28.6118 147.22 28.599 147.198 28.5834C147.137 28.5413 147.045 28.4792 146.925 28.4027C146.683 28.2496 146.327 28.039 145.874 27.8147C144.966 27.3654 143.678 26.8649 142.156 26.656C139.133 26.2414 135.145 26.9673 131.317 31.6625L131.308 31.6734L131.299 31.6837C130.105 32.9927 129.655 34.0364 129.573 34.8318C129.493 35.6069 129.752 36.2364 130.171 36.7587C130.598 37.2912 131.177 37.6901 131.668 37.9596C131.91 38.0926 132.124 38.1901 132.277 38.254Z" fill="#F1F1F1" stroke="white"/>
<path d="M-2.09338 770.575C17.7533 770.575 32.0809 758.813 40.7636 748.758C46.7702 757.258 50.3339 767.715 50.5 778.925C50.4963 789.518 47.3138 799.385 41.8604 807.621C33.2695 797.294 18.5812 784.624 -2.09338 784.624C-24.8402 784.624 -39.1467 797.65 -46.2971 806.887C-51.5163 798.746 -54.5 789.256 -54.5 778.907C-54.5 767.939 -51.1464 757.854 -45.3542 749.427C-37.9204 758.442 -23.9784 770.575 -2.09338 770.575Z" stroke="#F9F9F9" stroke-width="5"/>
<path d="M-2.09462 755.49C-18.2728 755.49 -29.3378 747.02 -36.1708 739.182C-26.9517 731.214 -15.1573 726.5 -2.09462 726.5C10.4055 726.5 21.8041 730.86 30.8087 738.275C23.0138 747.133 12.0427 755.49 -2.09462 755.49Z" stroke="#F9F9F9" stroke-width="5"/>
<path d="M-2.09321 831.5C-15.7341 831.5 -28.1017 826.25 -37.3988 817.692C-30.8175 809.528 -19.34 799.895 -2.09321 799.895C12.8037 799.895 24.355 809.153 32.0484 818.757C22.9548 826.612 10.9798 831.5 -2.09321 831.5Z" stroke="#F9F9F9" stroke-width="5"/>
</svg>
