<svg width="360" height="624" viewBox="0 0 360 624" fill="none" xmlns="http://www.w3.org/2000/svg">
<path opacity="0.5" d="M296.899 31.4547C295.995 24.0924 300.063 17.1047 306.728 14.1762C307.956 7.00073 313.752 1.36333 321.115 0.459086C330.248 -0.66269 338.59 5.8545 339.711 14.9879C340.051 17.7565 339.685 20.5216 338.647 23.1037L363.089 42.2014C365.346 40.567 367.94 39.5423 370.706 39.2026C379.839 38.0808 388.181 44.598 389.303 53.7315C390.207 61.0937 386.139 68.0815 379.474 71.0099C378.245 78.1854 372.449 83.8229 365.087 84.7271C355.954 85.8489 347.612 79.3317 346.49 70.1982C346.15 67.4297 346.517 64.6646 347.554 62.0825L323.113 42.9876C320.858 44.6191 318.264 45.6437 315.496 45.9838C306.362 47.1054 298.02 40.5883 296.899 31.4547ZM334.19 15.666C333.443 9.57608 327.882 5.23211 321.792 5.98008C316.476 6.63302 312.387 10.9909 312.067 16.3446C311.998 17.4969 311.225 18.4867 310.123 18.8328C305.006 20.4381 301.767 25.4606 302.42 30.7768C303.168 36.8668 308.728 41.2107 314.818 40.4628C317.182 40.1724 319.362 39.1191 321.123 37.4143C322.121 36.4489 323.676 36.3673 324.769 37.2209L352.749 59.0804C353.848 59.9388 354.136 61.4658 353.443 62.6647C352.215 64.7857 351.721 67.1561 352.011 69.5203C352.759 75.6103 358.319 79.9543 364.409 79.2063C369.725 78.5534 373.815 74.1954 374.134 68.8418C374.204 67.6895 374.977 66.6997 376.078 66.3536C381.195 64.7483 384.434 59.7257 383.782 54.4096C383.034 48.3196 377.474 43.9756 371.384 44.7236C369.022 45.0137 366.842 46.0695 365.079 47.7748C364.08 48.7375 362.525 48.8191 361.432 47.9655L333.453 26.106C332.355 25.2584 332.06 23.7266 332.758 22.5217C333.986 20.4005 334.481 18.0303 334.19 15.666Z" fill="#F1F1F1" fill-opacity="0.2"/>
<path d="M77.5367 583.684C74.0026 581.594 70.0931 581.426 68.8074 583.551C67.5217 585.676 69.2427 589.106 72.9082 591.334C76.4423 593.424 80.3518 593.592 81.6375 591.467C82.9232 589.342 81.0708 585.775 77.5367 583.684Z" fill="#F1F1F1" fill-opacity="0.2"/>
<path d="M68.6291 595.671C69.9143 593.783 73.5567 593.908 76.9557 596.09C80.3547 598.272 82.0712 601.462 80.9153 603.255C79.6301 605.143 75.9877 605.018 72.5886 602.836C69.1896 600.654 67.4731 597.464 68.6291 595.671Z" fill="#F1F1F1" fill-opacity="0.2"/>
<path d="M87.9075 586.903C85.5729 587.69 82.041 585.37 80.1894 581.808C78.3378 578.247 78.6976 574.693 81.2927 573.949C83.6273 573.162 87.1592 575.481 89.0107 579.043C90.8623 582.605 90.3713 586.021 87.9075 586.903Z" fill="#F1F1F1" fill-opacity="0.2"/>
<path d="M93.3689 583.34C91.6513 579.917 92.0158 576.598 94.3512 575.813C96.6867 575.028 99.9564 577.306 101.674 580.73C103.392 584.153 103.027 587.472 100.692 588.257C98.3545 588.809 95.0865 586.764 93.3689 583.34Z" fill="#F1F1F1" fill-opacity="0.2"/>
<path d="M84.5119 589.208L84.9052 588.918C84.9052 588.918 93.8379 584.698 102.617 593.916C107.804 599.363 101.348 600.087 101.348 600.087C101.348 600.087 97.6509 599.488 96.209 600.553L95.8158 600.843C94.2428 602.005 94.4009 605.219 94.4009 605.219C94.4009 605.219 92.3364 610.789 87.2801 605.246C78.2394 596.222 84.5119 589.208 84.5119 589.208Z" fill="#F1F1F1" fill-opacity="0.2"/>
<path d="M16.0278 558.01C12.4946 555.921 8.58621 555.754 7.30108 557.878C6.01595 560.003 7.73675 563.431 11.4013 565.658C14.9345 567.748 18.8429 567.915 20.128 565.79C21.2837 563.762 19.4315 560.195 16.0278 558.01Z" fill="#F1F1F1" fill-opacity="0.2"/>
<path d="M6.98868 569.864C8.27434 567.975 11.9181 568.1 15.3183 570.283C18.7185 572.466 20.4356 575.657 19.2792 577.451C17.9936 579.34 14.3498 579.215 10.9496 577.032C7.55133 575.082 5.83422 571.891 6.98868 569.864Z" fill="#F1F1F1" fill-opacity="0.2"/>
<path d="M26.4143 561.226C24.0794 562.012 20.5485 559.692 18.6986 556.13C16.8487 552.568 17.2101 549.014 19.8056 548.27C22.1405 547.484 25.6714 549.804 27.5213 553.366C29.2419 557.024 28.7493 560.439 26.4143 561.226Z" fill="#F1F1F1" fill-opacity="0.2"/>
<path d="M31.7264 557.765C30.0131 554.34 30.3819 551.022 32.7184 550.238C35.0548 549.454 38.3217 551.735 40.035 555.159C41.7483 558.584 41.3795 561.902 39.0431 562.686C36.7051 563.237 33.4397 561.19 31.7264 557.765Z" fill="#F1F1F1" fill-opacity="0.2"/>
<path d="M22.8674 563.635L23.2606 563.345C23.2606 563.345 32.1934 559.125 40.9719 568.342C46.1593 573.789 39.7035 574.514 39.7035 574.514C39.7035 574.514 36.0063 573.914 34.5644 574.979L34.1711 575.27C32.5982 576.432 32.7562 579.646 32.7562 579.646C32.7562 579.646 30.6917 585.216 25.6355 579.672C16.5948 570.648 22.8674 563.635 22.8674 563.635Z" fill="#F1F1F1" fill-opacity="0.2"/>
<path d="M4.75982 491.924C1.22678 489.835 -2.68159 489.667 -3.96693 491.791C-5.25227 493.915 -3.5318 497.344 0.132582 499.571C3.66562 501.661 7.57398 501.829 8.85933 499.704C10.0152 497.676 8.16339 494.109 4.75982 491.924Z" fill="#F1F1F1" fill-opacity="0.2"/>
<path d="M-4.2828 503.776C-2.99714 501.887 0.646596 502.012 4.04682 504.195C7.44704 506.378 9.16417 509.57 8.00783 511.363C6.72217 513.252 3.07844 513.128 -0.321785 510.945C-3.72011 508.995 -5.43724 505.803 -4.2828 503.776Z" fill="#F1F1F1" fill-opacity="0.2"/>
<path d="M15.0072 495.242C12.6731 496.03 9.13993 493.711 7.28641 490.149C5.43289 486.588 5.79071 483.034 8.3854 482.289C10.7196 481.501 14.2527 483.82 16.1062 487.382C17.9597 490.943 17.4706 494.359 15.0072 495.242Z" fill="#F1F1F1" fill-opacity="0.2"/>
<path d="M20.4572 491.678C18.7438 488.253 19.1125 484.935 21.4489 484.151C23.7853 483.367 27.0523 485.648 28.7657 489.072C30.4791 492.497 30.1105 495.815 27.774 496.599C25.4361 497.15 22.1706 495.103 20.4572 491.678Z" fill="#F1F1F1" fill-opacity="0.2"/>
<path d="M11.5924 497.546L11.9856 497.255C11.9856 497.255 20.9179 493.036 29.6961 502.253C35.0162 507.839 28.4297 508.661 28.4297 508.661C28.4297 508.661 24.7327 508.061 23.2909 509.126L22.8976 509.417C21.3247 510.579 21.4828 513.793 21.4828 513.793C21.4828 513.793 19.4184 519.363 14.3624 513.819C5.32012 504.559 11.5924 497.546 11.5924 497.546Z" fill="#F1F1F1" fill-opacity="0.2"/>
</svg>
