<svg width="414" height="370" viewBox="0 0 414 370" fill="none" xmlns="http://www.w3.org/2000/svg">
<path d="M444.278 275.733L463.455 264.211C464.245 263.737 464.766 262.917 464.86 262.001C464.955 261.085 464.612 260.176 463.935 259.55L448.009 244.816C446.821 243.718 444.968 243.79 443.869 244.978C442.77 246.166 442.841 248.019 444.03 249.118L457.091 261.2L440.634 271.087L399.743 233.259L416.198 223.371L427.69 234.003C428.878 235.101 430.732 235.03 431.83 233.841C432.929 232.654 432.857 230.8 431.669 229.701L418.563 217.576C417.607 216.691 416.181 216.545 415.065 217.216L395.887 228.739L384.364 209.561C383.693 208.445 382.365 207.906 381.107 208.237L321.34 223.997C320.449 224.232 319.719 224.872 319.373 225.727C319.026 226.58 319.1 227.549 319.576 228.338L331.098 247.514L311.922 259.036C311.131 259.511 310.611 260.329 310.517 261.247C310.422 262.163 310.765 263.072 311.442 263.697L325.152 276.381L317.882 305.539C317.624 306.577 317.951 307.673 318.736 308.399L364.108 350.371C364.476 350.712 364.918 350.946 365.388 351.063C365.859 351.181 366.359 351.182 366.844 351.054L426.61 335.295C427.644 335.022 428.448 334.208 428.706 333.17L435.976 304.013L454.036 299.251C454.928 299.016 455.657 298.375 456.003 297.521C456.351 296.667 456.276 295.699 455.801 294.91L444.278 275.733ZM381.3 287.246L341.026 249.988L394.077 235.999L434.352 273.257L381.3 287.246ZM380.475 214.464L390.362 230.92L336.497 245.123L326.609 228.667L380.475 214.464ZM334.745 252.16L375.636 289.989L359.179 299.877L318.287 262.048L334.745 252.16ZM423.44 330.072L370.138 344.126L377.383 315.067C377.774 313.497 376.819 311.907 375.249 311.516C373.679 311.125 372.089 312.08 371.697 313.65L364.452 342.708L323.987 305.275L330.059 280.921L356.813 305.672C357.184 306.014 357.626 306.247 358.093 306.363C358.829 306.547 359.629 306.442 360.311 306.032L379.489 294.509L391.012 313.687C391.422 314.37 392.079 314.837 392.816 315.021C393.282 315.137 393.782 315.139 394.27 315.011L429.512 305.718L423.44 330.072ZM394.902 308.784L385.014 292.326L438.879 278.124L448.768 294.58L394.902 308.784Z" fill="#F1F1F1" fill-opacity="0.05"/>
<path d="M443.592 275.562L444.021 275.305L463.197 263.783L463.197 263.782C463.853 263.39 464.284 262.71 464.362 261.95L464.362 261.949C464.441 261.19 464.157 260.436 463.596 259.917C463.596 259.917 463.596 259.916 463.596 259.916L447.669 245.183C446.685 244.273 445.148 244.332 444.236 245.317C443.324 246.303 443.384 247.84 444.369 248.75L444.37 248.751L457.431 260.833L457.92 261.285L457.349 261.628L440.892 271.516L440.57 271.709L440.295 271.454L399.403 233.626L398.914 233.173L399.485 232.83L415.941 222.942L416.262 222.749L416.538 223.004L428.03 233.636C428.03 233.636 428.03 233.636 428.03 233.636C429.015 234.547 430.552 234.487 431.463 233.502L431.463 233.502C432.375 232.517 432.315 230.979 431.329 230.069L431.329 230.068L418.224 217.943C417.43 217.209 416.248 217.088 415.323 217.644L415.323 217.644L396.145 229.168L395.716 229.425L395.459 228.997L383.936 209.819C383.379 208.893 382.278 208.446 381.234 208.721L443.592 275.562ZM443.592 275.562L443.85 275.991L455.372 295.167L455.372 295.168C455.766 295.822 455.828 296.625 455.54 297.332L455.54 297.333C455.253 298.041 454.648 298.573 453.909 298.768L435.849 303.529L435.563 303.605L435.491 303.892L428.221 333.049C428.007 333.91 427.34 334.585 426.483 334.812C426.483 334.812 426.483 334.812 426.483 334.812L366.717 350.57L366.716 350.57C366.314 350.676 365.9 350.676 365.509 350.578C365.119 350.481 364.753 350.287 364.448 350.005L364.447 350.004L319.075 308.032C319.075 308.032 319.075 308.032 319.075 308.032C318.424 307.43 318.153 306.521 318.368 305.66L325.637 276.502L325.709 276.215L325.492 276.014L311.781 263.33L311.781 263.33C311.22 262.812 310.935 262.058 311.014 261.299L311.014 261.298C311.093 260.537 311.524 259.858 312.18 259.464L331.356 247.943L331.784 247.686L331.527 247.257L320.004 228.081L320.004 228.08C319.61 227.426 319.548 226.623 319.836 225.915L319.836 225.915C320.123 225.206 320.728 224.675 321.468 224.48C321.468 224.48 321.468 224.48 321.468 224.48L381.234 208.721L443.592 275.562ZM444.536 276.162L444.278 275.733L444.707 275.476L463.455 264.211C464.245 263.737 464.766 262.917 464.86 262.001C464.955 261.085 464.612 260.176 463.935 259.55L444.536 276.162ZM444.536 276.162L455.801 294.91L444.536 276.162ZM380.961 287.613L381.162 287.799L381.428 287.729L434.479 273.741L435.359 273.509L434.691 272.89L394.417 235.632L394.215 235.445L393.95 235.515L340.898 249.505L340.018 249.737L340.686 250.355L380.961 287.613ZM380.904 214.207L380.711 213.885L380.348 213.981L326.482 228.184L325.838 228.353L326.181 228.925L336.069 245.38L336.262 245.702L336.625 245.606L390.489 231.403L391.133 231.233L390.79 230.662L380.904 214.207ZM335.084 251.793L334.809 251.538L334.487 251.732L318.029 261.62L317.458 261.963L317.947 262.415L358.84 300.244L359.115 300.499L359.437 300.306L375.894 290.417L376.465 290.074L375.976 289.622L335.084 251.793ZM423.854 330.48L423.925 330.192L429.997 305.839L430.202 305.019L429.385 305.234L394.143 314.527C393.737 314.634 393.323 314.632 392.936 314.536C392.325 314.383 391.781 313.996 391.441 313.429L391.441 313.429L379.918 294.251L379.66 293.823L379.232 294.08L360.054 305.603C359.488 305.943 358.825 306.031 358.214 305.878C357.828 305.782 357.461 305.589 357.153 305.304L330.399 280.554L329.778 279.981L329.574 280.8L323.502 305.154L323.43 305.441L323.647 305.642L364.113 343.075L364.733 343.649L364.937 342.829L372.182 313.771C372.507 312.469 373.826 311.676 375.128 312.001C376.43 312.326 377.222 313.644 376.898 314.946L369.652 344.005L369.448 344.825L370.265 344.609L423.568 330.555L423.854 330.48ZM394.474 309.042L394.667 309.363L395.03 309.268L448.896 295.063L449.54 294.894L449.197 294.322L439.307 277.866L439.114 277.544L438.751 277.64L384.887 291.842L384.243 292.012L384.586 292.583L394.474 309.042Z" stroke="#F1F1F1" stroke-opacity="0.05" stroke-width="0.999999"/>
<g opacity="0.1">
<path d="M45.4465 28.2681C34.2411 42.2749 14.6316 60.1017 -13.1273 60.1017C-44.4516 60.1017 -63.2971 41.0015 -72.2105 29.0321C-82.1426 41.7655 -88 57.555 -88 74.8725C-88 91.426 -82.652 106.451 -73.4839 118.93C-65.3345 106.961 -45.9796 86.0779 -13.1273 86.0779C15.9049 86.0779 36.0238 105.433 46.9745 119.694C56.3973 107.215 62 91.6806 62 74.8725C61.7453 57.3003 55.6333 41.0015 45.4465 28.2681Z" fill="#F1F1F1"/>
<path d="M-13.1273 61.1017C14.4385 61.1017 34.0353 43.8087 45.4353 29.8719C55.0208 42.283 60.7535 57.9817 61 74.8797C60.9984 90.9905 55.78 105.914 46.9559 118.04C35.7689 103.808 15.6677 85.0779 -13.1273 85.0779C-45.406 85.0779 -64.8258 104.958 -73.4989 117.199C-82.0445 105.113 -87 90.7022 -87 74.8725C-87 58.2535 -81.534 43.0639 -72.2159 30.6831C-62.9123 42.8044 -44.0007 61.1017 -13.1273 61.1017Z" stroke="#F1F1F1" stroke-opacity="0.05" stroke-width="2"/>
<path d="M-64.3164 20.3735C-54.8937 32.0883 -38.3402 46.3497 -13.128 46.3497C9.02824 46.3497 25.5817 32.3429 36.5325 19.1002C23.2897 7.13073 5.97221 0 -13.128 0C-32.9921 0 -50.819 7.64007 -64.3164 20.3735Z" fill="#F1F1F1"/>
<path d="M-13.128 45.3497C-37.4059 45.3497 -53.5374 31.9105 -62.9507 20.4677C-49.7151 8.28243 -32.395 1 -13.128 1C5.37345 1 22.1748 7.77961 35.1451 19.2024C24.2655 32.1343 8.17295 45.3497 -13.128 45.3497Z" stroke="#F1F1F1" stroke-opacity="0.05" stroke-width="2"/>
<path d="M-13.1273 100.085C-39.8675 100.085 -56.9303 116.129 -65.8438 128.099C-52.3463 141.596 -33.7555 150 -13.1273 150C6.7369 150 24.8184 142.105 38.0612 129.627C27.3651 115.365 10.0476 100.085 -13.1273 100.085Z" fill="#F1F1F1"/>
<path d="M-13.1273 149C-33.1645 149 -51.2532 140.964 -64.5191 128.002C-55.5657 116.245 -38.9097 101.085 -13.1273 101.085C9.19803 101.085 26.0622 115.563 36.7187 129.51C23.7135 141.469 6.1421 149 -13.1273 149Z" stroke="#F1F1F1" stroke-opacity="0.05" stroke-width="2"/>
</g>
</svg>
