<svg width="1920" height="5609" viewBox="0 0 1920 5609" fill="none" xmlns="http://www.w3.org/2000/svg">
<path d="M577.906 5474.31C575.644 5471.01 575.562 5466.98 577.995 5465.26C580.427 5463.54 584.25 5464.71 586.664 5468.11C588.926 5471.41 589.009 5475.44 586.576 5477.16C584.143 5478.89 580.168 5477.61 577.906 5474.31Z" fill="#F1F1F1"/>
<path d="M591.519 5463.73C589.35 5465.41 589.392 5469.18 591.765 5472.32C594.139 5475.47 597.698 5476.67 599.756 5475.15C601.925 5473.46 601.883 5469.69 599.509 5466.55C597.136 5463.41 593.577 5462.2 591.519 5463.73Z" fill="#F1F1F1"/>
<path d="M581.933 5483.81C582.886 5481.24 580.36 5477.98 576.385 5476.7C572.41 5475.42 568.385 5476.44 567.474 5479.28C566.522 5481.85 569.047 5485.11 573.022 5486.39C576.997 5487.67 580.87 5486.54 581.933 5483.81Z" fill="#F1F1F1"/>
<path d="M578.568 5489.99C574.746 5488.82 570.984 5489.8 570.032 5492.38C569.08 5494.95 571.565 5497.94 575.388 5499.11C579.211 5500.28 582.972 5499.3 583.924 5496.72C584.613 5494.19 582.391 5491.16 578.568 5489.99Z" fill="#F1F1F1"/>
<path d="M584.995 5480.91L584.661 5481.37C584.661 5481.37 579.717 5491.3 589.757 5498.66C595.689 5503.02 596.671 5496.26 596.671 5496.26C596.671 5496.26 596.101 5492.57 597.328 5490.89L597.662 5490.44C599 5488.61 602.579 5488.2 602.579 5488.2C602.579 5488.2 608.844 5485.08 602.799 5480.88C592.982 5473.21 584.995 5480.91 584.995 5480.91Z" fill="#F1F1F1"/>
<path d="M546.95 5414.44C544.688 5411.14 544.606 5407.11 547.038 5405.39C549.471 5403.66 553.294 5404.83 555.708 5408.24C557.97 5411.54 558.053 5415.57 555.62 5417.29C553.299 5418.86 549.324 5417.58 546.95 5414.44Z" fill="#F1F1F1"/>
<path d="M560.408 5403.74C558.238 5405.42 558.28 5409.19 560.654 5412.34C563.027 5415.48 566.587 5416.69 568.644 5415.16C570.813 5413.48 570.772 5409.71 568.398 5406.57C566.288 5403.38 562.729 5402.17 560.408 5403.74Z" fill="#F1F1F1"/>
<path d="M550.978 5423.94C551.93 5421.36 549.405 5418.11 545.43 5416.83C541.455 5415.55 537.43 5416.57 536.519 5419.41C535.566 5421.98 538.092 5425.24 542.067 5426.52C546.153 5427.64 550.026 5426.51 550.978 5423.94Z" fill="#F1F1F1"/>
<path d="M547.723 5429.97C543.9 5428.8 540.139 5429.78 539.187 5432.35C538.234 5434.93 540.719 5437.92 544.542 5439.09C548.365 5440.26 552.126 5439.27 553.078 5436.7C553.767 5434.17 551.546 5431.13 547.723 5429.97Z" fill="#F1F1F1"/>
<path d="M554.15 5420.89L553.815 5421.34C553.815 5421.34 548.871 5431.28 558.911 5438.64C564.844 5442.99 565.825 5436.23 565.825 5436.23C565.825 5436.23 565.256 5432.54 566.482 5430.87L566.816 5430.41C568.154 5428.59 571.733 5428.18 571.733 5428.18C571.733 5428.18 577.998 5425.06 571.954 5420.86C562.137 5413.19 554.15 5420.89 554.15 5420.89Z" fill="#F1F1F1"/>
<path d="M472.63 5410.18C470.368 5406.88 470.285 5402.85 472.718 5401.13C475.151 5399.4 478.974 5400.57 481.388 5403.98C483.65 5407.27 483.732 5411.31 481.3 5413.03C478.978 5414.6 475.004 5413.32 472.63 5410.18Z" fill="#F1F1F1"/>
<path d="M486.087 5399.48C483.918 5401.16 483.96 5404.93 486.334 5408.08C488.707 5411.22 492.266 5412.43 494.324 5410.9C496.493 5409.22 496.451 5405.45 494.078 5402.3C491.968 5399.12 488.409 5397.91 486.087 5399.48Z" fill="#F1F1F1"/>
<path d="M476.767 5419.53C477.72 5416.95 475.194 5413.7 471.219 5412.42C467.244 5411.14 463.219 5412.16 462.308 5415C461.355 5417.57 463.881 5420.82 467.856 5422.1C471.831 5423.38 475.704 5422.25 476.767 5419.53Z" fill="#F1F1F1"/>
<path d="M473.402 5425.71C469.58 5424.54 465.818 5425.52 464.866 5428.09C463.914 5430.67 466.399 5433.66 470.222 5434.83C474.045 5435.99 477.806 5435.01 478.758 5432.44C479.447 5429.91 477.225 5426.87 473.402 5425.71Z" fill="#F1F1F1"/>
<path d="M479.829 5416.63L479.495 5417.08C479.495 5417.08 474.551 5427.01 484.591 5434.38C490.675 5438.84 491.768 5431.93 491.768 5431.93C491.768 5431.93 491.199 5428.24 492.425 5426.57L492.76 5426.11C494.097 5424.29 497.676 5423.88 497.676 5423.88C497.676 5423.88 503.941 5420.76 497.897 5416.56C487.816 5408.93 479.829 5416.63 479.829 5416.63Z" fill="#F1F1F1"/>
<path d="M451.263 5346.81C449.001 5343.52 448.918 5339.49 451.351 5337.76C453.784 5336.04 457.606 5337.21 460.021 5340.62C462.283 5343.91 462.365 5347.95 459.933 5349.67C457.611 5351.24 453.636 5349.96 451.263 5346.81Z" fill="#F1F1F1"/>
<path d="M464.716 5336.12C462.547 5337.8 462.589 5341.57 464.962 5344.72C467.336 5347.86 470.895 5349.07 472.953 5347.54C475.122 5345.86 475.08 5342.09 472.707 5338.94C470.597 5335.76 467.037 5334.55 464.716 5336.12Z" fill="#F1F1F1"/>
<path d="M455.396 5356.16C456.348 5353.59 453.823 5350.33 449.848 5349.05C445.873 5347.77 441.848 5348.8 440.937 5351.63C439.984 5354.21 442.51 5357.46 446.485 5358.74C450.46 5360.02 454.333 5358.89 455.396 5356.16Z" fill="#F1F1F1"/>
<path d="M452.031 5362.34C448.209 5361.18 444.447 5362.16 443.495 5364.73C442.543 5367.3 445.028 5370.3 448.851 5371.46C452.674 5372.63 456.435 5371.65 457.387 5369.08C458.076 5366.54 455.854 5363.51 452.031 5362.34Z" fill="#F1F1F1"/>
<path d="M458.458 5353.27L458.124 5353.72C458.124 5353.72 453.179 5363.65 463.219 5371.02C469.152 5375.37 470.133 5368.61 470.133 5368.61C470.133 5368.61 469.564 5364.92 470.791 5363.25L471.125 5362.79C472.463 5360.97 476.042 5360.55 476.042 5360.55C476.042 5360.55 482.306 5357.44 476.262 5353.24C466.445 5345.57 458.458 5353.27 458.458 5353.27Z" fill="#F1F1F1"/>
<path d="M1849.65 43.2273C1841.51 34.8082 1829.91 32.9662 1823.63 39.0504C1817.6 45.0042 1819.33 56.6822 1827.35 64.8454C1835.5 73.2646 1847.09 75.1065 1853.37 69.0223C1859.53 63.3245 1857.8 51.6465 1849.65 43.2273Z" fill="#F9F9F9"/>
<path d="M1813.11 76.8965C1818.75 71.4594 1829.45 73.4364 1837.34 81.3436C1845.22 89.2508 1847.2 100.156 1841.56 105.593C1835.92 111.03 1825.23 109.053 1817.34 101.146C1809.45 93.239 1807.47 82.3336 1813.11 76.8965Z" fill="#F9F9F9"/>
<path d="M1874.83 59.1003C1866.85 60.572 1858.96 52.0225 1857.11 40.0885C1855.25 28.1544 1860.48 17.4531 1868.46 15.9814C1876.57 14.7657 1884.46 23.3152 1886.18 34.9933C1887.78 47.0576 1882.94 57.8846 1874.83 59.1003Z" fill="#F9F9F9"/>
<path d="M1893.86 52.666C1892.26 41.244 1897.11 31.0593 1904.83 29.718C1912.55 28.3767 1919.92 36.5446 1921.39 47.7106C1922.98 59.1327 1918.13 69.3173 1910.42 70.6587C1902.7 72 1895.32 63.8321 1893.86 52.666Z" fill="#F9F9F9"/>
<path d="M1864.96 67.0112L1866.5 66.2291C1866.5 66.2291 1897.1 56.4978 1913.33 89.1383C1922.95 108.081 1903.12 107.841 1903.12 107.841C1903.12 107.841 1893.06 104.575 1887.41 107.443L1885.74 107.969C1880.09 110.837 1876.78 120.882 1876.78 120.882C1876.78 120.882 1865.14 137.411 1855.66 118.082C1839.03 85.9579 1864.96 67.0112 1864.96 67.0112Z" fill="#F9F9F9"/>
<path d="M2036.89 4092.54C2014.48 4120.55 1975.26 4156.2 1919.75 4156.2C1857.1 4156.2 1819.41 4118 1801.58 4094.07C1781.71 4119.53 1770 4151.11 1770 4185.75C1770 4218.85 1780.7 4248.9 1799.03 4273.86C1815.33 4249.92 1854.04 4208.16 1919.75 4208.16C1977.81 4208.16 2018.05 4246.87 2039.95 4275.39C2058.79 4250.43 2070 4219.36 2070 4185.75C2069.49 4150.6 2057.27 4118 2036.89 4092.54Z" fill="#F9F9F9"/>
<path d="M1817.37 4076.75C1836.21 4100.18 1869.32 4128.7 1919.74 4128.7C1964.06 4128.7 1997.16 4100.69 2019.06 4074.2C1992.58 4050.26 1957.94 4036 1919.74 4036C1880.02 4036 1844.36 4051.28 1817.37 4076.75Z" fill="#F9F9F9"/>
<path d="M1919.75 4236.17C1866.26 4236.17 1832.14 4268.26 1814.31 4292.2C1841.31 4319.19 1878.49 4336 1919.75 4336C1959.47 4336 1995.64 4320.21 2022.12 4295.25C2000.73 4266.73 1966.1 4236.17 1919.75 4236.17Z" fill="#F9F9F9"/>
<path opacity="0.5" d="M1506.11 551.913C1503.95 535.385 1512.96 519.611 1527.89 512.913C1530.52 496.767 1543.45 483.996 1559.97 481.834C1580.48 479.152 1599.34 493.65 1602.02 514.154C1602.83 520.369 1602.06 526.589 1599.77 532.41L1655.04 574.892C1660.08 571.18 1665.89 568.831 1672.1 568.019C1692.6 565.337 1711.46 579.835 1714.15 600.339C1716.31 616.866 1707.29 632.641 1692.37 639.339C1689.73 655.485 1676.81 668.255 1660.28 670.417C1639.78 673.099 1620.92 658.602 1618.23 638.098C1617.42 631.882 1618.2 625.662 1620.48 619.842L1565.22 577.365C1560.18 581.071 1554.37 583.42 1548.16 584.233C1527.65 586.914 1508.79 572.417 1506.11 551.913ZM1589.63 515.775C1587.84 502.103 1575.27 492.44 1561.6 494.229C1549.66 495.79 1540.55 505.655 1539.93 517.691C1539.79 520.281 1538.07 522.519 1535.6 523.316C1524.13 527.014 1516.94 538.358 1518.5 550.292C1520.29 563.964 1532.86 573.627 1546.53 571.838C1551.84 571.144 1556.72 568.739 1560.65 564.877C1562.87 562.69 1566.37 562.479 1568.84 564.378L1632.1 613.004C1634.59 614.914 1635.26 618.34 1633.73 621.046C1631 625.834 1629.93 631.169 1630.63 636.477C1632.42 650.148 1644.99 659.812 1658.66 658.023C1670.59 656.462 1679.71 646.597 1680.33 634.561C1680.47 631.971 1682.19 629.733 1684.65 628.936C1696.12 625.238 1703.31 613.894 1701.75 601.96C1699.96 588.288 1687.39 578.625 1673.72 580.414C1668.42 581.107 1663.54 583.518 1659.61 587.381C1657.38 589.562 1653.89 589.773 1651.42 587.874L1588.15 539.248C1585.67 537.363 1584.98 533.926 1586.53 531.206C1589.25 526.417 1590.32 521.083 1589.63 515.775Z" fill="#F1F1F1"/>
<path d="M1730.82 5246.4C1725 5230.78 1730.25 5213.39 1743.28 5203.51C1742.22 5187.18 1751.95 5171.83 1767.57 5166.01C1786.94 5158.79 1808.58 5168.68 1815.8 5188.06C1817.99 5193.93 1818.63 5200.17 1817.71 5206.35L1881.11 5235.33C1885.19 5230.58 1890.32 5226.99 1896.19 5224.8C1915.57 5217.58 1937.2 5227.47 1944.42 5246.84C1950.24 5262.46 1945 5279.86 1931.97 5289.74C1933.03 5306.07 1923.3 5321.41 1907.68 5327.23C1888.31 5334.46 1866.67 5324.57 1859.45 5305.19C1857.26 5299.32 1856.62 5293.08 1857.54 5286.9L1794.14 5257.92C1790.07 5262.67 1784.93 5266.26 1779.06 5268.45C1759.68 5275.67 1738.05 5265.78 1730.82 5246.4ZM1804.09 5192.42C1799.27 5179.5 1784.85 5172.91 1771.93 5177.73C1760.65 5181.93 1753.99 5193.59 1756.09 5205.46C1756.54 5208.01 1755.36 5210.58 1753.14 5211.91C1742.79 5218.09 1738.33 5230.76 1742.54 5242.04C1747.35 5254.96 1761.77 5261.55 1774.69 5256.74C1779.71 5254.87 1783.92 5251.43 1786.88 5246.78C1788.56 5244.15 1791.92 5243.16 1794.75 5244.45L1867.32 5277.62C1870.17 5278.92 1871.6 5282.11 1870.71 5285.09C1869.14 5290.37 1869.29 5295.81 1871.16 5300.83C1875.98 5313.75 1890.4 5320.34 1903.32 5315.52C1914.6 5311.32 1921.26 5299.66 1919.16 5287.79C1918.71 5285.24 1919.88 5282.67 1922.11 5281.34C1932.46 5275.16 1936.91 5262.49 1932.71 5251.21C1927.9 5238.29 1913.47 5231.7 1900.55 5236.51C1895.54 5238.38 1891.33 5241.83 1888.37 5246.47C1886.69 5249.1 1883.33 5250.09 1880.5 5248.79L1807.93 5215.63C1805.08 5214.35 1803.64 5211.15 1804.54 5208.16C1806.11 5202.88 1805.96 5197.44 1804.09 5192.42Z" fill="#F9F9F9"/>
<path opacity="0.5" d="M117.069 4838.65C108.783 4824.19 111.122 4806.17 122.377 4794.3C118.672 4778.36 125.768 4761.64 140.231 4753.35C158.174 4743.07 181.132 4749.31 191.411 4767.25C194.527 4772.69 196.176 4778.73 196.276 4784.99L263.544 4803.26C266.795 4797.91 271.277 4793.52 276.71 4790.41C294.653 4780.13 317.611 4786.37 327.89 4804.31C336.176 4818.77 333.837 4836.79 322.582 4848.66C326.287 4864.6 319.191 4881.32 304.728 4889.61C286.785 4899.89 263.827 4893.65 253.548 4875.71C250.432 4870.27 248.783 4864.22 248.683 4857.97L181.418 4839.71C178.169 4845.05 173.688 4849.43 168.249 4852.55C150.306 4862.83 127.348 4856.59 117.069 4838.65ZM180.565 4773.46C173.711 4761.5 158.409 4757.34 146.445 4764.2C136.001 4770.18 131.326 4782.77 135.327 4794.14C136.188 4796.59 135.448 4799.31 133.468 4800.99C124.266 4808.77 121.932 4821.99 127.915 4832.44C134.769 4844.4 150.071 4848.56 162.035 4841.7C166.679 4839.04 170.278 4834.96 172.441 4829.9C173.667 4827.03 176.818 4825.5 179.825 4826.32L256.828 4847.23C259.852 4848.05 261.78 4850.96 261.389 4854.05C260.692 4859.51 261.733 4864.85 264.394 4869.5C271.248 4881.46 286.55 4885.62 298.514 4878.76C308.958 4872.78 313.633 4860.19 309.631 4848.82C308.771 4846.37 309.511 4843.65 311.491 4841.97C320.693 4834.19 323.027 4820.97 317.044 4810.52C310.19 4798.56 294.888 4794.4 282.924 4801.26C278.285 4803.91 274.689 4808 272.521 4813.07C271.291 4815.93 268.141 4817.46 265.134 4816.64L188.131 4795.73C185.119 4794.93 183.174 4792.01 183.57 4788.91C184.266 4783.45 183.226 4778.11 180.565 4773.46Z" fill="#F1F1F1"/>
<path d="M1615.99 4732.91L1645.41 4727.98C1646.62 4727.78 1647.66 4727.01 1648.23 4725.92C1648.79 4724.83 1648.81 4723.54 1648.28 4722.43L1635.71 4696.37C1634.78 4694.43 1632.44 4693.62 1630.5 4694.55C1628.56 4695.49 1627.74 4697.82 1628.68 4699.77L1638.98 4721.14L1613.74 4725.37L1581.48 4658.46L1606.72 4654.23L1615.79 4673.04C1616.72 4674.98 1619.06 4675.8 1621 4674.86C1622.95 4673.92 1623.76 4671.58 1622.82 4669.64L1612.48 4648.2C1611.73 4646.63 1610.03 4645.75 1608.32 4646.04L1578.9 4650.97L1573.97 4621.55C1573.68 4619.84 1572.3 4618.52 1570.57 4618.32L1488.73 4608.68C1487.51 4608.54 1486.29 4608.98 1485.44 4609.87C1484.59 4610.76 1484.21 4612 1484.42 4613.21L1489.35 4642.63L1459.93 4647.56C1458.72 4647.76 1457.67 4648.52 1457.11 4649.61C1456.54 4650.71 1456.52 4652 1457.06 4653.11L1467.87 4675.54L1444.62 4708.16C1443.79 4709.33 1443.66 4710.84 1444.28 4712.13L1480.07 4786.36C1480.36 4786.96 1480.8 4787.47 1481.32 4787.85C1481.85 4788.22 1482.47 4788.47 1483.13 4788.54L1564.98 4798.18C1566.4 4798.35 1567.79 4797.73 1568.62 4796.57L1591.88 4763.94L1616.61 4766.85C1617.83 4767 1619.05 4766.56 1619.89 4765.67C1620.74 4764.78 1621.12 4763.54 1620.92 4762.33L1615.99 4732.91ZM1532.23 4716.44L1500.46 4650.55L1573.11 4659.1L1604.88 4724.99L1532.23 4716.44ZM1566.75 4625.74L1570.98 4650.98L1497.21 4642.3L1492.98 4617.05L1566.75 4625.74ZM1491.6 4650.17L1523.86 4717.08L1498.62 4721.31L1466.36 4654.4L1491.6 4650.17ZM1563.6 4790.15L1490.6 4781.56L1513.78 4749.04C1515.04 4747.29 1514.63 4744.85 1512.87 4743.59C1511.11 4742.34 1508.67 4742.75 1507.42 4744.51L1484.24 4777.02L1452.32 4710.82L1471.74 4683.57L1492.85 4727.34C1493.14 4727.95 1493.58 4728.45 1494.1 4728.82C1494.92 4729.41 1495.97 4729.67 1497.02 4729.5L1526.44 4724.56L1531.37 4753.99C1531.54 4755.03 1532.13 4755.93 1532.95 4756.52C1533.47 4756.89 1534.09 4757.14 1534.76 4757.22L1583.02 4762.9L1563.6 4790.15ZM1538.59 4749.8L1534.36 4724.55L1608.12 4733.24L1612.35 4758.49L1538.59 4749.8Z" fill="#F1F1F1"/>
<path d="M95.1952 527.721L119.646 490.25C120.655 488.707 120.876 486.778 120.246 485.046C119.617 483.314 118.207 481.978 116.443 481.442L74.9234 468.83C71.828 467.89 68.5562 469.638 67.6144 472.734C66.6752 475.831 68.4205 479.104 71.5181 480.043L105.567 490.385L84.5821 522.541L-22.0192 490.158L-1.03674 458.003L28.9224 467.105C32.0179 468.045 35.2924 466.299 36.2315 463.201C37.1733 460.105 35.4254 456.831 32.3278 455.892L-1.83895 445.511C-4.3324 444.754 -7.02644 445.734 -8.44815 447.916L-32.9012 485.39L-70.3753 460.937C-72.5575 459.513 -75.4177 459.703 -77.3933 461.398L-171.189 541.921C-172.587 543.122 -173.341 544.911 -173.218 546.751C-173.098 548.59 -172.119 550.267 -170.574 551.273L-133.103 575.724L-157.555 613.193C-158.563 614.738 -158.784 616.665 -158.153 618.399C-157.525 620.131 -156.114 621.467 -154.351 622.001L-118.608 632.86L-106.241 691.673C-105.801 693.767 -104.256 695.454 -102.209 696.076L16.0716 732.004C17.0311 732.296 18.0302 732.332 18.9799 732.132C19.9296 731.932 20.8299 731.497 21.5906 730.844L115.387 650.323C117.009 648.93 117.744 646.764 117.304 644.67L104.937 585.856L133.281 561.525C134.68 560.323 135.433 558.532 135.311 556.694C135.191 554.855 134.211 553.178 132.667 552.172L95.1952 527.721ZM-8.08693 603.404L-113.079 571.512L-29.8221 500.034L75.1706 531.929L-8.08693 603.404ZM-73.0946 473.154L-40.9414 494.137L-125.475 566.708L-157.63 545.726L-73.0946 473.154ZM-122.486 580.901L-15.8844 613.284L-36.8686 645.442L-143.472 613.06L-122.486 580.901ZM105.123 643.69L21.4709 715.503L9.14642 656.889C8.48049 653.722 5.37392 651.694 2.20678 652.36C-0.960354 653.026 -2.98749 656.133 -2.32156 659.3L10.0029 717.914L-95.4863 685.871L-105.815 636.747L-36.0686 657.934C-35.102 658.226 -34.1033 658.26 -33.1626 658.062C-31.6776 657.75 -30.3297 656.863 -29.4594 655.529L-5.0064 618.055L32.4677 642.508C33.8019 643.381 35.3922 643.647 36.8772 643.335C37.818 643.137 38.7187 642.705 39.4857 642.047L94.7938 594.566L105.123 643.69ZM35.1893 630.291L3.03063 609.304L87.5643 536.735L119.724 557.717L35.1893 630.291Z" fill="#F1F1F1"/>
<g clip-path="url(#clip0)">
<path d="M317.421 4105.98L342.989 4090.61C344.043 4089.98 344.737 4088.89 344.862 4087.67C344.989 4086.45 344.532 4085.23 343.63 4084.4L322.394 4064.75C320.811 4063.29 318.34 4063.39 316.874 4064.97C315.41 4066.55 315.505 4069.02 317.09 4070.49L334.504 4086.6L312.562 4099.78L258.039 4049.34L279.981 4036.16L295.303 4050.34C296.886 4051.8 299.359 4051.71 300.823 4050.12C302.289 4048.54 302.193 4046.07 300.608 4044.6L283.134 4028.43C281.858 4027.25 279.957 4027.06 278.47 4027.95L252.899 4043.32L237.535 4017.75C236.641 4016.26 234.87 4015.54 233.192 4015.98L153.503 4036.99C152.314 4037.31 151.342 4038.16 150.88 4039.3C150.417 4040.44 150.517 4041.73 151.151 4042.78L166.514 4068.35L140.946 4083.71C139.891 4084.35 139.198 4085.44 139.072 4086.66C138.945 4087.88 139.403 4089.1 140.305 4089.93L158.586 4106.84L148.893 4145.72C148.548 4147.1 148.984 4148.56 150.03 4149.53L210.527 4205.49C211.017 4205.95 211.606 4206.26 212.234 4206.42C212.862 4206.57 213.528 4206.57 214.175 4206.4L293.863 4185.39C295.242 4185.03 296.313 4183.94 296.658 4182.56L306.351 4143.68L330.431 4137.33C331.62 4137.02 332.593 4136.17 333.054 4135.03C333.517 4133.89 333.418 4132.6 332.784 4131.55L317.421 4105.98ZM233.45 4121.33L179.75 4071.65L250.486 4053L304.185 4102.68L233.45 4121.33ZM232.35 4024.28L245.532 4046.23L173.712 4065.16L160.529 4043.22L232.35 4024.28ZM171.376 4074.55L225.898 4124.98L203.955 4138.17L149.432 4087.73L171.376 4074.55ZM289.636 4178.43L218.566 4197.17L228.226 4158.42C228.748 4156.33 227.475 4154.21 225.381 4153.69C223.288 4153.17 221.168 4154.44 220.646 4156.53L210.986 4195.28L157.032 4145.37L165.128 4112.89L200.801 4145.89C201.295 4146.35 201.885 4146.66 202.507 4146.82C203.488 4147.06 204.555 4146.92 205.465 4146.38L231.035 4131.01L246.399 4156.58C246.946 4157.49 247.822 4158.12 248.804 4158.36C249.425 4158.52 250.092 4158.52 250.743 4158.35L297.732 4145.96L289.636 4178.43ZM251.586 4150.04L238.402 4128.1L310.221 4109.16L323.407 4131.11L251.586 4150.04Z" fill="#F1F1F1" fill-opacity="0.5"/>
<path d="M316.735 4105.81L317.163 4105.55L342.731 4090.19L342.732 4090.19C343.65 4089.63 344.256 4088.68 344.365 4087.62L344.365 4087.62C344.476 4086.55 344.077 4085.49 343.29 4084.77C343.29 4084.77 343.29 4084.77 343.29 4084.77L322.055 4065.12C320.674 4063.84 318.519 4063.93 317.241 4065.31C315.964 4066.69 316.047 4068.85 317.429 4070.12L317.429 4070.12L334.844 4086.23L335.333 4086.68L334.762 4087.03L312.819 4100.21L312.497 4100.4L312.222 4100.15L257.7 4049.71L257.211 4049.26L257.782 4048.92L279.723 4035.73L280.045 4035.54L280.32 4035.79L295.643 4049.97C297.024 4051.25 299.179 4051.16 300.456 4049.78L300.456 4049.78C301.734 4048.4 301.65 4046.25 300.269 4044.97L300.268 4044.97L282.794 4028.8M316.735 4105.81L282.794 4028.8M316.735 4105.81L316.992 4106.23M316.735 4105.81L316.992 4106.23M282.794 4028.8C281.682 4027.77 280.024 4027.6 278.727 4028.38L278.727 4028.38L253.157 4043.75L252.728 4044L252.471 4043.58L237.107 4018.01C236.327 4016.71 234.782 4016.08 233.319 4016.47M282.794 4028.8L233.319 4016.47M233.319 4016.47C233.319 4016.47 233.319 4016.47 233.319 4016.47M233.319 4016.47L233.319 4016.47M233.319 4016.47L153.631 4037.48C152.594 4037.75 151.746 4038.5 151.344 4039.49L151.343 4039.49C150.94 4040.48 151.027 4041.61 151.579 4042.53L151.579 4042.53L166.942 4068.09L167.2 4068.52L166.771 4068.78L141.203 4084.14C140.284 4084.69 139.679 4085.65 139.569 4086.71L139.569 4086.71C139.459 4087.78 139.857 4088.83 140.644 4089.56L140.644 4089.56L158.925 4106.47L159.142 4106.67L159.071 4106.96L149.378 4145.84C149.077 4147.05 149.457 4148.32 150.37 4149.16C150.37 4149.16 150.37 4149.16 150.37 4149.16L210.866 4205.13L210.866 4205.13C211.294 4205.52 211.807 4205.8 212.355 4205.93C212.903 4206.07 213.484 4206.07 214.047 4205.92L214.047 4205.92L293.735 4184.91C293.736 4184.91 293.736 4184.91 293.736 4184.91M233.319 4016.47L293.736 4184.91M316.992 4106.23L332.355 4131.8L332.355 4131.8C332.908 4132.72 332.995 4133.85 332.591 4134.84L332.591 4134.84C332.189 4135.83 331.34 4136.58 330.304 4136.85M316.992 4106.23L317.849 4105.72M317.849 4105.72L342.989 4090.61C344.043 4089.98 344.737 4088.89 344.862 4087.67L317.849 4105.72ZM317.849 4105.72L317.421 4105.98L317.678 4106.41L332.784 4131.55C333.418 4132.6 333.517 4133.89 333.054 4135.03C332.593 4136.17 331.62 4137.02 330.431 4137.33M330.431 4137.33L330.304 4136.85L330.304 4136.85M330.431 4137.33L306.351 4143.68L330.431 4137.33ZM330.304 4136.85L306.223 4143.2L305.937 4143.27L305.866 4143.56L296.173 4182.44C295.872 4183.65 294.938 4184.59 293.736 4184.91M330.304 4136.85L293.736 4184.91M290.05 4178.84L289.764 4178.91L218.694 4197.65L217.877 4197.87L218.081 4197.05L227.741 4158.3C228.196 4156.48 227.086 4154.63 225.26 4154.17C223.435 4153.72 221.586 4154.83 221.131 4156.65L211.471 4195.4L211.267 4196.22L210.646 4195.64L156.693 4145.73L156.475 4145.53L156.547 4145.24L164.643 4112.77L164.847 4111.95L165.468 4112.53L201.14 4145.53L290.05 4178.84ZM290.05 4178.84L290.122 4178.55M290.05 4178.84L290.122 4178.55M290.122 4178.55L298.218 4146.08L298.422 4145.26L297.605 4145.47L250.616 4157.86L290.122 4178.55ZM231.206 4130.32L231.464 4130.75L246.828 4156.32L246.828 4156.32C247.304 4157.12 248.068 4157.66 248.924 4157.87C249.466 4158.01 250.047 4158.01 250.615 4157.86L231.206 4130.32ZM231.206 4130.32L230.777 4130.58M231.206 4130.32L230.777 4130.58M230.777 4130.58L205.207 4145.95C204.414 4146.42 203.484 4146.55 202.628 4146.33C202.086 4146.2 201.572 4145.93 201.14 4145.53L230.777 4130.58ZM233.11 4121.69L233.312 4121.88L233.577 4121.81L304.312 4103.16L305.193 4102.93L304.524 4102.31L250.825 4052.63L250.624 4052.44L250.358 4052.51L179.623 4071.17L178.742 4071.4L179.411 4072.02L233.11 4121.69ZM232.778 4024.03L232.585 4023.71L232.222 4023.8L160.401 4042.74L159.757 4042.91L160.1 4043.48L173.284 4065.42L173.477 4065.74L173.84 4065.65L245.659 4046.71L246.303 4046.54L245.96 4045.97L232.778 4024.03ZM171.716 4074.18L171.44 4073.92L171.119 4074.12L149.174 4087.3L148.603 4087.64L149.092 4088.1L203.616 4138.54L203.891 4138.79L204.213 4138.6L226.156 4125.41L226.727 4125.07L226.238 4124.62L171.716 4074.18ZM251.157 4150.3L251.351 4150.62L251.714 4150.53L323.535 4131.59L324.179 4131.42L323.836 4130.85L310.649 4108.91L310.456 4108.58L310.093 4108.68L238.274 4127.62L237.63 4127.79L237.973 4128.36L251.157 4150.3Z" stroke="#F1F1F1" stroke-opacity="0.5" stroke-width="0.999999"/>
<path d="M308.236 4061.64C309.233 4061.89 310.308 4061.73 311.193 4061.2C312.074 4060.67 312.723 4059.79 312.971 4058.8C313.22 4057.8 313.058 4056.72 312.529 4055.84C312 4054.96 311.123 4054.31 310.126 4054.06C309.125 4053.81 308.05 4053.97 307.169 4054.5C306.285 4055.03 305.64 4055.91 305.391 4056.91C305.142 4057.9 305.3 4058.98 305.834 4059.86C306.362 4060.74 307.24 4061.39 308.236 4061.64Z" fill="#F1F1F1" fill-opacity="0.5"/>
<path d="M228.517 4141.1C227.52 4140.86 226.441 4141.02 225.56 4141.55C224.679 4142.08 224.03 4142.95 223.782 4143.95C223.532 4144.95 223.695 4146.02 224.223 4146.91C224.752 4147.79 225.63 4148.44 226.627 4148.68C227.623 4148.93 228.702 4148.77 229.583 4148.25C230.464 4147.71 231.113 4146.84 231.362 4145.84C231.611 4144.84 231.448 4143.77 230.92 4142.88C230.391 4142 229.513 4141.35 228.517 4141.1Z" fill="#F1F1F1" fill-opacity="0.5"/>
</g>
<path d="M442.278 2055.95C444.022 2055.17 445.827 2054.94 447.324 2055.22C448.82 2055.49 449.966 2056.25 450.509 2057.42C451.599 2059.75 450.057 2063.06 446.396 2064.77C444.653 2065.55 442.849 2065.78 441.353 2065.5C439.857 2065.23 438.711 2064.47 438.168 2063.31C437.622 2062.13 437.757 2060.71 438.494 2059.35C439.23 2057.99 440.548 2056.73 442.278 2055.95Z" fill="#F1F1F1" stroke="white"/>
<path d="M441.774 2069.93C443.451 2069.09 445.155 2068.83 446.566 2069.05C447.975 2069.27 449.06 2069.97 449.604 2071.01C450.073 2071.96 449.956 2073.18 449.256 2074.41C448.557 2075.65 447.301 2076.85 445.618 2077.69C443.94 2078.54 442.237 2078.8 440.826 2078.58C439.417 2078.35 438.331 2077.66 437.788 2076.62C437.318 2075.66 437.435 2074.45 438.135 2073.22C438.834 2071.98 440.091 2070.78 441.774 2069.93Z" fill="#F1F1F1" stroke="white"/>
<path d="M438.796 2044.78L438.805 2044.78L438.815 2044.79C439.937 2045.39 440.605 2046.59 440.748 2048.15C440.891 2049.71 440.499 2051.57 439.552 2053.34C438.608 2055.1 437.27 2056.42 435.915 2057.13C434.556 2057.84 433.247 2057.91 432.265 2057.33C431.187 2056.67 430.518 2055.44 430.359 2053.9C430.2 2052.36 430.56 2050.53 431.504 2048.77C432.448 2047 433.786 2045.69 435.142 2044.98C436.503 2044.27 437.813 2044.19 438.796 2044.78Z" fill="#F1F1F1" stroke="white"/>
<path d="M425.452 2044.95C426.453 2045.54 427.062 2046.69 427.192 2048.17C427.322 2049.65 426.963 2051.41 426.083 2053.12C425.208 2054.81 423.974 2056.03 422.706 2056.69C421.443 2057.35 420.183 2057.44 419.18 2056.97C418.19 2056.37 417.588 2055.23 417.459 2053.76C417.329 2052.28 417.688 2050.52 418.568 2048.81C419.446 2047.11 420.686 2045.83 421.956 2045.13C423.225 2044.44 424.468 2044.37 425.452 2044.95Z" fill="#F1F1F1" stroke="white"/>
<path d="M424.552 2077.39C424.526 2077.32 424.507 2077.27 424.493 2077.22C424.494 2077.2 424.495 2077.18 424.496 2077.15C424.499 2077.04 424.502 2076.89 424.501 2076.7C424.499 2076.32 424.479 2075.8 424.408 2075.22C424.269 2074.1 423.925 2072.65 423.031 2071.71L422.642 2071.3C422.217 2070.85 421.644 2070.52 421.058 2070.29C420.469 2070.05 419.835 2069.89 419.26 2069.78C418.684 2069.67 418.155 2069.61 417.771 2069.57C417.579 2069.56 417.422 2069.55 417.312 2069.54C417.275 2069.54 417.244 2069.54 417.218 2069.54C417.178 2069.52 417.119 2069.5 417.046 2069.47C416.892 2069.4 416.675 2069.31 416.431 2069.17C415.936 2068.91 415.358 2068.51 414.941 2068C414.533 2067.49 414.289 2066.89 414.406 2066.14C414.527 2065.38 415.04 2064.39 416.333 2063.16C420.728 2059 425.045 2058.56 428.258 2059.12C429.874 2059.41 431.221 2059.95 432.163 2060.42C432.634 2060.66 433.002 2060.88 433.251 2061.04C433.375 2061.11 433.469 2061.18 433.531 2061.22C433.554 2061.24 433.572 2061.25 433.586 2061.26L433.911 2061.6C433.92 2061.62 433.932 2061.64 433.947 2061.66C433.986 2061.72 434.044 2061.82 434.115 2061.95C434.258 2062.21 434.454 2062.58 434.662 2063.06C435.078 2064.03 435.539 2065.39 435.719 2067C436.076 2070.2 435.335 2074.42 430.817 2078.44L430.806 2078.45L430.796 2078.46C429.535 2079.72 428.535 2080.19 427.776 2080.27C427.037 2080.35 426.441 2080.07 425.95 2079.63C425.448 2079.17 425.076 2078.56 424.825 2078.04C424.702 2077.78 424.611 2077.56 424.552 2077.39Z" fill="#F1F1F1" stroke="white"/>
<path d="M503.043 2039.71C503.782 2038.34 505.073 2037.05 506.74 2036.21C508.481 2035.43 510.282 2035.2 511.776 2035.48C513.271 2035.75 514.418 2036.51 514.961 2037.68C516.05 2040.01 514.509 2043.32 510.847 2045.03C509.104 2045.81 507.3 2046.04 505.805 2045.76C504.311 2045.49 503.166 2044.73 502.621 2043.57C502.141 2042.47 502.3 2041.08 503.043 2039.71Z" fill="#F1F1F1" stroke="white"/>
<path d="M510.235 2057.81L510.221 2057.82L510.207 2057.82C508.53 2058.67 506.827 2058.93 505.416 2058.71C504.007 2058.48 502.921 2057.79 502.378 2056.75C501.908 2055.79 502.025 2054.58 502.725 2053.35C503.424 2052.11 504.68 2050.91 506.364 2050.07C508.041 2049.22 509.744 2048.96 511.155 2049.18C512.56 2049.4 513.643 2050.1 514.188 2051.13C514.668 2052.24 514.531 2053.52 513.841 2054.74C513.146 2055.97 511.901 2057.1 510.235 2057.81Z" fill="#F1F1F1" stroke="white"/>
<path d="M503.247 2025.03L503.256 2025.04L503.266 2025.04C504.388 2025.64 505.056 2026.85 505.199 2028.41C505.343 2029.97 504.95 2031.83 504.003 2033.6C503.06 2035.36 501.722 2036.68 500.366 2037.39C499.005 2038.1 497.694 2038.17 496.712 2037.59C495.711 2037 495.068 2035.82 494.907 2034.26C494.748 2032.71 495.078 2030.85 495.96 2029.02C496.904 2027.26 498.24 2025.94 499.593 2025.24C500.954 2024.52 502.265 2024.45 503.247 2025.03Z" fill="#F1F1F1" stroke="white"/>
<path d="M490.034 2025.35C491.035 2025.94 491.644 2027.08 491.774 2028.56C491.904 2030.04 491.545 2031.81 490.665 2033.51C489.79 2035.21 488.556 2036.43 487.288 2037.09C486.026 2037.74 484.765 2037.83 483.762 2037.36C482.772 2036.77 482.17 2035.63 482.041 2034.16C481.911 2032.68 482.27 2030.91 483.15 2029.21C484.028 2027.51 485.268 2026.22 486.538 2025.53C487.807 2024.84 489.05 2024.76 490.034 2025.35Z" fill="#F1F1F1" stroke="white"/>
<path d="M489.134 2057.79C489.108 2057.72 489.089 2057.66 489.075 2057.62C489.076 2057.6 489.077 2057.57 489.078 2057.54C489.081 2057.43 489.084 2057.28 489.083 2057.09C489.081 2056.72 489.061 2056.19 488.99 2055.62C488.851 2054.49 488.507 2053.05 487.613 2052.1L487.224 2051.69C486.799 2051.24 486.226 2050.92 485.64 2050.68C485.051 2050.45 484.417 2050.29 483.842 2050.18C483.266 2050.06 482.737 2050 482.353 2049.97C482.161 2049.95 482.004 2049.94 481.894 2049.94C481.857 2049.93 481.826 2049.93 481.8 2049.93C481.76 2049.92 481.701 2049.89 481.628 2049.86C481.474 2049.8 481.257 2049.7 481.013 2049.57C480.518 2049.3 479.94 2048.91 479.523 2048.39C479.115 2047.89 478.871 2047.28 478.988 2046.54C479.109 2045.77 479.622 2044.78 480.915 2043.56C485.31 2039.4 489.627 2038.95 492.84 2039.52C494.457 2039.8 495.803 2040.35 496.746 2040.82C497.216 2041.06 497.584 2041.27 497.833 2041.43C497.957 2041.51 498.051 2041.57 498.113 2041.62C498.136 2041.63 498.154 2041.64 498.168 2041.65L498.493 2042C498.502 2042.01 498.514 2042.03 498.529 2042.05C498.568 2042.12 498.626 2042.22 498.697 2042.34C498.84 2042.6 499.036 2042.98 499.244 2043.46C499.66 2044.42 500.121 2045.79 500.301 2047.4C500.658 2050.6 499.917 2054.81 495.399 2058.84L495.388 2058.84L495.378 2058.85C494.117 2060.11 493.117 2060.58 492.358 2060.67C491.619 2060.75 491.023 2060.47 490.532 2060.02C490.03 2059.57 489.658 2058.96 489.407 2058.43C489.284 2058.18 489.193 2057.95 489.134 2057.79Z" fill="#F1F1F1" stroke="white"/>
<path d="M520.529 1967.35C521.268 1965.98 522.559 1964.69 524.226 1963.85C525.967 1963.07 527.768 1962.85 529.262 1963.12C530.757 1963.39 531.904 1964.15 532.447 1965.32C533.536 1967.66 531.995 1970.96 528.334 1972.67C526.591 1973.45 524.787 1973.68 523.291 1973.41C521.797 1973.13 520.652 1972.38 520.108 1971.21C519.627 1970.12 519.786 1968.72 520.529 1967.35Z" fill="#F1F1F1" stroke="white"/>
<path d="M527.72 1985.45L527.705 1985.46L527.692 1985.47C526.014 1986.31 524.311 1986.57 522.9 1986.35C521.491 1986.13 520.406 1985.43 519.862 1984.39C519.392 1983.44 519.509 1982.22 520.209 1980.99C520.908 1979.76 522.165 1978.56 523.848 1977.71C525.526 1976.86 527.229 1976.6 528.64 1976.83C530.044 1977.05 531.127 1977.74 531.673 1978.77C532.152 1979.88 532.016 1981.17 531.325 1982.39C530.63 1983.61 529.386 1984.74 527.72 1985.45Z" fill="#F1F1F1" stroke="white"/>
<path d="M520.862 1952.82L520.871 1952.82L520.881 1952.83C522.004 1953.43 522.672 1954.63 522.815 1956.19C522.958 1957.75 522.565 1959.61 521.619 1961.38C520.675 1963.14 519.337 1964.46 517.981 1965.17C516.622 1965.88 515.313 1965.95 514.331 1965.37C513.253 1964.71 512.584 1963.48 512.426 1961.94C512.266 1960.4 512.626 1958.57 513.571 1956.81C514.515 1955.04 515.853 1953.73 517.208 1953.02C518.569 1952.3 519.88 1952.23 520.862 1952.82Z" fill="#F1F1F1" stroke="white"/>
<path d="M507.518 1952.99C508.519 1953.58 509.129 1954.73 509.258 1956.21C509.388 1957.69 509.029 1959.45 508.149 1961.15C507.274 1962.85 506.041 1964.07 504.772 1964.73C503.51 1965.39 502.25 1965.48 501.246 1965.01C500.256 1964.41 499.654 1963.27 499.525 1961.8C499.395 1960.32 499.754 1958.56 500.634 1956.85C501.513 1955.15 502.753 1953.87 504.022 1953.17C505.292 1952.48 506.534 1952.41 507.518 1952.99Z" fill="#F1F1F1" stroke="white"/>
<path d="M506.611 1985.7C506.585 1985.63 506.565 1985.57 506.552 1985.53C506.553 1985.51 506.554 1985.48 506.555 1985.45C506.558 1985.34 506.561 1985.19 506.56 1985C506.558 1984.62 506.538 1984.1 506.467 1983.53C506.328 1982.4 505.984 1980.95 505.09 1980.01L504.701 1979.6C504.276 1979.15 503.703 1978.83 503.117 1978.59C502.528 1978.36 501.894 1978.19 501.319 1978.08C500.743 1977.97 500.214 1977.91 499.83 1977.88C499.638 1977.86 499.481 1977.85 499.371 1977.85C499.336 1977.84 499.306 1977.84 499.281 1977.84C499.239 1977.82 499.18 1977.8 499.106 1977.77C498.948 1977.7 498.727 1977.6 498.478 1977.46C497.973 1977.18 497.382 1976.76 496.956 1976.22C496.539 1975.69 496.289 1975.06 496.414 1974.28C496.541 1973.48 497.073 1972.46 498.4 1971.2C502.794 1967.04 507.112 1966.59 510.324 1967.16C511.941 1967.45 513.287 1967.99 514.23 1968.46C514.7 1968.7 515.069 1968.92 515.317 1969.07C515.441 1969.15 515.535 1969.21 515.597 1969.26C515.62 1969.27 515.639 1969.29 515.653 1969.3L515.977 1969.64C515.986 1969.65 515.998 1969.67 516.013 1969.7C516.052 1969.76 516.11 1969.86 516.181 1969.99C516.324 1970.24 516.52 1970.62 516.728 1971.1C517.144 1972.07 517.605 1973.44 517.784 1975.07C518.141 1978.31 517.397 1982.59 512.87 1986.75L512.862 1986.76L512.855 1986.76C511.594 1988.02 510.594 1988.49 509.835 1988.57C509.096 1988.66 508.5 1988.38 508.009 1987.93C507.507 1987.48 507.135 1986.86 506.884 1986.34C506.76 1986.09 506.67 1985.86 506.611 1985.7Z" fill="#F1F1F1" stroke="white"/>
<path d="M586.693 1957.66C587.432 1956.29 588.723 1955 590.39 1954.16C592.131 1953.38 593.932 1953.16 595.426 1953.43C596.921 1953.7 598.068 1954.46 598.611 1955.63C599.701 1957.97 598.159 1961.27 594.498 1962.98C592.755 1963.76 590.951 1963.99 589.455 1963.72C587.961 1963.45 586.816 1962.69 586.272 1961.52C585.791 1960.43 585.95 1959.03 586.693 1957.66Z" fill="#F1F1F1" stroke="white"/>
<path d="M593.884 1975.76L593.87 1975.77L593.856 1975.78C592.178 1976.62 590.475 1976.88 589.064 1976.66C587.655 1976.44 586.57 1975.74 586.026 1974.7C585.556 1973.75 585.674 1972.53 586.373 1971.3C587.072 1970.07 588.329 1968.87 590.012 1968.02C591.69 1967.17 593.393 1966.91 594.804 1967.14C596.208 1967.36 597.291 1968.05 597.837 1969.08C598.316 1970.19 598.18 1971.48 597.489 1972.7C596.795 1973.92 595.55 1975.05 593.884 1975.76Z" fill="#F1F1F1" stroke="white"/>
<path d="M587.026 1943.13L587.035 1943.13L587.045 1943.14C588.168 1943.74 588.836 1944.94 588.979 1946.5C589.122 1948.06 588.729 1949.92 587.783 1951.69C586.839 1953.45 585.501 1954.77 584.145 1955.48C582.786 1956.19 581.477 1956.26 580.495 1955.68C579.417 1955.02 578.749 1953.79 578.59 1952.25C578.431 1950.71 578.79 1948.88 579.735 1947.12C580.679 1945.35 582.017 1944.04 583.372 1943.33C584.733 1942.62 586.044 1942.54 587.026 1943.13Z" fill="#F1F1F1" stroke="white"/>
<path d="M573.682 1943.3C574.683 1943.89 575.293 1945.04 575.422 1946.52C575.552 1948 575.194 1949.76 574.313 1951.47C573.438 1953.16 572.205 1954.38 570.936 1955.04C569.674 1955.7 568.414 1955.79 567.41 1955.32C566.42 1954.72 565.818 1953.58 565.689 1952.11C565.559 1950.63 565.918 1948.87 566.798 1947.16C567.677 1945.46 568.917 1944.18 570.186 1943.48C571.456 1942.79 572.698 1942.72 573.682 1943.3Z" fill="#F1F1F1" stroke="white"/>
<path d="M572.783 1975.74C572.757 1975.67 572.737 1975.61 572.723 1975.57C572.724 1975.55 572.725 1975.52 572.726 1975.49C572.73 1975.39 572.733 1975.23 572.732 1975.04C572.729 1974.67 572.709 1974.15 572.638 1973.57C572.5 1972.45 572.155 1971 571.261 1970.05L570.873 1969.64C570.448 1969.19 569.874 1968.87 569.289 1968.64C568.699 1968.4 568.066 1968.24 567.491 1968.13C566.914 1968.02 566.386 1967.96 566.002 1967.92C565.809 1967.91 565.652 1967.9 565.542 1967.89C565.506 1967.89 565.475 1967.89 565.449 1967.88C565.408 1967.87 565.35 1967.85 565.277 1967.82C565.122 1967.75 564.906 1967.65 564.662 1967.52C564.167 1967.25 563.588 1966.86 563.171 1966.35C562.763 1965.84 562.519 1965.23 562.637 1964.49C562.757 1963.73 563.271 1962.74 564.564 1961.51C568.958 1957.35 573.276 1956.91 576.488 1957.47C578.105 1957.76 579.452 1958.3 580.394 1958.77C580.865 1959.01 581.233 1959.23 581.481 1959.38C581.605 1959.46 581.699 1959.53 581.761 1959.57C581.784 1959.58 581.803 1959.6 581.817 1959.61L582.141 1959.95C582.151 1959.96 582.163 1959.98 582.177 1960.01C582.216 1960.07 582.274 1960.17 582.346 1960.3C582.488 1960.55 582.685 1960.93 582.892 1961.41C583.309 1962.37 583.769 1963.74 583.949 1965.35C584.307 1968.55 583.566 1972.76 579.047 1976.79L579.037 1976.8L579.027 1976.81C577.765 1978.06 576.766 1978.54 576.007 1978.62C575.268 1978.7 574.672 1978.42 574.18 1977.98C573.679 1977.52 573.306 1976.91 573.056 1976.39C572.932 1976.13 572.842 1975.9 572.783 1975.74Z" fill="#F1F1F1" stroke="white"/>
<path d="M-17.2547 2359.2C37.2639 2359.2 76.3934 2326.19 99.7514 2298.58C117.168 2322.4 127.532 2352 128 2383.78C127.992 2413.93 118.666 2441.94 102.764 2465.09C79.7188 2436.79 39.5956 2401.16 -17.2547 2401.16C-80.2108 2401.16 -119.182 2438.2 -137.924 2463.21C-153.213 2440.25 -162 2413.26 -162 2383.75C-162 2352.59 -152.197 2324 -135.348 2300.33C-115.671 2324.85 -77.7038 2359.2 -17.2547 2359.2Z" stroke="#F9F9F9" stroke-width="10"/>
<path d="M-17.2559 2321.7C-63.0412 2321.7 -94.0146 2297.2 -112.746 2275.23C-87.0904 2252.5 -53.9845 2239 -17.2559 2239C17.9388 2239 49.9804 2251.52 75.0722 2272.73C53.5985 2297.56 22.8153 2321.7 -17.2559 2321.7Z" stroke="#F9F9F9" stroke-width="10"/>
<path d="M-17.2546 2529C-55.5451 2529 -90.2036 2514.02 -116.014 2489.71C-98.056 2466.94 -65.9868 2439.17 -17.2546 2439.17C24.8803 2439.17 57.2306 2465.79 78.3608 2492.66C53.0922 2515.02 19.4913 2529 -17.2546 2529Z" stroke="#F9F9F9" stroke-width="10"/>
<path d="M1748.97 1944.29L1764.39 1918.7C1765.03 1917.65 1765.13 1916.36 1764.67 1915.22C1764.22 1914.08 1763.25 1913.22 1762.06 1912.91L1734.13 1905.52C1732.05 1904.97 1729.91 1906.22 1729.35 1908.31C1728.8 1910.39 1730.03 1912.53 1732.12 1913.08L1755.02 1919.14L1741.78 1941.1L1670.07 1922.13L1683.31 1900.18L1703.47 1905.51C1705.55 1906.06 1707.69 1904.81 1708.24 1902.72C1708.8 1900.64 1707.56 1898.5 1705.48 1897.95L1682.49 1891.87C1680.82 1891.42 1679.05 1892.14 1678.15 1893.63L1662.72 1919.22L1637.21 1903.84C1635.73 1902.94 1633.83 1903.14 1632.55 1904.32L1571.93 1960.31C1571.03 1961.15 1570.57 1962.36 1570.69 1963.58C1570.81 1964.81 1571.5 1965.9 1572.56 1966.53L1598.06 1981.91L1582.63 2007.5C1581.99 2008.55 1581.89 2009.84 1582.35 2010.98C1582.81 2012.12 1583.78 2012.98 1584.96 2013.29L1609.01 2019.65L1618.58 2058.56C1618.92 2059.94 1619.98 2061.03 1621.36 2061.39L1700.93 2082.43C1701.57 2082.6 1702.24 2082.6 1702.87 2082.45C1703.49 2082.29 1704.08 2081.98 1704.57 2081.52L1765.19 2025.53C1766.24 2024.56 1766.68 2023.1 1766.34 2021.71L1756.77 1982.81L1775.09 1965.89C1775.99 1965.05 1776.45 1963.84 1776.33 1962.62C1776.21 1961.39 1775.52 1960.3 1774.47 1959.67L1748.97 1944.29ZM1681.92 1997.29L1611.29 1978.61L1665.1 1928.91L1735.73 1947.59L1681.92 1997.29ZM1635.68 1912.05L1657.57 1925.25L1602.93 1975.71L1581.05 1962.52L1635.68 1912.05ZM1605.24 1985.1L1676.95 2004.07L1663.71 2026.02L1592 2007.06L1605.24 1985.1ZM1758.21 2021.36L1704.15 2071.3L1694.61 2032.52C1694.09 2030.43 1691.98 2029.15 1689.89 2029.68C1687.79 2030.2 1686.51 2032.32 1687.03 2034.41L1696.57 2073.19L1625.6 2054.42L1617.61 2021.93L1664.53 2034.33C1665.18 2034.51 1665.85 2034.5 1666.47 2034.35C1667.45 2034.1 1668.33 2033.48 1668.88 2032.57L1684.3 2006.98L1709.81 2022.36C1710.72 2022.91 1711.78 2023.05 1712.76 2022.8C1713.39 2022.65 1713.98 2022.34 1714.47 2021.88L1750.22 1988.86L1758.21 2021.36ZM1711.34 2014.15L1689.46 2000.95L1744.09 1950.49L1765.98 1963.68L1711.34 2014.15Z" fill="#F1F1F1" fill-opacity="0.5"/>
<path opacity="0.5" d="M39.0231 5591.18C22.4813 5589.12 9.47327 5576.44 6.73299 5560.31C-8.23595 5553.71 -17.3559 5537.99 -15.3029 5521.45C-12.7559 5500.93 6.00924 5486.31 26.5305 5488.86C32.751 5489.63 38.5778 5491.94 43.639 5495.61L98.6259 5452.77C96.2968 5446.96 95.4813 5440.75 96.2526 5434.53C98.7995 5414.01 117.565 5399.39 138.086 5401.94C154.628 5403.99 167.636 5416.67 170.376 5432.8C185.345 5439.4 194.465 5455.12 192.412 5471.66C189.865 5492.18 171.1 5506.8 150.579 5504.25C144.358 5503.48 138.531 5501.17 133.47 5497.5L78.4895 5540.34C80.8134 5546.14 81.6289 5552.36 80.8568 5558.58C78.3095 5579.1 59.5447 5593.72 39.0231 5591.18ZM24.9909 5501.26C11.3078 5499.56 -1.1999 5509.31 -2.89816 5522.99C-4.38064 5534.94 2.88307 5546.23 14.3778 5549.86C16.8516 5550.64 18.5866 5552.86 18.7389 5555.45C19.4412 5567.48 28.6185 5577.29 40.563 5578.77C54.2461 5580.47 66.7538 5570.72 68.4521 5557.04C69.1114 5551.73 68.0073 5546.4 65.2536 5541.63C63.6949 5538.93 64.3671 5535.49 66.8249 5533.58L129.766 5484.54C132.237 5482.61 135.723 5482.82 137.958 5484.98C141.91 5488.82 146.806 5491.19 152.118 5491.85C165.802 5493.55 178.309 5483.8 180.008 5470.12C181.49 5458.17 174.226 5446.88 162.732 5443.26C160.258 5442.48 158.523 5440.25 158.37 5437.66C157.668 5425.63 148.491 5415.82 136.546 5414.34C122.863 5412.64 110.356 5422.39 108.657 5436.07C107.999 5441.38 109.109 5446.71 111.862 5451.48C113.415 5454.18 112.742 5457.62 110.284 5459.53L47.3439 5508.58C44.8965 5510.5 41.3964 5510.31 39.1515 5508.13C35.1991 5504.29 30.3029 5501.92 24.9909 5501.26Z" fill="#F1F1F1"/>
<defs>
<clipPath id="clip0">
<rect width="200" height="200" fill="white" transform="translate(162.383 3993) rotate(14)"/>
</clipPath>
</defs>
</svg>
