<svg width="93" height="144" viewBox="0 0 93 144" fill="none" xmlns="http://www.w3.org/2000/svg">
<path d="M57.6498 43.2268C49.5014 34.8076 37.906 32.9657 31.6243 39.0498C25.5995 45.0036 27.3249 56.6816 35.3434 64.8448C43.4918 73.264 55.0873 75.106 61.369 69.0218C67.5236 63.324 65.7982 51.6459 57.6498 43.2268Z" fill="#F9F9F9"/>
<path d="M21.1073 76.8969C26.7481 71.4598 37.4429 73.4369 45.3315 81.3441C53.2201 89.2513 55.1997 100.157 49.5588 105.594C43.918 111.031 33.2232 109.054 25.3346 101.147C17.4459 93.2394 15.4664 82.334 21.1073 76.8969Z" fill="#F9F9F9"/>
<path d="M82.8264 59.1007C74.8506 60.5724 66.9591 52.0229 65.1038 40.0889C63.2485 28.1549 68.4797 17.4535 76.4556 15.9818C84.5613 14.7661 92.4528 23.3157 94.1782 34.9937C95.7766 47.0581 90.9321 57.885 82.8264 59.1007Z" fill="#F9F9F9"/>
<path d="M101.853 52.6665C100.257 41.2444 105.104 31.0598 112.823 29.7184C120.542 28.3771 127.917 36.545 129.383 47.7111C130.978 59.1331 126.131 69.3178 118.412 70.6591C110.693 72.0004 103.318 63.8325 101.853 52.6665Z" fill="#F9F9F9"/>
<path d="M72.9527 67.0106L74.4942 66.2285C74.4942 66.2285 105.093 56.4972 121.331 89.1378C130.942 108.081 111.114 107.841 111.114 107.841C111.114 107.841 101.057 104.574 95.4051 107.442L93.7337 107.968C88.0815 110.836 84.7785 120.881 84.7785 120.881C84.7785 120.881 73.1357 137.41 63.6515 118.081C47.0295 85.9574 72.9527 67.0106 72.9527 67.0106Z" fill="#F9F9F9"/>
</svg>
