<svg width="1920" height="849" viewBox="0 0 1920 849" fill="none" xmlns="http://www.w3.org/2000/svg">
<rect width="1920" height="787" fill="url(#paint0_linear)"/>
<path d="M116.893 133.537C94.4822 161.551 55.2632 197.204 -0.254669 197.204C-62.9032 197.204 -100.594 159.004 -118.421 135.065C-138.285 160.532 -150 192.111 -150 226.746C-150 259.853 -139.304 289.904 -120.968 314.861C-104.669 290.922 -65.9593 249.157 -0.254669 249.157C57.8098 249.157 98.0475 287.866 119.949 316.389C138.795 291.432 150 260.362 150 226.746C149.491 191.602 137.267 159.004 116.893 133.537Z" fill="#F1F1F1" fill-opacity="0.05"/>
<path d="M-0.254669 198.204C55.0724 198.204 94.2803 163.086 116.887 135.139C136.657 160.287 148.499 192.284 149 226.754C148.998 259.672 138.18 290.129 119.936 314.737C97.7962 286.238 57.5744 248.157 -0.254669 248.157C-65.376 248.157 -104.155 288.897 -120.991 313.13C-138.7 288.563 -149 259.127 -149 226.746C-149 192.811 -137.68 161.832 -118.433 136.715C-100.209 160.82 -62.4479 198.204 -0.254669 198.204Z" stroke="#F1F1F1" stroke-opacity="0.05" stroke-width="2"/>
<path d="M-102.633 117.747C-83.7873 141.177 -50.6804 169.699 -0.255913 169.699C44.0565 169.699 77.1635 141.686 99.065 115.2C72.5794 91.2615 37.9444 77 -0.255913 77C-39.9843 77 -75.6379 92.2801 -102.633 117.747Z" fill="#F1F1F1" fill-opacity="0.05"/>
<path d="M-0.255913 168.699C-49.7438 168.699 -82.4302 141.005 -101.271 117.841C-74.5359 92.922 -39.388 78 -0.255913 78C37.3464 78 71.4661 91.9097 97.6811 115.302C75.846 141.483 43.1987 168.699 -0.255913 168.699Z" stroke="#F1F1F1" stroke-opacity="0.05" stroke-width="2"/>
<path d="M-0.254562 277.17C-53.735 277.17 -87.8607 309.258 -105.688 333.197C-78.6926 360.192 -41.5109 377 -0.254562 377C39.4738 377 75.6368 361.211 102.122 336.253C80.7301 307.73 46.0952 277.17 -0.254562 277.17Z" fill="#F1F1F1" fill-opacity="0.05"/>
<path d="M-0.254562 376C-40.9206 376 -77.6009 359.56 -104.366 333.101C-86.4946 309.368 -52.7743 278.17 -0.254562 278.17C45.2433 278.17 79.4262 307.923 100.783 336.137C74.5331 360.575 38.8795 376 -0.254562 376Z" stroke="#F1F1F1" stroke-opacity="0.05" stroke-width="2"/>
<path d="M1854.94 110.552C1843.42 108.411 1832.9 113.628 1831.31 122.227C1829.85 130.57 1838.02 139.088 1849.29 141.096C1860.81 143.237 1871.32 138.02 1872.92 129.422C1874.63 121.212 1866.46 112.693 1854.94 110.552Z" fill="#F1F1F1" fill-opacity="0.05"/>
<path d="M1849.46 140.112L1849.46 140.112L1849.47 140.113C1855.04 141.148 1860.33 140.396 1864.38 138.39C1868.44 136.385 1871.21 133.161 1871.94 129.239L1871.94 129.228L1871.94 129.217C1872.71 125.522 1871.28 121.66 1868.17 118.402C1865.06 115.146 1860.34 112.572 1854.76 111.535C1849.19 110.5 1843.9 111.253 1839.85 113.258C1835.8 115.263 1833.02 118.484 1832.29 122.404C1831.63 126.181 1833.14 130.088 1836.25 133.347C1839.36 136.604 1844.02 139.142 1849.46 140.112Z" stroke="#F1F1F1" stroke-opacity="0.05" stroke-width="2"/>
<path d="M1844.67 159.168C1846.11 151.469 1855.98 146.884 1866.99 148.758C1878 150.632 1885.93 158.374 1884.48 166.073C1883.03 173.773 1873.17 178.358 1862.16 176.484C1851.15 174.61 1843.22 166.868 1844.67 159.168Z" fill="#F1F1F1" fill-opacity="0.05"/>
<path d="M1866.82 149.744C1861.49 148.836 1856.48 149.502 1852.66 151.279C1848.85 153.057 1846.3 155.902 1845.65 159.353C1845 162.784 1846.43 166.325 1849.44 169.298C1852.46 172.269 1857 174.591 1862.33 175.498C1867.66 176.406 1872.67 175.74 1876.49 173.963C1880.3 172.184 1882.85 169.339 1883.5 165.889C1884.14 162.458 1882.72 158.916 1879.7 155.943C1876.69 152.973 1872.15 150.651 1866.82 149.744Z" stroke="#F1F1F1" stroke-opacity="0.05" stroke-width="2"/>
<path d="M1884.66 108.902C1879.01 114.723 1867.63 112.327 1859.2 103.675C1850.77 95.0229 1848.84 83.2699 1854.48 77.4493C1860.39 71.7621 1871.77 74.1582 1879.94 82.6768C1888.24 91.5838 1890.56 103.215 1884.66 108.902Z" fill="#F1F1F1" fill-opacity="0.05"/>
<path d="M1883.94 108.206L1883.95 108.194L1883.97 108.182C1886.6 105.647 1887.48 101.704 1886.64 97.1798C1885.8 92.6646 1883.25 87.6996 1879.22 83.3637C1875.25 79.234 1870.54 76.6216 1866.16 75.7151C1861.78 74.8089 1857.84 75.6175 1855.19 78.1577C1852.66 80.7696 1851.75 84.7953 1852.55 89.3278C1853.34 93.857 1855.83 98.7799 1859.92 102.977C1864.01 107.183 1868.79 109.83 1873.17 110.737C1877.56 111.644 1881.43 110.797 1883.94 108.206Z" stroke="#F1F1F1" stroke-opacity="0.05" stroke-width="2"/>
<path d="M1896.44 92.6342C1888.52 84.249 1886.57 73.1395 1892.09 67.5741C1897.6 62.0086 1908.34 64.393 1916.01 72.6448C1923.92 81.03 1925.87 92.1395 1920.36 97.705C1914.85 103.27 1904.1 100.886 1896.44 92.6342Z" fill="#F1F1F1" fill-opacity="0.05"/>
<path d="M1897.17 91.9476L1897.17 91.9476L1897.17 91.9537C1900.89 95.952 1905.31 98.4907 1909.42 99.3734C1913.52 100.256 1917.2 99.4739 1919.65 97.0011C1922.11 94.5168 1922.99 90.7143 1922.24 86.404C1921.49 82.1003 1919.12 77.4005 1915.28 73.3314L1915.28 73.3314L1915.27 73.3253C1911.56 69.327 1907.13 66.7883 1903.03 65.9056C1898.92 65.0228 1895.25 65.8051 1892.8 68.2779C1890.33 70.7622 1889.46 74.5647 1890.21 78.8751C1890.96 83.1787 1893.32 87.8785 1897.17 91.9476Z" stroke="#F1F1F1" stroke-opacity="0.05" stroke-width="2"/>
<path d="M1881.19 121.073L1882 119.542C1882 119.542 1901.3 93.882 1933.44 111.078C1952.25 120.949 1935.95 132.241 1935.95 132.241C1935.95 132.241 1925.86 135.406 1922.92 141.018L1921.86 142.415C1918.91 148.027 1922.04 158.128 1922.04 158.128C1922.04 158.128 1922.13 178.346 1903.2 168.087C1871.04 151.535 1881.19 121.073 1881.19 121.073Z" fill="#F1F1F1" fill-opacity="0.05"/>
<path d="M1932.98 111.963L1932.97 111.96C1917.2 103.525 1904.68 105.623 1896.1 109.762C1891.79 111.842 1888.45 114.448 1886.19 116.536C1885.06 117.579 1884.21 118.489 1883.64 119.135C1883.35 119.458 1883.14 119.715 1883 119.888C1882.93 119.975 1882.87 120.041 1882.84 120.084L1882.12 121.46C1882.1 121.513 1882.08 121.593 1882.05 121.7C1881.98 121.914 1881.89 122.236 1881.79 122.655C1881.58 123.492 1881.32 124.714 1881.1 126.234C1880.66 129.277 1880.4 133.5 1881.12 138.221C1882.56 147.62 1887.89 159.082 1903.66 167.198L1903.67 167.203L1903.68 167.208C1908.31 169.717 1911.62 170.274 1913.96 169.873C1916.27 169.48 1917.81 168.132 1918.87 166.427C1919.95 164.698 1920.5 162.636 1920.77 160.963C1920.91 160.135 1920.98 159.419 1921.01 158.912C1921.03 158.659 1921.04 158.46 1921.04 158.325C1921.04 158.305 1921.04 158.286 1921.04 158.268C1921.02 158.19 1920.99 158.083 1920.95 157.951C1920.87 157.653 1920.75 157.225 1920.63 156.695C1920.37 155.635 1920.07 154.161 1919.85 152.503C1919.44 149.249 1919.35 145.049 1920.97 141.951L1921.01 141.877L1921.06 141.812L1922.07 140.478C1923.71 137.417 1927.19 135.13 1930.08 133.637C1931.57 132.87 1932.95 132.285 1933.97 131.891C1934.48 131.694 1934.89 131.544 1935.19 131.443C1935.31 131.399 1935.42 131.364 1935.49 131.338C1935.51 131.329 1935.52 131.319 1935.53 131.309C1935.64 131.231 1935.8 131.112 1935.99 130.957C1936.38 130.645 1936.92 130.188 1937.5 129.609C1938.69 128.442 1940.04 126.829 1940.83 124.97C1941.61 123.136 1941.83 121.099 1940.86 118.964C1939.87 116.796 1937.57 114.375 1932.98 111.963Z" stroke="#F1F1F1" stroke-opacity="0.05" stroke-width="2"/>
<path d="M739.421 723.888L764.989 708.525C766.043 707.893 766.737 706.8 766.862 705.578C766.989 704.356 766.532 703.145 765.63 702.31L744.394 682.665C742.811 681.201 740.34 681.297 738.874 682.88C737.41 684.465 737.505 686.936 739.09 688.4L756.504 704.51L734.562 717.693L680.039 667.255L701.981 654.071L717.303 668.247C718.886 669.711 721.359 669.617 722.823 668.032C724.289 666.449 724.193 663.977 722.608 662.512L705.134 646.345C703.858 645.165 701.957 644.97 700.47 645.865L674.899 661.229L659.535 635.659C658.641 634.17 656.87 633.451 655.192 633.893L575.503 654.906C574.314 655.219 573.342 656.073 572.88 657.213C572.417 658.351 572.517 659.642 573.151 660.694L588.514 686.263L562.946 701.624C561.891 702.258 561.198 703.349 561.072 704.573C560.945 705.795 561.403 707.006 562.305 707.84L580.586 724.752L570.893 763.628C570.548 765.013 570.984 766.474 572.03 767.442L632.527 823.405C633.017 823.86 633.606 824.172 634.234 824.328C634.862 824.485 635.528 824.486 636.175 824.315L715.863 803.304C717.242 802.94 718.313 801.855 718.658 800.47L728.351 761.594L752.431 755.245C753.62 754.931 754.593 754.076 755.054 752.938C755.517 751.8 755.418 750.509 754.784 749.456L739.421 723.888ZM655.45 739.238L601.75 689.561L672.486 670.909L726.185 720.586L655.45 739.238ZM654.35 642.196L667.532 664.136L595.712 683.074L582.529 661.133L654.35 642.196ZM593.376 692.457L647.898 742.895L625.955 756.08L571.432 705.641L593.376 692.457ZM711.636 796.339L640.566 815.078L650.226 776.333C650.748 774.24 649.475 772.12 647.381 771.598C645.288 771.076 643.168 772.35 642.646 774.443L632.986 813.188L579.032 763.277L587.128 730.805L622.801 763.806C623.295 764.263 623.885 764.573 624.507 764.728C625.488 764.973 626.555 764.833 627.465 764.286L653.035 748.922L668.399 774.492C668.946 775.404 669.822 776.026 670.804 776.271C671.425 776.426 672.092 776.429 672.743 776.258L719.732 763.867L711.636 796.339ZM673.586 767.956L660.402 746.011L732.221 727.075L745.407 749.017L673.586 767.956Z" fill="#F1F1F1" fill-opacity="0.05"/>
<path d="M738.735 723.717L739.163 723.46L764.731 708.096L764.732 708.096C765.65 707.545 766.256 706.593 766.365 705.527L766.365 705.526C766.476 704.462 766.077 703.405 765.29 702.677C765.29 702.677 765.29 702.676 765.29 702.676L744.055 683.032C742.674 681.756 740.519 681.839 739.241 683.22C737.964 684.602 738.047 686.756 739.429 688.033L739.429 688.033L756.844 704.143L757.333 704.595L756.762 704.938L734.819 718.122L734.498 718.315L734.222 718.06L679.7 667.622L679.211 667.17L679.782 666.826L701.723 653.643L702.045 653.45L702.32 653.704L717.643 667.88C719.024 669.157 721.179 669.074 722.456 667.693L722.456 667.692C723.734 666.312 723.65 664.156 722.269 662.879L722.268 662.879L704.794 646.712M738.735 723.717L704.794 646.712M738.735 723.717L738.992 724.146M738.735 723.717L738.992 724.146M704.794 646.712C703.682 645.683 702.024 645.513 700.727 646.293L700.727 646.293L675.157 661.657L674.728 661.915L674.471 661.486L659.107 635.916C658.327 634.618 656.782 633.991 655.319 634.377M704.794 646.712L655.319 634.377M655.319 634.377C655.319 634.377 655.319 634.377 655.319 634.377M655.319 634.377L655.319 634.377M655.319 634.377L575.631 655.389C574.594 655.663 573.746 656.407 573.344 657.401L573.343 657.401C572.94 658.394 573.027 659.519 573.579 660.437L573.579 660.437L588.942 686.005L589.2 686.434L588.771 686.691L563.203 702.053C562.284 702.605 561.679 703.557 561.569 704.624L561.569 704.624C561.459 705.689 561.857 706.746 562.644 707.473L562.644 707.473L580.925 724.385L581.142 724.586L581.071 724.873L571.378 763.749C571.077 764.957 571.457 766.231 572.37 767.075C572.37 767.075 572.37 767.076 572.37 767.076L632.866 823.038L632.866 823.039C633.294 823.434 633.807 823.706 634.355 823.843C634.903 823.979 635.484 823.98 636.047 823.832L636.047 823.832L715.735 802.821C715.736 802.821 715.736 802.821 715.736 802.821M655.319 634.377L715.736 802.821M738.992 724.146L754.355 749.714L754.355 749.714C754.908 750.632 754.995 751.757 754.591 752.75L754.591 752.75C754.189 753.742 753.34 754.488 752.304 754.762M738.992 724.146L739.849 723.631M739.849 723.631L764.989 708.525C766.043 707.893 766.737 706.8 766.862 705.578L739.849 723.631ZM739.849 723.631L739.421 723.888L739.678 724.317L754.784 749.456C755.418 750.509 755.517 751.8 755.054 752.938C754.593 754.076 753.62 754.931 752.431 755.245M752.431 755.245L752.304 754.762L752.304 754.762M752.431 755.245L728.351 761.594L752.431 755.245ZM752.304 754.762L728.223 761.111L727.937 761.186L727.866 761.473L718.173 800.349C717.872 801.557 716.938 802.503 715.736 802.821M752.304 754.762L715.736 802.821M712.05 796.747L711.764 796.822L640.694 815.562L639.877 815.777L640.081 814.957L649.741 776.212C650.196 774.387 649.086 772.539 647.26 772.083C645.435 771.628 643.586 772.739 643.131 774.564L633.471 813.309L633.267 814.129L632.646 813.555L578.693 763.644L578.475 763.443L578.547 763.156L586.643 730.684L586.847 729.865L587.468 730.438L623.14 763.438L712.05 796.747ZM712.05 796.747L712.122 796.46M712.05 796.747L712.122 796.46M712.122 796.46L720.218 763.988L720.422 763.168L719.605 763.384L672.616 775.774L712.122 796.46ZM653.206 748.236L653.464 748.665L668.828 774.235L668.828 774.235C669.304 775.029 670.068 775.572 670.924 775.786C671.466 775.921 672.047 775.923 672.615 775.774L653.206 748.236ZM653.206 748.236L652.777 748.493M653.206 748.236L652.777 748.493M652.777 748.493L627.207 763.858C626.414 764.334 625.484 764.456 624.628 764.243C624.086 764.108 623.572 763.837 623.14 763.439L652.777 748.493ZM655.11 739.605L655.312 739.791L655.577 739.721L726.312 721.07L727.193 720.838L726.524 720.219L672.825 670.542L672.624 670.355L672.358 670.425L601.623 689.078L600.742 689.31L601.411 689.928L655.11 739.605ZM654.778 641.938L654.585 641.617L654.222 641.712L582.401 660.649L581.757 660.819L582.1 661.39L595.284 683.332L595.477 683.653L595.84 683.558L667.659 664.62L668.303 664.45L667.96 663.879L654.778 641.938ZM593.716 692.09L593.44 691.835L593.119 692.028L571.174 705.213L570.603 705.556L571.092 706.008L625.616 756.447L625.891 756.702L626.213 756.508L648.156 743.324L648.727 742.981L648.238 742.528L593.716 692.09ZM673.157 768.213L673.351 768.535L673.714 768.439L745.535 749.5L746.179 749.33L745.836 748.759L732.649 726.817L732.456 726.496L732.093 726.591L660.274 745.528L659.63 745.698L659.973 746.269L673.157 768.213Z" stroke="#F1F1F1" stroke-opacity="0.05" stroke-width="0.999999"/>
<g opacity="0.5">
<path d="M789.894 594.082C793.945 601.365 792.662 610.359 786.959 616.223C788.711 624.213 785.057 632.53 777.774 636.581C768.738 641.607 757.299 638.345 752.274 629.309C750.751 626.57 749.964 623.536 749.954 620.409L716.438 610.849C714.779 613.504 712.511 615.666 709.774 617.188C700.739 622.214 689.3 618.952 684.275 609.916C680.224 602.632 681.507 593.639 687.21 587.775C685.458 579.785 689.112 571.467 696.395 567.416C705.431 562.391 716.869 565.653 721.895 574.689C723.418 577.428 724.205 580.461 724.215 583.588L757.729 593.146C759.387 590.495 761.655 588.332 764.395 586.809C773.431 581.784 784.869 585.046 789.894 594.082ZM757.736 626.271C761.087 632.296 768.711 634.47 774.736 631.119C779.995 628.194 782.413 621.929 780.484 616.22C780.069 614.991 780.456 613.634 781.457 612.809C786.107 608.976 787.358 602.379 784.432 597.119C781.082 591.094 773.457 588.92 767.432 592.271C765.094 593.572 763.268 595.589 762.155 598.108C761.524 599.535 759.939 600.277 758.441 599.849L720.075 588.908C718.568 588.478 717.623 587.01 717.838 585.469C718.22 582.742 717.734 580.065 716.433 577.726C713.082 571.701 705.458 569.527 699.433 572.878C694.174 575.803 691.756 582.068 693.685 587.777C694.1 589.006 693.713 590.363 692.712 591.188C688.062 595.021 686.811 601.619 689.737 606.878C693.087 612.903 700.712 615.077 706.737 611.726C709.073 610.427 710.896 608.407 712.013 605.886C712.645 604.462 714.23 603.721 715.728 604.148L754.094 615.09C755.595 615.509 756.549 616.979 756.331 618.528C755.949 621.255 756.435 623.932 757.736 626.271Z" fill="#F1F1F1" fill-opacity="0.05"/>
<path d="M786.601 615.874L786.413 616.067L786.471 616.33C788.176 624.106 784.619 632.202 777.531 636.144C768.736 641.036 757.602 637.86 752.711 629.066C751.229 626.401 750.464 623.45 750.454 620.408L750.453 620.032L750.091 619.929L716.575 610.368L716.214 610.265L716.014 610.584C714.4 613.167 712.193 615.271 709.531 616.751C700.737 621.643 689.603 618.467 684.712 609.673C680.769 602.584 682.018 593.831 687.568 588.123L687.756 587.93L687.698 587.668C685.993 579.891 689.55 571.796 696.638 567.853C705.433 562.962 716.567 566.137 721.458 574.932C722.94 577.596 723.705 580.547 723.715 583.59L723.716 583.966L724.078 584.069L757.592 593.627L757.954 593.73L758.153 593.411C759.767 590.831 761.973 588.728 764.638 587.246C773.432 582.355 784.566 585.53 789.457 594.325C793.4 601.413 792.151 610.167 786.601 615.874ZM753.957 615.57L753.96 615.571C755.216 615.922 756.019 617.155 755.836 618.459L755.836 618.459C755.439 621.29 755.944 624.077 757.299 626.514C760.784 632.78 768.713 635.041 774.979 631.556C780.449 628.514 782.963 621.998 780.958 616.061C780.609 615.028 780.934 613.888 781.775 613.194C786.611 609.209 787.912 602.347 784.869 596.876C781.384 590.61 773.456 588.349 767.189 591.834C764.753 593.189 762.854 595.291 761.698 597.906C761.167 599.104 759.836 599.727 758.578 599.369L720.212 588.427C718.947 588.066 718.152 586.834 718.333 585.538C718.73 582.707 718.225 579.92 716.87 577.483C713.385 571.217 705.456 568.956 699.19 572.441C693.72 575.484 691.206 582 693.211 587.937C693.56 588.969 693.235 590.109 692.394 590.803C687.559 594.788 686.257 601.65 689.3 607.121C692.785 613.387 700.713 615.648 706.98 612.163C709.414 610.809 711.311 608.705 712.47 606.089C713.002 604.893 714.333 604.27 715.591 604.629L753.957 615.57Z" stroke="#F2F2F2" stroke-opacity="0.1"/>
</g>
<defs>
<linearGradient id="paint0_linear" x1="1381" y1="35.5767" x2="1597.13" y2="778.821" gradientUnits="userSpaceOnUse">
<stop stop-color="#157DA9"/>
<stop offset="0.452838" stop-color="#47A0C5" stop-opacity="0.9"/>
<stop offset="1" stop-color="#198BBC" stop-opacity="0.64"/>
</linearGradient>
</defs>
</svg>
