<svg width="1920" height="763" viewBox="0 0 1920 763" fill="none" xmlns="http://www.w3.org/2000/svg">
<path d="M1849.65 43.2273C1841.51 34.8082 1829.91 32.9662 1823.63 39.0504C1817.6 45.0042 1819.33 56.6822 1827.35 64.8454C1835.5 73.2646 1847.09 75.1065 1853.37 69.0223C1859.53 63.3245 1857.8 51.6465 1849.65 43.2273Z" fill="#F9F9F9"/>
<path d="M1813.11 76.8965C1818.75 71.4594 1829.45 73.4364 1837.34 81.3436C1845.22 89.2508 1847.2 100.156 1841.56 105.593C1835.92 111.03 1825.23 109.053 1817.34 101.146C1809.45 93.239 1807.47 82.3336 1813.11 76.8965Z" fill="#F9F9F9"/>
<path d="M1874.83 59.1003C1866.85 60.572 1858.96 52.0225 1857.11 40.0885C1855.25 28.1544 1860.48 17.4531 1868.46 15.9814C1876.57 14.7657 1884.46 23.3152 1886.18 34.9933C1887.78 47.0576 1882.94 57.8846 1874.83 59.1003Z" fill="#F9F9F9"/>
<path d="M1893.86 52.666C1892.26 41.244 1897.11 31.0593 1904.83 29.718C1912.55 28.3767 1919.92 36.5446 1921.39 47.7106C1922.98 59.1327 1918.13 69.3173 1910.42 70.6587C1902.7 72 1895.32 63.8321 1893.86 52.666Z" fill="#F9F9F9"/>
<path d="M1864.96 67.0112L1866.5 66.2291C1866.5 66.2291 1897.1 56.4978 1913.33 89.1383C1922.95 108.081 1903.12 107.841 1903.12 107.841C1903.12 107.841 1893.06 104.575 1887.41 107.443L1885.74 107.969C1880.09 110.837 1876.78 120.882 1876.78 120.882C1876.78 120.882 1865.14 137.411 1855.66 118.082C1839.03 85.9579 1864.96 67.0112 1864.96 67.0112Z" fill="#F9F9F9"/>
<path opacity="0.5" d="M1506.11 551.913C1503.95 535.385 1512.96 519.611 1527.89 512.913C1530.52 496.767 1543.45 483.996 1559.97 481.834C1580.48 479.152 1599.34 493.65 1602.02 514.154C1602.83 520.369 1602.06 526.589 1599.77 532.41L1655.04 574.892C1660.08 571.18 1665.89 568.831 1672.1 568.019C1692.6 565.337 1711.46 579.835 1714.15 600.339C1716.31 616.866 1707.29 632.641 1692.37 639.339C1689.73 655.485 1676.81 668.255 1660.28 670.417C1639.78 673.099 1620.92 658.602 1618.23 638.098C1617.42 631.882 1618.2 625.662 1620.48 619.842L1565.22 577.365C1560.18 581.071 1554.37 583.42 1548.16 584.233C1527.65 586.914 1508.79 572.417 1506.11 551.913ZM1589.63 515.775C1587.84 502.103 1575.27 492.44 1561.6 494.229C1549.66 495.79 1540.55 505.655 1539.93 517.691C1539.79 520.281 1538.07 522.519 1535.6 523.316C1524.13 527.014 1516.94 538.358 1518.5 550.292C1520.29 563.964 1532.86 573.627 1546.53 571.838C1551.84 571.144 1556.72 568.739 1560.65 564.877C1562.87 562.69 1566.37 562.479 1568.84 564.378L1632.1 613.004C1634.59 614.914 1635.26 618.34 1633.73 621.046C1631 625.834 1629.93 631.169 1630.63 636.477C1632.42 650.148 1644.99 659.812 1658.66 658.023C1670.59 656.462 1679.71 646.597 1680.33 634.561C1680.47 631.971 1682.19 629.733 1684.65 628.936C1696.12 625.238 1703.31 613.894 1701.75 601.96C1699.96 588.288 1687.39 578.625 1673.72 580.414C1668.42 581.107 1663.54 583.518 1659.61 587.381C1657.38 589.562 1653.89 589.773 1651.42 587.874L1588.15 539.248C1585.67 537.363 1584.98 533.926 1586.53 531.206C1589.25 526.417 1590.32 521.083 1589.63 515.775Z" fill="#F1F1F1"/>
<path d="M95.1952 527.721L119.646 490.25C120.655 488.707 120.876 486.778 120.246 485.046C119.617 483.314 118.207 481.978 116.443 481.442L74.9234 468.83C71.828 467.89 68.5562 469.638 67.6144 472.734C66.6752 475.831 68.4205 479.104 71.5181 480.043L105.567 490.385L84.5821 522.541L-22.0192 490.158L-1.03674 458.003L28.9224 467.105C32.0179 468.045 35.2924 466.299 36.2315 463.201C37.1733 460.105 35.4254 456.831 32.3278 455.892L-1.83895 445.511C-4.3324 444.754 -7.02644 445.734 -8.44815 447.916L-32.9012 485.39L-70.3753 460.937C-72.5575 459.513 -75.4177 459.703 -77.3933 461.398L-171.189 541.921C-172.587 543.122 -173.341 544.911 -173.218 546.751C-173.098 548.59 -172.119 550.267 -170.574 551.273L-133.103 575.724L-157.555 613.193C-158.563 614.738 -158.784 616.665 -158.153 618.399C-157.525 620.131 -156.114 621.467 -154.351 622.001L-118.608 632.86L-106.241 691.673C-105.801 693.767 -104.256 695.454 -102.209 696.076L16.0716 732.004C17.0311 732.296 18.0302 732.332 18.9799 732.132C19.9296 731.932 20.8299 731.497 21.5906 730.844L115.387 650.323C117.009 648.93 117.744 646.764 117.304 644.67L104.937 585.856L133.281 561.525C134.68 560.323 135.433 558.532 135.311 556.694C135.191 554.855 134.211 553.178 132.667 552.172L95.1952 527.721ZM-8.08693 603.404L-113.079 571.512L-29.8221 500.034L75.1706 531.929L-8.08693 603.404ZM-73.0946 473.154L-40.9414 494.137L-125.475 566.708L-157.63 545.726L-73.0946 473.154ZM-122.486 580.901L-15.8844 613.284L-36.8686 645.442L-143.472 613.06L-122.486 580.901ZM105.123 643.69L21.4709 715.503L9.14642 656.889C8.48049 653.722 5.37392 651.694 2.20678 652.36C-0.960354 653.026 -2.98749 656.133 -2.32156 659.3L10.0029 717.914L-95.4863 685.871L-105.815 636.747L-36.0686 657.934C-35.102 658.226 -34.1033 658.26 -33.1626 658.062C-31.6776 657.75 -30.3297 656.863 -29.4594 655.529L-5.0064 618.055L32.4677 642.508C33.8019 643.381 35.3922 643.647 36.8772 643.335C37.818 643.137 38.7187 642.705 39.4857 642.047L94.7938 594.566L105.123 643.69ZM35.1893 630.291L3.03063 609.304L87.5643 536.735L119.724 557.717L35.1893 630.291Z" fill="#F1F1F1"/>
<path d="M53.7781 473.897C55.2855 473.58 56.6303 472.657 57.4785 471.363C58.3205 470.072 58.6234 468.465 58.3065 466.957C57.989 465.448 57.0645 464.099 55.7741 463.257C54.4833 462.412 52.8742 462.112 51.3668 462.429C49.8527 462.747 48.5074 463.669 47.6659 464.961C46.8172 466.253 46.521 467.859 46.8385 469.369C47.1554 470.876 48.0733 472.227 49.3703 473.067C50.6611 473.912 52.2707 474.214 53.7781 473.897Z" fill="#F1F1F1"/>
<path d="M-1.79334 633.326C-3.30075 633.643 -4.65272 634.565 -5.49424 635.858C-6.33529 637.153 -6.63911 638.756 -6.32169 640.265C-6.00379 641.777 -5.08018 643.122 -3.78842 643.971C-2.49808 644.813 -0.889439 645.111 0.617977 644.794C2.12539 644.477 3.47783 643.556 4.31982 642.266C5.1604 640.969 5.46423 639.366 5.14633 637.854C4.8289 636.344 3.90529 634.999 2.61401 634.153C1.32319 633.309 -0.28592 633.009 -1.79334 633.326Z" fill="#F1F1F1"/>
</svg>
