<svg width="1440" height="5424" viewBox="0 0 1440 5424" fill="none" xmlns="http://www.w3.org/2000/svg">
<path d="M93.1952 610.72L117.646 573.249C118.655 571.706 118.876 569.777 118.246 568.045C117.617 566.313 116.207 564.977 114.443 564.441L72.9234 551.829C69.828 550.889 66.5562 552.637 65.6144 555.733C64.6752 558.83 66.4205 562.103 69.5181 563.042L103.567 573.384L82.5821 605.54L-24.0192 573.157L-3.03674 541.002L26.9224 550.104C30.0179 551.044 33.2924 549.298 34.2315 546.2C35.1733 543.104 33.4254 539.83 30.3278 538.891L-3.83895 528.51C-6.3324 527.753 -9.02644 528.733 -10.4482 530.915L-34.9012 568.389L-72.3753 543.936C-74.5575 542.512 -77.4177 542.702 -79.3933 544.397L-173.189 624.92C-174.587 626.121 -175.341 627.91 -175.218 629.75C-175.098 631.589 -174.119 633.266 -172.574 634.272L-135.103 658.723L-159.555 696.192C-160.563 697.737 -160.784 699.664 -160.153 701.398C-159.525 703.13 -158.114 704.466 -156.351 705L-120.608 715.859L-108.241 774.672C-107.801 776.766 -106.256 778.453 -104.209 779.075L14.0716 815.003C15.0311 815.295 16.0302 815.331 16.9799 815.131C17.9296 814.931 18.8299 814.496 19.5906 813.843L113.387 733.322C115.009 731.929 115.744 729.763 115.304 727.669L102.937 668.855L131.281 644.524C132.68 643.322 133.433 641.531 133.311 639.693C133.191 637.854 132.211 636.177 130.667 635.171L93.1952 610.72ZM-10.0869 686.403L-115.079 654.511L-31.8221 583.033L73.1706 614.928L-10.0869 686.403ZM-75.0946 556.153L-42.9414 577.136L-127.475 649.707L-159.63 628.725L-75.0946 556.153ZM-124.486 663.9L-17.8844 696.283L-38.8686 728.441L-145.472 696.059L-124.486 663.9ZM103.123 726.689L19.4709 798.502L7.14642 739.888C6.48049 736.721 3.37392 734.693 0.206781 735.359C-2.96035 736.025 -4.98749 739.132 -4.32156 742.299L8.00292 800.913L-97.4863 768.87L-107.815 719.746L-38.0686 740.933C-37.102 741.225 -36.1033 741.259 -35.1626 741.061C-33.6776 740.749 -32.3297 739.862 -31.4594 738.528L-7.0064 701.054L30.4677 725.507C31.8019 726.38 33.3922 726.646 34.8772 726.334C35.818 726.136 36.7187 725.704 37.4857 725.046L92.7938 677.565L103.123 726.689ZM33.1893 713.29L1.03063 692.303L85.5643 619.734L117.724 640.716L33.1893 713.29Z" fill="#F1F1F1"/>
<path d="M51.7781 556.897C53.2855 556.58 54.6303 555.657 55.4785 554.363C56.3205 553.072 56.6234 551.465 56.3065 549.957C55.989 548.448 55.0645 547.099 53.7741 546.257C52.4833 545.412 50.8742 545.112 49.3668 545.429C47.8527 545.747 46.5074 546.669 45.6659 547.961C44.8172 549.253 44.521 550.859 44.8385 552.369C45.1554 553.876 46.0733 555.227 47.3703 556.067C48.6611 556.912 50.2707 557.214 51.7781 556.897Z" fill="#F1F1F1"/>
<path d="M-3.79334 716.324C-5.30075 716.641 -6.65272 717.563 -7.49424 718.856C-8.33529 720.151 -8.63911 721.754 -8.32169 723.263C-8.00379 724.775 -7.08018 726.12 -5.78842 726.969C-4.49808 727.811 -2.88944 728.109 -1.38202 727.792C0.125394 727.475 1.47783 726.554 2.31982 725.264C3.1604 723.967 3.46423 722.364 3.14633 720.852C2.8289 719.342 1.90529 717.998 0.614006 717.151C-0.676809 716.307 -2.28592 716.007 -3.79334 716.324Z" fill="#F1F1F1"/>
<path opacity="0.5" d="M1125.11 666.913C1122.94 650.385 1131.96 634.611 1146.89 627.913C1149.52 611.767 1162.44 598.996 1178.97 596.834C1199.48 594.152 1218.34 608.65 1221.02 629.154C1221.83 635.369 1221.06 641.589 1218.77 647.41L1274.03 689.892C1279.08 686.18 1284.89 683.831 1291.1 683.019C1311.6 680.337 1330.46 694.835 1333.14 715.339C1335.31 731.866 1326.29 747.641 1311.37 754.339C1308.73 770.485 1295.81 783.255 1279.28 785.417C1258.78 788.099 1239.91 773.602 1237.23 753.098C1236.42 746.882 1237.19 740.662 1239.48 734.842L1184.22 692.365C1179.18 696.071 1173.37 698.42 1167.15 699.233C1146.65 701.914 1127.79 687.417 1125.11 666.913ZM1208.62 630.775C1206.84 617.103 1194.26 607.44 1180.59 609.229C1168.66 610.79 1159.55 620.655 1158.92 632.691C1158.79 635.281 1157.07 637.519 1154.6 638.316C1143.13 642.014 1135.94 653.358 1137.5 665.292C1139.29 678.964 1151.86 688.627 1165.53 686.838C1170.84 686.144 1175.72 683.739 1179.65 679.877C1181.87 677.69 1185.37 677.479 1187.84 679.378L1251.1 728.004C1253.58 729.914 1254.26 733.34 1252.72 736.046C1250 740.834 1248.93 746.169 1249.63 751.477C1251.41 765.148 1263.99 774.812 1277.66 773.023C1289.59 771.462 1298.7 761.597 1299.33 749.561C1299.46 746.971 1301.18 744.733 1303.65 743.936C1315.12 740.238 1322.31 728.894 1320.75 716.96C1318.96 703.288 1306.39 693.625 1292.72 695.414C1287.42 696.107 1282.54 698.518 1278.6 702.381C1276.38 704.562 1272.89 704.773 1270.41 702.874L1207.15 654.248C1204.67 652.363 1203.98 648.926 1205.53 646.206C1208.25 641.417 1209.32 636.083 1208.62 630.775Z" fill="#F1F1F1"/>
<path d="M1390.65 43.2263C1382.5 34.8072 1370.91 32.9652 1364.63 39.0494C1358.6 45.0032 1360.33 56.6812 1368.35 64.8444C1376.49 73.2636 1388.09 75.1055 1394.37 69.0214C1400.53 63.3236 1398.8 51.6455 1390.65 43.2263Z" fill="#F9F9F9"/>
<path d="M1354.11 76.8965C1359.75 71.4594 1370.45 73.4364 1378.33 81.3436C1386.22 89.2508 1388.2 100.156 1382.56 105.593C1376.92 111.03 1366.23 109.053 1358.34 101.146C1350.45 93.239 1348.47 82.3336 1354.11 76.8965Z" fill="#F9F9F9"/>
<path d="M1415.83 59.1003C1407.85 60.572 1399.96 52.0225 1398.11 40.0885C1396.25 28.1544 1401.48 17.4531 1409.46 15.9814C1417.56 14.7657 1425.46 23.3152 1427.18 34.9933C1428.78 47.0576 1423.94 57.8846 1415.83 59.1003Z" fill="#F9F9F9"/>
<path d="M1434.86 52.666C1433.26 41.244 1438.11 31.0593 1445.83 29.718C1453.55 28.3767 1460.92 36.5446 1462.39 47.7106C1463.98 59.1327 1459.13 69.3173 1451.42 70.6587C1443.7 72 1436.32 63.8321 1434.86 52.666Z" fill="#F9F9F9"/>
<path d="M1405.96 67.0102L1407.5 66.2281C1407.5 66.2281 1438.1 56.4968 1454.33 89.1373C1463.95 108.08 1444.12 107.84 1444.12 107.84C1444.12 107.84 1434.06 104.574 1428.41 107.442L1426.74 107.968C1421.08 110.836 1417.78 120.881 1417.78 120.881C1417.78 120.881 1406.14 137.41 1396.65 118.081C1380.03 85.957 1405.96 67.0102 1405.96 67.0102Z" fill="#F9F9F9"/>
<path d="M392.428 2010.95C394.172 2010.17 395.978 2009.94 397.474 2010.22C398.97 2010.49 400.117 2011.25 400.66 2012.42C401.749 2014.75 400.207 2018.06 396.546 2019.77C394.803 2020.55 392.999 2020.78 391.503 2020.51C390.008 2020.23 388.861 2019.47 388.318 2018.31C387.772 2017.13 387.907 2015.71 388.644 2014.35C389.38 2012.99 390.699 2011.73 392.428 2010.95Z" fill="#F1F1F1" stroke="white"/>
<path d="M391.924 2024.94C393.602 2024.09 395.305 2023.83 396.716 2024.05C398.125 2024.28 399.21 2024.97 399.754 2026.01C400.224 2026.97 400.107 2028.18 399.407 2029.41C398.708 2030.65 397.451 2031.85 395.768 2032.69C394.09 2033.54 392.387 2033.8 390.976 2033.58C389.567 2033.35 388.482 2032.66 387.938 2031.62C387.469 2030.66 387.586 2029.45 388.285 2028.22C388.984 2026.98 390.241 2025.78 391.924 2024.94Z" fill="#F1F1F1" stroke="white"/>
<path d="M388.946 1999.78L388.955 1999.78L388.965 1999.79C390.088 2000.39 390.756 2001.59 390.899 2003.15C391.042 2004.71 390.649 2006.57 389.703 2008.34C388.759 2010.1 387.421 2011.42 386.065 2012.13C384.706 2012.84 383.397 2012.91 382.415 2012.33C381.337 2011.67 380.668 2010.44 380.509 2008.9C380.35 2007.36 380.71 2005.53 381.655 2003.77C382.599 2002 383.937 2000.69 385.292 1999.98C386.653 1999.27 387.964 1999.19 388.946 1999.78Z" fill="#F1F1F1" stroke="white"/>
<path d="M375.602 1999.95C376.603 2000.54 377.213 2001.69 377.342 2003.17C377.472 2004.65 377.113 2006.41 376.233 2008.12C375.358 2009.81 374.125 2011.03 372.856 2011.69C371.594 2012.35 370.334 2012.44 369.33 2011.97C368.34 2011.37 367.738 2010.23 367.609 2008.76C367.479 2007.28 367.838 2005.52 368.718 2003.81C369.597 2002.11 370.837 2000.83 372.106 2000.13C373.376 1999.44 374.618 1999.37 375.602 1999.95Z" fill="#F1F1F1" stroke="white"/>
<path d="M374.703 2032.39C374.677 2032.32 374.657 2032.26 374.643 2032.22C374.644 2032.2 374.645 2032.17 374.646 2032.15C374.65 2032.04 374.653 2031.88 374.651 2031.7C374.649 2031.32 374.629 2030.8 374.558 2030.22C374.42 2029.1 374.075 2027.65 373.181 2026.71L372.793 2026.29C372.368 2025.85 371.794 2025.52 371.209 2025.29C370.619 2025.05 369.985 2024.89 369.411 2024.78C368.834 2024.67 368.306 2024.61 367.922 2024.57C367.729 2024.56 367.572 2024.55 367.462 2024.54C367.426 2024.54 367.394 2024.54 367.369 2024.54C367.328 2024.52 367.269 2024.5 367.196 2024.47C367.042 2024.4 366.826 2024.31 366.582 2024.17C366.086 2023.91 365.508 2023.51 365.091 2023C364.683 2022.49 364.439 2021.89 364.557 2021.14C364.677 2020.38 365.191 2019.39 366.484 2018.16C370.878 2014 375.196 2013.56 378.408 2014.12C380.025 2014.41 381.371 2014.95 382.314 2015.42C382.784 2015.66 383.152 2015.88 383.401 2016.03C383.525 2016.11 383.619 2016.18 383.681 2016.22C383.704 2016.24 383.723 2016.25 383.737 2016.26L384.061 2016.6C384.07 2016.62 384.082 2016.64 384.097 2016.66C384.136 2016.72 384.194 2016.82 384.266 2016.95C384.408 2017.2 384.604 2017.58 384.812 2018.06C385.229 2019.02 385.689 2020.39 385.869 2022C386.226 2025.2 385.486 2029.41 380.967 2033.44L380.957 2033.45L380.947 2033.46C379.685 2034.72 378.686 2035.19 377.927 2035.27C377.188 2035.35 376.592 2035.07 376.1 2034.63C375.598 2034.17 375.226 2033.56 374.976 2033.04C374.852 2032.78 374.762 2032.56 374.703 2032.39Z" fill="#F1F1F1" stroke="white"/>
<path d="M453.193 1994.71C453.932 1993.34 455.223 1992.05 456.89 1991.21C458.631 1990.43 460.432 1990.2 461.926 1990.48C463.421 1990.75 464.568 1991.51 465.111 1992.67C466.201 1995.01 464.659 1998.32 460.998 2000.03C459.255 2000.81 457.451 2001.04 455.955 2000.76C454.462 2000.49 453.316 1999.73 452.772 1998.57C452.291 1997.47 452.45 1996.08 453.193 1994.71Z" fill="#F1F1F1" stroke="white"/>
<path d="M460.386 2012.81L460.371 2012.82L460.358 2012.82C458.68 2013.67 456.977 2013.93 455.566 2013.71C454.157 2013.48 453.072 2012.79 452.528 2011.75C452.058 2010.79 452.175 2009.58 452.875 2008.35C453.574 2007.11 454.831 2005.91 456.514 2005.06C458.192 2004.22 459.895 2003.96 461.306 2004.18C462.71 2004.4 463.793 2005.09 464.339 2006.13C464.818 2007.23 464.682 2008.52 463.991 2009.74C463.296 2010.97 462.052 2012.1 460.386 2012.81Z" fill="#F1F1F1" stroke="white"/>
<path d="M453.397 1980.03L453.407 1980.04L453.416 1980.04C454.539 1980.64 455.207 1981.85 455.35 1983.41C455.493 1984.97 455.1 1986.83 454.154 1988.6C453.21 1990.36 451.872 1991.68 450.516 1992.39C449.155 1993.1 447.845 1993.17 446.863 1992.59C445.861 1992 445.218 1990.82 445.058 1989.26C444.898 1987.71 445.228 1985.85 446.111 1984.02C447.054 1982.26 448.39 1980.94 449.743 1980.24C451.104 1979.52 452.415 1979.45 453.397 1980.03Z" fill="#F1F1F1" stroke="white"/>
<path d="M440.184 1980.35C441.185 1980.94 441.795 1982.08 441.924 1983.56C442.054 1985.04 441.695 1986.81 440.815 1988.51C439.94 1990.21 438.707 1991.43 437.438 1992.09C436.176 1992.74 434.916 1992.83 433.912 1992.36C432.922 1991.77 432.32 1990.63 432.191 1989.16C432.061 1987.68 432.42 1985.91 433.3 1984.21C434.179 1982.51 435.419 1981.22 436.688 1980.53C437.958 1979.84 439.2 1979.76 440.184 1980.35Z" fill="#F1F1F1" stroke="white"/>
<path d="M439.285 2012.79C439.259 2012.72 439.239 2012.66 439.225 2012.62C439.226 2012.6 439.227 2012.57 439.228 2012.54C439.232 2012.43 439.235 2012.28 439.234 2012.09C439.231 2011.72 439.211 2011.19 439.14 2010.62C439.002 2009.49 438.657 2008.05 437.763 2007.1L437.375 2006.69C436.95 2006.24 436.376 2005.92 435.791 2005.68C435.201 2005.45 434.567 2005.29 433.993 2005.18C433.416 2005.06 432.888 2005 432.504 2004.97C432.311 2004.95 432.154 2004.94 432.044 2004.94C432.008 2004.93 431.976 2004.93 431.951 2004.93C431.91 2004.92 431.852 2004.89 431.778 2004.86C431.624 2004.8 431.408 2004.7 431.164 2004.57C430.669 2004.3 430.09 2003.91 429.673 2003.39C429.265 2002.89 429.021 2002.28 429.139 2001.54C429.259 2000.77 429.773 1999.78 431.066 1998.56C435.46 1994.4 439.778 1993.95 442.99 1994.52C444.607 1994.8 445.953 1995.35 446.896 1995.82C447.367 1996.06 447.735 1996.27 447.983 1996.43C448.107 1996.51 448.201 1996.57 448.263 1996.62C448.286 1996.63 448.305 1996.64 448.319 1996.65L448.643 1997C448.653 1997.01 448.664 1997.03 448.679 1997.05C448.718 1997.12 448.776 1997.22 448.848 1997.34C448.99 1997.6 449.186 1997.98 449.394 1998.46C449.811 1999.42 450.271 2000.79 450.451 2002.4C450.808 2005.6 450.068 2009.81 445.549 2013.84L445.539 2013.84L445.529 2013.85C444.267 2015.11 443.268 2015.58 442.509 2015.67C441.77 2015.75 441.174 2015.47 440.682 2015.02C440.18 2014.57 439.808 2013.96 439.558 2013.43C439.434 2013.18 439.344 2012.95 439.285 2012.79Z" fill="#F1F1F1" stroke="white"/>
<path d="M470.679 1922.35C471.418 1920.99 472.71 1919.7 474.376 1918.85C476.117 1918.07 477.918 1917.85 479.412 1918.12C480.908 1918.39 482.054 1919.15 482.598 1920.32C483.687 1922.66 482.145 1925.96 478.484 1927.67C476.741 1928.45 474.937 1928.68 473.441 1928.41C471.948 1928.14 470.802 1927.38 470.258 1926.21C469.778 1925.12 469.937 1923.73 470.679 1922.35Z" fill="#F1F1F1" stroke="white"/>
<path d="M477.87 1940.46L477.856 1940.46L477.842 1940.47C476.165 1941.31 474.461 1941.57 473.05 1941.35C471.641 1941.13 470.556 1940.43 470.012 1939.39C469.543 1938.44 469.66 1937.22 470.36 1935.99C471.059 1934.76 472.315 1933.56 473.998 1932.71C475.676 1931.86 477.379 1931.6 478.79 1931.83C480.195 1932.05 481.278 1932.74 481.823 1933.77C482.303 1934.88 482.166 1936.17 481.475 1937.39C480.781 1938.61 479.536 1939.74 477.87 1940.46Z" fill="#F1F1F1" stroke="white"/>
<path d="M471.012 1907.82L471.022 1907.82L471.031 1907.83C472.154 1908.43 472.822 1909.63 472.965 1911.19C473.108 1912.75 472.715 1914.61 471.769 1916.38C470.825 1918.14 469.487 1919.46 468.132 1920.17C466.772 1920.88 465.463 1920.95 464.482 1920.37C463.404 1919.71 462.735 1918.48 462.576 1916.94C462.417 1915.4 462.777 1913.57 463.721 1911.81C464.665 1910.05 466.003 1908.73 467.358 1908.02C468.72 1907.31 470.03 1907.24 471.012 1907.82Z" fill="#F1F1F1" stroke="white"/>
<path d="M457.669 1907.99C458.67 1908.58 459.279 1909.73 459.409 1911.21C459.538 1912.69 459.18 1914.45 458.3 1916.16C457.425 1917.85 456.191 1919.07 454.923 1919.73C453.66 1920.39 452.4 1920.48 451.396 1920.01C450.407 1919.41 449.804 1918.27 449.675 1916.8C449.546 1915.32 449.904 1913.56 450.784 1911.85C451.663 1910.15 452.903 1908.87 454.173 1908.17C455.442 1907.48 456.685 1907.41 457.669 1907.99Z" fill="#F1F1F1" stroke="white"/>
<path d="M456.762 1940.7C456.736 1940.63 456.716 1940.57 456.702 1940.53C456.703 1940.51 456.704 1940.48 456.705 1940.45C456.709 1940.34 456.712 1940.19 456.71 1940C456.708 1939.63 456.688 1939.11 456.617 1938.53C456.479 1937.41 456.134 1935.96 455.24 1935.01L454.852 1934.6C454.427 1934.15 453.853 1933.83 453.268 1933.6C452.678 1933.36 452.044 1933.2 451.47 1933.09C450.893 1932.98 450.365 1932.91 449.981 1932.88C449.788 1932.86 449.631 1932.85 449.521 1932.85C449.486 1932.85 449.456 1932.84 449.431 1932.84C449.39 1932.83 449.33 1932.8 449.256 1932.77C449.099 1932.7 448.878 1932.6 448.628 1932.46C448.123 1932.18 447.532 1931.77 447.106 1931.23C446.689 1930.7 446.439 1930.06 446.564 1929.28C446.691 1928.48 447.224 1927.46 448.55 1926.2C452.945 1922.04 457.262 1921.6 460.475 1922.16C462.091 1922.45 463.438 1922.99 464.38 1923.46C464.851 1923.7 465.219 1923.92 465.467 1924.07C465.592 1924.15 465.686 1924.22 465.748 1924.26C465.77 1924.28 465.789 1924.29 465.803 1924.3L466.128 1924.64C466.137 1924.66 466.149 1924.68 466.163 1924.7C466.203 1924.76 466.26 1924.86 466.332 1924.99C466.474 1925.24 466.67 1925.62 466.878 1926.11C467.295 1927.07 467.755 1928.45 467.935 1930.07C468.291 1933.31 467.548 1937.59 463.02 1941.75L463.013 1941.76L463.006 1941.77C461.744 1943.02 460.745 1943.49 459.986 1943.58C459.247 1943.66 458.651 1943.38 458.159 1942.93C457.657 1942.48 457.285 1941.87 457.034 1941.35C456.911 1941.09 456.821 1940.86 456.762 1940.7Z" fill="#F1F1F1" stroke="white"/>
<path d="M536.843 1912.66C537.582 1911.29 538.874 1910 540.54 1909.16C542.281 1908.38 544.082 1908.16 545.576 1908.43C547.072 1908.7 548.219 1909.46 548.762 1910.63C549.851 1912.97 548.309 1916.27 544.648 1917.98C542.905 1918.76 541.101 1918.99 539.605 1918.72C538.112 1918.45 536.966 1917.69 536.422 1916.52C535.942 1915.43 536.101 1914.03 536.843 1912.66Z" fill="#F1F1F1" stroke="white"/>
<path d="M544.034 1930.76L544.02 1930.77L544.006 1930.78C542.329 1931.62 540.625 1931.88 539.214 1931.66C537.806 1931.44 536.72 1930.74 536.177 1929.7C535.707 1928.75 535.824 1927.53 536.524 1926.3C537.223 1925.07 538.479 1923.87 540.162 1923.02C541.84 1922.17 543.543 1921.91 544.954 1922.14C546.359 1922.36 547.442 1923.05 547.987 1924.08C548.467 1925.19 548.33 1926.48 547.639 1927.7C546.945 1928.92 545.7 1930.05 544.034 1930.76Z" fill="#F1F1F1" stroke="white"/>
<path d="M537.176 1898.13L537.186 1898.13L537.195 1898.14C538.318 1898.74 538.986 1899.94 539.129 1901.5C539.272 1903.06 538.88 1904.92 537.933 1906.69C536.989 1908.45 535.651 1909.77 534.296 1910.48C532.936 1911.19 531.627 1911.26 530.646 1910.68C529.568 1910.02 528.899 1908.79 528.74 1907.25C528.581 1905.71 528.941 1903.88 529.885 1902.12C530.829 1900.35 532.167 1899.04 533.522 1898.33C534.884 1897.62 536.194 1897.54 537.176 1898.13Z" fill="#F1F1F1" stroke="white"/>
<path d="M523.833 1898.3C524.834 1898.89 525.443 1900.04 525.573 1901.52C525.703 1903 525.344 1904.76 524.464 1906.47C523.589 1908.16 522.355 1909.38 521.087 1910.04C519.824 1910.7 518.564 1910.79 517.56 1910.32C516.571 1909.72 515.968 1908.58 515.84 1907.11C515.71 1905.63 516.068 1903.87 516.949 1902.16C517.827 1900.46 519.067 1899.18 520.337 1898.48C521.606 1897.79 522.849 1897.72 523.833 1898.3Z" fill="#F1F1F1" stroke="white"/>
<path d="M522.933 1930.74C522.907 1930.67 522.887 1930.61 522.874 1930.57C522.875 1930.55 522.876 1930.52 522.876 1930.5C522.88 1930.39 522.883 1930.23 522.882 1930.05C522.879 1929.67 522.859 1929.15 522.789 1928.57C522.65 1927.45 522.306 1926 521.412 1925.06L521.023 1924.64C520.598 1924.2 520.025 1923.87 519.439 1923.64C518.849 1923.4 518.216 1923.24 517.641 1923.13C517.065 1923.02 516.536 1922.96 516.152 1922.92C515.96 1922.91 515.803 1922.9 515.693 1922.89C515.656 1922.89 515.625 1922.89 515.599 1922.89C515.559 1922.87 515.5 1922.85 515.427 1922.82C515.273 1922.75 515.056 1922.66 514.812 1922.52C514.317 1922.26 513.739 1921.86 513.322 1921.35C512.914 1920.84 512.67 1920.24 512.787 1919.49C512.908 1918.73 513.421 1917.74 514.714 1916.51C519.109 1912.35 523.426 1911.91 526.639 1912.47C528.255 1912.76 529.602 1913.3 530.544 1913.77C531.015 1914.01 531.383 1914.23 531.631 1914.38C531.756 1914.46 531.85 1914.53 531.912 1914.57C531.935 1914.59 531.953 1914.6 531.967 1914.61L532.292 1914.95C532.301 1914.97 532.313 1914.98 532.327 1915.01C532.367 1915.07 532.425 1915.17 532.496 1915.3C532.639 1915.55 532.835 1915.93 533.043 1916.41C533.459 1917.37 533.92 1918.74 534.1 1920.35C534.457 1923.55 533.716 1927.76 529.198 1931.79L529.187 1931.8L529.177 1931.81C527.916 1933.07 526.916 1933.54 526.157 1933.62C525.418 1933.7 524.822 1933.42 524.33 1932.98C523.829 1932.52 523.456 1931.91 523.206 1931.39C523.082 1931.13 522.992 1930.91 522.933 1930.74Z" fill="#F1F1F1" stroke="white"/>
<path d="M-17.2547 2383.2C37.2639 2383.2 76.3934 2350.19 99.7514 2322.58C117.168 2346.4 127.532 2376 128 2407.78C127.992 2437.93 118.666 2465.94 102.764 2489.09C79.7188 2460.79 39.5956 2425.16 -17.2547 2425.16C-80.2108 2425.16 -119.182 2462.2 -137.924 2487.21C-153.213 2464.25 -162 2437.26 -162 2407.75C-162 2376.59 -152.197 2348 -135.348 2324.33C-115.671 2348.85 -77.7038 2383.2 -17.2547 2383.2Z" stroke="#F9F9F9" stroke-width="10"/>
<path d="M-17.2559 2345.7C-63.0412 2345.7 -94.0146 2321.2 -112.746 2299.23C-87.0904 2276.5 -53.9845 2263 -17.2559 2263C17.9388 2263 49.9804 2275.52 75.0722 2296.73C53.5985 2321.56 22.8153 2345.7 -17.2559 2345.7Z" stroke="#F9F9F9" stroke-width="10"/>
<path d="M-17.2546 2553C-55.5451 2553 -90.2036 2538.02 -116.014 2513.71C-98.056 2490.94 -65.9868 2463.17 -17.2546 2463.17C24.8803 2463.17 57.2306 2489.79 78.3608 2516.66C53.0922 2539.02 19.4913 2553 -17.2546 2553Z" stroke="#F9F9F9" stroke-width="10"/>
<path d="M1357.71 1904.41L1373.14 1878.82C1373.77 1877.77 1373.88 1876.48 1373.42 1875.34C1372.96 1874.2 1371.99 1873.34 1370.8 1873.03L1342.87 1865.64C1340.79 1865.09 1338.65 1866.34 1338.1 1868.43C1337.54 1870.51 1338.78 1872.65 1340.86 1873.2L1363.76 1879.26L1350.52 1901.22L1278.81 1882.25L1292.05 1860.3L1312.21 1865.63C1314.29 1866.18 1316.43 1864.93 1316.99 1862.84C1317.54 1860.76 1316.3 1858.62 1314.22 1858.07L1291.24 1851.99C1289.56 1851.54 1287.79 1852.26 1286.89 1853.75L1271.46 1879.34L1245.96 1863.96C1244.47 1863.06 1242.57 1863.26 1241.29 1864.44L1180.68 1920.43C1179.77 1921.27 1179.31 1922.48 1179.43 1923.7C1179.56 1924.93 1180.25 1926.02 1181.3 1926.65L1206.8 1942.03L1191.37 1967.62C1190.74 1968.67 1190.63 1969.96 1191.09 1971.1C1191.55 1972.24 1192.52 1973.1 1193.71 1973.41L1217.75 1979.77L1227.32 2018.68C1227.66 2020.06 1228.73 2021.15 1230.1 2021.51L1309.67 2042.55C1310.31 2042.72 1310.98 2042.72 1311.61 2042.57C1312.24 2042.41 1312.82 2042.1 1313.32 2041.64L1373.94 1985.65C1374.98 1984.68 1375.42 1983.22 1375.08 1981.83L1365.51 1942.93L1383.83 1926.01C1384.74 1925.17 1385.2 1923.96 1385.07 1922.74C1384.95 1921.51 1384.26 1920.42 1383.21 1919.79L1357.71 1904.41ZM1290.66 1957.41L1220.04 1938.73L1273.84 1889.03L1344.47 1907.71L1290.66 1957.41ZM1244.42 1872.17L1266.31 1885.37L1211.67 1935.83L1189.79 1922.64L1244.42 1872.17ZM1213.99 1945.22L1285.7 1964.19L1272.46 1986.15L1200.74 1967.18L1213.99 1945.22ZM1366.95 1981.48L1312.89 2031.42L1303.35 1992.64C1302.84 1990.55 1300.72 1989.27 1298.63 1989.8C1296.53 1990.32 1295.26 1992.44 1295.77 1994.53L1305.31 2033.31L1234.35 2014.54L1226.35 1982.05L1273.27 1994.45C1273.92 1994.63 1274.59 1994.62 1275.21 1994.47C1276.19 1994.22 1277.07 1993.6 1277.62 1992.69L1293.05 1967.1L1318.55 1982.48C1319.46 1983.03 1320.52 1983.17 1321.51 1982.92C1322.13 1982.77 1322.72 1982.46 1323.21 1982L1358.96 1948.98L1366.95 1981.48ZM1320.09 1974.27L1298.2 1961.07L1352.83 1910.61L1374.72 1923.8L1320.09 1974.27Z" fill="#F1F1F1" fill-opacity="0.5"/>
<path d="M1328.91 1869.54C1329.9 1869.29 1330.78 1868.65 1331.31 1867.76C1331.84 1866.88 1332.01 1865.8 1331.76 1864.8C1331.52 1863.81 1330.87 1862.93 1329.99 1862.4C1329.12 1861.87 1328.04 1861.71 1327.04 1861.96C1326.04 1862.21 1325.17 1862.85 1324.63 1863.74C1324.1 1864.62 1323.94 1865.7 1324.18 1866.69C1324.43 1867.69 1325.07 1868.57 1325.95 1869.1C1326.83 1869.63 1327.91 1869.79 1328.91 1869.54Z" fill="#F1F1F1" fill-opacity="0.5"/>
<path d="M1295.53 1977.2C1294.53 1977.45 1293.65 1978.1 1293.12 1978.98C1292.59 1979.87 1292.43 1980.94 1292.67 1981.94C1292.92 1982.94 1293.56 1983.81 1294.44 1984.35C1295.32 1984.88 1296.4 1985.04 1297.4 1984.79C1298.39 1984.54 1299.27 1983.89 1299.8 1983.01C1300.33 1982.13 1300.5 1981.05 1300.25 1980.05C1300.01 1979.05 1299.36 1978.18 1298.48 1977.65C1297.6 1977.11 1296.53 1976.95 1295.53 1977.2Z" fill="#F1F1F1" fill-opacity="0.5"/>
<g clip-path="url(#clip0)">
<path d="M285.423 4129.98L310.991 4114.61C312.045 4113.98 312.739 4112.89 312.864 4111.67C312.991 4110.45 312.534 4109.23 311.632 4108.4L290.396 4088.75C288.813 4087.29 286.342 4087.39 284.876 4088.97C283.412 4090.55 283.507 4093.02 285.091 4094.49L302.506 4110.6L280.564 4123.78L226.041 4073.34L247.983 4060.16L263.305 4074.34C264.888 4075.8 267.361 4075.71 268.825 4074.12C270.291 4072.54 270.195 4070.07 268.61 4068.6L251.136 4052.43C249.86 4051.25 247.959 4051.06 246.471 4051.95L220.901 4067.32L205.537 4041.75C204.642 4040.26 202.872 4039.54 201.194 4039.98L121.505 4060.99C120.316 4061.31 119.344 4062.16 118.882 4063.3C118.419 4064.44 118.519 4065.73 119.153 4066.78L134.516 4092.35L108.948 4107.71C107.893 4108.35 107.2 4109.44 107.074 4110.66C106.947 4111.88 107.404 4113.1 108.307 4113.93L126.588 4130.84L116.895 4169.72C116.55 4171.1 116.986 4172.56 118.032 4173.53L178.529 4229.49C179.019 4229.95 179.608 4230.26 180.236 4230.42C180.864 4230.57 181.53 4230.57 182.177 4230.4L261.865 4209.39C263.244 4209.03 264.315 4207.94 264.66 4206.56L274.353 4167.68L298.433 4161.33C299.622 4161.02 300.595 4160.17 301.056 4159.03C301.519 4157.89 301.419 4156.6 300.786 4155.55L285.423 4129.98ZM201.451 4145.33L147.752 4095.65L218.488 4077L272.187 4126.68L201.451 4145.33ZM200.352 4048.28L213.534 4070.23L141.714 4089.16L128.531 4067.22L200.352 4048.28ZM139.378 4098.55L193.9 4148.98L171.957 4162.17L117.434 4111.73L139.378 4098.55ZM257.638 4202.43L186.568 4221.17L196.228 4182.42C196.75 4180.33 195.477 4178.21 193.383 4177.69C191.29 4177.17 189.17 4178.44 188.648 4180.53L178.988 4219.28L125.034 4169.37L133.13 4136.89L168.803 4169.89C169.297 4170.35 169.887 4170.66 170.509 4170.82C171.49 4171.06 172.557 4170.92 173.467 4170.38L199.037 4155.01L214.401 4180.58C214.947 4181.49 215.824 4182.12 216.805 4182.36C217.427 4182.52 218.093 4182.52 218.745 4182.35L265.734 4169.96L257.638 4202.43ZM219.588 4174.04L206.404 4152.1L278.223 4133.16L291.409 4155.11L219.588 4174.04Z" fill="#F1F1F1" fill-opacity="0.5"/>
<path d="M284.736 4129.81L285.165 4129.55L310.733 4114.19L310.734 4114.19C311.652 4113.63 312.257 4112.68 312.367 4111.62L312.367 4111.62C312.478 4110.55 312.079 4109.49 311.292 4108.77C311.292 4108.77 311.292 4108.77 311.292 4108.77L290.057 4089.12C288.676 4087.84 286.521 4087.93 285.243 4089.31C283.966 4090.69 284.049 4092.85 285.431 4094.12L285.431 4094.12L302.846 4110.23L303.335 4110.68L302.764 4111.03L280.821 4124.21L280.499 4124.4L280.224 4124.15L225.702 4073.71L225.213 4073.26L225.784 4072.92L247.725 4059.73L248.047 4059.54L248.322 4059.79L263.645 4073.97C265.025 4075.25 267.181 4075.16 268.458 4073.78L268.458 4073.78C269.736 4072.4 269.652 4070.25 268.271 4068.97L268.27 4068.97L250.796 4052.8M284.736 4129.81L250.796 4052.8M284.736 4129.81L284.994 4130.23M284.736 4129.81L284.994 4130.23M250.796 4052.8C249.684 4051.77 248.026 4051.6 246.729 4052.38L246.729 4052.38L221.159 4067.75L220.73 4068L220.473 4067.58L205.109 4042.01C204.329 4040.71 202.784 4040.08 201.321 4040.47M250.796 4052.8L201.321 4040.47M201.321 4040.47C201.321 4040.47 201.321 4040.47 201.321 4040.47M201.321 4040.47L201.321 4040.47M201.321 4040.47L121.633 4061.48C120.596 4061.75 119.748 4062.5 119.345 4063.49L119.345 4063.49C118.942 4064.48 119.028 4065.61 119.581 4066.53L119.581 4066.53L134.944 4092.09L135.202 4092.52L134.773 4092.78L109.205 4108.14C108.286 4108.69 107.681 4109.65 107.571 4110.71L107.571 4110.71C107.461 4111.78 107.859 4112.83 108.646 4113.56L108.646 4113.56L126.927 4130.47L127.144 4130.67L127.073 4130.96L117.38 4169.84C117.079 4171.05 117.459 4172.32 118.372 4173.16C118.372 4173.16 118.372 4173.16 118.372 4173.16L178.868 4229.13L178.868 4229.13C179.296 4229.52 179.809 4229.8 180.357 4229.93C180.905 4230.07 181.486 4230.07 182.049 4229.92L182.049 4229.92L261.737 4208.91C261.737 4208.91 261.738 4208.91 261.738 4208.91M201.321 4040.47L261.738 4208.91M284.994 4130.23L300.357 4155.8L300.357 4155.8C300.91 4156.72 300.997 4157.85 300.593 4158.84L300.593 4158.84C300.191 4159.83 299.342 4160.58 298.306 4160.85M284.994 4130.23L285.851 4129.72M285.851 4129.72L310.991 4114.61C312.045 4113.98 312.739 4112.89 312.864 4111.67L285.851 4129.72ZM285.851 4129.72L285.423 4129.98L285.68 4130.41L300.786 4155.55C301.419 4156.6 301.519 4157.89 301.056 4159.03C300.595 4160.17 299.622 4161.02 298.433 4161.33M298.433 4161.33L298.306 4160.85L298.306 4160.85M298.433 4161.33L274.353 4167.68L298.433 4161.33ZM298.306 4160.85L274.225 4167.2L273.939 4167.27L273.868 4167.56L264.175 4206.44C263.874 4207.65 262.94 4208.59 261.738 4208.91M298.306 4160.85L261.738 4208.91M258.052 4202.84L257.766 4202.91L186.696 4221.65L185.879 4221.87L186.083 4221.05L195.743 4182.3C196.198 4180.48 195.088 4178.63 193.262 4178.17C191.437 4177.72 189.588 4178.83 189.133 4180.65L179.473 4219.4L179.269 4220.22L178.648 4219.64L124.695 4169.73L124.477 4169.53L124.549 4169.24L132.645 4136.77L132.849 4135.95L133.47 4136.53L169.142 4169.53L258.052 4202.84ZM258.052 4202.84L258.124 4202.55M258.052 4202.84L258.124 4202.55M258.124 4202.55L266.22 4170.08L266.424 4169.26L265.607 4169.47L218.618 4181.86L258.124 4202.55ZM199.208 4154.32L199.465 4154.75L214.83 4180.32L214.83 4180.32C215.306 4181.12 216.07 4181.66 216.926 4181.87C217.468 4182.01 218.049 4182.01 218.617 4181.86L199.208 4154.32ZM199.208 4154.32L198.779 4154.58M199.208 4154.32L198.779 4154.58M198.779 4154.58L173.209 4169.95C172.416 4170.42 171.486 4170.55 170.63 4170.33C170.088 4170.2 169.574 4169.93 169.142 4169.53L198.779 4154.58ZM201.112 4145.69L201.313 4145.88L201.579 4145.81L272.314 4127.16L273.195 4126.93L272.526 4126.31L218.827 4076.63L218.626 4076.44L218.36 4076.51L147.625 4095.17L146.744 4095.4L147.413 4096.02L201.112 4145.69ZM200.78 4048.03L200.587 4047.71L200.224 4047.8L128.403 4066.74L127.759 4066.91L128.102 4067.48L141.286 4089.42L141.479 4089.74L141.842 4089.65L213.661 4070.71L214.305 4070.54L213.962 4069.97L200.78 4048.03ZM139.717 4098.18L139.442 4097.92L139.12 4098.12L117.176 4111.3L116.605 4111.64L117.094 4112.1L171.618 4162.54L171.893 4162.79L172.215 4162.6L194.158 4149.41L194.729 4149.07L194.24 4148.62L139.717 4098.18ZM219.159 4174.3L219.353 4174.62L219.716 4174.53L291.537 4155.59L292.181 4155.42L291.838 4154.85L278.651 4132.91L278.458 4132.58L278.095 4132.68L206.276 4151.62L205.632 4151.79L205.975 4152.36L219.159 4174.3Z" stroke="#F1F1F1" stroke-opacity="0.5" stroke-width="0.999999"/>
<path d="M276.238 4085.64C277.235 4085.89 278.31 4085.73 279.195 4085.2C280.076 4084.67 280.725 4083.79 280.973 4082.8C281.222 4081.8 281.06 4080.72 280.531 4079.84C280.002 4078.96 279.125 4078.31 278.128 4078.06C277.127 4077.81 276.052 4077.97 275.171 4078.5C274.287 4079.03 273.642 4079.91 273.393 4080.91C273.144 4081.9 273.302 4082.98 273.836 4083.86C274.364 4084.74 275.242 4085.39 276.238 4085.64Z" fill="#F1F1F1" fill-opacity="0.5"/>
<path d="M196.519 4165.1C195.522 4164.86 194.443 4165.02 193.562 4165.55C192.681 4166.08 192.032 4166.95 191.784 4167.95C191.534 4168.95 191.697 4170.02 192.225 4170.91C192.754 4171.79 193.632 4172.44 194.629 4172.68C195.625 4172.93 196.704 4172.77 197.585 4172.25C198.466 4171.71 199.115 4170.84 199.364 4169.84C199.613 4168.84 199.45 4167.77 198.922 4166.88C198.393 4166 197.515 4165.35 196.519 4165.1Z" fill="#F1F1F1" fill-opacity="0.5"/>
</g>
<path d="M1556.89 4116.54C1534.48 4144.55 1495.26 4180.2 1439.75 4180.2C1377.1 4180.2 1339.41 4142 1321.58 4118.07C1301.71 4143.53 1290 4175.11 1290 4209.75C1290 4242.85 1300.7 4272.9 1319.03 4297.86C1335.33 4273.92 1374.04 4232.16 1439.75 4232.16C1497.81 4232.16 1538.05 4270.87 1559.95 4299.39C1578.79 4274.43 1590 4243.36 1590 4209.75C1589.49 4174.6 1577.27 4142 1556.89 4116.54Z" fill="#F9F9F9"/>
<path d="M1337.37 4100.75C1356.21 4124.18 1389.32 4152.7 1439.74 4152.7C1484.06 4152.7 1517.16 4124.69 1539.06 4098.2C1512.58 4074.26 1477.94 4060 1439.74 4060C1400.02 4060 1364.36 4075.28 1337.37 4100.75Z" fill="#F9F9F9"/>
<path d="M1439.75 4260.17C1386.26 4260.17 1352.14 4292.26 1334.31 4316.2C1361.31 4343.19 1398.49 4360 1439.75 4360C1479.47 4360 1515.64 4344.21 1542.12 4319.25C1520.73 4290.73 1486.1 4260.17 1439.75 4260.17Z" fill="#F9F9F9"/>
<path opacity="0.5" d="M48.0688 4846.65C39.7828 4832.19 42.122 4814.17 53.3773 4802.3C49.6721 4786.36 56.7677 4769.64 71.231 4761.35C89.1738 4751.07 112.132 4757.31 122.411 4775.25C125.527 4780.69 127.176 4786.73 127.276 4792.99L194.544 4811.26C197.795 4805.91 202.277 4801.52 207.71 4798.41C225.653 4788.13 248.611 4794.37 258.89 4812.31C267.176 4826.77 264.837 4844.79 253.582 4856.66C257.287 4872.6 250.191 4889.32 235.728 4897.61C217.785 4907.89 194.827 4901.65 184.548 4883.71C181.432 4878.27 179.783 4872.22 179.683 4865.97L112.418 4847.71C109.169 4853.05 104.688 4857.43 99.2485 4860.55C81.3055 4870.83 58.3483 4864.59 48.0688 4846.65ZM111.565 4781.46C104.711 4769.5 89.4085 4765.34 77.4447 4772.2C67.001 4778.18 62.3255 4790.77 66.3273 4802.14C67.1875 4804.59 66.4481 4807.31 64.4679 4808.99C55.2662 4816.77 52.9316 4829.99 58.9148 4840.44C65.7688 4852.4 81.071 4856.56 93.0348 4849.7C97.6794 4847.04 101.278 4842.96 103.441 4837.9C104.667 4835.03 107.818 4833.5 110.825 4834.32L187.828 4855.23C190.852 4856.05 192.78 4858.96 192.389 4862.05C191.692 4867.51 192.733 4872.85 195.394 4877.5C202.248 4889.46 217.55 4893.62 229.514 4886.76C239.958 4880.78 244.633 4868.19 240.631 4856.82C239.771 4854.37 240.511 4851.65 242.491 4849.97C251.693 4842.19 254.027 4828.97 248.044 4818.52C241.19 4806.56 225.888 4802.4 213.924 4809.26C209.285 4811.91 205.689 4816 203.521 4821.07C202.291 4823.93 199.141 4825.46 196.134 4824.64L119.131 4803.73C116.119 4802.93 114.174 4800.01 114.57 4796.91C115.266 4791.45 114.226 4786.11 111.565 4781.46Z" fill="#F1F1F1"/>
<path d="M1374.98 4756.91L1404.4 4751.98C1405.62 4751.78 1406.66 4751.01 1407.23 4749.92C1407.79 4748.83 1407.81 4747.54 1407.28 4746.43L1394.71 4720.37C1393.77 4718.43 1391.44 4717.62 1389.5 4718.55C1387.55 4719.49 1386.74 4721.82 1387.67 4723.77L1397.98 4745.14L1372.73 4749.37L1340.47 4682.46L1365.72 4678.23L1374.78 4697.04C1375.72 4698.98 1378.06 4699.8 1380 4698.86C1381.94 4697.92 1382.76 4695.58 1381.82 4693.64L1371.48 4672.2C1370.73 4670.63 1369.03 4669.75 1367.32 4670.04L1337.9 4674.97L1332.97 4645.55C1332.68 4643.84 1331.29 4642.52 1329.57 4642.32L1247.72 4632.68C1246.5 4632.54 1245.28 4632.98 1244.44 4633.87C1243.59 4634.76 1243.21 4636 1243.41 4637.21L1248.34 4666.63L1218.93 4671.56C1217.71 4671.76 1216.67 4672.52 1216.1 4673.61C1215.54 4674.71 1215.52 4676 1216.05 4677.11L1226.87 4699.54L1203.61 4732.16C1202.78 4733.33 1202.65 4734.84 1203.27 4736.13L1239.07 4810.36C1239.36 4810.96 1239.79 4811.47 1240.32 4811.85C1240.85 4812.22 1241.47 4812.47 1242.13 4812.54L1323.98 4822.18C1325.39 4822.35 1326.79 4821.73 1327.62 4820.57L1350.87 4787.94L1375.61 4790.85C1376.83 4791 1378.05 4790.56 1378.89 4789.67C1379.74 4788.78 1380.12 4787.54 1379.92 4786.33L1374.98 4756.91ZM1291.23 4740.44L1259.45 4674.55L1332.11 4683.1L1363.88 4748.99L1291.23 4740.44ZM1325.75 4649.74L1329.98 4674.98L1256.21 4666.3L1251.98 4641.05L1325.75 4649.74ZM1250.6 4674.17L1282.86 4741.08L1257.61 4745.31L1225.35 4678.4L1250.6 4674.17ZM1322.6 4814.15L1249.6 4805.56L1272.78 4773.04C1274.03 4771.29 1273.62 4768.85 1271.87 4767.59C1270.11 4766.34 1267.67 4766.75 1266.42 4768.51L1243.24 4801.02L1211.31 4734.82L1230.74 4707.57L1251.85 4751.34C1252.14 4751.95 1252.58 4752.45 1253.1 4752.82C1253.92 4753.41 1254.97 4753.67 1256.01 4753.5L1285.43 4748.56L1290.36 4777.99C1290.54 4779.03 1291.13 4779.93 1291.95 4780.52C1292.47 4780.89 1293.09 4781.14 1293.76 4781.22L1342.02 4786.9L1322.6 4814.15ZM1297.58 4773.8L1293.35 4748.55L1367.12 4757.24L1371.35 4782.49L1297.58 4773.8Z" fill="#F1F1F1"/>
<path d="M1382.67 4712.29C1383.51 4712.89 1384.57 4713.13 1385.59 4712.96C1386.6 4712.79 1387.53 4712.22 1388.12 4711.38C1388.72 4710.54 1388.96 4709.48 1388.79 4708.47C1388.62 4707.45 1388.05 4706.53 1387.21 4705.93C1386.37 4705.33 1385.31 4705.09 1384.3 4705.26C1383.28 4705.43 1382.36 4706.01 1381.76 4706.84C1381.16 4707.68 1380.92 4708.74 1381.09 4709.76C1381.26 4710.77 1381.84 4711.7 1382.67 4712.29Z" fill="#F1F1F1"/>
<path d="M1279.39 4757.04C1278.56 4756.44 1277.49 4756.19 1276.48 4756.36C1275.46 4756.54 1274.54 4757.11 1273.94 4757.95C1273.35 4758.79 1273.1 4759.85 1273.27 4760.86C1273.44 4761.88 1274.02 4762.8 1274.86 4763.4C1275.69 4763.99 1276.76 4764.24 1277.77 4764.07C1278.78 4763.9 1279.71 4763.32 1280.31 4762.48C1280.9 4761.65 1281.15 4760.59 1280.98 4759.57C1280.81 4758.56 1280.23 4757.63 1279.39 4757.04Z" fill="#F1F1F1"/>
<path d="M615.906 5239.31C613.644 5236.01 613.562 5231.98 615.995 5230.26C618.427 5228.54 622.25 5229.71 624.664 5233.11C626.926 5236.41 627.009 5240.44 624.576 5242.16C622.143 5243.89 618.168 5242.61 615.906 5239.31Z" fill="#F1F1F1"/>
<path d="M629.519 5228.73C627.35 5230.41 627.392 5234.18 629.765 5237.32C632.139 5240.47 635.698 5241.67 637.756 5240.15C639.925 5238.46 639.883 5234.69 637.509 5231.55C635.136 5228.41 631.577 5227.2 629.519 5228.73Z" fill="#F1F1F1"/>
<path d="M619.933 5248.81C620.886 5246.24 618.36 5242.98 614.385 5241.7C610.41 5240.42 606.385 5241.44 605.474 5244.28C604.522 5246.85 607.047 5250.11 611.022 5251.39C614.997 5252.67 618.87 5251.54 619.933 5248.81Z" fill="#F1F1F1"/>
<path d="M616.568 5254.99C612.746 5253.82 608.984 5254.8 608.032 5257.38C607.08 5259.95 609.565 5262.94 613.388 5264.11C617.211 5265.28 620.972 5264.3 621.924 5261.72C622.613 5259.19 620.391 5256.16 616.568 5254.99Z" fill="#F1F1F1"/>
<path d="M622.995 5245.91L622.661 5246.37C622.661 5246.37 617.717 5256.3 627.757 5263.66C633.689 5268.02 634.671 5261.26 634.671 5261.26C634.671 5261.26 634.101 5257.57 635.328 5255.89L635.662 5255.44C637 5253.61 640.579 5253.2 640.579 5253.2C640.579 5253.2 646.844 5250.08 640.799 5245.88C630.982 5238.21 622.995 5245.91 622.995 5245.91Z" fill="#F1F1F1"/>
<path d="M584.95 5179.44C582.688 5176.14 582.606 5172.11 585.038 5170.39C587.471 5168.66 591.294 5169.83 593.708 5173.24C595.97 5176.53 596.053 5180.57 593.62 5182.29C591.299 5183.86 587.324 5182.58 584.95 5179.44Z" fill="#F1F1F1"/>
<path d="M598.408 5168.74C596.238 5170.42 596.28 5174.19 598.654 5177.34C601.027 5180.48 604.587 5181.69 606.644 5180.16C608.813 5178.48 608.772 5174.71 606.398 5171.57C604.288 5168.38 600.729 5167.17 598.408 5168.74Z" fill="#F1F1F1"/>
<path d="M588.978 5188.94C589.93 5186.36 587.405 5183.11 583.43 5181.83C579.455 5180.55 575.43 5181.57 574.519 5184.41C573.566 5186.98 576.092 5190.24 580.067 5191.52C584.153 5192.64 588.026 5191.51 588.978 5188.94Z" fill="#F1F1F1"/>
<path d="M585.723 5194.97C581.9 5193.8 578.139 5194.78 577.187 5197.35C576.234 5199.93 578.719 5202.92 582.542 5204.09C586.365 5205.25 590.126 5204.27 591.078 5201.7C591.767 5199.17 589.546 5196.13 585.723 5194.97Z" fill="#F1F1F1"/>
<path d="M592.15 5185.89L591.815 5186.34C591.815 5186.34 586.871 5196.27 596.911 5203.64C602.844 5207.99 603.825 5201.23 603.825 5201.23C603.825 5201.23 603.256 5197.54 604.482 5195.87L604.816 5195.41C606.154 5193.59 609.733 5193.18 609.733 5193.18C609.733 5193.18 615.998 5190.06 609.954 5185.86C600.137 5178.19 592.15 5185.89 592.15 5185.89Z" fill="#F1F1F1"/>
<path d="M510.63 5175.18C508.368 5171.88 508.285 5167.85 510.718 5166.13C513.151 5164.4 516.974 5165.57 519.388 5168.98C521.65 5172.27 521.732 5176.31 519.3 5178.03C516.978 5179.6 513.004 5178.32 510.63 5175.18Z" fill="#F1F1F1"/>
<path d="M524.087 5164.48C521.918 5166.16 521.96 5169.93 524.334 5173.08C526.707 5176.22 530.266 5177.43 532.324 5175.9C534.493 5174.22 534.451 5170.45 532.078 5167.3C529.968 5164.12 526.409 5162.91 524.087 5164.48Z" fill="#F1F1F1"/>
<path d="M514.767 5184.52C515.72 5181.95 513.194 5178.7 509.219 5177.42C505.244 5176.14 501.219 5177.16 500.308 5180C499.355 5182.57 501.881 5185.82 505.856 5187.1C509.831 5188.38 513.704 5187.25 514.767 5184.52Z" fill="#F1F1F1"/>
<path d="M511.402 5190.71C507.58 5189.54 503.818 5190.52 502.866 5193.09C501.914 5195.67 504.399 5198.66 508.222 5199.83C512.045 5200.99 515.806 5200.01 516.758 5197.44C517.447 5194.91 515.225 5191.87 511.402 5190.71Z" fill="#F1F1F1"/>
<path d="M517.829 5181.63L517.495 5182.08C517.495 5182.08 512.551 5192.01 522.591 5199.38C528.675 5203.84 529.768 5196.93 529.768 5196.93C529.768 5196.93 529.199 5193.24 530.425 5191.57L530.76 5191.11C532.097 5189.29 535.676 5188.88 535.676 5188.88C535.676 5188.88 541.941 5185.76 535.897 5181.56C525.816 5173.93 517.829 5181.63 517.829 5181.63Z" fill="#F1F1F1"/>
<path d="M489.263 5111.82C487.001 5108.52 486.918 5104.49 489.351 5102.76C491.784 5101.04 495.606 5102.21 498.021 5105.62C500.283 5108.91 500.365 5112.95 497.933 5114.67C495.611 5116.24 491.636 5114.96 489.263 5111.82Z" fill="#F1F1F1"/>
<path d="M502.716 5101.12C500.547 5102.8 500.589 5106.57 502.962 5109.72C505.336 5112.86 508.895 5114.07 510.953 5112.54C513.122 5110.86 513.08 5107.09 510.707 5103.94C508.597 5100.76 505.037 5099.55 502.716 5101.12Z" fill="#F1F1F1"/>
<path d="M493.396 5121.16C494.348 5118.59 491.823 5115.33 487.848 5114.05C483.873 5112.78 479.848 5113.8 478.937 5116.63C477.984 5119.21 480.51 5122.46 484.485 5123.74C488.46 5125.02 492.333 5123.89 493.396 5121.16Z" fill="#F1F1F1"/>
<path d="M490.031 5127.34C486.209 5126.18 482.447 5127.16 481.495 5129.73C480.543 5132.31 483.028 5135.3 486.851 5136.46C490.674 5137.63 494.435 5136.65 495.387 5134.08C496.076 5131.54 493.854 5128.51 490.031 5127.34Z" fill="#F1F1F1"/>
<path d="M496.458 5118.27L496.124 5118.72C496.124 5118.72 491.179 5128.65 501.219 5136.02C507.152 5140.37 508.133 5133.61 508.133 5133.61C508.133 5133.61 507.564 5129.92 508.791 5128.25L509.125 5127.79C510.463 5125.97 514.042 5125.55 514.042 5125.55C514.042 5125.55 520.306 5122.44 514.262 5118.24C504.445 5110.57 496.458 5118.27 496.458 5118.27Z" fill="#F1F1F1"/>
<path opacity="0.5" d="M77.0231 5406.18C60.4813 5404.12 47.4733 5391.44 44.733 5375.31C29.7641 5368.71 20.6441 5352.99 22.6971 5336.45C25.2441 5315.93 44.0092 5301.31 64.5305 5303.86C70.751 5304.63 76.5778 5306.94 81.639 5310.61L136.626 5267.77C134.297 5261.96 133.481 5255.75 134.253 5249.53C136.8 5229.01 155.565 5214.39 176.086 5216.94C192.628 5218.99 205.636 5231.67 208.376 5247.8C223.345 5254.4 232.465 5270.12 230.412 5286.66C227.865 5307.18 209.1 5321.8 188.579 5319.25C182.358 5318.48 176.531 5316.17 171.47 5312.5L116.489 5355.34C118.813 5361.14 119.629 5367.36 118.857 5373.58C116.309 5394.1 97.5447 5408.72 77.0231 5406.18ZM62.9909 5316.26C49.3078 5314.56 36.8001 5324.31 35.1018 5337.99C33.6194 5349.94 40.8831 5361.23 52.3778 5364.86C54.8516 5365.64 56.5866 5367.86 56.7389 5370.45C57.4412 5382.48 66.6185 5392.29 78.563 5393.77C92.2461 5395.47 104.754 5385.72 106.452 5372.04C107.111 5366.73 106.007 5361.4 103.254 5356.63C101.695 5353.93 102.367 5350.49 104.825 5348.58L167.766 5299.54C170.237 5297.61 173.723 5297.82 175.958 5299.98C179.91 5303.82 184.806 5306.19 190.118 5306.85C203.802 5308.55 216.309 5298.8 218.008 5285.12C219.49 5273.17 212.226 5261.88 200.732 5258.26C198.258 5257.48 196.523 5255.25 196.37 5252.66C195.668 5240.63 186.491 5230.82 174.546 5229.34C160.863 5227.64 148.356 5237.39 146.657 5251.07C145.999 5256.38 147.109 5261.71 149.862 5266.48C151.415 5269.18 150.742 5272.62 148.284 5274.53L85.3439 5323.58C82.8965 5325.5 79.3964 5325.31 77.1515 5323.13C73.1991 5319.29 68.3029 5316.92 62.9909 5316.26Z" fill="#F1F1F1"/>
<path d="M1026.82 5122.4C1021 5106.78 1026.25 5089.39 1039.28 5079.51C1038.22 5063.18 1047.95 5047.83 1063.57 5042.01C1082.94 5034.79 1104.58 5044.68 1111.8 5064.06C1113.99 5069.93 1114.63 5076.17 1113.71 5082.35L1177.11 5111.33C1181.19 5106.58 1186.32 5102.99 1192.19 5100.8C1211.57 5093.58 1233.2 5103.47 1240.42 5122.84C1246.24 5138.46 1241 5155.86 1227.97 5165.74C1229.03 5182.07 1219.3 5197.41 1203.68 5203.23C1184.31 5210.46 1162.67 5200.57 1155.45 5181.19C1153.26 5175.32 1152.62 5169.08 1153.54 5162.9L1090.14 5133.92C1086.07 5138.67 1080.93 5142.26 1075.06 5144.45C1055.68 5151.67 1034.05 5141.78 1026.82 5122.4ZM1100.09 5068.42C1095.27 5055.5 1080.85 5048.91 1067.93 5053.73C1056.65 5057.93 1049.99 5069.59 1052.09 5081.46C1052.54 5084.01 1051.36 5086.58 1049.14 5087.91C1038.79 5094.09 1034.33 5106.76 1038.54 5118.04C1043.35 5130.96 1057.77 5137.55 1070.69 5132.74C1075.71 5130.87 1079.92 5127.43 1082.88 5122.78C1084.56 5120.15 1087.92 5119.16 1090.75 5120.45L1163.32 5153.62C1166.17 5154.92 1167.6 5158.11 1166.71 5161.09C1165.14 5166.37 1165.29 5171.81 1167.16 5176.83C1171.98 5189.75 1186.4 5196.34 1199.32 5191.52C1210.6 5187.32 1217.26 5175.66 1215.16 5163.79C1214.71 5161.24 1215.88 5158.67 1218.11 5157.34C1228.46 5151.16 1232.91 5138.49 1228.71 5127.21C1223.9 5114.29 1209.47 5107.7 1196.55 5112.51C1191.54 5114.38 1187.33 5117.83 1184.37 5122.47C1182.69 5125.1 1179.33 5126.09 1176.5 5124.79L1103.93 5091.63C1101.08 5090.35 1099.64 5087.15 1100.54 5084.16C1102.11 5078.88 1101.96 5073.44 1100.09 5068.42Z" fill="#F9F9F9"/>
<defs>
<clipPath id="clip0">
<rect width="200" height="200" fill="white" transform="translate(130.385 4017) rotate(14)"/>
</clipPath>
</defs>
</svg>
