<svg width="535" height="663" viewBox="0 0 535 663" fill="none" xmlns="http://www.w3.org/2000/svg">
<path opacity="0.5" d="M8.10849 87.9129C5.94649 71.385 14.9631 55.6108 29.8879 48.9126C32.5218 32.7667 45.446 19.9964 61.9739 17.8344C82.478 15.1523 101.339 29.6498 104.021 50.1538C104.834 56.369 104.06 62.589 101.774 68.4096L157.037 110.892C162.079 107.18 167.89 104.831 174.1 104.019C194.604 101.337 213.465 115.835 216.147 136.339C218.309 152.866 209.292 168.641 194.368 175.339C191.734 191.485 178.809 204.255 162.281 206.417C141.777 209.099 122.916 194.602 120.234 174.098C119.421 167.882 120.196 161.662 122.481 155.842L67.219 113.365C62.1821 117.071 56.371 119.42 50.1554 120.233C29.6513 122.914 10.7907 108.417 8.10849 87.9129ZM91.6269 51.7751C89.8385 38.1035 77.2668 28.4404 63.5952 30.2287C51.6607 31.7899 42.5482 41.6548 41.9252 53.6907C41.7899 56.2812 40.0701 58.5192 37.6011 59.3163C26.1308 63.0141 18.9413 74.3575 20.5025 86.292C22.2909 99.9636 34.8625 109.627 48.5341 107.838C53.8417 107.144 58.7224 104.739 62.6491 100.877C64.8744 98.6897 68.368 98.4789 70.8384 100.378L134.101 149.004C136.585 150.914 137.261 154.34 135.725 157.046C133.003 161.834 131.934 167.169 132.628 172.477C134.417 186.148 146.988 195.812 160.66 194.023C172.594 192.462 181.707 182.597 182.33 170.561C182.465 167.971 184.185 165.733 186.654 164.936C198.124 161.238 205.314 149.894 203.753 137.96C201.964 124.288 189.393 114.625 175.721 116.414C170.419 117.107 165.54 119.518 161.607 123.381C159.381 125.562 155.887 125.773 153.417 123.874L90.1543 75.2479C87.6732 73.3626 86.9835 69.9256 88.53 67.2058C91.2521 62.4175 92.3211 57.0826 91.6269 51.7751Z" fill="#F1F1F1" fill-opacity="0.1"/>
<path d="M507.535 525.535L522.868 500.109C523.501 499.062 523.604 497.778 523.147 496.647C522.692 495.514 521.729 494.664 520.549 494.351L492.793 487.011C490.724 486.464 488.598 487.702 488.045 489.776C487.493 491.852 488.722 493.977 490.793 494.524L513.555 500.543L500.396 522.363L429.131 503.515L442.288 481.696L462.317 486.994C464.386 487.54 466.513 486.304 467.065 484.228C467.618 482.154 466.388 480.027 464.317 479.481L441.475 473.439C439.809 472.998 438.048 473.713 437.157 475.194L421.823 500.622L396.475 485.337C394.999 484.447 393.111 484.642 391.842 485.814L331.599 541.462C330.7 542.292 330.242 543.496 330.365 544.713C330.486 545.928 331.172 547.015 332.216 547.644L357.562 562.928L342.229 588.353C341.596 589.401 341.493 590.683 341.95 591.817C342.405 592.949 343.368 593.8 344.547 594.11L368.442 600.431L377.952 639.097C378.291 640.474 379.352 641.553 380.72 641.916L459.793 662.827C460.435 662.997 461.097 662.996 461.72 662.84C462.344 662.685 462.93 662.374 463.419 661.923L523.663 606.276C524.705 605.313 525.142 603.86 524.804 602.483L515.294 563.816L533.499 547.001C534.397 546.171 534.855 544.966 534.732 543.751C534.612 542.535 533.926 541.448 532.881 540.819L507.535 525.535ZM440.905 578.209L370.716 559.647L424.191 510.249L494.381 528.814L440.905 578.209ZM394.952 493.498L416.7 506.614L362.406 556.768L340.656 543.652L394.952 493.498ZM364.704 566.098L435.969 584.946L422.81 606.767L351.544 587.92L364.704 566.098ZM516.722 602.132L462.993 651.761L453.515 613.226C453.003 611.143 450.902 609.876 448.822 610.395C446.741 610.914 445.47 613.022 445.982 615.104L455.46 653.639L384.938 634.989L376.994 602.693L423.622 615.025C424.268 615.195 424.93 615.192 425.548 615.038C426.523 614.795 427.395 614.174 427.941 613.269L443.274 587.841L468.622 603.127C469.524 603.672 470.583 603.81 471.558 603.567C472.176 603.412 472.762 603.104 473.255 602.65L508.779 569.836L516.722 602.132ZM470.147 594.965L448.395 581.846L502.69 531.695L524.443 544.81L470.147 594.965Z" fill="#F1F1F1" fill-opacity="0.1"/>
</svg>
