<svg width="225" height="225" viewBox="0 0 225 225" fill="none" xmlns="http://www.w3.org/2000/svg">
<path opacity="0.5" d="M8.10849 87.9129C5.94649 71.385 14.9631 55.6108 29.8879 48.9126C32.5218 32.7667 45.446 19.9964 61.9739 17.8344C82.478 15.1523 101.339 29.6498 104.021 50.1538C104.834 56.369 104.06 62.589 101.774 68.4096L157.037 110.892C162.079 107.18 167.89 104.831 174.1 104.019C194.604 101.337 213.465 115.835 216.147 136.339C218.309 152.866 209.292 168.641 194.368 175.339C191.734 191.485 178.809 204.255 162.281 206.417C141.777 209.099 122.916 194.602 120.234 174.098C119.421 167.882 120.196 161.662 122.481 155.842L67.219 113.365C62.1821 117.071 56.371 119.42 50.1554 120.233C29.6513 122.914 10.7907 108.417 8.10849 87.9129ZM91.6269 51.7751C89.8385 38.1035 77.2668 28.4404 63.5952 30.2287C51.6607 31.7899 42.5482 41.6548 41.9252 53.6907C41.7899 56.2812 40.0701 58.5192 37.6011 59.3163C26.1308 63.0141 18.9413 74.3575 20.5025 86.292C22.2909 99.9636 34.8625 109.627 48.5341 107.838C53.8417 107.144 58.7224 104.739 62.6491 100.877C64.8744 98.6897 68.368 98.4789 70.8384 100.378L134.101 149.004C136.585 150.914 137.261 154.34 135.725 157.046C133.003 161.834 131.934 167.169 132.628 172.477C134.417 186.148 146.988 195.812 160.66 194.023C172.594 192.462 181.707 182.597 182.33 170.561C182.465 167.971 184.185 165.733 186.654 164.936C198.124 161.238 205.314 149.894 203.753 137.96C201.964 124.288 189.393 114.625 175.721 116.414C170.419 117.107 165.54 119.518 161.607 123.381C159.381 125.562 155.887 125.773 153.417 123.874L90.1543 75.2479C87.6732 73.3626 86.9835 69.9256 88.53 67.2058C91.2521 62.4175 92.3211 57.0826 91.6269 51.7751Z" fill="#F1F1F1"/>
</svg>
