<svg width="1802" height="666" viewBox="0 0 1802 666" fill="none" xmlns="http://www.w3.org/2000/svg">
<path d="M442.278 187.954C444.022 187.171 445.827 186.943 447.324 187.216C448.82 187.489 449.966 188.249 450.509 189.415C451.599 191.753 450.057 195.059 446.396 196.768C444.653 197.55 442.849 197.777 441.353 197.505C439.857 197.232 438.711 196.471 438.168 195.305C437.622 194.134 437.757 192.708 438.494 191.345C439.23 189.985 440.548 188.729 442.278 187.954Z" fill="#F1F1F1" stroke="white"/>
<path d="M441.774 201.934C443.451 201.089 445.155 200.829 446.566 201.052C447.975 201.274 449.06 201.969 449.604 203.01C450.073 203.964 449.956 205.178 449.256 206.413C448.557 207.645 447.301 208.845 445.618 209.694C443.94 210.539 442.237 210.799 440.826 210.576C439.417 210.354 438.331 209.66 437.788 208.618C437.318 207.664 437.435 206.45 438.135 205.216C438.834 203.983 440.091 202.783 441.774 201.934Z" fill="#F1F1F1" stroke="white"/>
<path d="M438.796 176.776L438.805 176.782L438.815 176.787C439.937 177.387 440.605 178.593 440.748 180.152C440.891 181.711 440.499 183.57 439.552 185.339C438.608 187.103 437.27 188.421 435.915 189.13C434.556 189.841 433.247 189.912 432.265 189.333C431.187 188.668 430.518 187.443 430.359 185.901C430.2 184.358 430.56 182.533 431.504 180.768C432.448 179.005 433.786 177.686 435.142 176.977C436.503 176.266 437.813 176.195 438.796 176.776Z" fill="#F1F1F1" stroke="white"/>
<path d="M425.452 176.95C426.453 177.542 427.062 178.686 427.192 180.168C427.322 181.648 426.963 183.411 426.083 185.116C425.208 186.811 423.974 188.03 422.706 188.69C421.443 189.347 420.183 189.438 419.18 188.968C418.19 188.372 417.588 187.233 417.459 185.761C417.329 184.281 417.688 182.518 418.568 180.813C419.446 179.111 420.686 177.826 421.956 177.135C423.225 176.444 424.468 176.368 425.452 176.95Z" fill="#F1F1F1" stroke="white"/>
<path d="M424.552 209.395C424.526 209.324 424.507 209.265 424.493 209.223C424.494 209.201 424.495 209.176 424.496 209.147C424.499 209.039 424.502 208.886 424.501 208.697C424.499 208.321 424.479 207.8 424.408 207.224C424.269 206.1 423.925 204.651 423.031 203.706L422.642 203.296C422.217 202.847 421.644 202.525 421.058 202.29C420.469 202.053 419.835 201.891 419.26 201.781C418.684 201.67 418.155 201.609 417.771 201.575C417.579 201.558 417.422 201.547 417.312 201.542C417.275 201.54 417.244 201.538 417.218 201.537C417.178 201.522 417.119 201.499 417.046 201.469C416.892 201.404 416.675 201.307 416.431 201.175C415.936 200.907 415.358 200.515 414.941 199.999C414.533 199.495 414.289 198.887 414.406 198.142C414.527 197.378 415.04 196.388 416.333 195.163C420.728 191.003 425.045 190.558 428.258 191.124C429.874 191.408 431.221 191.952 432.163 192.425C432.634 192.661 433.002 192.879 433.251 193.036C433.375 193.114 433.469 193.178 433.531 193.221C433.554 193.237 433.572 193.25 433.586 193.26L433.911 193.603C433.92 193.617 433.932 193.636 433.947 193.66C433.986 193.724 434.044 193.821 434.115 193.949C434.258 194.205 434.454 194.583 434.662 195.064C435.078 196.026 435.539 197.391 435.719 199.002C436.076 202.2 435.335 206.416 430.817 210.441L430.806 210.45L430.796 210.46C429.535 211.717 428.535 212.187 427.776 212.271C427.037 212.352 426.441 212.074 425.95 211.629C425.448 211.174 425.076 210.561 424.825 210.04C424.702 209.783 424.611 209.556 424.552 209.395Z" fill="#F1F1F1" stroke="white"/>
<path d="M503.043 171.708C503.782 170.342 505.073 169.051 506.74 168.209C508.481 167.43 510.282 167.204 511.776 167.476C513.271 167.749 514.418 168.509 514.961 169.675C516.05 172.013 514.509 175.319 510.847 177.028C509.104 177.809 507.3 178.037 505.805 177.764C504.311 177.492 503.166 176.733 502.621 175.57C502.141 174.474 502.3 173.081 503.043 171.708Z" fill="#F1F1F1" stroke="white"/>
<path d="M510.235 189.812L510.221 189.818L510.207 189.825C508.53 190.67 506.827 190.93 505.416 190.707C504.007 190.485 502.921 189.79 502.378 188.749C501.908 187.795 502.025 186.581 502.725 185.347C503.424 184.114 504.68 182.914 506.364 182.065C508.041 181.22 509.744 180.96 511.155 181.183C512.56 181.405 513.643 182.095 514.188 183.131C514.668 184.235 514.531 185.525 513.841 186.743C513.146 187.968 511.901 189.097 510.235 189.812Z" fill="#F1F1F1" stroke="white"/>
<path d="M503.247 157.034L503.256 157.039L503.266 157.045C504.388 157.645 505.056 158.85 505.199 160.41C505.343 161.969 504.95 163.828 504.003 165.597C503.06 167.36 501.722 168.679 500.366 169.388C499.005 170.099 497.694 170.17 496.712 169.589C495.711 168.997 495.068 167.817 494.907 166.261C494.748 164.714 495.078 162.852 495.96 161.017C496.904 159.258 498.24 157.943 499.593 157.235C500.954 156.523 502.265 156.453 503.247 157.034Z" fill="#F1F1F1" stroke="white"/>
<path d="M490.034 157.347C491.035 157.939 491.644 159.083 491.774 160.565C491.904 162.044 491.545 163.807 490.665 165.512C489.79 167.208 488.556 168.426 487.288 169.086C486.026 169.744 484.765 169.834 483.762 169.364C482.772 168.769 482.17 167.63 482.041 166.157C481.911 164.678 482.27 162.915 483.15 161.21C484.028 159.507 485.268 158.223 486.538 157.531C487.807 156.84 489.05 156.764 490.034 157.347Z" fill="#F1F1F1" stroke="white"/>
<path d="M489.134 189.79C489.108 189.718 489.089 189.66 489.075 189.618C489.076 189.596 489.077 189.57 489.078 189.541C489.081 189.434 489.084 189.28 489.083 189.092C489.081 188.715 489.061 188.194 488.99 187.618C488.851 186.495 488.507 185.045 487.613 184.101L487.224 183.69C486.799 183.241 486.226 182.919 485.64 182.684C485.051 182.447 484.417 182.286 483.842 182.175C483.266 182.065 482.737 182.003 482.353 181.969C482.161 181.952 482.004 181.942 481.894 181.936C481.857 181.934 481.826 181.933 481.8 181.931C481.76 181.916 481.701 181.893 481.628 181.863C481.474 181.799 481.257 181.701 481.013 181.569C480.518 181.302 479.94 180.91 479.523 180.394C479.115 179.889 478.871 179.282 478.988 178.537C479.109 177.772 479.622 176.782 480.915 175.558C485.31 171.398 489.627 170.952 492.84 171.518C494.457 171.803 495.803 172.346 496.746 172.819C497.216 173.056 497.584 173.273 497.833 173.43C497.957 173.509 498.051 173.572 498.113 173.615C498.136 173.631 498.154 173.644 498.168 173.654L498.493 173.997C498.502 174.012 498.514 174.031 498.529 174.054C498.568 174.118 498.626 174.216 498.697 174.344C498.84 174.6 499.036 174.978 499.244 175.458C499.66 176.42 500.121 177.785 500.301 179.396C500.658 182.595 499.917 186.81 495.399 190.836L495.388 190.845L495.378 190.855C494.117 192.112 493.117 192.582 492.358 192.665C491.619 192.746 491.023 192.469 490.532 192.023C490.03 191.569 489.658 190.956 489.407 190.435C489.284 190.178 489.193 189.951 489.134 189.79Z" fill="#F1F1F1" stroke="white"/>
<path d="M520.529 99.3504C521.268 97.9843 522.559 96.6941 524.226 95.8515C525.967 95.073 527.768 94.8462 529.262 95.1186C530.757 95.3913 531.904 96.1516 532.447 97.3176C533.536 99.6558 531.995 102.961 528.334 104.671C526.591 105.452 524.787 105.68 523.291 105.407C521.797 105.135 520.652 104.376 520.108 103.213C519.627 102.116 519.786 100.724 520.529 99.3504Z" fill="#F1F1F1" stroke="white"/>
<path d="M527.72 117.454L527.705 117.46L527.692 117.467C526.014 118.313 524.311 118.573 522.9 118.35C521.491 118.127 520.406 117.433 519.862 116.392C519.392 115.437 519.509 114.224 520.209 112.989C520.908 111.756 522.165 110.556 523.848 109.708C525.526 108.863 527.229 108.603 528.64 108.825C530.044 109.047 531.127 109.738 531.673 110.774C532.152 111.878 532.016 113.167 531.325 114.386C530.63 115.611 529.386 116.739 527.72 117.454Z" fill="#F1F1F1" stroke="white"/>
<path d="M520.862 84.8152L520.871 84.8207L520.881 84.8258C522.004 85.4258 522.672 86.6317 522.815 88.1911C522.958 89.7505 522.565 91.6093 521.619 93.3779C520.675 95.1417 519.337 96.4598 517.981 97.1688C516.622 97.8798 515.313 97.9511 514.331 97.3723C513.253 96.7066 512.584 95.4823 512.426 93.94C512.266 92.3966 512.626 90.5722 513.571 88.8074C514.515 87.0436 515.853 85.7255 517.208 85.0165C518.569 84.3046 519.88 84.234 520.862 84.8152Z" fill="#F1F1F1" stroke="white"/>
<path d="M507.518 84.9891C508.519 85.5813 509.129 86.7255 509.258 88.2072C509.388 89.6868 509.029 91.4497 508.149 93.155C507.274 94.8505 506.041 96.0687 504.772 96.729C503.51 97.3861 502.25 97.4766 501.246 97.0067C500.256 96.4113 499.654 95.2723 499.525 93.8C499.395 92.3204 499.754 90.5575 500.634 88.8523C501.513 87.1498 502.753 85.8652 504.022 85.1739C505.292 84.4827 506.534 84.407 507.518 84.9891Z" fill="#F1F1F1" stroke="white"/>
<path d="M506.611 117.699C506.585 117.627 506.565 117.569 506.552 117.527C506.553 117.505 506.554 117.479 506.555 117.45C506.558 117.343 506.561 117.189 506.56 117.001C506.558 116.624 506.538 116.104 506.467 115.528C506.328 114.404 505.984 112.955 505.09 112.01L504.701 111.6C504.276 111.151 503.703 110.828 503.117 110.593C502.528 110.356 501.894 110.195 501.319 110.085C500.743 109.974 500.214 109.912 499.83 109.878C499.638 109.861 499.481 109.851 499.371 109.845C499.336 109.843 499.306 109.842 499.281 109.841C499.239 109.825 499.18 109.801 499.106 109.769C498.948 109.701 498.727 109.597 498.478 109.458C497.973 109.176 497.382 108.764 496.956 108.223C496.539 107.694 496.289 107.055 496.414 106.277C496.541 105.48 497.073 104.456 498.4 103.2C502.794 99.0406 507.112 98.5948 510.324 99.1607C511.941 99.4455 513.287 99.9891 514.23 100.462C514.7 100.698 515.069 100.916 515.317 101.073C515.441 101.152 515.535 101.215 515.597 101.258C515.62 101.274 515.639 101.287 515.653 101.297L515.977 101.64C515.986 101.654 515.998 101.673 516.013 101.697C516.052 101.761 516.11 101.858 516.181 101.986C516.324 102.243 516.52 102.622 516.728 103.104C517.144 104.07 517.605 105.443 517.784 107.071C518.141 110.305 517.397 114.59 512.87 118.75L512.862 118.757L512.855 118.764C511.594 120.021 510.594 120.491 509.835 120.574C509.096 120.655 508.5 120.378 508.009 119.932C507.507 119.478 507.135 118.865 506.884 118.344C506.76 118.087 506.67 117.86 506.611 117.699Z" fill="#F1F1F1" stroke="white"/>
<path d="M586.693 89.6609C587.432 88.2948 588.723 87.0046 590.39 86.1621C592.131 85.3835 593.932 85.1567 595.426 85.4291C596.921 85.7018 598.068 86.4622 598.611 87.6282C599.701 89.9664 598.159 93.2717 594.498 94.9815C592.755 95.7625 590.951 95.9903 589.455 95.7175C587.961 95.4452 586.816 94.6866 586.272 93.5233C585.791 92.4267 585.95 91.0341 586.693 89.6609Z" fill="#F1F1F1" stroke="white"/>
<path d="M593.884 107.765L593.87 107.771L593.856 107.778C592.178 108.623 590.475 108.883 589.064 108.66C587.655 108.438 586.57 107.744 586.026 106.702C585.556 105.748 585.674 104.534 586.373 103.3C587.072 102.067 588.329 100.867 590.012 100.018C591.69 99.1731 593.393 98.9131 594.804 99.1359C596.208 99.3578 597.291 100.048 597.837 101.084C598.316 102.189 598.18 103.478 597.489 104.696C596.795 105.922 595.55 107.05 593.884 107.765Z" fill="#F1F1F1" stroke="white"/>
<path d="M587.026 75.1257L587.035 75.1313L587.045 75.1364C588.168 75.7363 588.836 76.9422 588.979 78.5017C589.122 80.061 588.729 81.9199 587.783 83.6884C586.839 85.4522 585.501 86.7703 584.145 87.4793C582.786 88.1903 581.477 88.2616 580.495 87.6829C579.417 87.0172 578.749 85.7928 578.59 84.2506C578.431 82.7071 578.79 80.8828 579.735 79.118C580.679 77.3542 582.017 76.0361 583.372 75.3271C584.733 74.6151 586.044 74.5446 587.026 75.1257Z" fill="#F1F1F1" stroke="white"/>
<path d="M573.682 75.2997C574.683 75.8919 575.293 77.0361 575.422 78.5178C575.552 79.9973 575.194 81.7603 574.313 83.4655C573.438 85.1611 572.205 86.3793 570.936 87.0395C569.674 87.6967 568.414 87.7872 567.41 87.3173C566.42 86.7218 565.818 85.5828 565.689 84.1106C565.559 82.631 565.918 80.8681 566.798 79.1628C567.677 77.4603 568.917 76.1757 570.186 75.4845C571.456 74.7932 572.698 74.7175 573.682 75.2997Z" fill="#F1F1F1" stroke="white"/>
<path d="M572.783 107.743C572.757 107.671 572.737 107.613 572.723 107.571C572.724 107.549 572.725 107.523 572.726 107.494C572.73 107.387 572.733 107.233 572.732 107.045C572.729 106.668 572.709 106.147 572.638 105.572C572.5 104.448 572.155 102.998 571.261 102.054L570.873 101.644C570.448 101.195 569.874 100.872 569.289 100.637C568.699 100.4 568.066 100.239 567.491 100.129C566.914 100.018 566.386 99.9563 566.002 99.9223C565.809 99.9053 565.652 99.8951 565.542 99.8892C565.506 99.8872 565.475 99.8857 565.449 99.8845C565.408 99.8693 565.35 99.8466 565.277 99.8162C565.122 99.752 564.906 99.6544 564.662 99.5224C564.167 99.2549 563.588 98.8626 563.171 98.347C562.763 97.8423 562.519 97.2348 562.637 96.4899C562.757 95.7256 563.271 94.7352 564.564 93.511C568.958 89.3511 573.276 88.9053 576.488 89.4712C578.105 89.7561 579.452 90.2996 580.394 90.7725C580.865 91.0087 581.233 91.2264 581.481 91.3835C581.605 91.4621 581.699 91.5255 581.761 91.5683C581.784 91.5842 581.803 91.5972 581.817 91.6072L582.141 91.9502C582.151 91.9647 582.163 91.9839 582.177 92.0075C582.216 92.0716 582.274 92.1689 582.346 92.2969C582.488 92.5529 582.685 92.931 582.892 93.4114C583.309 94.3736 583.769 95.7382 583.949 97.3494C584.307 100.548 583.566 104.763 579.047 108.789L579.037 108.798L579.027 108.808C577.765 110.065 576.766 110.535 576.007 110.618C575.268 110.699 574.672 110.422 574.18 109.976C573.679 109.522 573.306 108.909 573.056 108.388C572.932 108.131 572.842 107.904 572.783 107.743Z" fill="#F1F1F1" stroke="white"/>
<path d="M-17.2547 491.204C37.2639 491.204 76.3934 458.191 99.7514 430.579C117.168 454.395 127.532 483.998 128 515.783C127.992 545.926 118.666 573.943 102.764 597.095C79.7188 568.792 39.5956 533.157 -17.2547 533.157C-80.2108 533.157 -119.182 570.196 -137.924 595.206C-153.213 572.246 -162 545.259 -162 515.746C-162 484.586 -152.197 455.998 -135.348 432.332C-115.671 456.845 -77.7038 491.204 -17.2547 491.204Z" stroke="#F9F9F9" stroke-width="10"/>
<path d="M-17.2559 453.7C-63.0412 453.7 -94.0146 429.203 -112.746 407.225C-87.0904 384.499 -53.9845 371 -17.2559 371C17.9388 371 49.9804 383.516 75.0722 404.728C53.5985 429.563 22.8153 453.7 -17.2559 453.7Z" stroke="#F9F9F9" stroke-width="10"/>
<path d="M-17.2546 661C-55.5451 661 -90.2036 646.023 -116.014 621.708C-98.056 598.935 -65.9868 571.17 -17.2546 571.17C24.8803 571.17 57.2306 597.792 78.3608 624.658C53.0922 647.021 19.4913 661 -17.2546 661Z" stroke="#F9F9F9" stroke-width="10"/>
<g clip-path="url(#clip0)">
<path d="M1748.97 76.2876L1764.39 50.7031C1765.03 49.6496 1765.13 48.3578 1764.67 47.219C1764.22 46.0798 1763.25 45.2238 1762.06 44.9095L1734.13 37.5233C1732.05 36.9731 1729.91 38.2187 1729.35 40.3059C1728.8 42.3943 1730.03 44.533 1732.12 45.0828L1755.02 51.1398L1741.78 73.0951L1670.07 54.1301L1683.31 32.1752L1703.47 37.5059C1705.55 38.0561 1707.69 36.8116 1708.24 34.7233C1708.8 32.636 1707.56 30.4962 1705.48 29.9464L1682.49 23.8667C1680.82 23.4231 1679.05 24.1431 1678.15 25.6327L1662.72 51.2191L1637.21 35.8388C1635.73 34.9432 1633.83 35.1401 1632.55 36.3186L1571.93 92.3135C1571.03 93.149 1570.57 94.36 1570.69 95.5842C1570.81 96.8072 1571.5 97.901 1572.56 98.5337L1598.06 113.913L1582.63 139.496C1581.99 140.551 1581.89 141.841 1582.35 142.981C1582.81 144.121 1583.78 144.977 1584.96 145.289L1609.01 151.649L1618.58 190.556C1618.92 191.941 1619.98 193.028 1621.36 193.392L1700.93 214.434C1701.57 214.604 1702.24 214.603 1702.87 214.447C1703.49 214.29 1704.08 213.978 1704.57 213.524L1765.19 157.531C1766.24 156.561 1766.68 155.099 1766.34 153.714L1756.77 114.807L1775.09 97.887C1775.99 97.0515 1776.45 95.8389 1776.33 94.6163C1776.21 93.3933 1775.52 92.2994 1774.47 91.6667L1748.97 76.2876ZM1681.92 129.289L1611.29 110.611L1665.1 60.9066L1735.73 79.5862L1681.92 129.289ZM1635.68 44.0509L1657.57 57.2487L1602.93 107.714L1581.05 94.5168L1635.68 44.0509ZM1605.24 117.103L1676.95 136.068L1663.71 158.025L1592 139.06L1605.24 117.103ZM1758.21 153.361L1704.15 203.299L1694.61 164.524C1694.09 162.428 1691.98 161.153 1689.89 161.675C1687.79 162.197 1686.51 164.319 1687.03 166.414L1696.57 205.189L1625.6 186.423L1617.61 153.925L1664.53 166.334C1665.18 166.505 1665.85 166.503 1666.47 166.348C1667.45 166.103 1668.33 165.478 1668.88 164.568L1684.3 138.981L1709.81 154.362C1710.72 154.911 1711.78 155.049 1712.76 154.804C1713.39 154.649 1713.98 154.339 1714.47 153.882L1750.22 120.863L1758.21 153.361ZM1711.34 146.149L1689.46 132.949L1744.09 82.4852L1765.98 95.6818L1711.34 146.149Z" fill="#F1F1F1" fill-opacity="0.5"/>
<path d="M1720.16 41.4227C1721.16 41.1742 1722.04 40.5253 1722.57 39.6417C1723.1 38.7607 1723.27 37.6816 1723.02 36.6844C1722.78 35.6858 1722.13 34.809 1721.25 34.2794C1720.37 33.7483 1719.3 33.5878 1718.3 33.8362C1717.3 34.0858 1716.42 34.7332 1715.89 35.6157C1715.36 36.4978 1715.2 37.5758 1715.44 38.5745C1715.69 39.5717 1716.33 40.4495 1717.21 40.978C1718.09 41.5091 1719.17 41.6711 1720.16 41.4227Z" fill="#F1F1F1" fill-opacity="0.5"/>
<path d="M1686.79 149.082C1685.79 149.331 1684.91 149.979 1684.38 150.862C1683.85 151.746 1683.68 152.822 1683.93 153.821C1684.18 154.821 1684.82 155.695 1685.7 156.229C1686.58 156.758 1687.66 156.917 1688.65 156.669C1689.65 156.42 1690.53 155.773 1691.06 154.892C1691.59 154.007 1691.76 152.931 1691.51 151.931C1691.26 150.932 1690.62 150.058 1689.74 149.525C1688.86 148.994 1687.78 148.834 1686.79 149.082Z" fill="#F1F1F1" fill-opacity="0.5"/>
</g>
<defs>
<clipPath id="clip0">
<rect width="200" height="200" fill="white" transform="matrix(0.970296 -0.241922 0.238833 0.971061 1559.26 49.2656)"/>
</clipPath>
</defs>
</svg>
