<svg width="360" height="400" viewBox="0 0 360 400" fill="none" xmlns="http://www.w3.org/2000/svg">
<path d="M443.278 305.733L462.455 294.211C463.245 293.737 463.766 292.917 463.86 292C463.955 291.084 463.612 290.175 462.935 289.549L447.009 274.816C445.821 273.718 443.968 273.79 442.869 274.977C441.77 276.166 441.841 278.019 443.03 279.117L456.091 291.199L439.634 301.087L398.743 263.258L415.198 253.37L426.69 264.002C427.878 265.1 429.732 265.03 430.83 263.841C431.929 262.654 431.857 260.799 430.669 259.701L417.563 247.576C416.607 246.691 415.181 246.544 414.065 247.215L394.887 258.739L383.364 239.561C382.693 238.444 381.365 237.905 380.107 238.237L320.34 253.996C319.449 254.231 318.719 254.872 318.373 255.727C318.026 256.58 318.1 257.548 318.576 258.338L330.098 277.514L310.922 289.035C310.131 289.51 309.611 290.329 309.517 291.247C309.422 292.163 309.765 293.072 310.442 293.697L324.152 306.381L316.882 335.538C316.624 336.576 316.951 337.672 317.736 338.399L363.108 380.371C363.476 380.712 363.918 380.946 364.388 381.063C364.859 381.18 365.359 381.181 365.844 381.053L425.61 365.295C426.644 365.022 427.448 364.208 427.706 363.17L434.976 334.012L453.036 329.251C453.928 329.015 454.657 328.374 455.003 327.52C455.351 326.667 455.276 325.699 454.801 324.909L443.278 305.733ZM380.3 317.245L340.026 279.988L393.077 265.998L433.352 303.257L380.3 317.245ZM379.475 244.464L389.362 260.919L335.497 275.122L325.609 258.667L379.475 244.464ZM333.745 282.16L374.636 319.988L358.179 329.877L317.287 292.048L333.745 282.16ZM422.44 360.071L369.138 374.125L376.383 345.067C376.774 343.497 375.819 341.907 374.249 341.516C372.679 341.124 371.089 342.079 370.697 343.649L363.452 372.708L322.987 335.275L329.059 310.921L355.813 335.671C356.184 336.014 356.626 336.247 357.093 336.363C357.829 336.546 358.629 336.442 359.311 336.032L378.489 324.508L390.012 343.686C390.422 344.37 391.079 344.837 391.816 345.02C392.282 345.137 392.782 345.138 393.27 345.01L428.512 335.717L422.44 360.071ZM393.902 338.784L384.014 322.325L437.879 308.123L447.768 324.579L393.902 338.784Z" fill="#F1F1F1" fill-opacity="0.05"/>
<path d="M442.592 305.562L443.021 305.304L462.197 293.782L462.197 293.782C462.853 293.389 463.284 292.709 463.362 291.949L463.362 291.949C463.441 291.189 463.157 290.436 462.596 289.916C462.596 289.916 462.596 289.916 462.596 289.916L446.669 275.183C445.685 274.272 444.148 274.332 443.236 275.316C442.324 276.303 442.384 277.839 443.369 278.75L443.37 278.75L456.431 290.832L456.92 291.285L456.349 291.628L439.892 301.515L439.57 301.709L439.295 301.454L398.403 263.625L397.914 263.173L398.485 262.83L414.941 252.942L415.262 252.749L415.538 253.003L427.03 263.635C427.03 263.635 427.03 263.635 427.03 263.635C428.015 264.546 429.552 264.487 430.463 263.502L430.463 263.501C431.375 262.517 431.315 260.979 430.329 260.068L430.329 260.068L417.224 247.943C416.43 247.209 415.248 247.087 414.323 247.644L414.323 247.644L395.145 259.167L394.716 259.425L394.459 258.996L382.936 239.818C382.379 238.892 381.278 238.445 380.234 238.72L442.592 305.562ZM442.592 305.562L442.85 305.99L454.372 325.167L454.372 325.167C454.766 325.822 454.828 326.624 454.54 327.332L454.54 327.333C454.253 328.04 453.648 328.572 452.909 328.767L434.849 333.529L434.563 333.604L434.491 333.891L427.221 363.049C427.007 363.91 426.34 364.585 425.483 364.811C425.483 364.811 425.483 364.811 425.483 364.811L365.717 380.57L365.716 380.57C365.314 380.676 364.9 380.675 364.509 380.578C364.119 380.48 363.753 380.286 363.448 380.004L363.447 380.004L318.075 338.032C318.075 338.032 318.075 338.032 318.075 338.032C317.424 337.429 317.153 336.52 317.368 335.659L324.637 306.502L324.709 306.215L324.492 306.014L310.781 293.33L310.781 293.329C310.22 292.811 309.935 292.058 310.014 291.298L310.014 291.298C310.093 290.537 310.524 289.858 311.18 289.464L330.356 277.943L330.784 277.685L330.527 277.256L319.004 258.08L319.004 258.08C318.61 257.425 318.548 256.623 318.836 255.915L318.836 255.914C319.123 255.206 319.728 254.675 320.468 254.48C320.468 254.48 320.468 254.48 320.468 254.48L380.234 238.72L442.592 305.562ZM443.536 306.162L443.278 305.733L443.707 305.475L462.455 294.211C463.245 293.737 463.766 292.917 463.86 292C463.955 291.084 463.612 290.175 462.935 289.549L443.536 306.162ZM443.536 306.162L454.801 324.909L443.536 306.162ZM379.961 317.612L380.162 317.799L380.428 317.729L433.479 303.74L434.359 303.508L433.691 302.89L393.417 265.631L393.215 265.445L392.95 265.515L339.898 279.504L339.018 279.737L339.686 280.355L379.961 317.612ZM379.904 244.206L379.711 243.885L379.348 243.98L325.482 258.183L324.838 258.353L325.181 258.924L335.069 275.38L335.262 275.702L335.625 275.606L389.489 261.403L390.133 261.233L389.79 260.662L379.904 244.206ZM334.084 281.793L333.809 281.538L333.487 281.731L317.029 291.619L316.458 291.962L316.947 292.415L357.84 330.244L358.115 330.499L358.437 330.305L374.894 320.417L375.465 320.074L374.976 319.621L334.084 281.793ZM422.854 360.479L422.925 360.192L428.997 335.838L429.202 335.018L428.385 335.234L393.143 344.527C392.737 344.633 392.323 344.631 391.936 344.535C391.325 344.383 390.781 343.995 390.441 343.429L390.441 343.429L378.918 324.251L378.66 323.822L378.232 324.08L359.054 335.603C358.488 335.943 357.825 336.03 357.214 335.878C356.828 335.781 356.461 335.588 356.153 335.304L329.399 310.554L328.778 309.98L328.574 310.8L322.502 335.154L322.43 335.441L322.647 335.642L363.113 373.075L363.733 373.649L363.937 372.829L371.182 343.77C371.507 342.468 372.826 341.676 374.128 342.001C375.43 342.325 376.222 343.644 375.898 344.946L368.652 374.004L368.448 374.824L369.265 374.609L422.568 360.554L422.854 360.479ZM393.474 339.041L393.667 339.363L394.03 339.267L447.896 325.063L448.54 324.893L448.197 324.322L438.307 307.866L438.114 307.544L437.751 307.64L383.887 321.842L383.243 322.012L383.586 322.583L393.474 339.041Z" stroke="#F1F1F1" stroke-opacity="0.05" stroke-width="0.999999"/>
<g opacity="0.1">
<path d="M44.4465 28.2683C33.2411 42.2751 13.6316 60.1019 -14.1273 60.1019C-45.4516 60.1019 -64.2971 41.0018 -73.2105 29.0323C-83.1426 41.7658 -89 57.5552 -89 74.8727C-89 91.4262 -83.652 106.452 -74.4839 118.93C-66.3345 106.961 -46.9796 86.0781 -14.1273 86.0781C14.9049 86.0781 35.0238 105.433 45.9745 119.694C55.3973 107.216 61 91.6809 61 74.8727C60.7453 57.3006 54.6333 41.0018 44.4465 28.2683Z" fill="#F1F1F1"/>
<path d="M-14.1273 61.1019C13.4385 61.1019 33.0353 43.8089 44.4353 29.8721C54.0208 42.2833 59.7535 57.9819 60 74.8799C59.9984 90.9907 54.78 105.914 45.9559 118.04C34.7689 103.808 14.6677 85.0781 -14.1273 85.0781C-46.406 85.0781 -65.8258 104.958 -74.4989 117.199C-83.0445 105.113 -88 90.7025 -88 74.8727C-88 58.2538 -82.534 43.0642 -73.2159 30.6834C-63.9123 42.8046 -45.0007 61.1019 -14.1273 61.1019Z" stroke="#F1F1F1" stroke-opacity="0.05" stroke-width="2"/>
<path d="M-65.3164 20.3735C-55.8937 32.0883 -39.3402 46.3497 -14.128 46.3497C8.02824 46.3497 24.5817 32.3429 35.5325 19.1002C22.2897 7.13073 4.97221 0 -14.128 0C-33.9921 0 -51.819 7.64007 -65.3164 20.3735Z" fill="#F1F1F1"/>
<path d="M-14.128 45.3497C-38.4059 45.3497 -54.5374 31.9105 -63.9507 20.4677C-50.7151 8.28243 -33.395 1 -14.128 1C4.37345 1 21.1748 7.77961 34.1451 19.2024C23.2655 32.1343 7.17295 45.3497 -14.128 45.3497Z" stroke="#F1F1F1" stroke-opacity="0.05" stroke-width="2"/>
<path d="M-14.1273 100.085C-40.8675 100.085 -57.9303 116.129 -66.8438 128.099C-53.3463 141.596 -34.7555 150 -14.1273 150C5.7369 150 23.8184 142.105 37.0612 129.627C26.3651 115.365 9.04759 100.085 -14.1273 100.085Z" fill="#F1F1F1"/>
<path d="M-14.1273 149C-34.1645 149 -52.2532 140.964 -65.5191 128.002C-56.5657 116.245 -39.9097 101.085 -14.1273 101.085C8.19803 101.085 25.0622 115.563 35.7187 129.51C22.7135 141.469 5.1421 149 -14.1273 149Z" stroke="#F1F1F1" stroke-opacity="0.05" stroke-width="2"/>
</g>
</svg>
