<svg width="1920" height="1080" viewBox="0 0 1920 1080" fill="none" xmlns="http://www.w3.org/2000/svg">
<rect width="1920" height="1080" fill="url(#paint0_linear)"/>
<path opacity="0.5" d="M8.10654 303.913C5.94453 287.385 14.9612 271.611 29.8859 264.913C32.5198 248.767 45.4441 235.996 61.972 233.834C82.476 231.152 101.337 245.65 104.019 266.154C104.832 272.369 104.058 278.589 101.772 284.41L157.035 326.892C162.077 323.18 167.888 320.831 174.098 320.019C194.602 317.337 213.463 331.835 216.145 352.339C218.307 368.866 209.29 384.641 194.366 391.339C191.732 407.485 178.807 420.255 162.28 422.417C141.775 425.099 122.914 410.602 120.232 390.098C119.419 383.882 120.194 377.662 122.479 371.842L67.2171 329.365C62.1802 333.071 56.3691 335.42 50.1535 336.233C29.6494 338.914 10.7887 324.417 8.10654 303.913ZM91.6249 267.775C89.8365 254.103 77.2648 244.44 63.5933 246.229C51.6587 247.79 42.5462 257.655 41.9233 269.691C41.788 272.281 40.0681 274.519 37.5991 275.316C26.1289 279.014 18.9394 290.358 20.5005 302.292C22.2889 315.964 34.8606 325.627 48.5322 323.838C53.8397 323.144 58.7205 320.739 62.6471 316.877C64.8725 314.69 68.3661 314.479 70.8365 316.378L134.099 365.004C136.583 366.914 137.259 370.34 135.723 373.046C133.001 377.834 131.932 383.169 132.626 388.477C134.415 402.148 146.986 411.812 160.658 410.023C172.592 408.462 181.705 398.597 182.328 386.561C182.463 383.971 184.183 381.733 186.652 380.936C198.122 377.238 205.312 365.894 203.751 353.96C201.962 340.288 189.391 330.625 175.719 332.414C170.417 333.107 165.538 335.518 161.605 339.381C159.379 341.562 155.885 341.773 153.415 339.874L90.1524 291.248C87.6712 289.363 86.9815 285.926 88.528 283.206C91.2502 278.417 92.3192 273.083 91.6249 267.775Z" fill="#F1F1F1" fill-opacity="0.1"/>
<path d="M769.535 897.535L784.867 872.109C785.5 871.062 785.603 869.778 785.146 868.646C784.692 867.514 783.728 866.663 782.549 866.351L754.792 859.01C752.723 858.464 750.597 859.701 750.044 861.776C749.493 863.851 750.721 865.977 752.792 866.523L775.555 872.543L762.395 894.362L691.13 875.515L704.288 853.695L724.316 858.993C726.385 859.54 728.513 858.303 729.064 856.228C729.617 854.153 728.387 852.027 726.316 851.48L703.475 845.438C701.808 844.997 700.047 845.713 699.156 847.193L683.822 872.621L658.475 857.336C656.999 856.446 655.11 856.642 653.842 857.813L593.598 913.462C592.7 914.292 592.241 915.496 592.364 916.712C592.485 917.928 593.171 919.015 594.216 919.643L619.561 934.927L604.228 960.352C603.596 961.401 603.493 962.683 603.949 963.816C604.404 964.948 605.368 965.799 606.547 966.11L630.442 972.43L639.952 1011.1C640.29 1012.47 641.351 1013.55 642.719 1013.92L721.793 1034.83C722.434 1035 723.096 1035 723.72 1034.84C724.344 1034.68 724.929 1034.37 725.418 1033.92L785.662 978.275C786.704 977.312 787.142 975.859 786.803 974.482L777.293 935.816L795.498 919.001C796.396 918.17 796.854 916.965 796.732 915.75C796.611 914.535 795.925 913.448 794.88 912.819L769.535 897.535ZM702.905 950.209L632.715 931.646L686.19 882.249L756.38 900.813L702.905 950.209ZM656.951 865.498L678.7 878.614L624.405 928.767L602.655 915.651L656.951 865.498ZM626.703 938.098L697.968 956.946L684.81 978.767L613.543 959.919L626.703 938.098ZM778.721 974.131L724.993 1023.76L715.515 985.225C715.003 983.143 712.901 981.876 710.821 982.395C708.74 982.913 707.469 985.021 707.981 987.104L717.459 1025.64L646.937 1006.99L638.994 974.693L685.621 987.024C686.267 987.194 686.929 987.192 687.547 987.038C688.522 986.795 689.394 986.174 689.94 985.269L705.274 959.841L730.621 975.126C731.524 975.672 732.582 975.809 733.557 975.566C734.175 975.412 734.762 975.103 735.254 974.649L770.778 941.835L778.721 974.131ZM732.146 966.964L710.394 953.846L764.689 903.694L786.442 916.809L732.146 966.964Z" fill="#F1F1F1" fill-opacity="0.1"/>
<path d="M1814.11 966.498C1810.46 964.862 1806.48 965.503 1805.22 968.204C1803.96 970.906 1805.79 974.458 1809.58 976.223C1813.22 977.859 1817.21 977.218 1818.47 974.517C1819.73 971.815 1817.76 968.133 1814.11 966.498Z" fill="#F1F1F1" fill-opacity="0.1"/>
<path d="M1806.13 981.784C1807.4 979.349 1811.11 978.715 1814.63 980.488C1818.15 982.261 1819.98 985.546 1818.84 987.844C1817.57 990.279 1813.86 990.913 1810.34 989.14C1806.82 987.368 1805 984.082 1806.13 981.784Z" fill="#F1F1F1" fill-opacity="0.1"/>
<path d="M1824.18 968.761C1821.81 970.159 1818.16 968.256 1816.19 964.575C1814.22 960.893 1814.5 956.75 1817.13 955.346C1819.49 953.948 1823.15 955.851 1825.12 959.532C1827.09 963.214 1826.67 967.227 1824.18 968.761Z" fill="#F1F1F1" fill-opacity="0.1"/>
<path d="M1829.65 964.345C1827.82 960.793 1828.11 956.917 1830.47 955.52C1832.84 954.122 1836.22 956.032 1838.06 959.584C1839.89 963.136 1839.6 967.012 1837.24 968.409C1834.87 969.54 1831.49 967.897 1829.65 964.345Z" fill="#F1F1F1" fill-opacity="0.1"/>
<path d="M1821.87 972.291L1822.26 971.881C1822.26 971.881 1831.15 965.239 1840.19 973.799C1845.53 978.857 1839.06 981.032 1839.06 981.032C1839.06 981.032 1835.33 981.133 1833.9 982.638L1833.51 983.049C1831.96 984.691 1832.19 988.286 1832.19 988.286C1832.19 988.286 1830.25 995.008 1825.03 989.813C1815.73 981.527 1821.87 972.291 1821.87 972.291Z" fill="#F1F1F1" fill-opacity="0.1"/>
<path d="M1749.66 946.757C1746.01 945.121 1742.02 945.762 1740.77 948.464C1739.51 951.165 1741.34 954.717 1745.12 956.483C1748.77 958.119 1752.76 957.478 1754.01 954.776C1755.14 952.211 1753.17 948.53 1749.66 946.757Z" fill="#F1F1F1" fill-opacity="0.1"/>
<path d="M1741.54 961.914C1742.81 959.479 1746.53 958.846 1750.04 960.618C1753.56 962.391 1755.39 965.676 1754.25 967.975C1752.98 970.41 1749.27 971.043 1745.75 969.271C1742.24 967.764 1740.41 964.479 1741.54 961.914Z" fill="#F1F1F1" fill-opacity="0.1"/>
<path d="M1759.72 949.02C1757.36 950.417 1753.71 948.515 1751.74 944.833C1749.77 941.151 1750.05 937.009 1752.68 935.604C1755.04 934.207 1758.7 936.109 1760.67 939.791C1762.51 943.61 1762.08 947.622 1759.72 949.02Z" fill="#F1F1F1" fill-opacity="0.1"/>
<path d="M1765.07 944.741C1763.24 941.189 1763.53 937.313 1765.89 935.916C1768.25 934.518 1771.64 936.428 1773.48 939.98C1775.31 943.532 1775.02 947.408 1772.66 948.805C1770.29 949.936 1766.91 948.293 1765.07 944.741Z" fill="#F1F1F1" fill-opacity="0.1"/>
<path d="M1757.29 952.687L1757.68 952.277C1757.68 952.277 1766.57 945.635 1775.61 954.195C1780.95 959.253 1774.48 961.428 1774.48 961.428C1774.48 961.428 1770.75 961.529 1769.32 963.034L1768.93 963.445C1767.38 965.087 1767.61 968.682 1767.61 968.682C1767.61 968.682 1765.66 975.404 1760.45 970.209C1751.15 961.923 1757.29 952.687 1757.29 952.687Z" fill="#F1F1F1" fill-opacity="0.1"/>
<path d="M1732.17 874.401C1728.52 872.765 1724.54 873.406 1723.28 876.108C1722.02 878.809 1723.86 882.361 1727.64 884.127C1731.29 885.762 1735.27 885.122 1736.53 882.42C1737.66 879.855 1735.69 876.174 1732.17 874.401Z" fill="#F1F1F1" fill-opacity="0.1"/>
<path d="M1724.06 889.558C1725.32 887.123 1729.04 886.49 1732.56 888.262C1736.08 890.035 1737.9 893.32 1736.76 895.619C1735.5 898.054 1731.78 898.687 1728.26 896.914C1724.75 895.408 1722.93 892.123 1724.06 889.558Z" fill="#F1F1F1" fill-opacity="0.1"/>
<path d="M1742.11 876.801C1739.75 878.199 1736.09 876.297 1734.12 872.615C1732.15 868.933 1732.44 864.791 1735.06 863.386C1737.43 861.988 1741.08 863.891 1743.05 867.573C1745.02 871.254 1744.6 875.267 1742.11 876.801Z" fill="#F1F1F1" fill-opacity="0.1"/>
<path d="M1747.59 872.385C1745.75 868.833 1746.05 864.957 1748.41 863.559C1750.77 862.162 1754.16 864.072 1755.99 867.624C1757.82 871.176 1757.53 875.052 1755.17 876.449C1752.8 877.58 1749.42 875.937 1747.59 872.385Z" fill="#F1F1F1" fill-opacity="0.1"/>
<path d="M1739.81 880.331L1740.2 879.921C1740.2 879.921 1749.08 873.279 1758.12 881.839C1763.6 887.027 1757 889.339 1757 889.339C1757 889.339 1753.27 889.439 1751.84 890.945L1751.45 891.355C1749.9 892.998 1750.13 896.593 1750.13 896.593C1750.13 896.593 1748.19 903.315 1742.97 898.12C1733.66 889.567 1739.81 880.331 1739.81 880.331Z" fill="#F1F1F1" fill-opacity="0.1"/>
<path d="M1666.01 864.711C1662.36 863.075 1658.38 863.716 1657.12 866.418C1655.86 869.119 1657.69 872.671 1661.48 874.437C1665.12 876.072 1669.11 875.432 1670.37 872.73C1671.49 870.165 1669.52 866.484 1666.01 864.711Z" fill="#F1F1F1" fill-opacity="0.1"/>
<path d="M1657.89 879.868C1659.16 877.433 1662.88 876.8 1666.39 878.572C1669.91 880.345 1671.74 883.63 1670.6 885.929C1669.33 888.364 1665.62 888.997 1662.1 887.225C1658.59 885.718 1656.76 882.433 1657.89 879.868Z" fill="#F1F1F1" fill-opacity="0.1"/>
<path d="M1675.94 867.111C1673.58 868.509 1669.93 866.607 1667.96 862.925C1665.99 859.243 1666.27 855.1 1668.9 853.696C1671.26 852.298 1674.92 854.201 1676.89 857.883C1678.86 861.564 1678.44 865.577 1675.94 867.111Z" fill="#F1F1F1" fill-opacity="0.1"/>
<path d="M1681.42 862.695C1679.59 859.143 1679.88 855.267 1682.24 853.87C1684.61 852.472 1687.99 854.382 1689.83 857.934C1691.66 861.486 1691.37 865.362 1689.01 866.759C1686.64 867.89 1683.26 866.247 1681.42 862.695Z" fill="#F1F1F1" fill-opacity="0.1"/>
<path d="M1673.64 870.641L1674.03 870.231C1674.03 870.231 1682.92 863.589 1691.96 872.149C1697.3 877.207 1690.83 879.382 1690.83 879.382C1690.83 879.382 1687.1 879.483 1685.67 880.988L1685.28 881.399C1683.73 883.041 1683.96 886.636 1683.96 886.636C1683.96 886.636 1682.01 893.358 1676.8 888.163C1667.5 879.877 1673.64 870.641 1673.64 870.641Z" fill="#F1F1F1" fill-opacity="0.1"/>
<path d="M1949.75 407.204C2004.26 407.204 2043.39 374.191 2066.75 346.579C2084.17 370.395 2094.53 399.997 2095 431.782C2094.99 461.925 2085.67 489.942 2069.76 513.095C2046.72 484.792 2006.6 449.157 1949.75 449.157C1886.79 449.157 1847.82 486.196 1829.08 511.206C1813.79 488.246 1805 461.258 1805 431.746C1805 400.585 1814.8 371.998 1831.65 348.331C1851.33 372.845 1889.3 407.204 1949.75 407.204Z" stroke="#F9F9F9" stroke-opacity="0.1" stroke-width="10"/>
<path d="M1949.74 369.7C1903.96 369.7 1872.99 345.203 1854.25 323.225C1879.91 300.499 1913.02 287 1949.74 287C1984.94 287 2016.98 299.516 2042.07 320.728C2020.6 345.563 1989.82 369.7 1949.74 369.7Z" stroke="#F9F9F9" stroke-opacity="0.1" stroke-width="10"/>
<path d="M1949.75 577C1911.45 577 1876.8 562.023 1850.99 537.708C1868.94 514.935 1901.01 487.17 1949.75 487.17C1991.88 487.17 2024.23 513.792 2045.36 540.657C2020.09 563.021 1986.49 577 1949.75 577Z" stroke="#F9F9F9" stroke-opacity="0.1" stroke-width="10"/>
<defs>
<linearGradient id="paint0_linear" x1="1381" y1="48.8219" x2="1761.79" y2="1003.07" gradientUnits="userSpaceOnUse">
<stop stop-color="#157DA9"/>
<stop offset="0.452838" stop-color="#47A0C5" stop-opacity="0.9"/>
<stop offset="1" stop-color="#198BBC" stop-opacity="0.64"/>
</linearGradient>
</defs>
</svg>
