<svg width="1425" height="262" viewBox="0 0 1425 262" fill="none" xmlns="http://www.w3.org/2000/svg">
<path d="M153.769 218.411C151.99 214.832 152.472 210.826 155.122 209.461C157.771 208.096 161.393 209.787 163.308 213.499C165.087 217.078 164.604 221.084 161.955 222.449C159.305 223.813 155.548 221.991 153.769 218.411Z" fill="#F1F1F1" fill-opacity="0.2"/>
<path d="M168.728 209.836C166.345 211.198 165.859 214.937 167.77 218.382C169.68 221.826 173.036 223.52 175.287 222.294C177.67 220.932 178.156 217.193 176.245 213.748C174.334 210.304 170.979 208.61 168.728 209.836Z" fill="#F1F1F1" fill-opacity="0.2"/>
<path d="M156.431 228.381C157.733 225.966 155.688 222.389 151.931 220.566C148.174 218.744 144.046 219.192 142.746 221.874C141.443 224.29 143.489 227.866 147.246 229.689C151.003 231.512 154.996 230.932 156.431 228.381Z" fill="#F1F1F1" fill-opacity="0.2"/>
<path d="M152.236 234.031C148.614 232.34 144.753 232.786 143.45 235.201C142.147 237.617 144.19 240.927 147.812 242.618C151.434 244.309 155.295 243.863 156.598 241.448C157.634 239.035 155.858 235.722 152.236 234.031Z" fill="#F1F1F1" fill-opacity="0.2"/>
<path d="M159.865 225.941L159.471 226.345C159.471 226.345 153.186 235.487 162.098 244.183C167.364 249.322 169.281 242.765 169.281 242.765C169.281 242.765 169.233 239.032 170.681 237.548L171.076 237.144C172.656 235.525 176.257 235.616 176.257 235.616C176.257 235.616 182.896 233.405 177.499 228.401C168.85 219.435 159.865 225.941 159.865 225.941Z" fill="#F1F1F1" fill-opacity="0.2"/>
<path d="M131.497 154.8C129.718 151.22 130.2 147.214 132.85 145.849C135.499 144.485 139.121 146.176 141.035 149.887C142.814 153.467 142.332 157.473 139.682 158.837C137.164 160.067 133.407 158.244 131.497 154.8Z" fill="#F1F1F1" fill-opacity="0.2"/>
<path d="M146.319 146.091C143.937 147.452 143.451 151.192 145.362 154.637C147.272 158.081 150.628 159.775 152.879 158.549C155.262 157.187 155.748 153.448 153.837 150.003C152.193 146.556 148.837 144.861 146.319 146.091Z" fill="#F1F1F1" fill-opacity="0.2"/>
<path d="M134.155 164.769C135.458 162.353 133.412 158.777 129.655 156.954C125.898 155.131 121.77 155.58 120.471 158.262C119.168 160.678 121.214 164.254 124.971 166.077C128.859 167.765 132.852 167.184 134.155 164.769Z" fill="#F1F1F1" fill-opacity="0.2"/>
<path d="M130.094 170.284C126.472 168.593 122.61 169.039 121.308 171.454C120.005 173.87 122.047 177.179 125.669 178.87C129.291 180.562 133.152 180.116 134.455 177.701C135.491 175.288 133.716 171.975 130.094 170.284Z" fill="#F1F1F1" fill-opacity="0.2"/>
<path d="M137.723 162.194L137.328 162.598C137.328 162.598 131.044 171.74 139.955 180.436C145.221 185.575 147.138 179.018 147.138 179.018C147.138 179.018 147.091 175.285 148.539 173.801L148.933 173.397C150.513 171.778 154.115 171.869 154.115 171.869C154.115 171.869 160.754 169.657 155.356 164.654C146.708 155.687 137.723 162.194 137.723 162.194Z" fill="#F1F1F1" fill-opacity="0.2"/>
<path d="M58.5006 140.187C56.7215 136.608 57.2039 132.602 59.8535 131.237C62.5031 129.873 66.125 131.564 68.0392 135.275C69.8183 138.854 69.3359 142.86 66.6863 144.225C64.1683 145.455 60.4114 143.632 58.5006 140.187Z" fill="#F1F1F1" fill-opacity="0.2"/>
<path d="M73.3234 131.48C70.9404 132.841 70.4547 136.581 72.3654 140.025C74.2761 143.47 77.6314 145.164 79.8827 143.937C82.2657 142.576 82.7515 138.837 80.8407 135.392C79.1966 131.944 75.8414 130.25 73.3234 131.48Z" fill="#F1F1F1" fill-opacity="0.2"/>
<path d="M61.2919 150.022C62.5946 147.606 60.5489 144.03 56.7919 142.207C53.0349 140.384 48.9068 140.833 47.6075 143.515C46.3048 145.93 48.3505 149.507 52.1075 151.33C55.8645 153.152 59.8576 152.572 61.2919 150.022Z" fill="#F1F1F1" fill-opacity="0.2"/>
<path d="M57.0975 155.672C53.4756 153.981 49.6141 154.426 48.3114 156.842C47.0087 159.257 49.051 162.567 52.673 164.258C56.2949 165.949 60.1564 165.504 61.4591 163.088C62.4952 160.676 60.7195 157.363 57.0975 155.672Z" fill="#F1F1F1" fill-opacity="0.2"/>
<path d="M64.7268 147.581L64.3319 147.986C64.3319 147.986 58.0475 157.127 66.9593 165.824C72.3603 171.094 74.4087 164.403 74.4087 164.403C74.4087 164.403 74.3612 160.67 75.8091 159.186L76.204 158.781C77.7836 157.162 81.3851 157.253 81.3851 157.253C81.3851 157.253 88.0244 155.042 82.6268 150.038C73.7116 141.075 64.7268 147.581 64.7268 147.581Z" fill="#F1F1F1" fill-opacity="0.2"/>
<path d="M46.1959 74.4587C44.4168 70.8792 44.8992 66.8732 47.5488 65.5086C50.1984 64.1441 53.8203 65.8351 55.7345 69.5463C57.5136 73.1258 57.0312 77.1319 54.3816 78.4965C51.8636 79.7261 48.1067 77.9033 46.1959 74.4587Z" fill="#F1F1F1" fill-opacity="0.2"/>
<path d="M61.0187 65.7503C58.6358 67.1117 58.15 70.8511 60.0607 74.2957C61.9715 77.7403 65.3267 79.4345 67.578 78.2079C69.961 76.8465 70.4468 73.1071 68.536 69.6625C66.8919 66.2147 63.5367 64.5206 61.0187 65.7503Z" fill="#F1F1F1" fill-opacity="0.2"/>
<path d="M48.9872 84.2932C50.29 81.8777 48.2442 78.3013 44.4872 76.4786C40.7303 74.6558 36.6022 75.1042 35.3028 77.7864C34.0001 80.2019 36.0459 83.7783 39.8028 85.6011C43.5598 87.4239 47.5529 86.8437 48.9872 84.2932Z" fill="#F1F1F1" fill-opacity="0.2"/>
<path d="M44.7928 89.9436C41.1709 88.2525 37.3094 88.6979 36.0067 91.1134C34.704 93.5289 36.7464 96.8386 40.3683 98.5297C43.9902 100.221 47.8517 99.7753 49.1544 97.3598C50.1905 94.9474 48.4148 91.6346 44.7928 89.9436Z" fill="#F1F1F1" fill-opacity="0.2"/>
<path d="M52.4221 81.8527L52.0272 82.2574C52.0272 82.2574 45.7428 91.3987 54.6546 100.095C59.9206 105.234 61.8373 98.6773 61.8373 98.6773C61.8373 98.6773 61.7898 94.9442 63.2378 93.4604L63.6326 93.0557C65.2122 91.437 68.8138 91.5281 68.8138 91.5281C68.8138 91.5281 75.4531 89.3167 70.0554 84.3128C61.4069 75.3466 52.4221 81.8527 52.4221 81.8527Z" fill="#F1F1F1" fill-opacity="0.2"/>
<path opacity="0.5" d="M1235.11 87.9129C1232.94 71.385 1241.96 55.6108 1256.89 48.9126C1259.52 32.7667 1272.44 19.9964 1288.97 17.8344C1309.48 15.1523 1328.34 29.6498 1331.02 50.1538C1331.83 56.369 1331.06 62.589 1328.77 68.4096L1384.03 110.892C1389.08 107.18 1394.89 104.831 1401.1 104.019C1421.6 101.337 1440.46 115.835 1443.14 136.339C1445.31 152.866 1436.29 168.641 1421.37 175.339C1418.73 191.485 1405.81 204.255 1389.28 206.417C1368.78 209.099 1349.91 194.602 1347.23 174.098C1346.42 167.882 1347.19 161.662 1349.48 155.842L1294.22 113.365C1289.18 117.071 1283.37 119.42 1277.15 120.233C1256.65 122.914 1237.79 108.417 1235.11 87.9129ZM1318.62 51.7751C1316.84 38.1035 1304.26 28.4404 1290.59 30.2287C1278.66 31.7899 1269.55 41.6548 1268.92 53.6907C1268.79 56.2812 1267.07 58.5192 1264.6 59.3163C1253.13 63.0141 1245.94 74.3575 1247.5 86.292C1249.29 99.9636 1261.86 109.627 1275.53 107.838C1280.84 107.144 1285.72 104.739 1289.65 100.877C1291.87 98.6897 1295.37 98.4789 1297.84 100.378L1361.1 149.004C1363.58 150.914 1364.26 154.34 1362.72 157.046C1360 161.834 1358.93 167.169 1359.63 172.477C1361.41 186.148 1373.99 195.812 1387.66 194.023C1399.59 192.462 1408.7 182.597 1409.33 170.561C1409.46 167.971 1411.18 165.733 1413.65 164.936C1425.12 161.238 1432.31 149.894 1430.75 137.96C1428.96 124.288 1416.39 114.625 1402.72 116.414C1397.42 117.107 1392.54 119.518 1388.6 123.381C1386.38 125.562 1382.89 125.773 1380.41 123.874L1317.15 75.2479C1314.67 73.3626 1313.98 69.9256 1315.53 67.2058C1318.25 62.4175 1319.32 57.0826 1318.62 51.7751Z" fill="#F1F1F1" fill-opacity="0.2"/>
</svg>
