<svg width="414" height="139" viewBox="0 0 414 139" fill="none" xmlns="http://www.w3.org/2000/svg">
<path d="M462.861 49.73C454.643 60.0016 440.263 73.0746 419.907 73.0746C396.935 73.0746 383.115 59.0678 376.579 50.2903C369.295 59.6281 365 71.2071 365 83.9065C365 96.0458 368.922 107.064 375.645 116.216C381.621 107.438 395.815 92.1239 419.907 92.1239C441.197 92.1239 455.951 106.317 463.981 116.776C470.891 107.625 475 96.2325 475 83.9065C474.813 71.0203 470.331 59.0678 462.861 49.73Z" fill="#F9F9F9"/>
<path d="M382.367 43.9406C389.277 52.5314 401.416 62.9898 419.905 62.9898C436.153 62.9898 448.292 52.7182 456.323 43.0068C446.612 34.2292 433.912 29 419.905 29C405.338 29 392.265 34.6027 382.367 43.9406Z" fill="#F9F9F9"/>
<path d="M419.907 102.395C400.297 102.395 387.785 114.161 381.248 122.939C391.146 132.837 404.779 139 419.907 139C434.474 139 447.734 133.21 457.445 124.059C449.601 113.601 436.902 102.395 419.907 102.395Z" fill="#F9F9F9"/>
<path d="M48.2708 60.1375L62.3334 51.6878C62.9131 51.3402 63.2947 50.7391 63.3637 50.067C63.4335 49.395 63.1819 48.7286 62.6858 48.2693L51.0063 37.4648C50.1355 36.6595 48.7764 36.7125 47.9703 37.5832C47.1648 38.4548 47.217 39.8137 48.0887 40.6191L57.6668 49.4795L45.5983 56.7302L15.6112 28.9892L27.6788 21.7383L36.1062 29.535C36.977 30.3403 38.3367 30.2883 39.1421 29.4167C39.9482 28.546 39.8955 27.1861 39.0238 26.3807L29.4129 17.4888C28.7115 16.84 27.6658 16.7323 26.8477 17.2246L12.7841 25.6749L4.3338 11.6113C3.84173 10.7923 2.86772 10.3972 1.9448 10.6402L-41.8839 22.1971C-42.5376 22.3697 -43.0724 22.8392 -43.3265 23.4661C-43.5811 24.092 -43.5263 24.8019 -43.1777 25.381L-34.728 39.4436L-48.7904 47.8924C-49.3703 48.2408 -49.7518 48.8411 -49.821 49.5141C-49.8908 50.186 -49.6392 50.8525 -49.1428 51.3109L-39.0884 60.6126L-44.4195 81.9947C-44.6094 82.756 -44.3695 83.5597 -43.7939 84.0924L-10.5209 114.872C-10.251 115.122 -9.92705 115.293 -9.58179 115.379C-9.23652 115.466 -8.86994 115.466 -8.51441 115.372L35.3141 103.816C36.0724 103.616 36.6615 103.019 36.8513 102.258L42.1825 80.8757L55.4267 77.3839C56.0804 77.2113 56.6154 76.741 56.8692 76.1149C57.1239 75.4891 57.0691 74.7791 56.7204 74.2001L48.2708 60.1375ZM2.08669 68.5798L-27.4479 41.2578L11.4567 30.9988L40.9911 58.3216L2.08669 68.5798ZM1.48178 15.2066L8.73192 27.274L-30.7688 37.6898L-38.0197 25.6221L1.48178 15.2066ZM-32.0537 42.8504L-2.06658 70.5914L-14.1352 77.8429L-44.1232 50.1018L-32.0537 42.8504ZM32.9895 99.9854L-6.09911 110.292L-0.786048 88.9824C-0.498966 87.831 -1.19949 86.6651 -2.35091 86.378C-3.50234 86.0909 -4.66821 86.7915 -4.95529 87.9429L-10.2684 109.252L-39.9429 81.8013L-35.4901 63.942L-15.8702 82.0922C-15.5981 82.3434 -15.2739 82.5142 -14.9319 82.5995C-14.392 82.7341 -13.8055 82.6572 -13.3049 82.3564L0.758677 73.9061L9.20895 87.9698C9.50949 88.4711 9.9915 88.8136 10.5314 88.9482C10.8734 89.0334 11.2398 89.0348 11.5979 88.9408L37.4423 82.1261L32.9895 99.9854ZM12.0618 84.3746L4.81043 72.3051L44.3109 61.8903L51.5635 73.9583L12.0618 84.3746Z" fill="#F1F1F1" fill-opacity="0.5"/>
<path d="M47.5847 59.9664L48.0133 59.7089L62.0759 51.2592L62.0762 51.259C62.5206 50.9926 62.8134 50.5316 62.8663 50.0159L62.8664 50.0153C62.9199 49.5003 62.727 48.9888 62.3461 48.6362L50.6669 37.8319C49.9989 37.2142 48.9563 37.2546 48.3376 37.9225C47.719 38.5918 47.7596 39.6343 48.428 40.2519L48.4282 40.2521L58.0063 49.1124L58.4954 49.5649L57.9243 49.9081L45.8558 57.1588L45.5342 57.352L45.2588 57.0972L15.2716 29.3563L14.7825 28.9038L15.3536 28.5607L27.4213 21.3097L27.7429 21.1164L28.0183 21.3713L36.4456 29.1679C36.4456 29.1679 36.4457 29.168 36.4457 29.168C37.1142 29.786 38.1573 29.7457 38.7749 29.0773L38.7752 29.077C39.3936 28.409 39.3531 27.3658 38.6845 26.7479L38.6842 26.7477L29.0734 17.8558M47.5847 59.9664L29.0734 17.8558M47.5847 59.9664L47.8422 60.395M47.5847 59.9664L47.8422 60.395M29.0734 17.8558C28.5351 17.3579 27.7329 17.2755 27.1055 17.653L27.1052 17.6532L13.0416 26.1035L12.613 26.361L12.3555 25.9324L3.90522 11.8688C3.52777 11.2406 2.78046 10.9373 2.07229 11.1237M29.0734 17.8558L2.07229 11.1237M2.07229 11.1237C2.07223 11.1237 2.07218 11.1238 2.07212 11.1238M2.07229 11.1237L2.07212 11.1238M2.07212 11.1238L-41.7563 22.6805M2.07212 11.1238L-41.7563 22.6805M47.8422 60.395L56.2919 74.4576L56.2921 74.458C56.5593 74.9018 56.6015 75.4463 56.4061 75.9265L56.4059 75.9271C56.2113 76.4069 55.8009 76.768 55.299 76.9005L42.055 80.3923L41.7689 80.4677L41.6973 80.7548L36.3662 102.137C36.2205 102.721 35.7685 103.179 35.1867 103.333C35.1866 103.333 35.1866 103.333 35.1865 103.333L-8.64189 114.889L-8.64203 114.889C-8.91466 114.961 -9.19572 114.96 -9.46083 114.894C-9.72593 114.828 -9.97428 114.697 -10.1812 114.505L-10.1813 114.505L-43.4543 83.7254C-43.4543 83.7254 -43.4544 83.7254 -43.4544 83.7254C-43.896 83.3165 -44.0801 82.6999 -43.9344 82.1156L-38.6032 60.7336L-38.5317 60.4465L-38.7488 60.2456L-48.8033 50.9439L-48.8036 50.9437C-49.1842 50.5921 -49.3771 50.0808 -49.3236 49.5657L-49.3236 49.5652C-49.2705 49.0488 -48.9779 48.5884 -48.5329 48.321L-34.4705 39.8721L-34.0419 39.6146L-34.2994 39.186L-42.7491 25.1234L-42.7493 25.1231C-43.0166 24.6792 -43.0587 24.1347 -42.8633 23.6545L-42.8631 23.6539M47.8422 60.395L-42.8631 23.6539M-42.8631 23.6539C-42.6684 23.1735 -42.2584 22.8132 -41.7565 22.6806C-41.7564 22.6806 -41.7563 22.6806 -41.7563 22.6805M-42.8631 23.6539L-41.7563 22.6805M1.74715 68.9468L1.94869 69.1333L2.21417 69.0633L41.1186 58.8051L41.999 58.5729L41.3306 57.9546L11.7962 30.6318L11.5947 30.4453L11.3292 30.5153L-27.5754 40.7743L-28.4559 41.0065L-27.7875 41.6249L1.74715 68.9468ZM1.91038 14.9491L1.71713 14.6275L1.3543 14.7232L-38.1472 25.1387L-38.7915 25.3085L-38.4483 25.8797L-31.1974 37.9473L-31.0041 38.2689L-30.6413 38.1732L8.8594 27.7575L9.50363 27.5876L9.16051 27.0165L1.91038 14.9491ZM-31.7142 42.4834L-31.9896 42.2286L-32.3112 42.4218L-44.3807 49.6732L-44.9518 50.0163L-44.4627 50.4688L-14.4747 78.21L-14.1993 78.4648L-13.8777 78.2715L-1.80906 71.02L-1.23794 70.6768L-1.72704 70.2244L-31.7142 42.4834ZM33.117 100.469L33.403 100.393L33.4746 100.106L37.9275 82.247L38.1319 81.4271L37.3148 81.6426L11.471 88.4572C11.1953 88.5296 10.9143 88.5283 10.6523 88.463C10.2373 88.3595 9.86798 88.0966 9.63779 87.7127L9.63753 87.7122L1.18726 73.6486L0.929742 73.22L0.501158 73.4776L-13.5625 81.9278C-13.9464 82.1585 -14.3964 82.2177 -14.811 82.1143C-15.0729 82.049 -15.3216 81.9181 -15.531 81.7248L-35.1505 63.5749L-35.7708 63.0011L-35.9752 63.821L-40.428 81.6803L-40.4996 81.9674L-40.2824 82.1683L-10.6079 109.619L-9.98762 110.193L-9.7832 109.373L-4.47014 88.0639C-4.24986 87.1804 -3.35536 86.6429 -2.47188 86.8632C-1.58839 87.0835 -1.05092 87.978 -1.2712 88.8614L-6.58426 110.171L-6.78868 110.991L-5.97164 110.775L33.117 100.469ZM11.6332 84.6321L11.8264 84.9537L12.1893 84.8581L51.691 74.4417L52.3353 74.2718L51.9921 73.7007L44.7395 61.6327L44.5462 61.3111L44.1834 61.4068L4.68295 71.8217L4.03871 71.9915L4.38183 72.5626L11.6332 84.6321Z" stroke="#F1F1F1" stroke-opacity="0.5" stroke-width="0.999999"/>
</svg>
