<svg width="1650" height="302" viewBox="0 0 1650 302" fill="none" xmlns="http://www.w3.org/2000/svg">
<path d="M153.769 258.412C151.99 254.833 152.472 250.827 155.122 249.462C157.771 248.097 161.393 249.788 163.308 253.5C165.087 257.079 164.604 261.085 161.955 262.45C159.305 263.814 155.548 261.992 153.769 258.412Z" fill="#F1F1F1" fill-opacity="0.2"/>
<path d="M168.728 249.836C166.345 251.198 165.859 254.937 167.77 258.382C169.68 261.826 173.036 263.52 175.287 262.294C177.67 260.932 178.156 257.193 176.245 253.748C174.334 250.304 170.979 248.61 168.728 249.836Z" fill="#F1F1F1" fill-opacity="0.2"/>
<path d="M156.431 268.382C157.733 265.967 155.688 262.39 151.931 260.567C148.174 258.745 144.046 259.193 142.746 261.875C141.443 264.291 143.489 267.867 147.246 269.69C151.003 271.513 154.996 270.933 156.431 268.382Z" fill="#F1F1F1" fill-opacity="0.2"/>
<path d="M152.236 274.031C148.614 272.34 144.753 272.786 143.45 275.201C142.147 277.617 144.19 280.927 147.812 282.618C151.434 284.309 155.295 283.863 156.598 281.448C157.634 279.035 155.858 275.722 152.236 274.031Z" fill="#F1F1F1" fill-opacity="0.2"/>
<path d="M159.865 265.942L159.471 266.346C159.471 266.346 153.186 275.488 162.098 284.184C167.364 289.323 169.281 282.766 169.281 282.766C169.281 282.766 169.233 279.033 170.681 277.549L171.076 277.145C172.656 275.526 176.257 275.617 176.257 275.617C176.257 275.617 182.896 273.406 177.499 268.402C168.85 259.436 159.865 265.942 159.865 265.942Z" fill="#F1F1F1" fill-opacity="0.2"/>
<path d="M131.497 194.8C129.718 191.22 130.2 187.214 132.85 185.849C135.499 184.485 139.121 186.176 141.035 189.887C142.814 193.467 142.332 197.473 139.682 198.837C137.164 200.067 133.407 198.244 131.497 194.8Z" fill="#F1F1F1" fill-opacity="0.2"/>
<path d="M146.319 186.09C143.937 187.452 143.451 191.191 145.362 194.636C147.272 198.08 150.628 199.774 152.879 198.548C155.262 197.186 155.748 193.447 153.837 190.002C152.193 186.555 148.837 184.86 146.319 186.09Z" fill="#F1F1F1" fill-opacity="0.2"/>
<path d="M134.155 204.769C135.458 202.353 133.412 198.777 129.655 196.954C125.898 195.131 121.77 195.58 120.471 198.262C119.168 200.678 121.214 204.254 124.971 206.077C128.859 207.765 132.852 207.184 134.155 204.769Z" fill="#F1F1F1" fill-opacity="0.2"/>
<path d="M130.094 210.283C126.472 208.592 122.61 209.038 121.308 211.453C120.005 213.869 122.047 217.178 125.669 218.87C129.291 220.561 133.152 220.115 134.455 217.7C135.491 215.287 133.716 211.974 130.094 210.283Z" fill="#F1F1F1" fill-opacity="0.2"/>
<path d="M137.723 202.194L137.328 202.598C137.328 202.598 131.044 211.74 139.955 220.436C145.221 225.575 147.138 219.018 147.138 219.018C147.138 219.018 147.091 215.285 148.539 213.801L148.933 213.397C150.513 211.778 154.115 211.869 154.115 211.869C154.115 211.869 160.754 209.657 155.356 204.654C146.708 195.687 137.723 202.194 137.723 202.194Z" fill="#F1F1F1" fill-opacity="0.2"/>
<path d="M58.5006 180.188C56.7215 176.609 57.2039 172.603 59.8535 171.238C62.5031 169.874 66.125 171.565 68.0392 175.276C69.8183 178.855 69.3359 182.861 66.6863 184.226C64.1683 185.456 60.4114 183.633 58.5006 180.188Z" fill="#F1F1F1" fill-opacity="0.2"/>
<path d="M73.3234 171.479C70.9404 172.84 70.4547 176.58 72.3654 180.024C74.2761 183.469 77.6314 185.163 79.8827 183.936C82.2657 182.575 82.7515 178.836 80.8407 175.391C79.1966 171.943 75.8414 170.249 73.3234 171.479Z" fill="#F1F1F1" fill-opacity="0.2"/>
<path d="M61.2919 190.023C62.5946 187.607 60.5489 184.031 56.7919 182.208C53.0349 180.385 48.9068 180.834 47.6075 183.516C46.3048 185.931 48.3505 189.508 52.1075 191.331C55.8645 193.153 59.8576 192.573 61.2919 190.023Z" fill="#F1F1F1" fill-opacity="0.2"/>
<path d="M57.0975 195.672C53.4756 193.981 49.6141 194.426 48.3114 196.842C47.0087 199.257 49.051 202.567 52.673 204.258C56.2949 205.949 60.1564 205.504 61.4591 203.088C62.4952 200.676 60.7195 197.363 57.0975 195.672Z" fill="#F1F1F1" fill-opacity="0.2"/>
<path d="M64.7268 187.582L64.3319 187.987C64.3319 187.987 58.0475 197.128 66.9593 205.825C72.3603 211.095 74.4087 204.404 74.4087 204.404C74.4087 204.404 74.3612 200.671 75.8091 199.187L76.204 198.782C77.7836 197.163 81.3851 197.254 81.3851 197.254C81.3851 197.254 88.0244 195.043 82.6268 190.039C73.7116 181.076 64.7268 187.582 64.7268 187.582Z" fill="#F1F1F1" fill-opacity="0.2"/>
<path d="M46.1959 114.46C44.4168 110.88 44.8992 106.874 47.5488 105.51C50.1984 104.145 53.8203 105.836 55.7345 109.547C57.5136 113.127 57.0312 117.133 54.3816 118.497C51.8636 119.727 48.1067 117.904 46.1959 114.46Z" fill="#F1F1F1" fill-opacity="0.2"/>
<path d="M61.0187 105.75C58.6358 107.112 58.15 110.851 60.0607 114.296C61.9715 117.74 65.3267 119.434 67.578 118.208C69.961 116.847 70.4468 113.107 68.536 109.662C66.8919 106.215 63.5367 104.521 61.0187 105.75Z" fill="#F1F1F1" fill-opacity="0.2"/>
<path d="M48.9872 124.294C50.29 121.879 48.2442 118.302 44.4872 116.48C40.7303 114.657 36.6022 115.105 35.3028 117.787C34.0001 120.203 36.0459 123.779 39.8028 125.602C43.5598 127.425 47.5529 126.845 48.9872 124.294Z" fill="#F1F1F1" fill-opacity="0.2"/>
<path d="M44.7928 129.944C41.1709 128.253 37.3094 128.698 36.0067 131.113C34.704 133.529 36.7464 136.839 40.3683 138.53C43.9902 140.221 47.8517 139.775 49.1544 137.36C50.1905 134.947 48.4148 131.635 44.7928 129.944Z" fill="#F1F1F1" fill-opacity="0.2"/>
<path d="M52.4221 121.854L52.0272 122.258C52.0272 122.258 45.7428 131.4 54.6546 140.096C59.9206 145.235 61.8373 138.678 61.8373 138.678C61.8373 138.678 61.7898 134.945 63.2378 133.461L63.6326 133.057C65.2122 131.438 68.8138 131.529 68.8138 131.529C68.8138 131.529 75.4531 129.318 70.0554 124.314C61.4069 115.348 52.4221 121.854 52.4221 121.854Z" fill="#F1F1F1" fill-opacity="0.2"/>
<path opacity="0.5" d="M1458.11 87.9129C1455.95 71.385 1464.96 55.6108 1479.89 48.9126C1482.52 32.7667 1495.45 19.9964 1511.97 17.8344C1532.48 15.1523 1551.34 29.6498 1554.02 50.1538C1554.83 56.369 1554.06 62.589 1551.77 68.4096L1607.04 110.892C1612.08 107.18 1617.89 104.831 1624.1 104.019C1644.6 101.337 1663.46 115.835 1666.15 136.339C1668.31 152.866 1659.29 168.641 1644.37 175.339C1641.73 191.485 1628.81 204.255 1612.28 206.417C1591.78 209.099 1572.92 194.602 1570.23 174.098C1569.42 167.882 1570.2 161.662 1572.48 155.842L1517.22 113.365C1512.18 117.071 1506.37 119.42 1500.16 120.233C1479.65 122.914 1460.79 108.417 1458.11 87.9129ZM1541.63 51.7751C1539.84 38.1035 1527.27 28.4404 1513.6 30.2287C1501.66 31.7899 1492.55 41.6548 1491.93 53.6907C1491.79 56.2812 1490.07 58.5192 1487.6 59.3163C1476.13 63.0141 1468.94 74.3575 1470.5 86.292C1472.29 99.9636 1484.86 109.627 1498.53 107.838C1503.84 107.144 1508.72 104.739 1512.65 100.877C1514.87 98.6897 1518.37 98.4789 1520.84 100.378L1584.1 149.004C1586.59 150.914 1587.26 154.34 1585.73 157.046C1583 161.834 1581.93 167.169 1582.63 172.477C1584.42 186.148 1596.99 195.812 1610.66 194.023C1622.59 192.462 1631.71 182.597 1632.33 170.561C1632.47 167.971 1634.19 165.733 1636.65 164.936C1648.12 161.238 1655.31 149.894 1653.75 137.96C1651.96 124.288 1639.39 114.625 1625.72 116.414C1620.42 117.107 1615.54 119.518 1611.61 123.381C1609.38 125.562 1605.89 125.773 1603.42 123.874L1540.15 75.2479C1537.67 73.3626 1536.98 69.9256 1538.53 67.2058C1541.25 62.4175 1542.32 57.0826 1541.63 51.7751Z" fill="#F1F1F1" fill-opacity="0.2"/>
</svg>
