<svg width="360" height="848" viewBox="0 0 360 848" fill="none" xmlns="http://www.w3.org/2000/svg">
<path d="M390.898 182.647L401.544 164.993C401.983 164.267 402.054 163.375 401.737 162.589C401.421 161.803 400.753 161.213 399.934 160.996L380.663 155.899C379.226 155.52 377.75 156.379 377.366 157.819C376.983 159.26 377.836 160.736 379.274 161.115L395.078 165.295L385.941 180.444L336.462 167.358L345.597 152.209L359.503 155.887C360.94 156.267 362.417 155.408 362.8 153.967C363.184 152.527 362.329 151.051 360.892 150.671L345.033 146.476C343.876 146.17 342.654 146.667 342.035 147.695L331.388 165.35L313.79 154.737C312.765 154.119 311.454 154.255 310.573 155.068L268.746 193.705C268.123 194.281 267.804 195.117 267.89 195.961C267.974 196.805 268.45 197.56 269.175 197.997L286.772 208.608L276.127 226.261C275.688 226.989 275.616 227.879 275.933 228.666C276.249 229.452 276.918 230.042 277.737 230.258L294.327 234.646L300.93 261.492C301.165 262.448 301.901 263.197 302.851 263.449L357.751 277.967C358.196 278.085 358.656 278.085 359.089 277.977C359.522 277.869 359.929 277.653 360.268 277.34L402.095 238.704C402.819 238.036 403.123 237.027 402.887 236.071L396.285 209.225L408.924 197.55C409.548 196.974 409.866 196.137 409.781 195.294C409.697 194.45 409.221 193.695 408.495 193.258L390.898 182.647ZM344.637 219.218L295.905 206.33L333.032 172.034L381.765 184.923L344.637 219.218ZM312.732 160.403L327.832 169.51L290.135 204.331L275.035 195.225L312.732 160.403ZM291.731 210.81L341.21 223.895L332.074 239.046L282.594 225.96L291.731 210.81ZM397.276 235.827L359.973 270.285L353.392 243.53C353.037 242.084 351.578 241.204 350.133 241.564C348.689 241.925 347.806 243.388 348.162 244.834L354.742 271.589L305.779 258.64L300.264 236.217L332.637 244.779C333.086 244.897 333.545 244.895 333.974 244.788C334.652 244.619 335.257 244.188 335.636 243.56L346.282 225.906L363.881 236.518C364.507 236.897 365.242 236.992 365.919 236.823C366.348 236.716 366.755 236.502 367.097 236.187L391.761 213.404L397.276 235.827ZM364.939 230.851L349.837 221.743L387.534 186.923L402.637 196.029L364.939 230.851Z" fill="#F1F1F1" fill-opacity="0.5"/>
<path d="M-12.0934 784.575C7.75328 784.575 22.0809 772.814 30.7636 762.758C36.7702 771.259 40.3339 781.715 40.5 792.925C40.4963 803.519 37.3138 813.386 31.8604 821.621C23.2695 811.295 8.58121 798.624 -12.0934 798.624C-34.8402 798.624 -49.1467 811.65 -56.2971 820.888C-61.5163 812.746 -64.5 803.256 -64.5 792.907C-64.5 781.939 -61.1464 771.854 -55.3542 763.427C-47.9204 772.442 -33.9784 784.575 -12.0934 784.575Z" stroke="#F9F9F9" stroke-width="5"/>
<path d="M-12.0946 769.49C-28.2728 769.49 -39.3378 761.021 -46.1708 753.182C-36.9517 745.215 -25.1573 740.501 -12.0946 740.501C0.405495 740.501 11.8041 744.86 20.8087 752.276C13.0138 761.134 2.04265 769.49 -12.0946 769.49Z" stroke="#F9F9F9" stroke-width="5"/>
<path d="M-12.0932 845.501C-25.7341 845.501 -38.1017 840.251 -47.3988 831.693C-40.8175 823.528 -29.34 813.896 -12.0932 813.896C2.8037 813.896 14.355 823.154 22.0484 832.758C12.9548 840.613 0.979797 845.501 -12.0932 845.501Z" stroke="#F9F9F9" stroke-width="5"/>
<path d="M31.0635 160.086C31.8479 158.381 32.1464 156.62 31.9907 155.166C31.8352 153.714 31.2381 152.618 30.2689 152.1C29.2824 151.572 28.059 151.671 26.8393 152.372C25.6218 153.073 24.4423 154.361 23.6014 156.126C22.8182 157.83 22.5202 159.589 22.6758 161.042C22.8312 162.494 23.4283 163.59 24.3976 164.108C25.3774 164.632 26.6289 164.509 27.8709 163.787C29.1081 163.067 30.2857 161.777 31.0635 160.086Z" fill="#F1F1F1" stroke="white"/>
<path d="M18.7644 160.542C19.6005 158.901 19.921 157.24 19.8043 155.869C19.6877 154.502 19.1445 153.465 18.2839 152.948C17.4919 152.5 16.4289 152.604 15.3005 153.291C14.1773 153.975 13.0523 155.204 12.2137 156.85C11.3775 158.491 11.057 160.152 11.1738 161.522C11.2904 162.89 11.8336 163.927 12.6941 164.444C13.4862 164.892 14.5491 164.787 15.6776 164.101C16.8008 163.417 17.9257 162.187 18.7644 160.542Z" fill="#F1F1F1" stroke="white"/>
<path d="M40.6999 163.539L40.695 163.529L40.6905 163.518C40.2383 162.45 39.2409 161.804 37.8865 161.664C36.5323 161.524 34.881 161.905 33.2744 162.83C31.6726 163.752 30.4391 165.06 29.7403 166.387C29.0368 167.722 28.9114 168.99 29.3536 169.926C29.8657 170.954 30.882 171.601 32.2197 171.756C33.5587 171.911 35.1779 171.563 36.7811 170.64C38.3829 169.718 39.6164 168.41 40.3153 167.083C41.0198 165.746 41.1445 164.476 40.6999 163.539Z" fill="#F1F1F1" stroke="white"/>
<path d="M39.8324 176.572C39.381 175.622 38.4333 175.031 37.1456 174.905C35.8603 174.778 34.295 175.126 32.7479 175.986C31.2097 176.841 30.0696 178.047 29.4184 179.289C28.7691 180.527 28.6266 181.749 28.9753 182.71C29.4306 183.648 30.3738 184.231 31.652 184.356C32.9372 184.483 34.5025 184.135 36.0497 183.275C37.5939 182.417 38.7925 181.204 39.4712 179.962C40.1527 178.714 40.2778 177.51 39.8324 176.572Z" fill="#F1F1F1" stroke="white"/>
<path d="M11.3046 177.382C11.3615 177.406 11.4086 177.424 11.4436 177.437C11.4619 177.437 11.4827 177.436 11.5059 177.435C11.6006 177.431 11.7358 177.428 11.9017 177.43C12.2328 177.432 12.69 177.452 13.1933 177.522C14.1707 177.657 15.44 177.995 16.2344 178.886L16.5733 179.266C16.9529 179.691 17.2074 180.262 17.3825 180.837C17.5592 181.417 17.6661 182.04 17.7313 182.603C17.7967 183.167 17.8216 183.685 17.8302 184.061C17.8345 184.249 17.8348 184.403 17.8339 184.511C17.8336 184.544 17.8333 184.573 17.8329 184.597C17.8438 184.635 17.8597 184.69 17.8809 184.757C17.9283 184.906 18.0014 185.116 18.1028 185.352C18.3088 185.833 18.6169 186.388 19.0374 186.787C19.4453 187.174 19.952 187.41 20.6063 187.297C21.2829 187.18 22.1831 186.678 23.3319 185.412C27.233 181.114 27.8596 176.894 27.5417 173.766C27.3817 172.192 26.9803 170.88 26.619 169.964C26.4385 169.506 26.2686 169.148 26.1452 168.907C26.0836 168.786 26.0336 168.695 25.9998 168.635C25.989 168.616 25.9798 168.6 25.9725 168.588L25.698 168.28C25.6867 168.272 25.6725 168.261 25.6554 168.249C25.602 168.211 25.5205 168.155 25.4128 168.086C25.1975 167.947 24.878 167.757 24.4696 167.554C23.6518 167.149 22.4836 166.7 21.0834 166.524C18.3047 166.175 14.5609 166.892 10.7709 171.312L10.7625 171.322L10.7537 171.331C9.57778 172.566 9.10873 173.545 8.99382 174.286C8.88283 175.001 9.09101 175.568 9.44424 176.035C9.80767 176.515 10.3173 176.874 10.758 177.118C10.9749 177.238 11.1673 177.325 11.3046 177.382Z" fill="#F1F1F1" stroke="white"/>
<path d="M48.5621 100.788C49.8043 100.065 51.0106 98.8021 51.8436 97.172C52.6244 95.4698 52.9213 93.7131 52.7657 92.262C52.6101 90.8098 52.0129 89.7142 51.0436 89.1961C50.057 88.6688 48.8336 88.767 47.6139 89.469C46.3965 90.1698 45.2171 91.4579 44.3764 93.2224C43.5933 94.9267 43.2955 96.686 43.4512 98.139C43.6066 99.5888 44.2022 100.683 45.1687 101.202C46.0869 101.663 47.3104 101.516 48.5621 100.788Z" fill="#F1F1F1" stroke="white"/>
<path d="M33.1167 93.7856L33.1107 93.7991L33.104 93.8122C32.2678 95.4529 31.9473 97.1144 32.0641 98.4847C32.1807 99.8523 32.7239 100.889 33.5845 101.406C34.3765 101.854 35.4395 101.75 36.568 101.063C37.6912 100.379 38.8162 99.1497 39.6549 97.5042C40.4911 95.8636 40.8116 94.2021 40.6948 92.8318C40.5786 91.4691 40.039 90.4351 39.1838 89.9157C38.2589 89.4564 37.1277 89.5819 36.0151 90.259C34.8986 90.9386 33.8371 92.1571 33.1167 93.7856Z" fill="#F1F1F1" stroke="white"/>
<path d="M61.4771 100.636L61.4722 100.626L61.4677 100.615C61.0155 99.5469 60.0179 98.9004 58.6635 98.7607C57.3093 98.6209 55.6579 99.0019 54.0514 99.9266C52.4495 100.849 51.2161 102.157 50.5172 103.484C49.8127 104.821 49.6881 106.091 50.1327 107.027C50.5843 107.978 51.5614 108.602 52.9123 108.758C54.2554 108.914 55.9054 108.594 57.5667 107.732C59.1645 106.81 60.3949 105.504 61.0926 104.18C61.7971 102.842 61.9217 101.572 61.4771 100.636Z" fill="#F1F1F1" stroke="white"/>
<path d="M60.4926 113.539C60.0412 112.589 59.0934 111.998 57.8057 111.872C56.5205 111.745 54.9551 112.093 53.408 112.953C51.8699 113.808 50.7298 115.015 50.0785 116.256C49.4293 117.494 49.2868 118.717 49.6354 119.678C50.0908 120.616 51.034 121.198 52.3121 121.324C53.5974 121.45 55.1627 121.102 56.7098 120.242C58.254 119.384 59.4527 118.172 60.1314 116.929C60.8128 115.681 60.938 114.477 60.4926 113.539Z" fill="#F1F1F1" stroke="white"/>
<path d="M31.9684 114.351C32.0253 114.375 32.0725 114.393 32.1075 114.407C32.1257 114.406 32.1465 114.405 32.1698 114.404C32.2644 114.401 32.3997 114.398 32.5656 114.399C32.8967 114.401 33.3539 114.421 33.8572 114.491C34.8346 114.626 36.1039 114.964 36.8983 115.855L37.2372 116.235C37.6168 116.66 37.8713 117.231 38.0464 117.806C38.2231 118.387 38.33 119.009 38.3952 119.572C38.4607 120.137 38.4855 120.654 38.4941 121.03C38.4984 121.218 38.4987 121.372 38.4978 121.48C38.4976 121.513 38.4972 121.542 38.4968 121.566C38.5077 121.605 38.5236 121.659 38.5448 121.726C38.5922 121.875 38.6653 122.085 38.7667 122.321C38.9728 122.802 39.2808 123.358 39.7014 123.756C40.1092 124.143 40.6159 124.379 41.2702 124.266C41.9469 124.149 42.8471 123.647 43.9959 122.381C47.897 118.083 48.5236 113.863 48.2057 110.735C48.0457 109.161 47.6443 107.849 47.283 106.933C47.1025 106.475 46.9326 106.117 46.8092 105.876C46.7476 105.755 46.6976 105.664 46.6638 105.604C46.653 105.585 46.6438 105.569 46.6365 105.557L46.362 105.249C46.3507 105.241 46.3365 105.231 46.3194 105.218C46.266 105.18 46.1845 105.124 46.0768 105.055C45.8614 104.916 45.542 104.726 45.1336 104.523C44.3157 104.118 43.1475 103.669 41.7474 103.493C38.9686 103.144 35.2248 103.861 31.4348 108.281L31.4264 108.291L31.4175 108.3C30.2416 109.535 29.7726 110.514 29.6577 111.255C29.5467 111.97 29.7548 112.537 30.1081 113.004C30.4715 113.484 30.9812 113.844 31.4218 114.087C31.6387 114.207 31.8312 114.294 31.9684 114.351Z" fill="#F1F1F1" stroke="white"/>
<path d="M113.005 83.9065C114.247 83.1841 115.453 81.9209 116.287 80.291C117.068 78.5889 117.365 76.8323 117.209 75.3812C117.054 73.929 116.457 72.8334 115.487 72.3152C114.501 71.7878 113.278 71.8858 112.058 72.5877C110.84 73.2884 109.661 74.5763 108.82 76.3407C108.037 78.0449 107.739 79.8042 107.894 81.2571C108.049 82.707 108.645 83.8014 109.611 84.3206C110.53 84.7811 111.753 84.6343 113.005 83.9065Z" fill="#F1F1F1" stroke="white"/>
<path d="M97.5776 76.9049L97.5716 76.9184L97.5649 76.9315C96.7287 78.5722 96.4082 80.2337 96.525 81.6041C96.6416 82.9718 97.1848 84.0084 98.0454 84.5259C98.8375 84.9736 99.9005 84.8691 101.029 84.1823C102.152 83.4987 103.277 82.2691 104.116 80.6236C104.952 78.9829 105.273 77.3214 105.156 75.951C105.04 74.5883 104.5 73.5543 103.645 73.0349C102.72 72.5756 101.589 72.7011 100.476 73.3782C99.3595 74.0578 98.298 75.2763 97.5776 76.9049Z" fill="#F1F1F1" stroke="white"/>
<path d="M125.809 83.6293L125.804 83.6189L125.8 83.6084C125.347 82.5403 124.35 81.8939 122.995 81.7541C121.641 81.6144 119.99 81.9953 118.383 82.9201C116.781 83.8421 115.548 85.1506 114.849 86.4771C114.146 87.8123 114.02 89.0807 114.463 90.0166C114.975 91.0441 115.991 91.6914 117.329 91.8464C118.668 92.0015 120.287 91.6528 121.89 90.73C123.492 89.808 124.726 88.4995 125.425 87.173C126.129 85.8358 126.254 84.5656 125.809 83.6293Z" fill="#F1F1F1" stroke="white"/>
<path d="M124.95 96.6627C124.498 95.7124 123.551 95.1222 122.263 94.9955C120.978 94.869 119.412 95.2168 117.865 96.0767C116.327 96.9316 115.187 98.1382 114.536 99.3797C113.887 100.617 113.744 101.84 114.093 102.801C114.548 103.739 115.491 104.321 116.769 104.447C118.055 104.574 119.62 104.226 121.167 103.366C122.711 102.508 123.91 101.295 124.588 100.052C125.27 98.8045 125.395 97.6005 124.95 96.6627Z" fill="#F1F1F1" stroke="white"/>
<path d="M96.1817 97.4771C96.2386 97.5008 96.2857 97.5192 96.3207 97.5323C96.339 97.5315 96.3598 97.5306 96.383 97.5298C96.4777 97.5264 96.6129 97.5233 96.7788 97.5246C97.1099 97.5272 97.5671 97.5471 98.0704 97.6168C99.0478 97.7522 100.317 98.0902 101.111 98.9806L101.45 99.3605C101.83 99.786 102.084 100.356 102.26 100.932C102.436 101.512 102.543 102.135 102.608 102.698C102.674 103.262 102.699 103.78 102.707 104.156C102.712 104.344 102.712 104.498 102.711 104.605C102.711 104.637 102.71 104.665 102.71 104.688C102.722 104.727 102.739 104.783 102.761 104.85C102.811 105.003 102.889 105.217 102.997 105.458C103.214 105.948 103.54 106.517 103.981 106.924C104.411 107.321 104.944 107.563 105.629 107.442C106.334 107.318 107.265 106.798 108.443 105.5C112.344 101.202 112.971 96.9821 112.653 93.8542C112.493 92.2793 112.092 90.9682 111.73 90.0515C111.55 89.5936 111.38 89.2359 111.257 88.9947C111.195 88.8742 111.145 88.783 111.111 88.7231C111.1 88.704 111.091 88.6881 111.084 88.6755L110.809 88.3678C110.798 88.3596 110.784 88.3494 110.767 88.3373C110.713 88.2993 110.632 88.2432 110.524 88.174C110.308 88.0354 109.988 87.8447 109.578 87.6424C108.757 87.2372 107.581 86.7882 106.166 86.6126C103.357 86.264 99.5515 86.9846 95.6434 91.4125L95.6372 91.4195L95.6308 91.4262C94.4549 92.6609 93.9859 93.6401 93.871 94.3805C93.76 95.0957 93.9682 95.6631 94.3214 96.1298C94.6848 96.6099 95.1945 96.9693 95.6351 97.2127C95.852 97.3325 96.0444 97.4199 96.1817 97.4771Z" fill="#F1F1F1" stroke="white"/>
<path d="M125.054 19.3081C126.296 18.5857 127.502 17.3225 128.336 15.6925C129.117 13.9904 129.414 12.2338 129.258 10.7827C129.103 9.33044 128.506 8.23478 127.536 7.7166C126.55 7.18918 125.327 7.28724 124.107 7.98916C122.889 8.6898 121.71 9.97774 120.869 11.7422C120.086 13.4464 119.788 15.2057 119.943 16.6587C120.099 18.1086 120.694 19.203 121.661 19.7222C122.579 20.1827 123.802 20.0359 125.054 19.3081Z" fill="#F1F1F1" stroke="white"/>
<path d="M109.617 12.3027L109.611 12.3162L109.604 12.3293C108.768 13.9699 108.447 15.6314 108.564 17.0017C108.681 18.3694 109.224 19.4059 110.084 19.9235C110.877 20.3711 111.94 20.2666 113.068 19.5798C114.191 18.8962 115.316 17.6667 116.155 16.0212C116.991 14.3806 117.312 12.7191 117.195 11.3488C117.079 9.98615 116.539 8.95216 115.684 8.43275C114.759 7.97349 113.628 8.09899 112.515 8.7761C111.399 9.45564 110.337 10.6741 109.617 12.3027Z" fill="#F1F1F1" stroke="white"/>
<path d="M137.86 19.028L137.855 19.0177L137.851 19.0071C137.398 17.939 136.401 17.2925 135.047 17.1527C133.692 17.0129 132.041 17.3937 130.434 18.3184C128.833 19.2403 127.599 20.5487 126.9 21.8752C126.197 23.2104 126.071 24.4787 126.514 25.4147C127.026 26.4421 128.042 27.0895 129.38 27.2446C130.719 27.3998 132.338 27.0512 133.941 26.1285C135.543 25.2065 136.776 23.8981 137.475 22.5717C138.18 21.2345 138.305 19.9644 137.86 19.028Z" fill="#F1F1F1" stroke="white"/>
<path d="M136.997 32.0601C136.545 31.1097 135.598 30.5194 134.31 30.3926C133.025 30.266 131.459 30.6138 129.912 31.4736C128.374 32.3284 127.234 33.5351 126.583 34.7766C125.934 36.0143 125.791 37.237 126.14 38.198C126.595 39.1361 127.538 39.7185 128.816 39.8444C130.101 39.971 131.667 39.6232 133.214 38.7634C134.758 37.9052 135.957 36.6927 136.635 35.4499C137.317 34.202 137.442 32.998 136.997 32.0601Z" fill="#F1F1F1" stroke="white"/>
<path d="M108.455 32.8686C108.512 32.8923 108.559 32.9107 108.594 32.9239C108.612 32.923 108.633 32.9222 108.656 32.9213C108.751 32.9179 108.886 32.9149 109.052 32.9162C109.383 32.9187 109.84 32.9386 110.344 33.0083C111.321 33.1437 112.59 33.4817 113.385 34.3721L113.724 34.752C114.103 35.1775 114.358 35.748 114.533 36.3233C114.709 36.9038 114.816 37.526 114.882 38.089C114.947 38.6538 114.972 39.1714 114.98 39.5472C114.985 39.7355 114.985 39.8893 114.984 39.9969C114.984 40.0301 114.984 40.0589 114.983 40.083C114.994 40.1218 115.01 40.1761 115.031 40.2429C115.079 40.3923 115.152 40.6019 115.253 40.8383C115.459 41.3188 115.767 41.8747 116.188 42.2737C116.596 42.6606 117.102 42.8965 117.757 42.7831C118.433 42.6658 119.333 42.1638 120.482 40.8982C124.383 36.6004 125.01 32.3808 124.692 29.2529C124.532 27.678 124.131 26.367 123.769 25.4503C123.589 24.9924 123.419 24.6346 123.296 24.3935C123.234 24.273 123.184 24.1818 123.15 24.1219C123.139 24.1028 123.13 24.0869 123.123 24.0742L122.848 23.7666C122.837 23.7583 122.823 23.7481 122.806 23.736C122.752 23.698 122.671 23.6418 122.563 23.5725C122.348 23.4339 122.028 23.2431 121.62 23.0407C120.802 22.6354 119.634 22.1864 118.234 22.0105C115.455 21.6614 111.711 22.379 107.921 26.7987L107.913 26.8085L107.904 26.8178C106.728 28.0524 106.259 29.0316 106.144 29.7721C106.033 30.4873 106.241 31.0547 106.594 31.5214C106.958 32.0015 107.468 32.3609 107.908 32.6042C108.125 32.724 108.318 32.8115 108.455 32.8686Z" fill="#F1F1F1" stroke="white"/>
</svg>
