<svg width="414" height="254" viewBox="0 0 414 254" fill="none" xmlns="http://www.w3.org/2000/svg">
<path d="M119.217 210.782C116.938 207.494 116.831 203.456 119.249 201.72C121.667 199.984 125.49 201.132 127.922 204.53C130.2 207.817 130.308 211.856 127.89 213.592C125.472 215.328 121.496 214.069 119.217 210.782Z" fill="#F1F1F1"/>
<path d="M132.745 200.11C130.59 201.804 130.655 205.578 133.045 208.712C135.434 211.846 138.994 213.037 141.039 211.496C143.194 209.802 143.128 206.028 140.739 202.893C138.35 199.759 134.789 198.568 132.745 200.11Z" fill="#F1F1F1"/>
<path d="M123.285 220.302C124.219 217.721 121.677 214.475 117.701 213.215C113.724 211.955 109.713 212.998 108.821 215.843C107.887 218.424 110.429 221.67 114.405 222.93C118.381 224.19 122.24 223.036 123.285 220.302Z" fill="#F1F1F1"/>
<path d="M119.94 226.539C116.116 225.39 112.368 226.392 111.433 228.973C110.499 231.555 112.998 234.536 116.822 235.685C120.646 236.834 124.394 235.832 125.328 233.251C126 230.711 123.763 227.688 119.94 226.539Z" fill="#F1F1F1"/>
<path d="M126.304 217.39L125.972 217.848C125.972 217.848 121.094 227.821 131.166 235.142C137.118 239.468 138.057 232.692 138.057 232.692C138.057 232.692 137.466 229 138.681 227.319L139.012 226.861C140.337 225.027 143.909 224.593 143.909 224.593C143.909 224.593 150.147 221.436 144.085 217.263C134.234 209.636 126.304 217.39 126.304 217.39Z" fill="#F1F1F1"/>
<path d="M88.0563 150.864C85.7774 147.577 85.67 143.539 88.0879 141.802C90.5058 140.066 94.3294 141.215 96.7608 144.613C99.0396 147.9 99.1471 151.938 96.7292 153.674C94.4216 155.258 90.4454 153.998 88.0563 150.864Z" fill="#F1F1F1"/>
<path d="M101.415 140.075C99.2603 141.77 99.3255 145.544 101.715 148.678C104.104 151.813 107.664 153.003 109.709 151.461C111.864 149.767 111.799 145.993 109.41 142.858C107.284 139.682 103.723 138.491 101.415 140.075Z" fill="#F1F1F1"/>
<path d="M92.1146 160.378C93.0487 157.796 90.5065 154.551 86.5303 153.291C82.5541 152.031 78.5428 153.074 77.6509 155.918C76.7168 158.5 79.259 161.745 83.2352 163.005C87.3217 164.113 91.1805 162.959 92.1146 160.378Z" fill="#F1F1F1"/>
<path d="M88.8791 166.463C85.0556 165.314 81.3071 166.315 80.3727 168.897C79.4383 171.478 81.9378 174.46 85.7613 175.609C89.5848 176.758 93.3333 175.756 94.2677 173.175C94.9392 170.635 92.7026 167.612 88.8791 166.463Z" fill="#F1F1F1"/>
<path d="M95.2431 157.317L94.9119 157.776C94.9119 157.776 90.0339 167.748 100.106 175.069C106.058 179.396 106.997 172.62 106.997 172.62C106.997 172.62 106.406 168.927 107.62 167.246L107.952 166.788C109.277 164.954 112.849 164.52 112.849 164.52C112.849 164.52 119.087 161.363 113.024 157.19C103.173 149.563 95.2431 157.317 95.2431 157.317Z" fill="#F1F1F1"/>
<path d="M13.8794 147.01C11.5997 143.725 11.4914 139.688 13.9091 137.952C16.3267 136.215 20.1508 137.363 22.583 140.76C24.8627 144.046 24.971 148.083 22.5533 149.819C20.246 151.402 16.2694 150.143 13.8794 147.01Z" fill="#F1F1F1"/>
<path d="M27.2447 136.228C25.0898 137.923 25.1557 141.696 27.5455 144.829C29.9354 147.962 33.4966 149.152 35.5412 147.61C37.6961 145.916 37.6302 142.142 35.2404 139.009C33.1134 135.834 29.5522 134.644 27.2447 136.228Z" fill="#F1F1F1"/>
<path d="M18.0558 156.374C18.9896 153.793 16.4467 150.549 12.4699 149.29C8.49317 148.03 4.48164 149.074 3.59018 151.919C2.6564 154.499 5.19928 157.743 9.17605 159.003C13.1528 160.262 17.0117 159.107 18.0558 156.374Z" fill="#F1F1F1"/>
<path d="M14.7068 162.611C10.8828 161.463 7.1343 162.465 6.20041 165.046C5.26651 167.627 7.76679 170.607 11.5907 171.755C15.4146 172.904 19.1632 171.902 20.0971 169.321C20.7681 166.781 18.5307 163.759 14.7068 162.611Z" fill="#F1F1F1"/>
<path d="M21.0702 153.466L20.739 153.924C20.739 153.924 15.8623 163.896 25.9362 171.213C32.0416 175.648 33.0899 168.721 33.0899 168.721C33.0899 168.721 32.4986 165.029 33.713 163.348L34.0442 162.89C35.3689 161.056 38.941 160.622 38.941 160.622C38.941 160.622 45.1789 157.464 39.1158 153.293C28.9996 145.712 21.0702 153.466 21.0702 153.466Z" fill="#F1F1F1"/>
<path d="M-8.10581 84.061C-10.3847 80.7739 -10.4922 76.736 -8.07425 74.9996C-5.65633 73.2633 -1.83271 74.4122 0.598702 77.8101C2.87755 81.0971 2.98506 85.1351 0.567144 86.8714C-1.74043 88.4551 -5.71661 87.1953 -8.10581 84.061Z" fill="#F1F1F1"/>
<path d="M5.25717 73.2749C3.10209 74.9695 3.16728 78.7439 5.55639 81.8782C7.9455 85.0125 11.5062 86.2033 13.5509 84.6614C15.706 82.9668 15.6408 79.1924 13.2517 76.0581C11.1255 72.882 7.5648 71.6913 5.25717 73.2749Z" fill="#F1F1F1"/>
<path d="M-7.28256 99.6605C-11.1061 98.5117 -14.8548 99.5136 -15.7893 102.095C-16.7238 104.677 -14.2243 107.659 -10.4007 108.807C-6.57714 109.956 -2.82844 108.954 -1.89394 106.373C-1.22235 103.833 -3.45897 100.809 -7.28256 99.6605Z" fill="#F1F1F1"/>
<path d="M-0.916796 90.5141L-1.24805 90.9726C-1.24805 90.9726 -6.12628 100.945 3.94573 108.267C9.89737 112.593 10.8365 105.817 10.8365 105.817C10.8365 105.817 10.2458 102.124 11.4605 100.443L11.7917 99.9848C13.1167 98.151 16.6887 97.7173 16.6887 97.7173C16.6887 97.7173 22.9268 94.56 16.8647 90.3866C7.01355 82.7598 -0.916796 90.5141 -0.916796 90.5141Z" fill="#F1F1F1"/>
<path d="M357.267 43.2258C355.329 37.9002 357.156 31.9991 361.615 28.6737C361.296 23.1206 364.642 17.9278 369.968 15.9895C376.575 13.5848 383.905 17.003 386.31 23.6098C387.039 25.6125 387.241 27.734 386.912 29.8345L408.391 39.8517C409.79 38.2472 411.545 37.0385 413.546 36.3103C420.153 33.9057 427.483 37.3239 429.888 43.9307C431.826 49.2562 429.999 55.1574 425.54 58.4828C425.859 64.0358 422.513 69.2287 417.187 71.167C410.581 73.5717 403.25 70.1534 400.845 63.5467C400.117 61.544 399.914 59.4225 400.243 57.322L378.765 47.3068C377.367 48.9088 375.612 50.1174 373.609 50.8463C367.002 53.2509 359.672 49.8327 357.267 43.2258ZM382.316 25.0634C380.713 20.6581 375.827 18.3797 371.421 19.9831C367.576 21.3828 365.28 25.3298 365.963 29.3703C366.109 30.24 365.704 31.1098 364.943 31.5567C361.409 33.6312 359.861 37.9269 361.261 41.7724C362.864 46.1776 367.75 48.456 372.155 46.8527C373.866 46.2302 375.308 45.0714 376.326 43.4996C376.903 42.6094 378.047 42.2814 379.007 42.7291L403.594 54.1943C404.56 54.6446 405.037 55.7318 404.727 56.7434C404.177 58.5335 404.217 60.3831 404.839 62.0933C406.442 66.4985 411.328 68.7769 415.734 67.1735C419.579 65.7739 421.875 61.8268 421.193 57.7863C421.046 56.9166 421.452 56.0468 422.212 55.5999C425.746 53.5254 427.294 49.2297 425.894 45.3842C424.291 40.979 419.405 38.7006 415 40.304C413.291 40.9257 411.85 42.0864 410.83 43.659C410.252 44.5472 409.108 44.8752 408.148 44.4275L383.561 32.9623C382.598 32.5199 382.116 31.4301 382.428 30.4133C382.978 28.623 382.938 26.7736 382.316 25.0634Z" fill="#F9F9F9"/>
</svg>
