<svg width="771" height="772" viewBox="0 0 771 772" fill="none" xmlns="http://www.w3.org/2000/svg">
<path d="M109.893 56.5361C87.4822 84.5497 48.2632 120.203 -7.25467 120.203C-69.9032 120.203 -107.594 82.003 -125.421 58.0641C-145.285 83.531 -157 115.11 -157 149.745C-157 182.852 -146.304 212.903 -127.968 237.86C-111.669 213.922 -72.9593 172.156 -7.25467 172.156C50.8098 172.156 91.0475 210.865 112.949 239.388C131.795 214.431 143 183.361 143 149.745C142.491 114.601 130.267 82.003 109.893 56.5361Z" fill="#F1F1F1" fill-opacity="0.05"/>
<path d="M-7.25467 121.203C48.0724 121.203 87.2803 86.0854 109.887 58.1384C129.657 83.2859 141.499 115.283 142 149.753C141.998 182.671 131.18 213.128 112.936 237.736C90.7962 209.237 50.5744 171.156 -7.25467 171.156C-72.376 171.156 -111.155 211.896 -127.991 236.129C-145.7 211.562 -156 182.126 -156 149.745C-156 115.81 -144.68 84.8312 -125.433 59.7144C-107.209 83.8187 -69.4479 121.203 -7.25467 121.203Z" stroke="#F1F1F1" stroke-opacity="0.05" stroke-width="2"/>
<path d="M-109.633 40.747C-90.7873 64.1766 -57.6804 92.6995 -7.25591 92.6995C37.0565 92.6995 70.1635 64.6859 92.065 38.2003C65.5794 14.2615 30.9444 0 -7.25591 0C-46.9843 0 -82.6379 15.2801 -109.633 40.747Z" fill="#F1F1F1" fill-opacity="0.05"/>
<path d="M-7.25591 91.6995C-56.7438 91.6995 -89.4302 64.0046 -108.271 40.8408C-81.5359 15.922 -46.388 1 -7.25591 1C30.3464 1 64.4661 14.9097 90.6811 38.3016C68.846 64.4828 36.1987 91.6995 -7.25591 91.6995Z" stroke="#F1F1F1" stroke-opacity="0.05" stroke-width="2"/>
<path d="M-7.25456 200.17C-60.735 200.17 -94.8607 232.258 -112.688 256.197C-85.6926 283.192 -48.5109 300 -7.25456 300C32.4738 300 68.6368 284.211 95.1223 259.253C73.7301 230.73 39.0952 200.17 -7.25456 200.17Z" fill="#F1F1F1" fill-opacity="0.05"/>
<path d="M-7.25456 299C-47.9206 299 -84.6009 282.56 -111.366 256.101C-93.4946 232.368 -59.7743 201.17 -7.25456 201.17C38.2433 201.17 72.4262 230.923 93.7831 259.137C67.5331 283.575 31.8795 299 -7.25456 299Z" stroke="#F1F1F1" stroke-opacity="0.05" stroke-width="2"/>
<path d="M732.421 646.888L757.989 631.525C759.043 630.893 759.737 629.8 759.862 628.578C759.989 627.356 759.532 626.145 758.63 625.31L737.394 605.665C735.811 604.201 733.34 604.297 731.874 605.88C730.41 607.465 730.505 609.936 732.09 611.4L749.504 627.51L727.562 640.693L673.039 590.255L694.981 577.071L710.303 591.247C711.886 592.711 714.359 592.617 715.823 591.032C717.289 589.449 717.193 586.977 715.608 585.512L698.134 569.345C696.858 568.165 694.957 567.97 693.47 568.865L667.899 584.229L652.535 558.659C651.641 557.17 649.87 556.451 648.192 556.893L568.503 577.906C567.314 578.219 566.342 579.073 565.88 580.213C565.417 581.351 565.517 582.642 566.151 583.694L581.514 609.263L555.946 624.624C554.891 625.258 554.198 626.349 554.072 627.573C553.945 628.795 554.403 630.006 555.305 630.84L573.586 647.752L563.893 686.628C563.548 688.013 563.984 689.474 565.03 690.442L625.527 746.405C626.017 746.86 626.606 747.172 627.234 747.328C627.862 747.485 628.528 747.486 629.175 747.315L708.863 726.304C710.242 725.94 711.313 724.855 711.658 723.47L721.351 684.594L745.431 678.245C746.62 677.931 747.593 677.076 748.054 675.938C748.517 674.8 748.418 673.509 747.784 672.456L732.421 646.888ZM648.45 662.238L594.75 612.561L665.486 593.909L719.185 643.586L648.45 662.238ZM647.35 565.196L660.532 587.136L588.712 606.074L575.529 584.133L647.35 565.196ZM586.376 615.457L640.898 665.895L618.955 679.08L564.432 628.641L586.376 615.457ZM704.636 719.339L633.566 738.078L643.226 699.333C643.748 697.24 642.475 695.12 640.381 694.598C638.288 694.076 636.168 695.35 635.646 697.443L625.986 736.188L572.032 686.277L580.128 653.805L615.801 686.806C616.295 687.263 616.885 687.573 617.507 687.728C618.488 687.973 619.555 687.833 620.465 687.286L646.035 671.922L661.399 697.492C661.946 698.404 662.822 699.026 663.804 699.271C664.425 699.426 665.092 699.429 665.743 699.258L712.732 686.867L704.636 719.339ZM666.586 690.956L653.402 669.011L725.221 650.075L738.407 672.017L666.586 690.956Z" fill="#F1F1F1" fill-opacity="0.05"/>
<path d="M731.735 646.717L732.163 646.46L757.731 631.096L757.732 631.096C758.65 630.545 759.256 629.593 759.365 628.527L759.365 628.526C759.476 627.462 759.077 626.405 758.29 625.677C758.29 625.677 758.29 625.676 758.29 625.676L737.055 606.032C735.674 604.756 733.519 604.839 732.241 606.22C730.964 607.602 731.047 609.756 732.429 611.033L732.429 611.033L749.844 627.143L750.333 627.595L749.762 627.938L727.819 641.122L727.498 641.315L727.222 641.06L672.7 590.622L672.211 590.17L672.782 589.826L694.723 576.643L695.045 576.45L695.32 576.704L710.643 590.88C712.024 592.157 714.179 592.074 715.456 590.693L715.456 590.692C716.734 589.312 716.65 587.156 715.269 585.879L715.268 585.879L697.794 569.712M731.735 646.717L697.794 569.712M731.735 646.717L731.992 647.146M731.735 646.717L731.992 647.146M697.794 569.712C696.682 568.683 695.024 568.513 693.727 569.293L693.727 569.293L668.157 584.657L667.728 584.915L667.471 584.486L652.107 558.916C651.327 557.618 649.782 556.991 648.319 557.377M697.794 569.712L648.319 557.377M648.319 557.377C648.319 557.377 648.319 557.377 648.319 557.377M648.319 557.377L648.319 557.377M648.319 557.377L568.631 578.389C567.594 578.663 566.746 579.407 566.344 580.401L566.343 580.401C565.94 581.394 566.027 582.519 566.579 583.437L566.579 583.437L581.942 609.005L582.2 609.434L581.771 609.691L556.203 625.053C555.284 625.605 554.679 626.557 554.569 627.624L554.569 627.624C554.459 628.689 554.857 629.746 555.644 630.473L555.644 630.473L573.925 647.385L574.142 647.586L574.071 647.873L564.378 686.749C564.077 687.957 564.457 689.231 565.37 690.075C565.37 690.075 565.37 690.076 565.37 690.076L625.866 746.038L625.866 746.039C626.294 746.434 626.807 746.706 627.355 746.843C627.903 746.979 628.484 746.98 629.047 746.832L629.047 746.832L708.735 725.821C708.736 725.821 708.736 725.821 708.736 725.821M648.319 557.377L708.736 725.821M731.992 647.146L747.355 672.714L747.355 672.714C747.908 673.632 747.995 674.757 747.591 675.75L747.591 675.75C747.189 676.742 746.34 677.488 745.304 677.762M731.992 647.146L732.849 646.631M732.849 646.631L757.989 631.525C759.043 630.893 759.737 629.8 759.862 628.578L732.849 646.631ZM732.849 646.631L732.421 646.888L732.678 647.317L747.784 672.456C748.418 673.509 748.517 674.8 748.054 675.938C747.593 677.076 746.62 677.931 745.431 678.245M745.431 678.245L745.304 677.762L745.304 677.762M745.431 678.245L721.351 684.594L745.431 678.245ZM745.304 677.762L721.223 684.111L720.937 684.186L720.866 684.473L711.173 723.349C710.872 724.557 709.938 725.503 708.736 725.821M745.304 677.762L708.736 725.821M705.05 719.747L704.764 719.822L633.694 738.562L632.877 738.777L633.081 737.957L642.741 699.212C643.196 697.387 642.086 695.539 640.26 695.083C638.435 694.628 636.586 695.739 636.131 697.564L626.471 736.309L626.267 737.129L625.646 736.555L571.693 686.644L571.475 686.443L571.547 686.156L579.643 653.684L579.847 652.865L580.468 653.438L616.14 686.438L705.05 719.747ZM705.05 719.747L705.122 719.46M705.05 719.747L705.122 719.46M705.122 719.46L713.218 686.988L713.422 686.168L712.605 686.384L665.616 698.774L705.122 719.46ZM646.206 671.236L646.464 671.665L661.828 697.235L661.828 697.235C662.304 698.029 663.068 698.572 663.924 698.786C664.466 698.921 665.047 698.923 665.615 698.774L646.206 671.236ZM646.206 671.236L645.777 671.493M646.206 671.236L645.777 671.493M645.777 671.493L620.207 686.858C619.414 687.334 618.484 687.456 617.628 687.243C617.086 687.108 616.572 686.837 616.14 686.439L645.777 671.493ZM648.11 662.605L648.312 662.791L648.577 662.721L719.312 644.07L720.193 643.838L719.524 643.219L665.825 593.542L665.624 593.355L665.358 593.425L594.623 612.078L593.742 612.31L594.411 612.928L648.11 662.605ZM647.778 564.938L647.585 564.617L647.222 564.712L575.401 583.649L574.757 583.819L575.1 584.39L588.284 606.332L588.477 606.653L588.84 606.558L660.659 587.62L661.303 587.45L660.96 586.879L647.778 564.938ZM586.716 615.09L586.44 614.835L586.119 615.028L564.174 628.213L563.603 628.556L564.092 629.008L618.616 679.447L618.891 679.702L619.213 679.508L641.156 666.324L641.727 665.981L641.238 665.528L586.716 615.09ZM666.157 691.213L666.351 691.535L666.714 691.439L738.535 672.5L739.179 672.33L738.836 671.759L725.649 649.817L725.456 649.496L725.093 649.591L653.274 668.528L652.63 668.698L652.973 669.269L666.157 691.213Z" stroke="#F1F1F1" stroke-opacity="0.05" stroke-width="0.999999"/>
<path d="M723.236 602.554C724.233 602.802 725.308 602.639 726.193 602.11C727.074 601.581 727.723 600.705 727.971 599.709C728.22 598.711 728.058 597.632 727.529 596.752C727 595.87 726.123 595.222 725.126 594.973C724.125 594.724 723.05 594.885 722.169 595.416C721.285 595.944 720.64 596.821 720.391 597.819C720.142 598.815 720.3 599.892 720.834 600.774C721.362 601.656 722.24 602.305 723.236 602.554Z" fill="#F1F1F1" fill-opacity="0.05"/>
</svg>
