<svg width="414" height="676" viewBox="0 0 414 676" fill="none" xmlns="http://www.w3.org/2000/svg">
<path opacity="0.5" d="M326.049 31.4547C325.145 24.0924 329.213 17.1047 335.878 14.1762C337.107 7.00073 342.903 1.36333 350.265 0.459086C359.398 -0.66269 367.74 5.8545 368.862 14.9879C369.202 17.7565 368.835 20.5216 367.798 23.1037L392.239 42.2014C394.496 40.567 397.09 39.5423 399.856 39.2026C408.99 38.0808 417.332 44.598 418.453 53.7315C419.357 61.0937 415.289 68.0815 408.624 71.0099C407.396 78.1854 401.6 83.8229 394.237 84.7271C385.104 85.8489 376.762 79.3317 375.641 70.1982C375.301 67.4297 375.667 64.6646 376.705 62.0825L352.263 42.9876C350.009 44.6191 347.415 45.6437 344.646 45.9838C335.513 47.1054 327.171 40.5883 326.049 31.4547ZM363.341 15.666C362.593 9.57608 357.033 5.23211 350.943 5.98008C345.627 6.63302 341.537 10.9909 341.218 16.3446C341.148 17.4969 340.375 18.4867 339.274 18.8328C334.157 20.4381 330.917 25.4606 331.57 30.7768C332.318 36.8668 337.878 41.2107 343.968 40.4628C346.332 40.1724 348.513 39.1191 350.274 37.4143C351.271 36.4489 352.827 36.3673 353.919 37.2209L381.899 59.0804C382.998 59.9388 383.287 61.4658 382.594 62.6647C381.366 64.7857 380.871 67.1561 381.161 69.5203C381.909 75.6103 387.469 79.9543 393.559 79.2063C398.876 78.5534 402.965 74.1954 403.285 68.8418C403.354 67.6895 404.127 66.6997 405.229 66.3536C410.346 64.7483 413.585 59.7257 412.932 54.4096C412.184 48.3196 406.624 43.9756 400.534 44.7236C398.173 45.0137 395.993 46.0695 394.229 47.7748C393.231 48.7375 391.675 48.8191 390.583 47.9655L362.603 26.106C361.506 25.2584 361.211 23.7266 361.908 22.5217C363.137 20.4005 363.631 18.0303 363.341 15.666Z" fill="#F1F1F1" fill-opacity="0.2"/>
<path d="M73.2131 625.368C69.7163 623.073 65.5053 622.811 63.7718 625.04C62.0384 627.269 63.3557 630.947 66.9728 633.392C70.4695 635.687 74.6806 635.948 76.414 633.719C78.1474 631.49 76.7098 627.663 73.2131 625.368Z" fill="#F1F1F1" fill-opacity="0.2"/>
<path d="M62.2354 637.833C63.9323 635.854 67.8652 636.064 71.2047 638.456C74.5441 640.848 75.8962 644.276 74.3548 646.156C72.6579 648.136 68.725 647.925 65.3856 645.534C62.0461 643.142 60.694 639.714 62.2354 637.833Z" fill="#F1F1F1" fill-opacity="0.2"/>
<path d="M83.4461 629.371C80.7866 630.157 77.3266 627.616 75.8894 623.79C74.4521 619.965 75.4129 616.197 78.3483 615.461C81.0078 614.675 84.4677 617.217 85.905 621.042C87.3422 624.867 86.2611 628.487 83.4461 629.371Z" fill="#F1F1F1" fill-opacity="0.2"/>
<path d="M89.8379 626.144C88.5212 622.469 89.4474 618.95 92.1075 618.165C94.7675 617.38 97.9518 619.871 99.2684 623.546C100.585 627.221 99.6589 630.74 96.9989 631.525C94.3741 632.062 91.1545 629.819 89.8379 626.144Z" fill="#F1F1F1" fill-opacity="0.2"/>
<path d="M80.1478 631.968L80.6167 631.67C80.6167 631.67 90.8901 627.41 98.8658 637.315C103.579 643.168 96.523 643.795 96.523 643.795C96.523 643.795 92.6431 643.085 90.9239 644.177L90.455 644.475C88.5795 645.667 88.2396 649.059 88.2396 649.059C88.2396 649.059 85.1363 654.889 80.5797 648.936C72.2914 639.23 80.1478 631.968 80.1478 631.968Z" fill="#F1F1F1" fill-opacity="0.2"/>
<path d="M10.2081 594.759C6.71152 592.464 2.50081 592.203 0.767745 594.432C-0.965321 596.661 0.352126 600.339 3.96909 602.783C7.46571 605.077 11.6764 605.338 13.4095 603.109C14.9869 600.979 13.5491 597.152 10.2081 594.759Z" fill="#F1F1F1" fill-opacity="0.2"/>
<path d="M-0.886424 607.078C0.810748 605.098 4.74409 605.308 8.08391 607.7C11.4237 610.093 12.776 613.521 11.2344 615.402C9.53727 617.382 5.60393 617.172 2.26412 614.779C-1.11099 612.635 -2.46329 609.207 -0.886424 607.078Z" fill="#F1F1F1" fill-opacity="0.2"/>
<path d="M20.4539 598.76C17.7944 599.546 14.3344 597.005 12.8972 593.18C11.4599 589.354 12.4207 585.586 15.3561 584.851C18.0156 584.065 21.4755 586.606 22.9128 590.431C24.1944 594.355 23.1133 597.975 20.4539 598.76Z" fill="#F1F1F1" fill-opacity="0.2"/>
<path d="M26.6855 595.638C25.3689 591.962 26.295 588.443 28.9551 587.658C31.6152 586.873 34.7994 589.364 36.1161 593.039C37.4327 596.715 36.5066 600.234 33.8465 601.019C31.2217 601.556 28.0022 599.313 26.6855 595.638Z" fill="#F1F1F1" fill-opacity="0.2"/>
<path d="M16.9838 601.459L17.4526 601.162C17.4526 601.162 27.726 596.901 35.7017 606.806C40.4146 612.659 33.3589 613.287 33.3589 613.287C33.3589 613.287 29.479 612.576 27.7598 613.669L27.291 613.967C25.4154 615.159 25.0755 618.551 25.0755 618.551C25.0755 618.551 21.9722 624.38 17.4156 618.428C9.12727 608.721 16.9838 601.459 16.9838 601.459Z" fill="#F1F1F1" fill-opacity="0.2"/>
<path d="M5.38348 524.244C1.88709 521.949 -2.32359 521.688 -4.05687 523.916C-5.79014 526.145 -4.47305 529.823 -0.856313 532.267C2.64008 534.562 6.85076 534.823 8.58404 532.595C10.1617 530.465 8.72422 526.637 5.38348 524.244Z" fill="#F1F1F1" fill-opacity="0.2"/>
<path d="M-5.71065 536.561C-4.01347 534.581 -0.0801227 534.792 3.25971 537.184C6.59954 539.576 7.95184 543.004 6.41027 544.886C4.7131 546.865 0.779749 546.655 -2.56008 544.263C-5.9352 542.118 -7.28751 538.69 -5.71065 536.561Z" fill="#F1F1F1" fill-opacity="0.2"/>
<path d="M15.4655 528.348C12.806 529.134 9.34605 526.593 7.9088 522.767C6.47156 518.942 7.43238 515.173 10.3678 514.438C13.0273 513.652 16.4873 516.193 17.9245 520.019C19.3617 523.844 18.2806 527.463 15.4655 528.348Z" fill="#F1F1F1" fill-opacity="0.2"/>
<path d="M21.8576 525.121C20.5409 521.446 21.467 517.927 24.127 517.142C26.7871 516.357 29.9714 518.847 31.2881 522.523C32.6048 526.198 31.6788 529.717 29.0187 530.502C26.394 531.039 23.1743 528.796 21.8576 525.121Z" fill="#F1F1F1" fill-opacity="0.2"/>
<path d="M12.1597 530.943L12.6286 530.645C12.6286 530.645 22.9018 526.385 30.8774 536.29C35.7111 542.293 28.4992 543.019 28.4992 543.019C28.4992 543.019 24.6194 542.308 22.9002 543.401L22.4314 543.699C20.5559 544.891 20.2159 548.283 20.2159 548.283C20.2159 548.283 17.1127 554.112 12.5561 548.16C4.3034 538.204 12.1597 530.943 12.1597 530.943Z" fill="#F1F1F1" fill-opacity="0.2"/>
</svg>
