<svg width="360" height="1128" viewBox="0 0 360 1128" fill="none" xmlns="http://www.w3.org/2000/svg">
<path opacity="0.5" d="M300.164 1065.45C299.149 1057.17 303.74 1049.53 311.26 1046.53C312.649 1038.56 319.19 1032.5 327.495 1031.79C337.797 1030.92 347.203 1038.56 348.463 1048.82C348.845 1051.94 348.43 1055.01 347.258 1057.86L374.817 1080.24C377.363 1078.51 380.29 1077.47 383.41 1077.21C393.713 1076.34 403.118 1083.98 404.379 1094.24C405.394 1102.51 400.802 1110.15 393.283 1113.15C391.893 1121.12 385.353 1127.19 377.048 1127.89C366.746 1128.76 357.34 1121.12 356.08 1110.86C355.698 1107.75 356.113 1104.67 357.284 1101.83L329.726 1079.44C327.182 1081.17 324.256 1082.21 321.132 1082.48C310.83 1083.35 301.424 1075.71 300.164 1065.45ZM342.235 1049.35C341.395 1042.51 335.126 1037.42 328.256 1038C322.26 1038.51 317.644 1043.21 317.281 1049.18C317.202 1050.47 316.33 1051.54 315.087 1051.88C309.315 1053.46 305.658 1058.95 306.392 1064.92C307.232 1071.76 313.501 1076.85 320.371 1076.27C323.038 1076.05 325.498 1074.96 327.485 1073.13C328.611 1072.09 330.365 1072.06 331.597 1073.06L363.145 1098.69C364.384 1099.69 364.709 1101.41 363.927 1102.72C362.54 1105.05 361.981 1107.68 362.307 1110.33C363.148 1117.17 369.417 1122.27 376.286 1121.69C382.283 1121.18 386.898 1116.48 387.261 1110.5C387.34 1109.22 388.213 1108.14 389.455 1107.8C395.228 1106.22 398.884 1100.74 398.151 1094.76C397.311 1087.92 391.041 1082.83 384.172 1083.41C381.508 1083.64 379.049 1084.73 377.058 1086.56C375.932 1087.59 374.178 1087.62 372.946 1086.62L341.398 1061C340.16 1060 339.828 1058.28 340.616 1056.96C342.002 1054.64 342.561 1052.01 342.235 1049.35Z" fill="#F1F1F1"/>
<path d="M46.3224 813.148L56.07 798.138C56.4721 797.52 56.5589 796.748 56.3051 796.056C56.0522 795.364 55.4868 794.83 54.7807 794.617L38.162 789.609C36.923 789.236 35.6158 789.938 35.2418 791.177C34.8689 792.417 35.5699 793.724 36.8097 794.097L50.4383 798.204L42.0726 811.085L-0.596235 798.225L7.76853 785.345L19.7602 788.959C20.9991 789.332 22.3074 788.631 22.6804 787.391C23.0544 786.152 22.3523 784.844 21.1124 784.471L7.43668 780.349C6.43864 780.048 5.36189 780.443 4.79512 781.317L-4.95319 796.328L-19.9642 786.579C-20.8384 786.012 -21.9823 786.09 -22.771 786.77L-60.2185 819.061C-60.7769 819.543 -61.0767 820.259 -61.026 820.995C-60.9764 821.731 -60.5832 822.401 -59.9644 822.802L-44.9545 832.549L-54.7023 847.558C-55.1042 848.177 -55.1912 848.948 -54.9372 849.641C-54.6843 850.333 -54.1189 850.866 -53.413 851.079L-39.1063 855.391L-34.1081 878.905C-33.9302 879.742 -33.3107 880.416 -32.4916 880.663L14.8523 894.93C15.2363 895.046 15.636 895.059 16.0157 894.979C16.3954 894.898 16.7551 894.723 17.0588 894.461L54.5065 862.171C55.1543 861.612 55.4464 860.745 55.2684 859.907L50.2703 836.393L61.5864 826.636C62.1448 826.154 62.4445 825.437 62.394 824.702C62.3443 823.966 61.9511 823.296 61.3324 822.895L46.3224 813.148ZM5.07604 843.512L-36.9487 830.847L-3.7087 802.183L38.3162 814.848L5.07604 843.512ZM-21.0413 791.469L-8.1616 799.833L-41.9111 828.936L-54.7917 820.571L-21.0413 791.469ZM-40.7031 834.611L1.96575 847.47L-6.39972 860.352L-49.0695 847.492L-40.7031 834.611ZM50.3952 859.526L16.9975 888.325L12.0163 864.89C11.7471 863.624 10.5027 862.816 9.23648 863.085C7.97021 863.354 7.16208 864.598 7.43123 865.865L12.4124 889.299L-29.8113 876.575L-33.986 856.934L-6.06877 865.348C-5.68185 865.464 -5.28235 865.476 -4.90623 865.396C-4.3125 865.27 -3.77415 864.914 -3.4272 864.38L6.32111 849.369L21.3322 859.117C21.8666 859.465 22.503 859.57 23.0967 859.444C23.4728 859.364 23.8327 859.19 24.1389 858.927L46.2205 839.886L50.3952 859.526ZM22.4101 854.228L9.52823 845.862L43.278 816.76L56.1603 825.124L22.4101 854.228Z" fill="#F1F1F1"/>
<path d="M315.447 45.4954C305.435 38.7694 293.443 38.2087 288.524 44.1991C283.832 50.0497 288.155 60.2683 297.981 66.7789C307.994 73.505 319.985 74.0656 324.905 68.0752C329.783 62.44 325.46 52.2215 315.447 45.4954Z" fill="#F9F9F9"/>
<path d="M283.753 79.4323C288.17 74.083 299.276 74.8468 308.901 81.1348C318.527 87.4228 322.926 96.9199 318.509 102.269C314.092 107.618 302.986 106.855 293.361 100.567C283.735 94.2787 279.336 84.7816 283.753 79.4323Z" fill="#F9F9F9"/>
<path d="M345.983 55.3119C338.361 57.362 328.585 50.5142 324.07 40.1004C319.555 29.6867 322.38 19.705 330.002 17.655C337.811 15.8199 347.587 22.6677 351.915 32.8665C356.203 43.4198 353.792 53.4769 345.983 55.3119Z" fill="#F9F9F9"/>
<path d="M363.487 45.7489C359.359 35.756 361.931 26.2654 369.332 24.3602C376.733 22.455 385.903 29.024 389.845 38.8017C393.974 48.7946 391.401 58.2852 384 60.1904C376.6 62.0956 367.43 55.5266 363.487 45.7489Z" fill="#F9F9F9"/>
<path d="M334.154 62.5788L335.539 61.7294C335.539 61.7294 364.338 50.0853 388.151 77.9467C402.161 94.0983 382.022 95.7497 382.022 95.7497C382.022 95.7497 371.098 93.7557 366.02 96.8702L364.446 97.5014C359.367 100.616 358.288 109.972 358.288 109.972C358.288 109.972 350.225 125.952 336.256 109.44C312.171 82.0805 334.154 62.5788 334.154 62.5788Z" fill="#F9F9F9"/>
</svg>
