<svg width="360" height="159" viewBox="0 0 360 159" fill="none" xmlns="http://www.w3.org/2000/svg">
<path d="M40.2708 90.137L54.3334 81.6873C54.9131 81.3397 55.2947 80.7386 55.3637 80.0665C55.4335 79.3945 55.1819 78.7281 54.6858 78.2688L43.0063 67.4643C42.1355 66.659 40.7764 66.712 39.9703 67.5827C39.1648 68.4543 39.217 69.8132 40.0887 70.6187L49.6668 79.479L37.5983 86.7297L7.61116 58.9887L19.6788 51.7378L28.1062 59.5345C28.977 60.3398 30.3367 60.2878 31.1421 59.4162C31.9482 58.5455 31.8955 57.1857 31.0238 56.3802L21.4129 47.4883C20.7115 46.8395 19.6658 46.7318 18.8477 47.2241L4.78408 55.6744L-3.6662 41.6108C-4.15827 40.7918 -5.13228 40.3968 -6.0552 40.6398L-49.8839 52.1966C-50.5376 52.3692 -51.0724 52.8387 -51.3265 53.4656C-51.5811 54.0915 -51.5263 54.8014 -51.1777 55.3805L-42.728 69.4431L-56.7904 77.8919C-57.3703 78.2403 -57.7518 78.8406 -57.821 79.5136C-57.8908 80.1855 -57.6392 80.852 -57.1428 81.3105L-47.0884 90.6122L-52.4195 111.994C-52.6094 112.756 -52.3695 113.559 -51.7939 114.092L-18.5209 144.872C-18.251 145.121 -17.9271 145.293 -17.5818 145.379C-17.2365 145.465 -16.8699 145.466 -16.5144 145.372L27.3141 133.816C28.0724 133.616 28.6615 133.019 28.8513 132.257L34.1825 110.875L47.4267 107.383C48.0804 107.211 48.6154 106.74 48.8692 106.114C49.1239 105.489 49.0691 104.779 48.7204 104.2L40.2708 90.137ZM-5.91331 98.5793L-35.4479 71.2573L3.45668 60.9983L32.9911 88.3211L-5.91331 98.5793ZM-6.51822 45.2062L0.731918 57.2736L-38.7688 67.6893L-46.0197 55.6217L-6.51822 45.2062ZM-40.0537 72.8499L-10.0666 100.591L-22.1352 107.842L-52.1232 80.1013L-40.0537 72.8499ZM24.9895 129.985L-14.0991 140.291L-8.78605 118.982C-8.49897 117.83 -9.19949 116.665 -10.3509 116.378C-11.5023 116.09 -12.6682 116.791 -12.9553 117.942L-18.2684 139.252L-47.9429 111.801L-43.4901 93.9415L-23.8702 112.092C-23.5981 112.343 -23.2739 112.514 -22.9319 112.599C-22.392 112.734 -21.8055 112.657 -21.3049 112.356L-7.24132 103.906L1.20895 117.969C1.50949 118.471 1.9915 118.813 2.53138 118.948C2.87339 119.033 3.23977 119.034 3.59795 118.94L29.4423 112.126L24.9895 129.985ZM4.06179 114.374L-3.18957 102.305L36.3109 91.8898L43.5635 103.958L4.06179 114.374Z" fill="#F1F1F1" fill-opacity="0.5"/>
<path d="M39.5847 89.9659L40.0133 89.7084L54.0759 81.2587L54.0762 81.2585C54.5206 80.9921 54.8134 80.5311 54.8663 80.0154L54.8664 80.0148C54.9199 79.4998 54.727 78.9883 54.3461 78.6357L42.6669 67.8314C41.9989 67.2138 40.9563 67.2541 40.3376 67.922C39.719 68.5913 39.7596 69.6338 40.428 70.2514L40.4282 70.2516L50.0063 79.1119L50.4954 79.5644L49.9243 79.9076L37.8558 87.1583L37.5342 87.3515L37.2588 87.0968L7.27162 59.3558L6.78253 58.9033L7.35364 58.5602L19.4213 51.3092L19.7429 51.116L20.0183 51.3708L28.4456 59.1674C28.4456 59.1674 28.4457 59.1675 28.4457 59.1675C29.1142 59.7855 30.1573 59.7452 30.7749 59.0768L30.7752 59.0765C31.3936 58.4085 31.3531 57.3653 30.6845 56.7474L30.6842 56.7472L21.0734 47.8553M39.5847 89.9659L21.0734 47.8553M39.5847 89.9659L39.8422 90.3945M39.5847 89.9659L39.8422 90.3945M21.0734 47.8553C20.5351 47.3574 19.7329 47.275 19.1055 47.6525L19.1052 47.6527L5.0416 56.103L4.61301 56.3605L4.3555 55.9319L-4.09478 41.8683C-4.47223 41.2401 -5.21954 40.9369 -5.92771 41.1232M21.0734 47.8553L-5.92771 41.1232M-5.92771 41.1232C-5.92777 41.1232 -5.92782 41.1233 -5.92788 41.1233M-5.92771 41.1232L-5.92788 41.1233M-5.92788 41.1233L-49.7563 52.6801M-5.92788 41.1233L-49.7563 52.6801M39.8422 90.3945L48.2919 104.457L48.2921 104.457C48.5593 104.901 48.6015 105.446 48.4061 105.926L48.4059 105.927C48.2113 106.406 47.8009 106.767 47.299 106.9L34.055 110.392L33.7689 110.467L33.6973 110.754L28.3662 132.136C28.2205 132.721 27.7685 133.179 27.1867 133.332C27.1866 133.332 27.1866 133.332 27.1865 133.332L-16.6419 144.888L-16.642 144.888C-16.9147 144.96 -17.1957 144.96 -17.4608 144.894C-17.7259 144.828 -17.9743 144.696 -18.1812 144.505L-18.1813 144.505L-51.4543 113.725C-51.4543 113.725 -51.4544 113.725 -51.4544 113.725C-51.896 113.316 -52.0801 112.699 -51.9344 112.115L-46.6032 90.7331L-46.5317 90.4461L-46.7488 90.2451L-56.8033 80.9434L-56.8036 80.9432C-57.1842 80.5916 -57.3771 80.0803 -57.3236 79.5652L-57.3236 79.5647C-57.2705 79.0483 -56.9779 78.5879 -56.5329 78.3205L-42.4705 69.8717L-42.0419 69.6141L-42.2994 69.1855L-50.7491 55.1229L-50.7493 55.1226C-51.0166 54.6787 -51.0587 54.1342 -50.8633 53.6541L-50.8631 53.6534M39.8422 90.3945L-50.8631 53.6534M-50.8631 53.6534C-50.6684 53.173 -50.2584 52.8127 -49.7565 52.6801C-49.7564 52.6801 -49.7563 52.6801 -49.7563 52.6801M-50.8631 53.6534L-49.7563 52.6801M-6.25285 98.9463L-6.05131 99.1328L-5.78583 99.0628L33.1186 88.8046L33.999 88.5724L33.3306 87.9541L3.79622 60.6313L3.59467 60.4448L3.32919 60.5148L-35.5754 70.7739L-36.4559 71.006L-35.7875 71.6244L-6.25285 98.9463ZM-6.08962 44.9487L-6.28287 44.627L-6.6457 44.7227L-46.1472 55.1382L-46.7915 55.3081L-46.4483 55.8792L-39.1974 67.9468L-39.0041 68.2684L-38.6413 68.1727L0.859404 57.757L1.50363 57.5872L1.16051 57.0161L-6.08962 44.9487ZM-39.7142 72.4829L-39.9896 72.2281L-40.3112 72.4213L-52.3807 79.6727L-52.9518 80.0158L-52.4627 80.4683L-22.4747 108.209L-22.1993 108.464L-21.8777 108.271L-9.80906 101.019L-9.23794 100.676L-9.72704 100.224L-39.7142 72.4829ZM25.117 130.468L25.403 130.393L25.4746 130.106L29.9275 112.247L30.1319 111.427L29.3148 111.642L3.47095 118.457C3.19534 118.529 2.91425 118.528 2.65234 118.463C2.23731 118.359 1.86798 118.096 1.63779 117.712L1.63753 117.712L-6.81274 103.648L-7.07026 103.22L-7.49884 103.477L-21.5625 111.927C-21.9464 112.158 -22.3964 112.217 -22.811 112.114C-23.0729 112.049 -23.3216 111.918 -23.531 111.724L-43.1505 93.5745L-43.7708 93.0007L-43.9752 93.8205L-48.428 111.68L-48.4996 111.967L-48.2824 112.168L-18.6079 139.619L-17.9876 140.193L-17.7832 139.373L-12.4701 118.063C-12.2499 117.18 -11.3554 116.642 -10.4719 116.863C-9.58839 117.083 -9.05092 117.977 -9.2712 118.861L-14.5843 140.17L-14.7887 140.99L-13.9716 140.775L25.117 130.468ZM3.63319 114.632L3.82644 114.953L4.18927 114.858L43.691 104.441L44.3353 104.271L43.9921 103.7L36.7395 91.6322L36.5462 91.3106L36.1834 91.4063L-3.31705 101.821L-3.96129 101.991L-3.61817 102.562L3.63319 114.632Z" stroke="#F1F1F1" stroke-opacity="0.5" stroke-width="0.999999"/>
<path d="M409.861 20.73C401.643 31.0017 387.263 44.0748 366.907 44.0748C343.935 44.0748 330.115 30.0679 323.579 21.2903C316.295 30.6282 312 42.2072 312 54.9068C312 67.0461 315.922 78.0648 322.645 87.216C328.621 78.4384 342.815 63.1242 366.907 63.1242C388.197 63.1242 402.951 77.3178 410.981 87.7763C417.891 78.6251 422 67.2329 422 54.9068C421.813 42.0205 417.331 30.0679 409.861 20.73Z" fill="#F9F9F9"/>
<path d="M329.367 14.9406C336.277 23.5314 348.416 33.9898 366.905 33.9898C383.153 33.9898 395.292 23.7182 403.323 14.0068C393.612 5.22921 380.912 0 366.905 0C352.338 0 339.265 5.60272 329.367 14.9406Z" fill="#F9F9F9"/>
<path d="M366.907 73.3955C347.297 73.3955 334.785 85.1612 328.248 93.9388C338.146 103.837 351.779 110 366.907 110C381.474 110 394.734 104.211 404.445 95.0594C396.601 84.601 383.902 73.3955 366.907 73.3955Z" fill="#F9F9F9"/>
</svg>
