<svg width="106" height="1210" viewBox="0 0 106 1210" fill="none" xmlns="http://www.w3.org/2000/svg">
<path d="M30.7613 1071.89L46.112 1046.43C46.7453 1045.39 46.8482 1044.1 46.3913 1042.97C45.9358 1041.83 44.9711 1040.98 43.7904 1040.67L16.0003 1033.32C13.9285 1032.77 11.8005 1034.01 11.2466 1036.09C10.6945 1038.17 11.9246 1040.29 13.998 1040.84L36.7878 1046.87L23.6134 1068.71L-47.7382 1049.84L-34.5653 1028L-14.5126 1033.3C-12.4408 1033.85 -10.311 1032.61 -9.7589 1030.53C-9.205 1028.46 -10.437 1026.33 -12.5103 1025.78L-35.3792 1019.73C-37.0481 1019.29 -38.8106 1020.01 -39.7031 1021.49L-55.0549 1046.95L-80.433 1031.64C-81.9109 1030.75 -83.8014 1030.95 -85.0718 1032.12L-145.387 1087.83C-146.286 1088.66 -146.745 1089.87 -146.622 1091.09C-146.501 1092.3 -145.814 1093.39 -144.768 1094.02L-119.392 1109.32L-134.743 1134.78C-135.376 1135.83 -135.479 1137.11 -135.022 1138.25C-134.566 1139.38 -133.602 1140.23 -132.421 1140.54L-108.497 1146.87L-98.9752 1185.58C-98.6361 1186.96 -97.5744 1188.04 -96.2047 1188.41L-17.0356 1209.34C-16.3934 1209.51 -15.7307 1209.51 -15.106 1209.36C-14.4814 1209.2 -13.8949 1208.89 -13.4057 1208.44L46.9097 1152.73C47.9531 1151.76 48.391 1150.31 48.052 1148.93L38.5297 1110.22L56.7562 1093.38C57.6556 1092.55 58.114 1091.34 57.9914 1090.13C57.8703 1088.91 57.1836 1087.82 56.1376 1087.19L30.7613 1071.89ZM-35.9477 1124.63L-106.222 1106.04L-52.684 1056.58L17.5909 1075.17L-35.9477 1124.63ZM-81.9583 1039.81L-60.1835 1052.95L-114.542 1103.16L-136.319 1090.03L-81.9583 1039.81ZM-112.241 1112.5L-40.8898 1131.37L-54.0639 1153.22L-125.417 1134.35L-112.241 1112.5ZM39.9604 1148.58L-13.8319 1198.26L-23.3219 1159.68C-23.8346 1157.6 -25.9385 1156.33 -28.0215 1156.85C-30.1045 1157.37 -31.3772 1159.48 -30.8644 1161.56L-21.3745 1200.14L-91.9817 1181.47L-99.9351 1149.14L-53.2515 1161.48C-52.6045 1161.65 -51.9422 1161.65 -51.3234 1161.5C-50.3467 1161.25 -49.4739 1160.63 -48.9275 1159.73L-33.5757 1134.27L-8.19761 1149.57C-7.29403 1150.12 -6.23444 1150.26 -5.25773 1150.01C-4.63901 1149.86 -4.0521 1149.55 -3.55887 1149.1L32.0069 1116.24L39.9604 1148.58ZM-6.67091 1141.4L-28.4494 1128.27L25.91 1078.06L47.6892 1091.19L-6.67091 1141.4Z" fill="#F1F1F1" fill-opacity="0.1"/>
<path opacity="0.5" d="M-15.3105 40.1481C-16.6444 30.6569 -11.5231 21.7268 -2.94473 18.0633C-1.50887 8.84646 5.88328 1.6821 15.4104 0.635278C27.2296 -0.663386 38.1901 7.85836 39.8449 19.6329C40.3465 23.202 39.932 26.7555 38.6433 30.0627L70.7576 55.0344C73.6481 52.9665 76.9897 51.6888 80.5689 51.2955C92.388 49.9968 103.349 58.5186 105.003 70.2931C106.337 79.7843 101.216 88.7144 92.6376 92.3779C91.2018 101.595 83.8096 108.759 74.2825 109.806C62.4633 111.105 51.5028 102.583 49.848 90.8083C49.3464 87.2392 49.7609 83.6857 51.0496 80.3785L18.9356 55.4105C16.0481 57.4746 12.7067 58.7523 9.1238 59.146C-2.69536 60.4444 -13.6557 51.9229 -15.3105 40.1481ZM32.7005 20.4179C31.5971 12.5669 24.2914 6.88686 16.4107 7.75278C9.53133 8.50867 4.32382 14.0532 4.02707 20.9394C3.96251 22.4215 2.98163 23.6834 1.56091 24.1113C-5.03944 26.0963 -9.12942 32.5099 -8.16623 39.3633C-7.06285 47.2143 0.242789 52.8944 8.12351 52.0285C11.1829 51.6923 13.9871 50.3712 16.2331 48.2047C17.506 46.9779 19.5211 46.8977 20.9567 48.0138L57.7196 76.5968C59.1633 77.7192 59.5712 79.6894 58.699 81.2216C57.1529 83.9323 56.5639 86.9757 56.9922 90.0235C58.0956 97.8745 65.4013 103.555 73.282 102.689C80.1614 101.933 85.3689 96.3883 85.6656 89.5021C85.7302 88.02 86.7111 86.7581 88.1318 86.3302C94.7321 84.3452 98.8221 77.9316 97.8589 71.0781C96.7555 63.2272 89.4499 57.5471 81.5692 58.413C78.5132 58.7488 75.7097 60.0733 73.4601 62.2402C72.1867 63.4635 70.1716 63.5438 68.736 62.4276L31.973 33.8447C30.5313 32.7362 30.1154 30.7597 30.9937 29.2199C32.5397 26.5089 33.1288 23.4658 32.7005 20.4179Z" fill="#F1F1F1" fill-opacity="0.1"/>
</svg>
