<svg width="360" height="245" viewBox="0 0 360 245" fill="none" xmlns="http://www.w3.org/2000/svg">
<path d="M102.343 214.5C100.096 211.639 99.8323 207.884 102.003 206.048C104.173 204.213 107.764 204.942 110.157 207.892C112.403 210.753 112.667 214.509 110.496 216.345C108.326 218.18 104.589 217.361 102.343 214.5Z" fill="#F1F1F1"/>
<path d="M114.429 203.851C112.499 205.625 112.713 209.142 115.059 211.853C117.404 214.565 120.757 215.358 122.592 213.736C124.522 211.961 124.308 208.444 121.962 205.733C119.617 203.021 116.264 202.229 114.429 203.851Z" fill="#F1F1F1"/>
<path d="M106.942 222.606C107.704 220.113 105.213 217.312 101.472 216.492C97.7303 215.672 94.0503 217.005 93.3386 219.74C92.5769 222.233 95.0683 225.034 98.8095 225.854C102.551 226.674 106.085 225.252 106.942 222.606Z" fill="#F1F1F1"/>
<path d="M104.676 228.638C101.08 227.908 97.6422 229.179 96.8802 231.673C96.1182 234.166 98.5596 236.725 102.155 237.455C105.75 238.185 109.189 236.914 109.951 234.421C110.47 231.99 108.271 229.368 104.676 228.638Z" fill="#F1F1F1"/>
<path d="M110.001 220.25L109.716 220.703C109.716 220.703 105.641 230.36 115.185 236.238C120.824 239.711 121.411 233.361 121.411 233.361C121.411 233.361 120.72 229.998 121.767 228.335L122.052 227.882C123.194 226.068 126.456 225.35 126.456 225.35C126.456 225.35 132.055 221.877 126.321 218.555C116.968 212.374 110.001 220.25 110.001 220.25Z" fill="#F1F1F1"/>
<path d="M68.1931 161.017C65.9463 158.155 65.6821 154.399 67.8531 152.563C70.0241 150.727 73.6159 151.456 76.0086 154.408C78.2553 157.27 78.5195 161.026 76.3485 162.862C74.2736 164.545 70.5359 163.726 68.1931 161.017Z" fill="#F1F1F1"/>
<path d="M80.1146 150.269C78.184 152.044 78.3984 155.561 80.743 158.272C83.0876 160.983 86.4399 161.775 88.2743 160.153C90.2048 158.379 89.9904 154.862 87.6459 152.151C85.5435 149.377 82.1911 148.585 80.1146 150.269Z" fill="#F1F1F1"/>
<path d="M72.7801 169.114C73.5417 166.621 71.0503 163.82 67.3091 163C63.5679 162.18 59.888 163.513 59.1764 166.248C58.4148 168.741 60.9062 171.542 64.6474 172.362C68.4848 173.029 72.0186 171.607 72.7801 169.114Z" fill="#F1F1F1"/>
<path d="M70.6075 175C67.0121 174.27 63.5739 175.541 62.8119 178.035C62.0499 180.528 64.4912 183.088 68.0866 183.818C71.682 184.548 75.1202 183.277 75.8822 180.783C76.4019 178.352 74.2029 175.731 70.6075 175Z" fill="#F1F1F1"/>
<path d="M75.9349 166.617L75.6494 167.07C75.6494 167.07 71.5749 176.727 81.1182 182.605C86.7575 186.078 87.3451 179.728 87.3451 179.728C87.3451 179.728 86.6533 176.365 87.7003 174.703L87.9858 174.249C89.128 172.435 92.3897 171.717 92.3897 171.717C92.3897 171.717 97.9888 168.244 92.2544 164.922C82.9014 158.741 75.9349 166.617 75.9349 166.617Z" fill="#F1F1F1"/>
<path d="M-1.2574 161.361C-3.50481 158.5 -3.76977 154.745 -1.59903 152.909C0.571715 151.074 4.16387 151.802 6.55727 154.752C8.80468 157.613 9.06963 161.368 6.89889 163.203C4.8242 164.887 1.08606 164.069 -1.2574 161.361Z" fill="#F1F1F1"/>
<path d="M10.6685 150.619C8.73819 152.394 8.95318 155.909 11.2984 158.619C13.6436 161.329 16.9963 162.121 18.8305 160.499C20.7609 158.724 20.5459 155.208 18.2007 152.498C16.0977 149.726 12.745 148.934 10.6685 150.619Z" fill="#F1F1F1"/>
<path d="M3.42206 169.314C4.18332 166.821 1.69133 164.021 -2.05031 163.202C-5.79195 162.383 -9.47195 163.716 -10.1832 166.451C-10.9445 168.944 -8.45249 171.744 -4.71084 172.563C-0.969201 173.382 2.56467 171.959 3.42206 169.314Z" fill="#F1F1F1"/>
<path d="M1.15576 175.348C-2.43997 174.618 -5.87811 175.89 -6.63967 178.383C-7.40123 180.876 -4.95929 183.434 -1.36356 184.163C2.23217 184.892 5.6703 183.621 6.43186 181.128C6.95114 178.698 4.75149 176.077 1.15576 175.348Z" fill="#F1F1F1"/>
<path d="M6.489 166.966L6.20349 167.42C6.20349 167.42 2.12983 177.076 11.6749 182.95C17.4598 186.51 18.1419 180.01 18.1419 180.01C18.1419 180.01 17.4496 176.648 18.4964 174.986L18.7819 174.532C19.924 172.719 23.1859 172 23.1859 172C23.1859 172 28.7851 168.526 23.0497 165.205C13.4551 159.091 6.489 166.966 6.489 166.966Z" fill="#F1F1F1"/>
<path d="M-19.3773 110.202L-19.6628 110.656C-19.6628 110.656 -23.7376 120.313 -14.1944 126.191C-8.55518 129.664 -7.96735 123.314 -7.96735 123.314C-7.96735 123.314 -8.65908 119.951 -7.61203 118.288L-7.32647 117.835C-6.18424 116.021 -2.9225 115.303 -2.9225 115.303C-2.9225 115.303 2.67675 111.829 -3.05764 108.507C-12.4105 102.327 -19.3773 110.202 -19.3773 110.202Z" fill="#F1F1F1"/>
<path d="M290.388 26.8101C288.174 21.5932 289.817 15.9517 294.277 12.8927C293.723 7.51262 296.961 2.6091 302.371 0.921451C309.083 -1.1722 316.777 2.3893 319.524 8.86115C320.357 10.8229 320.652 12.8811 320.399 14.9006L342.944 25.3375C344.321 23.8351 346.081 22.728 348.113 22.0939C354.825 20.0003 362.52 23.5618 365.267 30.0336C367.481 35.2505 365.838 40.892 361.378 43.951C361.932 49.3311 358.694 54.2346 353.284 55.9222C346.572 58.0159 338.877 54.4544 336.13 47.9825C335.298 46.0208 335.003 43.9625 335.256 41.9431L312.712 31.5083C311.336 33.0082 309.576 34.1153 307.541 34.7499C300.829 36.8435 293.135 33.282 290.388 26.8101ZM315.467 10.1267C313.635 5.81145 308.507 3.43757 304.031 4.83357C300.125 6.05219 297.919 9.78802 298.787 13.7184C298.973 14.5644 298.591 15.3912 297.825 15.7966C294.267 17.6786 292.846 21.7777 294.445 25.5446C296.277 29.8599 301.405 32.2338 305.881 30.8378C307.618 30.2959 309.057 29.226 310.043 27.7419C310.601 26.9015 311.767 26.6244 312.775 27.0908L338.583 39.0365C339.596 39.5057 340.133 40.5735 339.854 41.5407C339.361 43.2522 339.476 45.0419 340.187 46.7171C342.019 51.0324 347.148 53.4063 351.623 52.0103C355.53 50.7917 357.735 47.0558 356.868 43.1255C356.681 42.2794 357.064 41.4527 357.83 41.0472C361.388 39.1652 362.809 35.0662 361.21 31.2992C359.378 26.9839 354.249 24.61 349.774 26.006C348.038 26.5474 346.6 27.6191 345.613 29.1038C345.053 29.9424 343.888 30.2195 342.88 29.753L317.072 17.8073C316.061 17.3458 315.52 16.2754 315.8 15.3031C316.294 13.5915 316.178 11.802 315.467 10.1267Z" fill="#F9F9F9"/>
</svg>
