<svg width="414" height="1083" viewBox="0 0 414 1083" fill="none" xmlns="http://www.w3.org/2000/svg">
<path opacity="0.5" d="M318.556 1014.2C317.54 1005.93 322.111 998.08 329.599 994.79C330.98 986.728 337.492 980.394 345.764 979.379C356.027 978.118 365.4 985.441 366.66 995.704C367.042 998.814 366.63 1001.92 365.464 1004.82L392.927 1026.28C395.462 1024.45 398.377 1023.29 401.485 1022.91C411.747 1021.65 421.12 1028.98 422.38 1039.24C423.396 1047.51 418.826 1055.36 411.337 1058.65C409.956 1066.71 403.444 1073.05 395.172 1074.06C384.91 1075.32 375.537 1068 374.277 1057.74C373.895 1054.63 374.306 1051.52 375.472 1048.62L348.01 1027.16C345.477 1029 342.562 1030.15 339.451 1030.53C329.189 1031.79 319.816 1024.47 318.556 1014.2ZM360.456 996.465C359.616 989.623 353.369 984.742 346.526 985.582C340.553 986.315 335.958 991.212 335.599 997.227C335.521 998.522 334.652 999.634 333.415 1000.02C327.665 1001.83 324.026 1007.47 324.759 1013.44C325.599 1020.29 331.847 1025.17 338.689 1024.33C341.346 1024 343.795 1022.82 345.774 1020.9C346.895 1019.82 348.643 1019.72 349.871 1020.68L381.309 1045.25C382.543 1046.21 382.868 1047.93 382.089 1049.27C380.709 1051.66 380.154 1054.32 380.48 1056.98C381.32 1063.82 387.567 1068.7 394.41 1067.86C400.383 1067.13 404.978 1062.23 405.337 1056.21C405.415 1054.92 406.284 1053.81 407.522 1053.42C413.271 1051.62 416.911 1045.97 416.177 1040C415.337 1033.16 409.089 1028.28 402.247 1029.12C399.593 1029.44 397.144 1030.63 395.162 1032.54C394.041 1033.63 392.293 1033.72 391.066 1032.76L359.627 1008.2C358.394 1007.24 358.063 1005.52 358.847 1004.17C360.227 1001.78 360.782 999.122 360.456 996.465Z" fill="#F1F1F1"/>
<path d="M40.3243 742.148L50.072 727.138C50.4741 726.52 50.5609 725.748 50.3071 725.056C50.0542 724.364 49.4888 723.831 48.7827 723.617L32.164 718.609C30.925 718.236 29.6178 718.938 29.2438 720.177C28.8709 721.417 29.5718 722.724 30.8117 723.097L44.4402 727.204L36.0746 740.085L-6.59428 727.226L1.77048 714.345L13.7621 717.959C15.0011 718.333 16.3094 717.631 16.6823 716.392C17.0563 715.152 16.3543 713.844 15.1144 713.471L1.43863 709.349C0.440593 709.048 -0.636161 709.443 -1.20293 710.317L-10.9512 725.328L-25.9623 715.58C-26.8364 715.012 -27.9804 715.09 -28.7691 715.77L-66.2165 748.061C-66.7749 748.543 -67.0748 749.259 -67.0241 749.995C-66.9745 750.731 -66.5812 751.401 -65.9625 751.802L-50.9525 761.549L-60.7003 776.558C-61.1023 777.177 -61.1892 777.948 -60.9352 778.641C-60.6823 779.333 -60.1169 779.866 -59.411 780.079L-45.1043 784.391L-40.1062 807.905C-39.9282 808.742 -39.3087 809.416 -38.4896 809.663L8.85424 823.93C9.23828 824.046 9.63797 824.059 10.0177 823.979C10.3974 823.898 10.7571 823.723 11.0608 823.461L48.5085 791.171C49.1562 790.612 49.4484 789.745 49.2704 788.908L44.2722 765.393L55.5884 755.636C56.1468 755.154 56.4464 754.437 56.3959 753.702C56.3463 752.966 55.9531 752.296 55.3343 751.895L40.3243 742.148ZM-0.922004 772.512L-42.9468 759.847L-9.70675 731.183L32.3182 743.849L-0.922004 772.512ZM-27.0393 720.469L-14.1596 728.834L-47.9092 757.936L-60.7898 749.572L-27.0393 720.469ZM-46.7012 763.611L-4.0323 776.47L-12.3978 789.352L-55.0675 776.493L-46.7012 763.611ZM44.3971 788.526L10.9995 817.325L6.01825 793.89C5.7491 792.624 4.5047 791.816 3.23843 792.085C1.97216 792.354 1.16403 793.598 1.43319 794.865L6.4144 818.3L-35.8093 805.575L-39.984 785.934L-12.0668 794.348C-11.6799 794.464 -11.2804 794.477 -10.9043 794.397C-10.3105 794.27 -9.7722 793.914 -9.42525 793.38L0.323061 778.369L15.3341 788.117C15.8685 788.465 16.5049 788.571 17.0987 788.444C17.4748 788.364 17.8347 788.191 18.1409 787.927L40.2224 768.886L44.3971 788.526ZM16.412 783.228L3.53019 774.862L37.2799 745.76L50.1623 754.124L16.412 783.228Z" fill="#F1F1F1"/>
<path d="M378.654 32.2268C370.505 23.8077 358.91 21.9657 352.628 28.0499C346.603 34.0037 348.329 45.6817 356.347 53.8449C364.496 62.2641 376.091 64.106 382.373 58.0219C388.528 52.324 386.802 40.646 378.654 32.2268Z" fill="#F9F9F9"/>
<path d="M342.111 65.897C347.752 60.4599 358.447 62.4369 366.335 70.3441C374.224 78.2513 376.204 89.1567 370.563 94.5938C364.922 100.031 354.227 98.0539 346.338 90.1467C338.45 82.2395 336.47 71.3341 342.111 65.897Z" fill="#F9F9F9"/>
<path d="M403.83 48.1008C395.854 49.5725 387.963 41.023 386.108 29.0889C384.252 17.1549 389.484 6.45359 397.459 4.98189C405.565 3.76619 413.457 12.3157 415.182 23.9938C416.781 36.0581 411.936 46.8851 403.83 48.1008Z" fill="#F9F9F9"/>
<path d="M393.957 56.0107L395.498 55.2286C395.498 55.2286 426.097 45.4973 442.335 78.1378C451.946 97.0807 432.118 96.8408 432.118 96.8408C432.118 96.8408 422.061 93.5744 416.409 96.4422L414.738 96.9684C409.085 99.8362 405.782 109.881 405.782 109.881C405.782 109.881 394.14 126.411 384.655 107.081C368.033 74.9574 393.957 56.0107 393.957 56.0107Z" fill="#F9F9F9"/>
</svg>
