<svg width="237" height="237" viewBox="0 0 237 237" fill="none" xmlns="http://www.w3.org/2000/svg">
<g clip-path="url(#clip0)">
<path d="M188.798 75.1471L205.099 50.1662C205.771 49.1376 205.919 47.8514 205.498 46.6971C205.079 45.5425 204.139 44.6518 202.963 44.2941L175.284 35.886C173.22 35.2596 171.039 36.4246 170.411 38.4885C169.785 40.5536 170.948 42.7352 173.013 43.3613L195.713 50.2563L181.723 71.6936L110.655 50.1051L124.643 28.668L144.616 34.7361C146.68 35.3625 148.863 34.1987 149.489 32.1336C150.117 30.0696 148.952 27.8869 146.886 27.2609L124.109 20.3403C122.446 19.8354 120.65 20.489 119.703 21.9435L103.401 46.9262L78.4178 30.6242C76.963 29.6749 75.0561 29.8014 73.7391 30.9312L11.2088 84.6133C10.2764 85.4143 9.77404 86.6068 9.85586 87.8338C9.93587 89.0597 10.5888 90.1776 11.6186 90.8483L36.5995 107.149L20.2984 132.129C19.6262 133.159 19.4785 134.443 19.8992 135.599C20.3182 136.754 21.2586 137.644 22.4343 138.001L46.263 145.24L54.5073 184.449C54.8009 185.845 55.8309 186.969 57.1952 187.384L136.049 211.337C136.689 211.531 137.355 211.555 137.988 211.422C138.621 211.288 139.221 210.999 139.729 210.563L202.259 156.882C203.341 155.953 203.831 154.509 203.537 153.113L195.293 113.904L214.189 97.683C215.121 96.8819 215.623 95.688 215.542 94.4624C215.462 93.2365 214.809 92.1186 213.779 91.4479L188.798 75.1471ZM119.943 125.603L49.9487 104.341L105.453 56.6889L175.448 77.9525L119.943 125.603ZM76.6049 38.7689L98.0404 52.7575L41.685 101.139L20.2479 87.1503L76.6049 38.7689ZM43.6776 110.601L114.745 132.189L100.756 153.628L29.6866 132.04L43.6776 110.601ZM195.417 152.46L139.649 200.335L131.432 161.259C130.988 159.148 128.917 157.796 126.806 158.24C124.695 158.684 123.343 160.755 123.787 162.867L132.003 201.943L61.6773 180.581L54.7912 147.831L101.289 161.956C101.933 162.151 102.599 162.173 103.226 162.041C104.216 161.833 105.115 161.242 105.695 160.353L121.997 135.37L146.98 151.672C147.869 152.254 148.93 152.432 149.92 152.223C150.547 152.091 151.147 151.803 151.659 151.365L188.531 119.71L195.417 152.46ZM148.794 143.527L127.355 129.536L183.711 81.1565L205.151 95.1442L148.794 143.527Z" fill="#F1F1F1" fill-opacity="0.5"/>
<path d="M161.186 39.2634C162.191 39.0521 163.088 38.4364 163.653 37.5737C164.214 36.7135 164.416 35.6419 164.205 34.637C163.993 33.6306 163.377 32.7311 162.517 32.1697C161.656 31.6069 160.583 31.4068 159.579 31.6181C158.569 31.8303 157.672 32.4446 157.111 33.3063C156.545 34.1675 156.348 35.2381 156.56 36.2445C156.771 37.2495 157.383 38.1499 158.248 38.7103C159.108 39.2731 160.181 39.4747 161.186 39.2634Z" fill="#F1F1F1" fill-opacity="0.5"/>
<path d="M124.137 145.548C123.132 145.759 122.231 146.374 121.67 147.236C121.109 148.099 120.907 149.168 121.118 150.174C121.33 151.182 121.946 152.079 122.807 152.644C123.667 153.206 124.74 153.404 125.745 153.193C126.75 152.982 127.651 152.368 128.213 151.508C128.773 150.643 128.976 149.575 128.764 148.567C128.552 147.56 127.936 146.664 127.075 146.099C126.215 145.537 125.142 145.336 124.137 145.548Z" fill="#F1F1F1" fill-opacity="0.5"/>
</g>
<defs>
<clipPath id="clip0">
<rect width="200" height="200" fill="white" transform="translate(0 41.1523) rotate(-11.8743)"/>
</clipPath>
</defs>
</svg>
