<svg width="414" height="5785" viewBox="0 0 414 5785" fill="none" xmlns="http://www.w3.org/2000/svg">
<path d="M88.0563 5758.86C85.7774 5755.58 85.67 5751.54 88.0879 5749.8C90.5058 5748.07 94.3294 5749.22 96.7608 5752.61C99.0396 5755.9 99.1471 5759.94 96.7292 5761.67C94.4216 5763.26 90.4454 5762 88.0563 5758.86Z" fill="#F1F1F1"/>
<path d="M101.415 5748.07C99.2603 5749.77 99.3255 5753.54 101.715 5756.68C104.104 5759.81 107.664 5761 109.709 5759.46C111.864 5757.77 111.799 5753.99 109.41 5750.86C107.284 5747.68 103.723 5746.49 101.415 5748.07Z" fill="#F1F1F1"/>
<path d="M92.1146 5768.38C93.0487 5765.8 90.5065 5762.55 86.5303 5761.29C82.5541 5760.03 78.5428 5761.07 77.6509 5763.92C76.7168 5766.5 79.259 5769.74 83.2352 5771.01C87.3217 5772.11 91.1805 5770.96 92.1146 5768.38Z" fill="#F1F1F1"/>
<path d="M88.8791 5774.46C85.0556 5773.31 81.3071 5774.32 80.3727 5776.9C79.4383 5779.48 81.9378 5782.46 85.7613 5783.61C89.5848 5784.76 93.3333 5783.76 94.2677 5781.17C94.9392 5778.63 92.7026 5775.61 88.8791 5774.46Z" fill="#F1F1F1"/>
<path d="M95.2431 5765.32L94.9119 5765.78C94.9119 5765.78 90.0339 5775.75 100.106 5783.07C106.058 5787.4 106.997 5780.62 106.997 5780.62C106.997 5780.62 106.406 5776.93 107.62 5775.25L107.952 5774.79C109.277 5772.95 112.849 5772.52 112.849 5772.52C112.849 5772.52 119.087 5769.36 113.024 5765.19C103.173 5757.56 95.2431 5765.32 95.2431 5765.32Z" fill="#F1F1F1"/>
<path d="M13.8794 5755.01C11.5997 5751.72 11.4914 5747.69 13.9091 5745.95C16.3267 5744.22 20.1508 5745.36 22.583 5748.76C24.8627 5752.05 24.971 5756.08 22.5533 5757.82C20.246 5759.4 16.2694 5758.14 13.8794 5755.01Z" fill="#F1F1F1"/>
<path d="M27.2447 5744.23C25.0898 5745.92 25.1557 5749.7 27.5455 5752.83C29.9354 5755.96 33.4966 5757.15 35.5412 5755.61C37.6961 5753.92 37.6302 5750.14 35.2404 5747.01C33.1134 5743.83 29.5522 5742.64 27.2447 5744.23Z" fill="#F1F1F1"/>
<path d="M18.0558 5764.37C18.9896 5761.79 16.4467 5758.55 12.4699 5757.29C8.49317 5756.03 4.48164 5757.07 3.59018 5759.92C2.6564 5762.5 5.19928 5765.74 9.17605 5767C13.1528 5768.26 17.0117 5767.11 18.0558 5764.37Z" fill="#F1F1F1"/>
<path d="M14.7068 5770.61C10.8828 5769.46 7.1343 5770.47 6.20041 5773.05C5.26651 5775.63 7.76679 5778.61 11.5907 5779.76C15.4146 5780.9 19.1632 5779.9 20.0971 5777.32C20.7681 5774.78 18.5307 5771.76 14.7068 5770.61Z" fill="#F1F1F1"/>
<path d="M21.0702 5761.47L20.739 5761.92C20.739 5761.92 15.8623 5771.9 25.9362 5779.21C32.0416 5783.65 33.0899 5776.72 33.0899 5776.72C33.0899 5776.72 32.4986 5773.03 33.713 5771.35L34.0442 5770.89C35.3689 5769.06 38.941 5768.62 38.941 5768.62C38.941 5768.62 45.1789 5765.46 39.1158 5761.29C28.9996 5753.71 21.0702 5761.47 21.0702 5761.47Z" fill="#F1F1F1"/>
<path d="M-8.10581 5692.06C-10.3847 5688.77 -10.4922 5684.74 -8.07425 5683C-5.65633 5681.26 -1.83271 5682.41 0.598702 5685.81C2.87755 5689.1 2.98506 5693.14 0.567144 5694.87C-1.74043 5696.46 -5.71661 5695.2 -8.10581 5692.06Z" fill="#F1F1F1"/>
<path d="M5.25717 5681.27C3.10209 5682.97 3.16728 5686.74 5.55639 5689.88C7.9455 5693.01 11.5062 5694.2 13.5509 5692.66C15.706 5690.97 15.6408 5687.19 13.2517 5684.06C11.1255 5680.88 7.5648 5679.69 5.25717 5681.27Z" fill="#F1F1F1"/>
<path d="M-0.916796 5698.51L-1.24805 5698.97C-1.24805 5698.97 -6.12628 5708.95 3.94573 5716.27C9.89737 5720.59 10.8365 5713.82 10.8365 5713.82C10.8365 5713.82 10.2458 5710.12 11.4605 5708.44L11.7917 5707.98C13.1167 5706.15 16.6887 5705.72 16.6887 5705.72C16.6887 5705.72 22.9268 5702.56 16.8647 5698.39C7.01355 5690.76 -0.916796 5698.51 -0.916796 5698.51Z" fill="#F1F1F1"/>
<path d="M357.267 5651.23C355.329 5645.9 357.156 5640 361.615 5636.67C361.296 5631.12 364.642 5625.93 369.968 5623.99C376.575 5621.58 383.905 5625 386.31 5631.61C387.039 5633.61 387.241 5635.73 386.912 5637.83L408.391 5647.85C409.79 5646.25 411.545 5645.04 413.546 5644.31C420.153 5641.91 427.483 5645.32 429.888 5651.93C431.826 5657.26 429.999 5663.16 425.54 5666.48C425.859 5672.04 422.513 5677.23 417.187 5679.17C410.581 5681.57 403.25 5678.15 400.845 5671.55C400.117 5669.54 399.914 5667.42 400.243 5665.32L378.765 5655.31C377.367 5656.91 375.612 5658.12 373.609 5658.85C367.002 5661.25 359.672 5657.83 357.267 5651.23ZM382.316 5633.06C380.713 5628.66 375.827 5626.38 371.421 5627.98C367.576 5629.38 365.28 5633.33 365.963 5637.37C366.109 5638.24 365.704 5639.11 364.943 5639.56C361.409 5641.63 359.861 5645.93 361.261 5649.77C362.864 5654.18 367.75 5656.46 372.155 5654.85C373.866 5654.23 375.308 5653.07 376.326 5651.5C376.903 5650.61 378.047 5650.28 379.007 5650.73L403.594 5662.19C404.56 5662.64 405.037 5663.73 404.727 5664.74C404.177 5666.53 404.217 5668.38 404.839 5670.09C406.442 5674.5 411.328 5676.78 415.734 5675.17C419.579 5673.77 421.875 5669.83 421.193 5665.79C421.046 5664.92 421.452 5664.05 422.212 5663.6C425.746 5661.53 427.294 5657.23 425.894 5653.38C424.291 5648.98 419.405 5646.7 415 5648.3C413.291 5648.93 411.85 5650.09 410.83 5651.66C410.252 5652.55 409.108 5652.88 408.148 5652.43L383.561 5640.96C382.598 5640.52 382.116 5639.43 382.428 5638.41C382.978 5636.62 382.938 5634.77 382.316 5633.06Z" fill="#F9F9F9"/>
<path d="M462.861 4859.73C454.643 4870 440.263 4883.07 419.907 4883.07C396.935 4883.07 383.115 4869.07 376.579 4860.29C369.295 4869.63 365 4881.21 365 4893.91C365 4906.05 368.922 4917.06 375.645 4926.22C381.621 4917.44 395.815 4902.12 419.907 4902.12C441.197 4902.12 455.951 4916.32 463.981 4926.78C470.891 4917.62 475 4906.23 475 4893.91C474.813 4881.02 470.331 4869.07 462.861 4859.73Z" fill="#F9F9F9"/>
<path d="M382.367 4853.94C389.277 4862.53 401.416 4872.99 419.905 4872.99C436.153 4872.99 448.292 4862.72 456.323 4853.01C446.612 4844.23 433.912 4839 419.905 4839C405.338 4839 392.265 4844.6 382.367 4853.94Z" fill="#F9F9F9"/>
<path d="M419.907 4912.4C400.297 4912.4 387.785 4924.16 381.248 4932.94C391.146 4942.84 404.779 4949 419.907 4949C434.474 4949 447.734 4943.21 457.445 4934.06C449.601 4923.6 436.902 4912.4 419.907 4912.4Z" fill="#F9F9F9"/>
<path d="M48.2708 4870.14L62.3334 4861.69C62.9131 4861.34 63.2947 4860.74 63.3637 4860.07C63.4335 4859.4 63.1819 4858.73 62.6858 4858.27L51.0063 4847.46C50.1355 4846.66 48.7764 4846.71 47.9703 4847.58C47.1648 4848.45 47.217 4849.81 48.0887 4850.62L57.6668 4859.48L45.5983 4866.73L15.6112 4838.99L27.6788 4831.74L36.1062 4839.53C36.977 4840.34 38.3367 4840.29 39.1421 4839.42C39.9482 4838.55 39.8955 4837.19 39.0238 4836.38L29.4129 4827.49C28.7115 4826.84 27.6658 4826.73 26.8477 4827.22L12.7841 4835.67L4.3338 4821.61C3.84173 4820.79 2.86772 4820.4 1.9448 4820.64L-41.8839 4832.2C-42.5376 4832.37 -43.0724 4832.84 -43.3265 4833.47C-43.5811 4834.09 -43.5263 4834.8 -43.1777 4835.38L-34.728 4849.44L-48.7904 4857.89C-49.3703 4858.24 -49.7518 4858.84 -49.821 4859.51C-49.8908 4860.19 -49.6392 4860.85 -49.1428 4861.31L-39.0884 4870.61L-44.4195 4891.99C-44.6094 4892.76 -44.3695 4893.56 -43.7939 4894.09L-10.5209 4924.87C-10.251 4925.12 -9.92705 4925.29 -9.58179 4925.38C-9.23652 4925.47 -8.86994 4925.47 -8.51441 4925.37L35.3141 4913.82C36.0724 4913.62 36.6615 4913.02 36.8513 4912.26L42.1825 4890.88L55.4267 4887.38C56.0804 4887.21 56.6154 4886.74 56.8692 4886.11C57.1239 4885.49 57.0691 4884.78 56.7204 4884.2L48.2708 4870.14ZM2.08669 4878.58L-27.4479 4851.26L11.4567 4841L40.9911 4868.32L2.08669 4878.58ZM1.48178 4825.21L8.73192 4837.27L-30.7688 4847.69L-38.0197 4835.62L1.48178 4825.21ZM-32.0537 4852.85L-2.06658 4880.59L-14.1352 4887.84L-44.1232 4860.1L-32.0537 4852.85ZM32.9895 4909.99L-6.09911 4920.29L-0.786048 4898.98C-0.498966 4897.83 -1.19949 4896.67 -2.35091 4896.38C-3.50234 4896.09 -4.66821 4896.79 -4.95529 4897.94L-10.2684 4919.25L-39.9429 4891.8L-35.4901 4873.94L-15.8702 4892.09C-15.5981 4892.34 -15.2739 4892.51 -14.9319 4892.6C-14.392 4892.73 -13.8055 4892.66 -13.3049 4892.36L0.758677 4883.91L9.20895 4897.97C9.50949 4898.47 9.9915 4898.81 10.5314 4898.95C10.8734 4899.03 11.2398 4899.03 11.5979 4898.94L37.4423 4892.13L32.9895 4909.99ZM12.0618 4894.37L4.81043 4882.31L44.3109 4871.89L51.5635 4883.96L12.0618 4894.37Z" fill="#F1F1F1" fill-opacity="0.5"/>
<path d="M47.5847 4869.97L48.0133 4869.71L62.0759 4861.26L62.0762 4861.26C62.5206 4860.99 62.8134 4860.53 62.8663 4860.02L62.8664 4860.02C62.9199 4859.5 62.727 4858.99 62.3461 4858.64L50.6669 4847.83C49.9989 4847.21 48.9563 4847.25 48.3376 4847.92C47.719 4848.59 47.7596 4849.63 48.428 4850.25L48.4282 4850.25L58.0063 4859.11L58.4954 4859.56L57.9243 4859.91L45.8558 4867.16L45.5342 4867.35L45.2588 4867.1L15.2716 4839.36L14.7825 4838.9L15.3536 4838.56L27.4213 4831.31L27.7429 4831.12L28.0183 4831.37L36.4456 4839.17C36.4456 4839.17 36.4457 4839.17 36.4457 4839.17C37.1142 4839.79 38.1573 4839.75 38.7749 4839.08L38.7752 4839.08C39.3936 4838.41 39.3531 4837.37 38.6845 4836.75L38.6842 4836.75L29.0734 4827.86M47.5847 4869.97L29.0734 4827.86M47.5847 4869.97L47.8422 4870.39M47.5847 4869.97L47.8422 4870.39M29.0734 4827.86C28.5351 4827.36 27.7329 4827.28 27.1055 4827.65L27.1052 4827.65L13.0416 4836.1L12.613 4836.36L12.3555 4835.93L3.90522 4821.87C3.52777 4821.24 2.78046 4820.94 2.07229 4821.12M29.0734 4827.86L2.07229 4821.12M2.07229 4821.12C2.07223 4821.12 2.07218 4821.12 2.07212 4821.12M2.07229 4821.12L2.07212 4821.12M2.07212 4821.12L-41.7563 4832.68M2.07212 4821.12L-41.7563 4832.68M47.8422 4870.39L56.2919 4884.46L56.2921 4884.46C56.5593 4884.9 56.6015 4885.45 56.4061 4885.93L56.4059 4885.93C56.2113 4886.41 55.8009 4886.77 55.299 4886.9L42.055 4890.39L41.7689 4890.47L41.6973 4890.75L36.3662 4912.14C36.2205 4912.72 35.7685 4913.18 35.1867 4913.33C35.1866 4913.33 35.1866 4913.33 35.1865 4913.33L-8.64189 4924.89L-8.64203 4924.89C-8.91466 4924.96 -9.19572 4924.96 -9.46083 4924.89C-9.72593 4924.83 -9.97428 4924.7 -10.1812 4924.51L-10.1813 4924.5L-43.4543 4893.73C-43.4543 4893.73 -43.4544 4893.73 -43.4544 4893.73C-43.896 4893.32 -44.0801 4892.7 -43.9344 4892.12L-38.6032 4870.73L-38.5317 4870.45L-38.7488 4870.25L-48.8033 4860.94L-48.8036 4860.94C-49.1842 4860.59 -49.3771 4860.08 -49.3236 4859.57L-49.3236 4859.57C-49.2705 4859.05 -48.9779 4858.59 -48.5329 4858.32L-34.4705 4849.87L-34.0419 4849.61L-34.2994 4849.19L-42.7491 4835.12L-42.7493 4835.12C-43.0166 4834.68 -43.0587 4834.13 -42.8633 4833.65L-42.8631 4833.65M47.8422 4870.39L-42.8631 4833.65M-42.8631 4833.65C-42.6684 4833.17 -42.2584 4832.81 -41.7565 4832.68C-41.7564 4832.68 -41.7563 4832.68 -41.7563 4832.68M-42.8631 4833.65L-41.7563 4832.68M1.74715 4878.95L1.94869 4879.13L2.21417 4879.06L41.1186 4868.81L41.999 4868.57L41.3306 4867.95L11.7962 4840.63L11.5947 4840.45L11.3292 4840.52L-27.5754 4850.77L-28.4559 4851.01L-27.7875 4851.62L1.74715 4878.95ZM1.91038 4824.95L1.71713 4824.63L1.3543 4824.72L-38.1472 4835.14L-38.7915 4835.31L-38.4483 4835.88L-31.1974 4847.95L-31.0041 4848.27L-30.6413 4848.17L8.8594 4837.76L9.50363 4837.59L9.16051 4837.02L1.91038 4824.95ZM-31.7142 4852.48L-31.9896 4852.23L-32.3112 4852.42L-44.3807 4859.67L-44.9518 4860.02L-44.4627 4860.47L-14.4747 4888.21L-14.1993 4888.46L-13.8777 4888.27L-1.80906 4881.02L-1.23794 4880.68L-1.72704 4880.22L-31.7142 4852.48ZM33.117 4910.47L33.403 4910.39L33.4746 4910.11L37.9275 4892.25L38.1319 4891.43L37.3148 4891.64L11.471 4898.46C11.1953 4898.53 10.9143 4898.53 10.6523 4898.46C10.2373 4898.36 9.86798 4898.1 9.63779 4897.71L9.63753 4897.71L1.18726 4883.65L0.929742 4883.22L0.501158 4883.48L-13.5625 4891.93C-13.9464 4892.16 -14.3964 4892.22 -14.811 4892.11C-15.0729 4892.05 -15.3216 4891.92 -15.531 4891.72L-35.1505 4873.57L-35.7708 4873L-35.9752 4873.82L-40.428 4891.68L-40.4996 4891.97L-40.2824 4892.17L-10.6079 4919.62L-9.98762 4920.19L-9.7832 4919.37L-4.47014 4898.06C-4.24986 4897.18 -3.35536 4896.64 -2.47188 4896.86C-1.58839 4897.08 -1.05092 4897.98 -1.2712 4898.86L-6.58426 4920.17L-6.78868 4920.99L-5.97164 4920.78L33.117 4910.47ZM11.6332 4894.63L11.8264 4894.95L12.1893 4894.86L51.691 4884.44L52.3353 4884.27L51.9921 4883.7L44.7395 4871.63L44.5462 4871.31L44.1834 4871.41L4.68295 4881.82L4.03871 4881.99L4.38183 4882.56L11.6332 4894.63Z" stroke="#F1F1F1" stroke-opacity="0.5" stroke-width="0.999999"/>
<path d="M428.898 2963.03L439.544 2945.38C439.983 2944.65 440.054 2943.76 439.737 2942.97C439.421 2942.19 438.753 2941.6 437.934 2941.38L418.663 2936.28C417.226 2935.9 415.75 2936.76 415.366 2938.2C414.983 2939.64 415.836 2941.12 417.274 2941.5L433.078 2945.68L423.941 2960.83L374.462 2947.74L383.597 2932.59L397.503 2936.27C398.94 2936.65 400.417 2935.79 400.8 2934.35C401.184 2932.91 400.329 2931.44 398.892 2931.06L383.033 2926.86C381.876 2926.55 380.654 2927.05 380.035 2928.08L369.388 2945.73L351.79 2935.12C350.765 2934.5 349.454 2934.64 348.573 2935.45L306.746 2974.09C306.123 2974.67 305.804 2975.5 305.89 2976.35C305.974 2977.19 306.45 2977.94 307.175 2978.38L324.772 2988.99L314.127 3006.65C313.688 3007.37 313.616 3008.26 313.933 3009.05C314.249 3009.84 314.918 3010.43 315.737 3010.64L332.327 3015.03L338.93 3041.88C339.165 3042.83 339.901 3043.58 340.851 3043.83L395.751 3058.35C396.196 3058.47 396.656 3058.47 397.089 3058.36C397.522 3058.25 397.929 3058.04 398.268 3057.72L440.095 3019.09C440.819 3018.42 441.123 3017.41 440.887 3016.46L434.285 2989.61L446.924 2977.93C447.548 2977.36 447.866 2976.52 447.781 2975.68C447.697 2974.83 447.221 2974.08 446.495 2973.64L428.898 2963.03ZM382.637 2999.6L333.905 2986.71L371.032 2952.42L419.765 2965.31L382.637 2999.6ZM350.732 2940.79L365.832 2949.89L328.135 2984.72L313.035 2975.61L350.732 2940.79ZM329.731 2991.19L379.21 3004.28L370.074 3019.43L320.594 3006.34L329.731 2991.19ZM435.276 3016.21L397.973 3050.67L391.392 3023.91C391.037 3022.47 389.578 3021.59 388.133 3021.95C386.689 3022.31 385.806 3023.77 386.162 3025.22L392.742 3051.97L343.779 3039.02L338.264 3016.6L370.637 3025.16C371.086 3025.28 371.545 3025.28 371.974 3025.17C372.652 3025 373.257 3024.57 373.636 3023.94L384.282 3006.29L401.881 3016.9C402.507 3017.28 403.242 3017.38 403.919 3017.21C404.348 3017.1 404.755 3016.89 405.097 3016.57L429.761 2993.79L435.276 3016.21ZM402.939 3011.24L387.837 3002.13L425.534 2967.31L440.637 2976.41L402.939 3011.24Z" fill="#F1F1F1" fill-opacity="0.5"/>
<path d="M55.5028 2945.52C56.2514 2943.69 56.4764 2941.8 56.2258 2940.23C55.9755 2938.65 55.262 2937.44 54.1612 2936.85C51.9548 2935.68 48.8216 2937.26 47.1865 2941.08C46.4391 2942.9 46.2145 2944.79 46.465 2946.37C46.7153 2947.94 47.4288 2949.16 48.5295 2949.74C49.6353 2950.33 50.985 2950.21 52.2767 2949.45C53.5665 2948.69 54.7605 2947.32 55.5028 2945.52Z" fill="#F1F1F1" stroke="white"/>
<path d="M42.2842 2945.9C43.092 2944.15 43.3463 2942.36 43.1426 2940.87C42.939 2939.39 42.2876 2938.24 41.3047 2937.66C40.4038 2937.15 39.2554 2937.26 38.0847 2937.98C36.9156 2938.7 35.7744 2940 34.9638 2941.76C34.156 2943.51 33.9017 2945.3 34.1055 2946.78C34.309 2948.27 34.9604 2949.42 35.9433 2950C36.8442 2950.51 37.9926 2950.4 39.1633 2949.68C40.3325 2948.96 41.4736 2947.65 42.2842 2945.9Z" fill="#F1F1F1" stroke="white"/>
<path d="M66.0426 2949.3L66.0374 2949.29L66.0327 2949.28C65.4704 2948.09 64.3325 2947.37 62.8582 2947.2C61.384 2947.03 59.6239 2947.42 57.9467 2948.39C56.274 2949.36 55.0208 2950.75 54.3437 2952.17C53.6646 2953.59 53.5904 2954.96 54.1331 2956C54.7578 2957.14 55.913 2957.86 57.3711 2958.04C58.8302 2958.23 60.5574 2957.87 62.2311 2956.9C63.9039 2955.94 65.157 2954.55 65.8342 2953.13C66.5141 2951.71 66.5877 2950.33 66.0426 2949.3Z" fill="#F1F1F1" stroke="white"/>
<path d="M65.782 2963.31C65.2263 2962.25 64.1464 2961.59 62.7455 2961.44C61.3465 2961.29 59.6773 2961.64 58.0602 2962.54C56.4524 2963.44 55.2943 2964.72 54.6638 2966.05C54.0362 2967.36 53.9442 2968.69 54.384 2969.75C54.9427 2970.8 56.0178 2971.44 57.4098 2971.6C58.8088 2971.75 60.478 2971.4 62.0951 2970.49C63.7096 2969.59 64.9305 2968.3 65.5903 2966.98C66.2501 2965.65 66.3281 2964.35 65.782 2963.31Z" fill="#F1F1F1" stroke="white"/>
<path d="M35.109 2963.88C35.1764 2963.91 35.2313 2963.93 35.271 2963.94C35.2919 2963.94 35.3162 2963.94 35.3436 2963.94C35.4451 2963.94 35.5903 2963.94 35.7686 2963.94C36.1247 2963.95 36.6169 2963.97 37.1611 2964.06C38.2229 2964.22 39.5911 2964.6 40.4791 2965.55L40.8654 2965.96C41.2875 2966.41 41.5892 2967.02 41.8087 2967.63C42.0299 2968.26 42.1792 2968.92 42.2807 2969.53C42.3825 2970.14 42.4381 2970.69 42.4684 2971.09C42.4835 2971.3 42.4924 2971.46 42.4975 2971.58C42.4992 2971.62 42.5005 2971.65 42.5014 2971.68C42.5156 2971.72 42.5368 2971.78 42.5652 2971.86C42.6251 2972.02 42.7164 2972.25 42.84 2972.51C43.0905 2973.03 43.4586 2973.64 43.9443 2974.09C44.4198 2974.52 44.9932 2974.79 45.6978 2974.67C46.4207 2974.55 47.3592 2974.03 48.5227 2972.69C52.4767 2968.12 52.9195 2963.59 52.4002 2960.21C52.1389 2958.51 51.6316 2957.09 51.1891 2956.1C50.9681 2955.6 50.7641 2955.21 50.6167 2954.95C50.543 2954.81 50.4836 2954.71 50.4433 2954.65C50.4284 2954.62 50.4162 2954.61 50.4068 2954.59L50.0838 2954.25C50.0702 2954.24 50.0521 2954.22 50.0297 2954.21C49.9693 2954.16 49.8776 2954.1 49.7569 2954.03C49.5156 2953.87 49.159 2953.66 48.7058 2953.44C47.798 2952.99 46.5101 2952.49 44.9877 2952.28C41.9651 2951.86 37.9769 2952.59 34.1495 2957.29L34.1406 2957.3L34.1312 2957.31C32.9369 2958.62 32.4877 2959.66 32.4054 2960.46C32.3251 2961.23 32.5845 2961.86 33.0035 2962.38C33.4306 2962.91 34.0088 2963.31 34.5002 2963.58C34.7426 2963.72 34.9567 2963.81 35.109 2963.88Z" fill="#F1F1F1" stroke="white"/>
<path d="M71.3048 2881.85C72.6002 2881.09 73.8267 2879.75 74.6317 2878.01C75.3765 2876.19 75.6 2874.3 75.3497 2872.73C75.0992 2871.16 74.3855 2869.94 73.2847 2869.36C71.0781 2868.18 67.9449 2869.76 66.3101 2873.59C65.5629 2875.41 65.3385 2877.3 65.5891 2878.87C65.8393 2880.45 66.5513 2881.66 67.6495 2882.25C68.6847 2882.77 70.0027 2882.62 71.3048 2881.85Z" fill="#F1F1F1" stroke="white"/>
<path d="M54.2223 2874.1L54.2165 2874.11L54.2099 2874.13C53.4021 2875.88 53.1477 2877.66 53.3515 2879.15C53.555 2880.63 54.2064 2881.78 55.1894 2882.36C56.0902 2882.87 57.2387 2882.76 58.4094 2882.04C59.5785 2881.32 60.7197 2880.02 61.5303 2878.26C62.338 2876.51 62.5924 2874.72 62.3886 2873.24C62.1857 2871.76 61.5378 2870.61 60.56 2870.03C59.5173 2869.51 58.2974 2869.64 57.1416 2870.35C55.9798 2871.06 54.9066 2872.36 54.2223 2874.1Z" fill="#F1F1F1" stroke="white"/>
<path d="M85.1636 2881.8L85.1584 2881.79L85.1536 2881.78C84.5913 2880.59 83.4533 2879.88 81.979 2879.71C80.5047 2879.54 78.7446 2879.93 77.0674 2880.9C75.3946 2881.87 74.1415 2883.26 73.4644 2884.67C72.7845 2886.1 72.711 2887.47 73.2561 2888.51C73.8118 2889.57 74.9251 2890.26 76.3955 2890.45C77.8586 2890.63 79.621 2890.31 81.3611 2889.41C83.0295 2888.44 84.2793 2887.05 84.9553 2885.64C85.6352 2884.22 85.7087 2882.84 85.1636 2881.8Z" fill="#F1F1F1" stroke="white"/>
<path d="M84.7722 2895.67C84.2166 2894.62 83.1367 2893.96 81.7357 2893.81C80.3367 2893.65 78.6675 2894.01 77.0504 2894.91C75.4426 2895.81 74.2845 2897.09 73.654 2898.41C73.0264 2899.73 72.9345 2901.05 73.3742 2902.11C73.9329 2903.16 75.008 2903.81 76.4001 2903.96C77.799 2904.12 79.4682 2903.76 81.0853 2902.86C82.6998 2901.96 83.9207 2900.67 84.5806 2899.35C85.2404 2898.02 85.3184 2896.72 84.7722 2895.67Z" fill="#F1F1F1" stroke="white"/>
<path d="M54.1068 2896.25C54.1742 2896.27 54.2292 2896.3 54.2688 2896.31C54.2897 2896.31 54.314 2896.31 54.3415 2896.31C54.443 2896.31 54.5881 2896.31 54.7665 2896.31C55.1225 2896.32 55.6147 2896.34 56.1589 2896.43C57.2208 2896.58 58.589 2896.96 59.477 2897.91L59.8633 2898.33C60.2854 2898.78 60.5871 2899.38 60.8066 2900C61.0278 2900.62 61.1771 2901.29 61.2786 2901.9C61.3804 2902.5 61.436 2903.06 61.4663 2903.46C61.4814 2903.67 61.4903 2903.83 61.4954 2903.95C61.4971 2903.98 61.4983 2904.02 61.4993 2904.04C61.5135 2904.09 61.5347 2904.15 61.5631 2904.23C61.623 2904.39 61.7143 2904.62 61.8379 2904.88C62.0884 2905.4 62.4565 2906.01 62.9422 2906.46C63.4177 2906.89 63.9911 2907.15 64.6958 2907.04C65.4186 2906.92 66.3572 2906.4 67.5207 2905.05C71.4747 2900.49 71.9175 2895.96 71.3982 2892.58C71.1369 2890.88 70.6296 2889.46 70.187 2888.46C69.9661 2887.97 69.7621 2887.58 69.6147 2887.31C69.541 2887.18 69.4816 2887.08 69.4413 2887.02C69.4264 2886.99 69.4141 2886.97 69.4048 2886.96L69.0818 2886.61C69.0681 2886.6 69.0501 2886.59 69.0277 2886.58C68.9673 2886.53 68.8756 2886.47 68.7549 2886.39C68.5135 2886.24 68.157 2886.03 67.7037 2885.81C66.796 2885.36 65.508 2884.86 63.9856 2884.65C60.963 2884.23 56.9748 2884.96 53.1473 2889.65L53.1384 2889.67L53.129 2889.68C51.9347 2890.98 51.4855 2892.03 51.4032 2892.82C51.3229 2893.6 51.5823 2894.23 52.0013 2894.75C52.4285 2895.28 53.0067 2895.68 53.498 2895.95C53.7405 2896.08 53.9545 2896.18 54.1068 2896.25Z" fill="#F1F1F1" stroke="white"/>
<path d="M139.839 2864.26C141.135 2863.5 142.361 2862.16 143.166 2860.42C143.911 2858.6 144.135 2856.71 143.885 2855.14C143.635 2853.56 142.921 2852.35 141.82 2851.76C139.614 2850.59 136.481 2852.17 134.845 2855.99C134.098 2857.81 133.873 2859.7 134.124 2861.28C134.374 2862.85 135.086 2864.06 136.184 2864.65C137.219 2865.17 138.537 2865.02 139.839 2864.26Z" fill="#F1F1F1" stroke="white"/>
<path d="M122.759 2856.5L122.754 2856.52L122.747 2856.53C121.939 2858.28 121.685 2860.07 121.889 2861.55C122.092 2863.04 122.744 2864.18 123.726 2864.77C124.627 2865.27 125.776 2865.17 126.946 2864.45C128.116 2863.73 129.257 2862.42 130.067 2860.66C130.875 2858.91 131.13 2857.13 130.926 2855.64C130.723 2854.16 130.075 2853.02 129.097 2852.43C128.054 2851.91 126.835 2852.04 125.679 2852.75C124.517 2853.47 123.444 2854.76 122.759 2856.5Z" fill="#F1F1F1" stroke="white"/>
<path d="M153.568 2864.07L153.563 2864.06L153.558 2864.05C152.996 2862.86 151.858 2862.15 150.383 2861.98C148.909 2861.81 147.149 2862.2 145.472 2863.17C143.799 2864.14 142.546 2865.53 141.868 2866.94C141.189 2868.36 141.115 2869.74 141.658 2870.77C142.283 2871.92 143.438 2872.63 144.896 2872.82C146.355 2873.01 148.083 2872.65 149.756 2871.68C151.429 2870.71 152.682 2869.32 153.36 2867.91C154.039 2866.49 154.113 2865.11 153.568 2864.07Z" fill="#F1F1F1" stroke="white"/>
<path d="M153.311 2878.08C152.756 2877.02 151.676 2876.37 150.275 2876.22C148.876 2876.06 147.207 2876.42 145.59 2877.32C143.982 2878.22 142.824 2879.5 142.193 2880.82C141.566 2882.14 141.474 2883.46 141.913 2884.52C142.472 2885.57 143.547 2886.22 144.939 2886.37C146.338 2886.53 148.007 2886.17 149.624 2885.27C151.239 2884.37 152.46 2883.08 153.12 2881.75C153.779 2880.43 153.857 2879.13 153.311 2878.08Z" fill="#F1F1F1" stroke="white"/>
<path d="M122.386 2878.66C122.454 2878.68 122.509 2878.71 122.548 2878.72C122.569 2878.72 122.594 2878.72 122.621 2878.72C122.723 2878.72 122.868 2878.71 123.046 2878.72C123.402 2878.73 123.894 2878.75 124.438 2878.83C125.5 2878.99 126.868 2879.37 127.756 2880.32L128.143 2880.74C128.565 2881.19 128.867 2881.79 129.086 2882.41C129.307 2883.03 129.457 2883.7 129.558 2884.31C129.66 2884.91 129.715 2885.47 129.746 2885.87C129.761 2886.07 129.77 2886.24 129.775 2886.36C129.776 2886.39 129.778 2886.42 129.779 2886.45C129.794 2886.49 129.816 2886.56 129.846 2886.63C129.909 2886.8 130.006 2887.03 130.136 2887.3C130.4 2887.83 130.788 2888.46 131.297 2888.91C131.796 2889.36 132.398 2889.63 133.135 2889.51C133.888 2889.38 134.858 2888.84 136.052 2887.46C140.006 2882.9 140.449 2878.37 139.93 2874.99C139.668 2873.29 139.161 2871.86 138.718 2870.87C138.497 2870.37 138.293 2869.98 138.146 2869.72C138.072 2869.59 138.013 2869.49 137.973 2869.42C137.958 2869.4 137.946 2869.38 137.936 2869.36L137.613 2869.02C137.6 2869.01 137.582 2869 137.559 2868.98C137.499 2868.94 137.407 2868.88 137.286 2868.8C137.044 2868.65 136.687 2868.44 136.232 2868.21C135.321 2867.76 134.025 2867.26 132.486 2867.05C129.431 2866.64 125.376 2867.37 121.422 2872.07L121.415 2872.08L121.409 2872.08C120.214 2873.39 119.765 2874.44 119.683 2875.23C119.603 2876.01 119.862 2876.64 120.281 2877.16C120.708 2877.69 121.286 2878.09 121.778 2878.36C122.02 2878.49 122.234 2878.59 122.386 2878.66Z" fill="#F1F1F1" stroke="white"/>
<path d="M149.48 2794.86C150.775 2794.1 152.002 2792.76 152.807 2791.02C153.552 2789.2 153.776 2787.32 153.526 2785.74C153.275 2784.17 152.562 2782.95 151.461 2782.37C149.255 2781.2 146.122 2782.77 144.486 2786.6C143.739 2788.42 143.514 2790.31 143.765 2791.89C144.015 2793.46 144.727 2794.67 145.825 2795.26C146.86 2795.78 148.178 2795.63 149.48 2794.86Z" fill="#F1F1F1" stroke="white"/>
<path d="M132.398 2787.1L132.392 2787.12L132.386 2787.13C131.578 2788.88 131.323 2790.67 131.527 2792.16C131.731 2793.64 132.382 2794.79 133.365 2795.37C134.266 2795.88 135.414 2795.77 136.585 2795.05C137.754 2794.33 138.895 2793.03 139.706 2791.27C140.514 2789.52 140.768 2787.73 140.564 2786.25C140.362 2784.77 139.714 2783.62 138.736 2783.03C137.693 2782.52 136.473 2782.64 135.317 2783.36C134.156 2784.07 133.082 2785.36 132.398 2787.1Z" fill="#F1F1F1" stroke="white"/>
<path d="M163.211 2794.67L163.205 2794.66L163.201 2794.65C162.638 2793.47 161.5 2792.75 160.026 2792.58C158.552 2792.41 156.792 2792.8 155.114 2793.77C153.442 2794.74 152.189 2796.13 151.511 2797.55C150.832 2798.97 150.758 2800.34 151.301 2801.38C151.926 2802.52 153.081 2803.24 154.539 2803.42C155.998 2803.61 157.725 2803.25 159.399 2802.28C161.072 2801.31 162.325 2799.93 163.002 2798.51C163.682 2797.09 163.756 2795.71 163.211 2794.67Z" fill="#F1F1F1" stroke="white"/>
<path d="M162.95 2808.69C162.395 2807.63 161.315 2806.97 159.914 2806.82C158.515 2806.66 156.846 2807.02 155.229 2807.92C153.621 2808.82 152.463 2810.1 151.832 2811.43C151.205 2812.74 151.113 2814.07 151.552 2815.13C152.111 2816.17 153.186 2816.82 154.578 2816.97C155.977 2817.13 157.646 2816.77 159.263 2815.87C160.877 2814.97 162.098 2813.68 162.758 2812.36C163.418 2811.03 163.496 2809.73 162.95 2808.69Z" fill="#F1F1F1" stroke="white"/>
<path d="M132.277 2809.25C132.344 2809.28 132.399 2809.3 132.439 2809.32C132.46 2809.32 132.484 2809.32 132.511 2809.32C132.613 2809.31 132.758 2809.31 132.936 2809.32C133.292 2809.32 133.785 2809.35 134.329 2809.43C135.391 2809.59 136.759 2809.97 137.647 2810.92L138.033 2811.34C138.455 2811.79 138.757 2812.39 138.977 2813.01C139.198 2813.63 139.347 2814.3 139.449 2814.9C139.55 2815.51 139.606 2816.07 139.636 2816.47C139.651 2816.67 139.66 2816.84 139.665 2816.95C139.667 2816.99 139.668 2817.03 139.669 2817.05C139.683 2817.1 139.705 2817.16 139.733 2817.23C139.793 2817.4 139.884 2817.63 140.008 2817.88C140.258 2818.41 140.626 2819.02 141.112 2819.46C141.588 2819.9 142.161 2820.16 142.866 2820.05C143.589 2819.93 144.527 2819.4 145.691 2818.06C149.645 2813.5 150.087 2808.97 149.568 2805.59C149.307 2803.89 148.799 2802.47 148.357 2801.47C148.136 2800.97 147.932 2800.59 147.785 2800.32C147.711 2800.19 147.651 2800.09 147.611 2800.03C147.596 2800 147.584 2799.98 147.575 2799.97L147.252 2799.62C147.238 2799.61 147.22 2799.6 147.198 2799.58C147.137 2799.54 147.045 2799.48 146.925 2799.4C146.683 2799.25 146.327 2799.04 145.874 2798.81C144.966 2798.37 143.678 2797.86 142.156 2797.66C139.133 2797.24 135.145 2797.97 131.317 2802.66L131.308 2802.67L131.299 2802.68C130.105 2803.99 129.655 2805.04 129.573 2805.83C129.493 2806.61 129.752 2807.24 130.171 2807.76C130.598 2808.29 131.177 2808.69 131.668 2808.96C131.91 2809.09 132.124 2809.19 132.277 2809.25Z" fill="#F1F1F1" stroke="white"/>
<path d="M-2.09338 3541.57C17.7533 3541.57 32.0809 3529.81 40.7636 3519.76C46.7702 3528.26 50.3339 3538.71 50.5 3549.92C50.4963 3560.52 47.3138 3570.39 41.8604 3578.62C33.2695 3568.29 18.5812 3555.62 -2.09338 3555.62C-24.8402 3555.62 -39.1467 3568.65 -46.2971 3577.89C-51.5163 3569.75 -54.5 3560.26 -54.5 3549.91C-54.5 3538.94 -51.1464 3528.85 -45.3542 3520.43C-37.9204 3529.44 -23.9784 3541.57 -2.09338 3541.57Z" stroke="#F9F9F9" stroke-width="5"/>
<path d="M-2.09462 3526.49C-18.2728 3526.49 -29.3378 3518.02 -36.1708 3510.18C-26.9517 3502.21 -15.1573 3497.5 -2.09462 3497.5C10.4055 3497.5 21.8041 3501.86 30.8087 3509.28C23.0138 3518.13 12.0427 3526.49 -2.09462 3526.49Z" stroke="#F9F9F9" stroke-width="5"/>
<path d="M-2.09321 3602.5C-15.7341 3602.5 -28.1017 3597.25 -37.3988 3588.69C-30.8175 3580.53 -19.34 3570.9 -2.09321 3570.9C12.8037 3570.9 24.355 3580.15 32.0484 3589.76C22.9548 3597.61 10.9798 3602.5 -2.09321 3602.5Z" stroke="#F9F9F9" stroke-width="5"/>
<path opacity="0.5" d="M318.556 1014.2C317.54 1005.93 322.111 998.08 329.599 994.79C330.98 986.728 337.492 980.394 345.764 979.379C356.027 978.118 365.4 985.441 366.66 995.704C367.042 998.814 366.63 1001.92 365.464 1004.82L392.927 1026.28C395.462 1024.45 398.377 1023.29 401.485 1022.91C411.747 1021.65 421.12 1028.98 422.38 1039.24C423.396 1047.51 418.826 1055.36 411.337 1058.65C409.956 1066.71 403.444 1073.05 395.172 1074.06C384.91 1075.32 375.537 1068 374.277 1057.74C373.895 1054.63 374.306 1051.52 375.472 1048.62L348.01 1027.16C345.477 1029 342.562 1030.15 339.451 1030.53C329.189 1031.79 319.816 1024.47 318.556 1014.2ZM360.456 996.465C359.616 989.623 353.369 984.742 346.526 985.582C340.553 986.315 335.958 991.212 335.599 997.227C335.521 998.522 334.652 999.634 333.415 1000.02C327.665 1001.83 324.026 1007.47 324.759 1013.44C325.599 1020.29 331.847 1025.17 338.689 1024.33C341.346 1024 343.795 1022.82 345.774 1020.9C346.895 1019.82 348.643 1019.72 349.871 1020.68L381.309 1045.25C382.543 1046.21 382.868 1047.93 382.089 1049.27C380.709 1051.66 380.154 1054.32 380.48 1056.98C381.32 1063.82 387.567 1068.7 394.41 1067.86C400.383 1067.13 404.978 1062.23 405.337 1056.21C405.415 1054.92 406.284 1053.81 407.522 1053.42C413.271 1051.62 416.911 1045.97 416.177 1040C415.337 1033.16 409.089 1028.28 402.247 1029.12C399.593 1029.44 397.144 1030.63 395.162 1032.54C394.041 1033.63 392.293 1033.72 391.066 1032.76L359.627 1008.2C358.394 1007.24 358.063 1005.52 358.847 1004.17C360.227 1001.78 360.782 999.122 360.456 996.465Z" fill="#F1F1F1"/>
<path d="M40.3243 742.148L50.072 727.138C50.4741 726.52 50.5609 725.748 50.3071 725.056C50.0542 724.364 49.4888 723.831 48.7827 723.617L32.164 718.609C30.925 718.236 29.6178 718.938 29.2438 720.177C28.8709 721.417 29.5718 722.724 30.8117 723.097L44.4402 727.204L36.0746 740.085L-6.59428 727.226L1.77048 714.345L13.7621 717.959C15.0011 718.333 16.3094 717.631 16.6823 716.392C17.0563 715.152 16.3543 713.844 15.1144 713.471L1.43863 709.349C0.440593 709.048 -0.636161 709.443 -1.20293 710.317L-10.9512 725.328L-25.9623 715.58C-26.8364 715.012 -27.9804 715.09 -28.7691 715.77L-66.2165 748.061C-66.7749 748.543 -67.0748 749.259 -67.0241 749.995C-66.9745 750.731 -66.5812 751.401 -65.9625 751.802L-50.9525 761.549L-60.7003 776.558C-61.1023 777.177 -61.1892 777.948 -60.9352 778.641C-60.6823 779.333 -60.1169 779.866 -59.411 780.079L-45.1043 784.391L-40.1062 807.905C-39.9282 808.742 -39.3087 809.416 -38.4896 809.663L8.85424 823.93C9.23828 824.046 9.63797 824.059 10.0177 823.979C10.3974 823.898 10.7571 823.723 11.0608 823.461L48.5085 791.171C49.1562 790.612 49.4484 789.745 49.2704 788.908L44.2722 765.393L55.5884 755.636C56.1468 755.154 56.4464 754.437 56.3959 753.702C56.3463 752.966 55.9531 752.296 55.3343 751.895L40.3243 742.148ZM-0.922004 772.512L-42.9468 759.847L-9.70675 731.183L32.3182 743.849L-0.922004 772.512ZM-27.0393 720.469L-14.1596 728.834L-47.9092 757.936L-60.7898 749.572L-27.0393 720.469ZM-46.7012 763.611L-4.0323 776.47L-12.3978 789.352L-55.0675 776.493L-46.7012 763.611ZM44.3971 788.526L10.9995 817.325L6.01825 793.89C5.7491 792.624 4.5047 791.816 3.23843 792.085C1.97216 792.354 1.16403 793.598 1.43319 794.865L6.4144 818.3L-35.8093 805.575L-39.984 785.934L-12.0668 794.348C-11.6799 794.464 -11.2804 794.477 -10.9043 794.397C-10.3105 794.27 -9.7722 793.914 -9.42525 793.38L0.323061 778.369L15.3341 788.117C15.8685 788.465 16.5049 788.571 17.0987 788.444C17.4748 788.364 17.8347 788.191 18.1409 787.927L40.2224 768.886L44.3971 788.526ZM16.412 783.228L3.53019 774.862L37.2799 745.76L50.1623 754.124L16.412 783.228Z" fill="#F1F1F1"/>
<path d="M378.654 32.2268C370.505 23.8077 358.91 21.9657 352.628 28.0499C346.603 34.0037 348.329 45.6817 356.347 53.8449C364.496 62.2641 376.091 64.106 382.373 58.0219C388.528 52.324 386.802 40.646 378.654 32.2268Z" fill="#F9F9F9"/>
<path d="M342.111 65.897C347.752 60.4599 358.447 62.4369 366.335 70.3441C374.224 78.2513 376.204 89.1567 370.563 94.5938C364.922 100.031 354.227 98.0539 346.338 90.1467C338.45 82.2395 336.47 71.3341 342.111 65.897Z" fill="#F9F9F9"/>
<path d="M403.83 48.1008C395.854 49.5725 387.963 41.023 386.108 29.0889C384.252 17.1549 389.484 6.45359 397.459 4.98189C405.565 3.76619 413.457 12.3157 415.182 23.9938C416.781 36.0581 411.936 46.8851 403.83 48.1008Z" fill="#F9F9F9"/>
<path d="M393.957 56.0107L395.498 55.2286C395.498 55.2286 426.097 45.4973 442.335 78.1378C451.946 97.0807 432.118 96.8408 432.118 96.8408C432.118 96.8408 422.061 93.5744 416.409 96.4422L414.738 96.9684C409.085 99.8362 405.782 109.881 405.782 109.881C405.782 109.881 394.14 126.411 384.655 107.081C368.033 74.9574 393.957 56.0107 393.957 56.0107Z" fill="#F9F9F9"/>
</svg>
