<svg width="150" height="300" viewBox="0 0 150 300" fill="none" xmlns="http://www.w3.org/2000/svg">
<g opacity="0.5">
<path d="M116.893 56.5359C94.4822 84.5495 55.2632 120.203 -0.254669 120.203C-62.9032 120.203 -100.594 82.0028 -118.421 58.0639C-138.285 83.5308 -150 115.11 -150 149.745C-150 182.852 -139.304 212.903 -120.968 237.86C-104.669 213.921 -65.9593 172.156 -0.254669 172.156C57.8098 172.156 98.0475 210.865 119.949 239.388C138.795 214.431 150 183.361 150 149.745C149.491 114.6 137.267 82.0028 116.893 56.5359Z" fill="#F1F1F1" fill-opacity="0.05"/>
<path d="M-0.254669 121.203C55.0724 121.203 94.2803 86.0852 116.887 58.1382C136.657 83.2857 148.499 115.283 149 149.753C148.998 182.671 138.18 213.128 119.936 237.736C97.7962 209.237 57.5744 171.156 -0.254669 171.156C-65.376 171.156 -104.155 211.896 -120.991 236.129C-138.7 211.562 -149 182.126 -149 149.745C-149 115.81 -137.68 84.8309 -118.433 59.7142C-100.209 83.8185 -62.4479 121.203 -0.254669 121.203Z" stroke="#F1F1F1" stroke-opacity="0.05" stroke-width="2"/>
<path d="M-102.633 40.7465C-83.7873 64.1761 -50.6804 92.699 -0.255913 92.699C44.0565 92.699 77.1635 64.6854 99.065 38.1998C72.5794 14.261 37.9444 -0.000488281 -0.255913 -0.000488281C-39.9843 -0.000488281 -75.6379 15.2796 -102.633 40.7465Z" fill="#F1F1F1" fill-opacity="0.05"/>
<path d="M-0.255913 91.699C-49.7438 91.699 -82.4302 64.0041 -101.271 40.8403C-74.5359 15.9215 -39.388 0.999512 -0.255913 0.999512C37.3464 0.999512 71.4661 14.9092 97.6811 38.3011C75.846 64.4823 43.1987 91.699 -0.255913 91.699Z" stroke="#F1F1F1" stroke-opacity="0.05" stroke-width="2"/>
<path d="M-0.255051 200.169C-53.7355 200.169 -87.8612 232.258 -105.688 256.197C-78.6931 283.191 -41.5114 300 -0.255051 300C39.4733 300 75.6363 284.21 102.122 259.253C80.7297 230.73 46.0947 200.169 -0.255051 200.169Z" fill="#F1F1F1" fill-opacity="0.05"/>
<path d="M-0.255051 299C-40.9211 299 -77.6014 282.56 -104.367 256.1C-86.4951 232.367 -52.7748 201.169 -0.255051 201.169C45.2428 201.169 79.4257 230.922 100.783 259.137C74.5326 283.575 38.879 299 -0.255051 299Z" stroke="#F1F1F1" stroke-opacity="0.05" stroke-width="2"/>
</g>
</svg>
