<svg width="168" height="356" viewBox="0 0 168 356" fill="none" xmlns="http://www.w3.org/2000/svg">
<g clip-path="url(#clip0)">
<path d="M95.1952 112.72L119.646 75.2491C120.655 73.7061 120.876 71.7769 120.246 70.0454C119.617 68.3135 118.207 66.9776 116.443 66.441L74.9234 53.829C71.828 52.8894 68.5562 54.6369 67.6144 57.7327C66.6752 60.8304 68.4205 64.1027 71.5181 65.0418L105.567 75.3842L84.5821 107.54L-22.0192 75.1575L-1.03674 43.0021L28.9224 52.1041C32.0179 53.0437 35.2924 51.298 36.2315 48.2004C37.1733 45.1045 35.4254 41.8304 32.3278 40.8913L-1.83895 30.5106C-4.3324 29.7532 -7.02644 30.7336 -8.44815 32.9153L-32.9012 70.3893L-70.3753 45.9364C-72.5575 44.5125 -75.4177 44.7023 -77.3933 46.397L-171.189 126.92C-172.587 128.121 -173.341 129.91 -173.218 131.751C-173.098 133.589 -172.119 135.266 -170.574 136.272L-133.103 160.723L-157.555 198.192C-158.563 199.737 -158.784 201.665 -158.153 203.398C-157.525 205.13 -156.114 206.466 -154.351 207L-118.608 217.859L-106.241 276.672C-105.801 278.767 -104.256 280.453 -102.209 281.075L16.0716 317.003C17.0311 317.295 18.0302 317.331 18.9799 317.131C19.9296 316.931 20.8299 316.497 21.5906 315.843L115.387 235.323C117.009 233.929 117.744 231.763 117.304 229.669L104.937 170.855L133.281 146.524C134.68 145.322 135.433 143.531 135.311 141.693C135.191 139.854 134.211 138.177 132.667 137.171L95.1952 112.72ZM-8.08693 188.404L-113.079 156.511L-29.8221 85.0333L75.1706 116.928L-8.08693 188.404ZM-73.0946 58.1534L-40.9414 79.1362L-125.475 151.708L-157.63 130.725L-73.0946 58.1534ZM-122.486 165.9L-15.8844 198.283L-36.8686 230.441L-143.472 198.059L-122.486 165.9ZM105.123 228.689L21.4709 300.502L9.14642 241.888C8.48049 238.721 5.37392 236.694 2.20678 237.36C-0.960354 238.025 -2.98749 241.132 -2.32156 244.299L10.0029 302.913L-95.4863 270.87L-105.815 221.746L-36.0686 242.933C-35.102 243.226 -34.1033 243.259 -33.1626 243.061C-31.6776 242.749 -30.3297 241.862 -29.4594 240.528L-5.0064 203.054L32.4677 227.507C33.8019 228.38 35.3922 228.646 36.8772 228.334C37.818 228.136 38.7187 227.704 39.4857 227.047L94.7938 179.565L105.123 228.689ZM35.1893 215.29L3.03063 194.303L87.5643 121.734L119.724 142.716L35.1893 215.29Z" fill="#F1F1F1"/>
<path d="M53.7788 58.8971C55.2862 58.5801 56.631 57.6565 57.4792 56.3625C58.3212 55.0722 58.6241 53.4649 58.3071 51.9574C57.9897 50.4478 57.0651 49.0985 55.7748 48.2566C54.484 47.4123 52.8749 47.1122 51.3675 47.4291C49.8533 47.7475 48.5081 48.6688 47.6666 49.9614C46.8179 51.2532 46.5217 52.8591 46.8391 54.3688C47.1561 55.8762 48.0739 57.2268 49.371 58.0674C50.6618 58.9116 52.2714 59.214 53.7788 58.8971Z" fill="#F1F1F1"/>
<path d="M-1.79395 218.324C-3.30136 218.641 -4.65333 219.564 -5.49485 220.856C-6.3359 222.151 -6.63972 223.754 -6.3223 225.264C-6.0044 226.776 -5.08079 228.12 -3.78903 228.969C-2.49869 229.811 -0.89005 230.109 0.617367 229.792C2.12478 229.475 3.47722 228.554 4.31921 227.264C5.15979 225.967 5.46361 224.364 5.14572 222.852C4.82829 221.343 3.90468 219.998 2.6134 219.151C1.32258 218.307 -0.28653 218.007 -1.79395 218.324Z" fill="#F1F1F1"/>
</g>
<defs>
<clipPath id="clip0">
<rect x="-188" y="61.7296" width="300" height="299.998" transform="rotate(-11.8743 -188 61.7296)" fill="white"/>
</clipPath>
</defs>
</svg>
