<svg width="244" height="244" viewBox="0 0 244 244" fill="none" xmlns="http://www.w3.org/2000/svg">
<g clip-path="url(#clip0)">
<path d="M204.42 113.889L229.988 98.5256C231.042 97.8935 231.736 96.8006 231.862 95.5785C231.988 94.3568 231.531 93.1451 230.629 92.31L209.394 72.6656C207.81 71.2014 205.339 71.2977 203.874 72.8807C202.409 74.4656 202.504 76.9362 204.089 78.4007L221.503 94.5104L199.561 107.694L145.039 57.2554L166.98 44.0719L182.302 58.2477C183.886 59.7119 186.358 59.6174 187.822 58.0325C189.288 56.4495 189.192 53.9771 187.607 52.5126L170.133 36.3456C168.858 35.1658 166.956 34.9701 165.469 35.8652L139.899 51.2293L124.534 25.6591C123.64 24.1701 121.869 23.4518 120.191 23.8936L40.5022 44.9061C39.3137 45.2199 38.3413 46.0736 37.8794 47.2134C37.4164 48.3513 37.516 49.6421 38.1499 50.6949L53.5129 76.2633L27.9449 91.6248C26.8906 92.2583 26.197 93.3497 26.0712 94.5733C25.9443 95.795 26.4018 97.0068 27.3042 97.8403L45.585 114.753L35.892 153.629C35.5469 155.013 35.983 156.474 37.0295 157.443L97.526 213.406C98.0166 213.86 98.6056 214.172 99.2334 214.329C99.8611 214.485 100.528 214.486 101.174 214.316L180.862 193.305C182.241 192.941 183.312 191.855 183.657 190.471L193.35 151.595L217.431 145.246C218.619 144.932 219.592 144.077 220.053 142.938C220.516 141.801 220.417 140.51 219.783 139.457L204.42 113.889ZM120.449 129.238L66.7495 79.5619L137.485 60.9092L191.184 110.587L120.449 129.238ZM119.349 32.1962L132.531 54.1369L60.7116 73.0745L47.528 51.1334L119.349 32.1962ZM58.3753 82.4576L112.897 132.896L90.9544 146.08L36.4308 95.6418L58.3753 82.4576ZM176.636 186.339L105.566 205.079L115.226 166.334C115.748 164.24 114.474 162.121 112.38 161.599C110.287 161.077 108.167 162.35 107.645 164.444L97.9851 203.189L44.0314 153.277L52.1274 120.806L87.8 153.806C88.2947 154.263 88.884 154.574 89.5059 154.729C90.4875 154.973 91.554 154.833 92.464 154.287L118.034 138.923L133.398 164.493C133.945 165.404 134.821 166.027 135.803 166.272C136.425 166.427 137.091 166.429 137.742 166.258L184.732 153.868L176.636 186.339ZM138.585 157.956L125.401 136.012L197.22 117.075L210.407 139.017L138.585 157.956Z" fill="#F1F1F1" fill-opacity="0.05"/>
<path d="M203.734 113.718L204.162 113.46L229.731 98.097L229.731 98.0968C230.65 97.5459 231.255 96.5931 231.364 95.5275L231.364 95.5269C231.475 94.4622 231.076 93.4055 230.289 92.6771C230.289 92.677 230.289 92.677 230.289 92.677L209.054 73.0326C207.674 71.756 205.519 71.8398 204.24 73.2204C202.963 74.603 203.047 76.7569 204.428 78.0335L204.428 78.0337L221.843 94.1433L222.332 94.5958L221.761 94.939L199.818 108.122L199.497 108.315L199.221 108.061L144.699 57.6225L144.21 57.17L144.781 56.8268L166.722 43.6433L167.044 43.45L167.319 43.7049L182.642 57.8806C184.023 59.1576 186.178 59.0748 187.455 57.6932L187.455 57.6929C188.733 56.3126 188.65 54.1567 187.268 52.8798L187.268 52.8796L169.793 36.7126M203.734 113.718L169.793 36.7126M203.734 113.718L203.991 114.146M203.734 113.718L203.991 114.146M169.793 36.7126C168.681 35.6838 167.023 35.5133 165.727 36.2936L165.726 36.2938L140.156 51.6579L139.728 51.9154L139.47 51.4869L124.106 25.9166C123.326 24.6184 121.782 23.9919 120.318 24.3771M169.793 36.7126L120.318 24.3771M120.318 24.3771C120.318 24.3771 120.318 24.3771 120.318 24.3771M120.318 24.3771L120.318 24.3771M120.318 24.3771L40.6298 45.3895C39.593 45.6633 38.7453 46.4078 38.3428 47.4011L38.3425 47.4018C37.9388 48.394 38.0258 49.5194 38.5783 50.437L38.5785 50.4374L53.9415 76.0057L54.1991 76.4343L53.7704 76.6919L28.2024 92.0534C27.283 92.6058 26.6783 93.5574 26.5686 94.6245L26.5686 94.625C26.458 95.6898 26.8567 96.7463 27.6435 97.4731L27.6437 97.4733L45.9246 114.386L46.1417 114.586L46.0702 114.873L36.3772 153.75C36.0762 154.957 36.4565 156.231 37.369 157.076C37.3691 157.076 37.3691 157.076 37.3691 157.076L97.8655 213.039L97.8656 213.039C98.2934 213.435 98.8068 213.707 99.3543 213.843C99.9019 213.98 100.483 213.981 101.046 213.832L101.047 213.832L180.735 192.821C180.735 192.821 180.735 192.821 180.735 192.821M120.318 24.3771L180.735 192.821M203.991 114.146L219.354 139.714L219.355 139.715C219.907 140.632 219.994 141.758 219.59 142.75L219.59 142.751C219.188 143.743 218.34 144.489 217.303 144.762M203.991 114.146L204.848 113.631M204.848 113.631L229.988 98.5256C231.042 97.8935 231.736 96.8006 231.862 95.5785L204.848 113.631ZM204.848 113.631L204.42 113.889L204.677 114.317L219.783 139.457C220.417 140.51 220.516 141.801 220.053 142.938C219.592 144.077 218.619 144.932 217.431 145.246M217.431 145.246L217.303 144.762L217.303 144.762M217.431 145.246L193.35 151.595L217.431 145.246ZM217.303 144.762L193.223 151.111L192.937 151.186L192.865 151.474L183.172 190.35C182.871 191.557 181.937 192.504 180.735 192.821M217.303 144.762L180.735 192.821M177.049 186.747L176.763 186.823L105.693 205.562L104.876 205.777L105.08 204.958L114.74 166.213C115.196 164.387 114.085 162.539 112.259 162.084C110.434 161.629 108.586 162.739 108.13 164.565L98.4702 203.309L98.2658 204.129L97.6456 203.556L43.6918 153.644L43.4746 153.443L43.5462 153.156L51.6423 120.685L51.8467 119.865L52.467 120.439L88.1391 153.439L177.049 186.747ZM177.049 186.747L177.121 186.46M177.049 186.747L177.121 186.46M177.121 186.46L185.217 153.989L185.421 153.169L184.604 153.384L137.615 165.775L177.121 186.46ZM118.205 138.236L118.463 138.665L133.827 164.235L133.827 164.236C134.303 165.03 135.067 165.573 135.924 165.787C136.465 165.922 137.046 165.924 137.615 165.775L118.205 138.236ZM118.205 138.236L117.777 138.494M118.205 138.236L117.777 138.494M117.777 138.494L92.2065 153.858C91.4131 154.335 90.4832 154.457 89.6268 154.243C89.0853 154.108 88.5714 153.838 88.1395 153.439L117.777 138.494ZM120.109 129.605L120.311 129.792L120.576 129.722L191.312 111.07L192.192 110.838L191.524 110.22L137.825 60.5422L137.623 60.3557L137.358 60.4257L66.622 79.0785L65.7415 79.3106L66.4099 79.929L120.109 129.605ZM119.778 31.9387L119.584 31.617L119.221 31.7127L47.4005 50.65L46.7563 50.8198L47.0994 51.391L60.283 73.3321L60.4762 73.6537L60.8391 73.558L132.659 54.6204L133.303 54.4505L132.96 53.8794L119.778 31.9387ZM58.7148 82.0905L58.4394 81.8357L58.1178 82.029L36.1733 95.2132L35.6022 95.5564L36.0913 96.0089L90.6149 146.447L90.8903 146.702L91.212 146.509L113.155 133.324L113.726 132.981L113.237 132.529L58.7148 82.0905ZM138.157 158.214L138.35 158.535L138.713 158.44L210.534 139.501L211.178 139.331L210.835 138.76L197.649 116.818L197.455 116.496L197.093 116.592L125.274 135.528L124.629 135.698L124.972 136.269L138.157 158.214Z" stroke="#F1F1F1" stroke-opacity="0.05" stroke-width="0.999999"/>
<path d="M195.236 69.5538C196.233 69.8022 197.308 69.6394 198.193 69.11C199.074 68.581 199.723 67.705 199.971 66.7086C200.22 65.7107 200.058 64.6324 199.529 63.7519C199 62.87 198.123 62.2218 197.126 61.9733C196.125 61.7238 195.05 61.8851 194.169 62.4156C193.285 62.9435 192.64 63.8206 192.391 64.8185C192.142 65.8149 192.3 66.8921 192.834 67.7737C193.362 68.6556 194.24 69.3053 195.236 69.5538Z" fill="#F1F1F1" fill-opacity="0.05"/>
<path d="M115.517 149.015C114.521 148.767 113.441 148.927 112.561 149.458C111.679 149.99 111.031 150.863 110.782 151.861C110.533 152.86 110.696 153.935 111.224 154.82C111.753 155.701 112.631 156.347 113.627 156.596C114.624 156.844 115.703 156.685 116.583 156.156C117.465 155.623 118.113 154.75 118.363 153.751C118.611 152.753 118.449 151.677 117.92 150.794C117.392 149.912 116.514 149.264 115.517 149.015Z" fill="#F1F1F1" fill-opacity="0.05"/>
</g>
<defs>
<clipPath id="clip0">
<rect x="49.3828" y="0.911133" width="200" height="200" transform="rotate(14 49.3828 0.911133)" fill="white"/>
</clipPath>
</defs>
</svg>
