<svg width="108" height="114" viewBox="0 0 108 114" fill="none" xmlns="http://www.w3.org/2000/svg">
<path d="M77.4968 29.1158C77.0576 25.1323 74.4733 22.0107 71.4901 22.2904C68.507 22.57 66.3611 25.9549 66.7575 30.1226C67.1967 34.106 69.7811 37.2276 72.7642 36.948C75.5627 36.6256 77.7513 33.0565 77.4968 29.1158Z" fill="white"/>
<path d="M60.2197 29.7737C62.9755 29.6355 65.4179 32.5302 65.6724 36.4709C65.9269 40.4116 64.0082 43.655 61.4371 43.836C58.6813 43.9742 56.2389 41.0795 55.9844 37.1388C55.5026 33.3396 57.4212 30.0962 60.2197 29.7737Z" fill="white"/>
<path d="M80.4736 38.9272C78.0592 37.5917 77.8473 33.4668 80.036 29.8977C82.2246 26.3287 85.961 24.4767 88.5175 26.0391C90.9319 27.3745 91.1437 31.4995 88.9551 35.0685C86.7665 38.6376 83.0727 40.3054 80.4736 38.9272Z" fill="white"/>
<path d="M87.0949 41.4308C89.2409 38.0459 92.75 36.3354 95.1644 37.6708C97.5789 39.0063 97.6487 42.9042 95.5028 46.2891C93.3568 49.6739 89.8477 51.3845 87.4332 50.049C85.2461 48.5721 84.9489 44.8156 87.0949 41.4308Z" fill="white"/>
<path d="M76.243 38.724L76.797 38.8523C76.797 38.8523 87.0801 43.1744 84.2639 55.3321C82.557 62.7004 77.1889 58.1578 77.1889 58.1578C77.1889 58.1578 75.2012 54.9803 73.17 54.5099L72.6161 54.3817C70.4003 53.8686 67.4024 55.8916 67.4024 55.8916C67.4024 55.8916 60.5835 57.6121 62.4323 50.4707C65.1066 38.086 76.243 38.724 76.243 38.724Z" fill="white"/>
<path d="M31.3727 62.556C28.7127 59.5304 24.7971 58.4499 22.5204 60.3985C20.2437 62.347 20.445 66.3691 23.1766 69.5708C25.8367 72.5964 29.7523 73.6769 32.029 71.7284C34.13 69.851 33.8572 65.6528 31.3727 62.556Z" fill="white"/>
<path d="M17.6347 73.0476C19.8073 71.3464 23.4758 72.3219 25.9602 75.4186C28.4447 78.5154 28.7501 82.2901 26.7531 83.9201C24.5805 85.6213 20.912 84.6458 18.4276 81.549C15.839 78.6996 15.5336 74.925 17.6347 73.0476Z" fill="white"/>
<path d="M39.4768 68.9146C36.7319 69.2063 34.1759 65.9334 33.9031 61.7351C33.6302 57.5369 35.6144 53.8603 38.6064 53.6736C41.3513 53.382 43.9073 56.6549 44.1801 60.8531C44.453 65.0513 42.3973 68.5518 39.4768 68.9146Z" fill="white"/>
<path d="M46.3321 67.1619C46.1308 63.1399 48.0108 59.7106 50.7557 59.4189C53.5006 59.1273 55.8095 62.2952 56.0108 66.3172C56.2121 70.3393 54.332 73.7685 51.5871 74.0602C48.9463 74.1045 46.5334 71.1839 46.3321 67.1619Z" fill="white"/>
<path d="M35.8962 71.1847L36.4231 70.9711C36.4231 70.9711 47.3247 68.6049 52.046 80.2335C54.8359 87.1049 47.9998 86.3873 47.9998 86.3873C47.9998 86.3873 44.5395 84.917 42.6076 85.7L42.0807 85.9135C39.9732 86.7676 38.6916 90.1595 38.6916 90.1595C38.6916 90.1595 34.112 95.5035 31.4978 88.5609C26.4253 77.0747 35.8962 71.1847 35.8962 71.1847Z" fill="white"/>
</svg>
