<svg width="40" height="41" viewBox="0 0 40 41" fill="none" xmlns="http://www.w3.org/2000/svg">
<path d="M26.4354 7.98926H13.5646C9.95107 7.98926 7.01172 10.9276 7.01172 14.539V27.4037C7.01172 31.0155 9.95107 33.953 13.5646 33.953H26.4354C30.0489 33.953 32.9879 31.0155 32.9879 27.4037V14.539C32.9879 10.9276 30.0489 7.98926 26.4354 7.98926ZM30.1613 27.4037C30.1613 29.4573 28.4896 31.1282 26.4354 31.1282H13.5646C11.5103 31.1282 9.83872 29.4573 9.83872 27.4037V14.539C9.83872 12.4857 11.5103 10.8153 13.5646 10.8153H26.4354C28.4896 10.8153 30.1613 12.4857 30.1613 14.539V27.4037Z" fill="white"/>
<path d="M26.9038 15.6669C26.0307 15.6669 25.3203 14.9572 25.3203 14.0846C25.3203 13.2123 26.0307 12.5027 26.9038 12.5027C27.7768 12.5027 28.4868 13.2123 28.4868 14.0846C28.4868 14.9572 27.7768 15.6669 26.9038 15.6669Z" fill="white"/>
<path d="M19.9983 14.2832C16.31 14.2832 13.3086 17.2827 13.3086 20.9698C13.3086 24.6568 16.31 27.6567 19.9983 27.6567C23.6875 27.6567 26.6889 24.6568 26.6889 20.9698C26.6889 17.2831 23.6875 14.2832 19.9983 14.2832ZM19.9983 24.8319C17.8692 24.8319 16.1352 23.0991 16.1352 20.9698C16.1352 18.8413 17.8692 17.1093 19.9983 17.1093C22.1287 17.1093 23.8615 18.8413 23.8615 20.9698C23.8615 23.0991 22.1287 24.8319 19.9983 24.8319Z" fill="white"/>
</svg>
