<svg width="105" height="30" viewBox="0 0 105 30" fill="none" xmlns="http://www.w3.org/2000/svg">
<g clip-path="url(#clip0)">
<path d="M11.6376 12.3574C14.2448 12.9066 16.9839 10.602 17.7245 7.21852C18.4651 3.83506 16.9738 0.628159 14.3665 0.07896C11.7593 -0.470239 9.02017 1.83444 8.27959 5.2277C7.53901 8.62097 9.03031 11.8082 11.6376 12.3574Z" fill="white"/>
<path d="M24.3276 21.2816C24.2654 21.1507 24.2112 21.0164 24.1652 20.8795C23.6073 18.4669 21.2841 15.2796 16.5972 14.2303H16.4146C14.6728 13.7778 12.8337 13.8142 11.1126 14.3353C9.39142 14.8563 7.8594 15.8404 6.6957 17.1724C6.60692 17.2573 6.51196 17.3359 6.41161 17.4078C6.26971 17.5111 6.13424 17.6224 6.00585 17.7412C4.75141 18.9129 3.90116 20.43 3.57104 22.0858C3.40291 22.8061 3.41948 23.5553 3.61928 24.2681C3.81908 24.9808 4.19606 25.6356 4.71743 26.1753C5.11755 26.5584 5.61974 26.8265 6.16814 26.9501C7.42081 27.0642 8.68223 26.8508 9.82035 26.3322C10.7004 26.007 11.6063 25.7513 12.529 25.5673C12.9261 25.5844 13.3204 25.6402 13.7058 25.734C14.1972 25.8184 14.6772 25.9566 15.1363 26.1459C15.8635 26.6844 16.5423 27.2815 17.1653 27.9308C17.9496 28.8924 19.0074 29.6116 20.2087 30.0001C20.7009 30.1012 21.2121 30.0742 21.6899 29.9217C24.4594 29.0881 25.7478 25.479 24.6015 21.8798C24.5238 21.6748 24.4323 21.475 24.3276 21.2816Z" fill="white"/>
<path d="M21.7 14.4754C24.3072 15.0246 27.0565 12.72 27.787 9.32669C28.5174 5.93342 27.0362 2.74609 24.429 2.19689C21.8217 1.64769 19.0826 3.95236 18.342 7.33581C17.6014 10.7193 19.0928 13.9066 21.7 14.4754Z" fill="white"/>
<path d="M30.1825 12.9253C28.0927 12.4839 25.9826 14.2394 25.384 16.9168C24.7855 19.5941 25.942 22.0361 28.0318 22.4774C30.1217 22.9187 32.2419 21.1632 32.8405 18.4859C33.439 15.8085 32.2724 13.396 30.1825 12.9253Z" fill="white"/>
<path d="M7.61897 13.2101C8.21752 10.5328 7.05086 8.09083 4.961 7.65932C2.87115 7.22781 0.761014 9.0029 0.152318 11.6508C-0.456378 14.2988 0.710284 16.7603 2.81028 17.2016C4.91028 17.643 7.02042 15.8679 7.61897 13.2101Z" fill="white"/>
<path d="M50.258 13.3181L45.2869 20.5459H50.4304V22.576H42.5782V20.6832L47.5492 13.4553H42.7608V11.4351H50.2884L50.258 13.3181Z" fill="white"/>
<path d="M54.1942 22.1739C53.5395 21.854 52.9989 21.352 52.642 20.7323C52.2668 20.0756 52.0778 19.3346 52.0942 18.5846V15.4266C52.0765 14.6733 52.2655 13.9289 52.642 13.2691C53.0018 12.6516 53.5416 12.1503 54.1942 11.8274C54.9159 11.4919 55.7064 11.3176 56.5072 11.3176C57.3081 11.3176 58.0986 11.4919 58.8203 11.8274C59.4729 12.1503 60.0127 12.6516 60.3725 13.2691C60.749 13.9289 60.938 14.6733 60.9203 15.4266V18.5846C60.9367 19.3346 60.7477 20.0756 60.3725 20.7323C60.0156 21.352 59.475 21.854 58.8203 22.1739C58.0986 22.5095 57.3081 22.6838 56.5072 22.6838C55.7064 22.6838 54.9159 22.5095 54.1942 22.1739ZM57.5826 20.3498C57.8879 20.1952 58.1387 19.9562 58.3029 19.6633C58.4708 19.362 58.558 19.0249 58.5565 18.6826V15.4168C58.5585 15.0745 58.4712 14.7373 58.3029 14.4361C58.1446 14.139 57.8922 13.8985 57.5826 13.7497C57.2522 13.5792 56.8816 13.4947 56.5072 13.5045C56.1296 13.4948 55.7558 13.5793 55.4217 13.7497C55.1164 13.9042 54.8657 14.1432 54.7015 14.4361C54.5374 14.7388 54.4505 15.0751 54.4478 15.4168V18.6826C54.4509 19.0243 54.5378 19.3604 54.7015 19.6633C54.8716 19.9519 55.1208 20.1894 55.4217 20.3498C55.7584 20.5125 56.131 20.5933 56.5072 20.5852C56.8802 20.5933 57.2496 20.5124 57.5826 20.3498Z" fill="white"/>
<path d="M65.1792 22.1749C64.5245 21.855 63.9839 21.3529 63.6271 20.7332C63.2518 20.0765 63.0629 19.3356 63.0793 18.5855V15.4275C63.0616 14.6742 63.2506 13.9298 63.6271 13.27C63.9868 12.6525 64.5266 12.1512 65.1792 11.8283C65.9026 11.4926 66.6949 11.3184 67.4974 11.3184C68.2998 11.3184 69.092 11.4926 69.8154 11.8283C70.468 12.1512 71.0079 12.6525 71.3676 13.27C71.7442 13.9298 71.9332 14.6742 71.9155 15.4275V18.5855C71.9318 19.3356 71.7429 20.0765 71.3676 20.7332C71.0108 21.3529 70.4702 21.855 69.8154 22.1749C69.092 22.5106 68.2998 22.6849 67.4974 22.6849C66.6949 22.6849 65.9026 22.5106 65.1792 22.1749ZM68.5778 20.3507C68.881 20.1934 69.131 19.9551 69.298 19.6642C69.466 19.3629 69.5532 19.0258 69.5517 18.6835V15.4177C69.5536 15.0754 69.4664 14.7382 69.298 14.437C69.1369 14.1419 68.8854 13.9021 68.5778 13.7506C68.2421 13.5891 67.8723 13.505 67.4974 13.505C67.1224 13.505 66.7526 13.5891 66.4169 13.7506C66.1093 13.9021 65.8577 14.1419 65.6966 14.437C65.5283 14.7382 65.4411 15.0754 65.443 15.4177V18.6835C65.4415 19.0258 65.5287 19.3629 65.6966 19.6642C65.8637 19.9551 66.1137 20.1934 66.4169 20.3507C66.7545 20.5059 67.1236 20.5864 67.4974 20.5864C67.8711 20.5864 68.2402 20.5059 68.5778 20.3507Z" fill="white"/>
<path d="M74.3203 11.4355H76.6029V22.5765H74.3203V11.4355ZM75.3348 20.5464H79.1899C79.622 20.5774 80.0511 20.4554 80.3971 20.2031C80.5434 20.0835 80.659 19.9326 80.7347 19.7624C80.8104 19.5923 80.8442 19.4074 80.8334 19.2224C80.8374 18.9682 80.7709 18.7176 80.6406 18.4967C80.5024 18.2946 80.3045 18.1373 80.0725 18.0455C79.7934 17.9327 79.4923 17.8792 79.1899 17.8887H75.3348V15.8684H79.1899C79.5848 15.8891 79.9741 15.7706 80.2855 15.5349C80.4155 15.4178 80.5174 15.2746 80.584 15.1153C80.6506 14.9561 80.6803 14.7846 80.671 14.613C80.6782 14.4533 80.6472 14.2941 80.5803 14.1478C80.5135 14.0015 80.4126 13.8721 80.2855 13.7696C79.9649 13.5554 79.5789 13.4517 79.1899 13.4754H75.3348V11.4552H79.2812C79.9756 11.4345 80.6668 11.5548 81.3102 11.8082C81.8254 12.0042 82.2674 12.346 82.5783 12.7889C82.8721 13.2835 83.0195 13.8468 83.0044 14.417C83.0133 14.8186 82.9193 15.2162 82.7305 15.5742C82.5403 15.9135 82.2601 16.1977 81.9189 16.3979C81.5277 16.6264 81.093 16.7765 80.6406 16.8393C81.122 16.8872 81.5863 17.038 82 17.2806C82.3701 17.5036 82.6714 17.8186 82.8725 18.1927C83.0739 18.596 83.1747 19.0394 83.1667 19.4872C83.1812 20.0617 83.0302 20.6287 82.7305 21.125C82.4273 21.5922 81.9802 21.9557 81.4522 22.1645C80.8093 22.4205 80.1183 22.5441 79.4232 22.5274H75.3653L75.3348 20.5464Z" fill="white"/>
<path d="M85.3711 11.4247H87.6537V22.5754H85.3711V11.4247ZM86.274 16.0635H90.4436C90.6611 16.069 90.8757 16.0145 91.0624 15.9065C91.2408 15.7939 91.3817 15.6338 91.4682 15.4456C91.5717 15.2304 91.627 14.9964 91.6305 14.7591C91.6352 14.5188 91.5832 14.2807 91.4784 14.0628C91.395 13.8752 91.2531 13.7176 91.0725 13.6117C90.8835 13.4994 90.6653 13.4416 90.4436 13.445H86.2334V11.4247H90.6262C91.2383 11.4116 91.8434 11.5537 92.3812 11.8366C92.8793 12.1107 93.2873 12.5153 93.5581 13.0036C93.8318 13.5493 93.974 14.1478 93.974 14.7542C93.974 15.3606 93.8318 15.9592 93.5581 16.5048C93.2924 16.9968 92.8832 17.4026 92.3812 17.6718C91.8456 17.9613 91.2396 18.1069 90.6262 18.0935H86.2334L86.274 16.0635ZM88.8204 17.7404L91.2551 17.3874L94.5218 22.5754H91.7624L88.8204 17.7404Z" fill="white"/>
<path d="M98.2739 22.1739C97.6192 21.854 97.0786 21.352 96.7218 20.7323C96.3466 20.0756 96.1576 19.3346 96.174 18.5846V15.4266C96.1563 14.6733 96.3453 13.9289 96.7218 13.2691C97.0816 12.6516 97.6214 12.1503 98.2739 11.8274C98.9956 11.4919 99.7862 11.3176 100.587 11.3176C101.388 11.3176 102.178 11.4919 102.9 11.8274C103.553 12.1503 104.092 12.6516 104.452 13.2691C104.829 13.9289 105.018 14.6733 105 15.4266V18.5846C105.016 19.3346 104.827 20.0756 104.452 20.7323C104.095 21.352 103.555 21.854 102.9 22.1739C102.178 22.5095 101.388 22.6838 100.587 22.6838C99.7862 22.6838 98.9956 22.5095 98.2739 22.1739ZM101.662 20.3498C101.968 20.1952 102.218 19.9562 102.383 19.6633C102.551 19.362 102.638 19.0249 102.636 18.6826V15.4168C102.638 15.0745 102.551 14.7373 102.383 14.4361C102.224 14.139 101.972 13.8985 101.662 13.7497C101.332 13.5792 100.961 13.4947 100.587 13.5045C100.209 13.4948 99.8356 13.5793 99.5015 13.7497C99.1962 13.9042 98.9454 14.1432 98.7812 14.4361C98.6171 14.7388 98.5302 15.0751 98.5276 15.4168V18.6826C98.5306 19.0243 98.6175 19.3604 98.7812 19.6633C98.9513 19.9519 99.2006 20.1894 99.5015 20.3498C99.8381 20.5125 100.211 20.5933 100.587 20.5852C100.96 20.5933 101.329 20.5124 101.662 20.3498Z" fill="white"/>
</g>
<defs>
<clipPath id="clip0">
<rect width="105" height="30" fill="white"/>
</clipPath>
</defs>
</svg>
