<svg width="22" height="22" viewBox="0 0 22 22" fill="none" xmlns="http://www.w3.org/2000/svg">
<path d="M9.09091 3.94477C9.71667 3.79829 10.3573 3.72508 11 3.72659C17.3636 3.72659 21 10.9993 21 10.9993C20.4482 12.0317 19.7901 13.0036 19.0364 13.8993M12.9273 12.9266C12.6776 13.1945 12.3765 13.4095 12.042 13.5585C11.7074 13.7076 11.3463 13.7877 10.9801 13.7942C10.6139 13.8007 10.2501 13.7333 9.91056 13.5961C9.57096 13.459 9.26248 13.2548 9.0035 12.9958C8.74452 12.7368 8.54036 12.4284 8.40319 12.0888C8.26602 11.7492 8.19866 11.3854 8.20512 11.0192C8.21158 10.653 8.29174 10.2919 8.4408 9.95736C8.58986 9.62281 8.80478 9.32172 9.07273 9.07204M16.4 16.3993C14.846 17.5839 12.9537 18.2401 11 18.272C4.63636 18.272 1 10.9993 1 10.9993C2.13081 8.89194 3.69921 7.05077 5.6 5.59931L16.4 16.3993Z" stroke="#B5B6B6" stroke-width="1.5" stroke-linecap="round" stroke-linejoin="round"/>
<path d="M1 1L21 21" stroke="#B5B6B6" stroke-width="1.5" stroke-linecap="round" stroke-linejoin="round"/>
</svg>
