<svg class="paw" width="42" height="35" viewBox="0 0 42 35" fill="none" xmlns="http://www.w3.org/2000/svg">
<path d="M31.8912 8.69695L31.8901 8.70048C31.3185 10.5584 30.2523 12.0386 29.011 12.9435C27.7703 13.8479 26.3823 14.1629 25.1162 13.77L25.1163 13.7699L25.1054 13.7668C23.9069 13.4243 22.9807 12.4054 22.492 10.9508C22.0038 9.49793 21.9733 7.65569 22.5459 5.79457C23.1176 3.93665 24.1838 2.45641 25.4251 1.55157C26.6649 0.647748 28.052 0.332546 29.3174 0.724307C30.5257 1.11369 31.4552 2.16437 31.9441 3.61928C32.4326 5.07323 32.462 6.88937 31.8912 8.69695Z" fill="#FAFAFA" stroke="#45A6CF"/>
<path d="M32.3433 15.7044C32.9163 13.9374 33.9126 12.5274 35.0465 11.6597C36.1808 10.7916 37.4155 10.488 38.5206 10.828C39.6163 11.1651 40.4467 12.1277 40.8641 13.5074C41.2809 14.8852 41.2647 16.6302 40.692 18.3959C40.119 20.1628 39.1227 21.5728 37.9888 22.4405C36.8545 23.3086 35.6198 23.6122 34.5147 23.2722C33.419 22.9351 32.5886 21.9725 32.1712 20.5928C31.7544 19.215 31.7706 17.47 32.3433 15.7044Z" fill="#FAFAFA" stroke="#45A6CF"/>
<path d="M16.626 14.0694L16.6179 14.0718L16.6099 14.0745C15.4713 14.454 14.17 14.1159 12.9406 13.1441C11.7147 12.175 10.6152 10.6109 9.94122 8.68717C9.31997 6.82125 9.28023 4.97623 9.69882 3.51119C10.1173 2.04647 10.9738 1.0108 12.1182 0.625848C13.266 0.289224 14.5985 0.636143 15.8371 1.59431C17.0745 2.5515 18.1702 4.08852 18.7925 6.00337C19.4167 7.92378 19.4559 9.79626 19.0373 11.2615C18.6181 12.7288 17.7625 13.7327 16.626 14.0694Z" fill="#FAFAFA" stroke="#45A6CF"/>
<path d="M9.39492 15.7117L9.39491 15.7117L9.39627 15.7156C10.0175 17.4837 10.08 19.2285 9.69869 20.6037C9.31721 21.9793 8.51197 22.9362 7.42096 23.2719C6.32256 23.6099 5.06389 23.2886 3.88612 22.3791C2.71107 21.4716 1.6637 20.0079 1.04109 18.188L1.0411 18.188L1.03973 18.1841C0.418501 16.4159 0.355974 14.6711 0.737321 13.2959C1.1188 11.9203 1.92404 10.9634 3.01505 10.6277C4.11345 10.2897 5.37212 10.611 6.54989 11.5205C7.72494 12.428 8.77231 13.8917 9.39492 15.7117Z" fill="#FAFAFA" stroke="#45A6CF"/>
<path d="M10.0681 29.9492L10.068 29.9453C10.0194 23.7681 12.6583 20.2884 15.2791 18.3378C16.5987 17.3557 17.9234 16.7548 18.9188 16.3999C19.4159 16.2226 19.8288 16.1074 20.1152 16.0369C20.2583 16.0016 20.3695 15.9776 20.4436 15.9626C20.4722 15.9569 20.4952 15.9524 20.5123 15.9492H21.0238C21.041 15.9524 21.0641 15.9569 21.0926 15.9626C21.1668 15.9776 21.2781 16.0016 21.4213 16.0367C21.7077 16.1071 22.1208 16.222 22.6179 16.3985C23.6136 16.7521 24.9386 17.35 26.2582 18.3262C28.8793 20.2651 31.5167 23.7197 31.4681 29.8453L31.468 29.8452L31.4681 29.8559C31.4923 31.6727 31.1323 32.7451 30.6592 33.3667C30.1987 33.9719 29.5811 34.2146 28.9191 34.2631C28.2429 34.3125 27.5422 34.1553 26.9926 33.9731C26.7214 33.8832 26.4953 33.79 26.3381 33.7198C26.262 33.6858 26.2025 33.6575 26.1622 33.6377C26.1439 33.62 26.1214 33.5986 26.0951 33.5737C26.0158 33.499 25.9011 33.3933 25.757 33.2669C25.4693 33.0148 25.0613 32.678 24.5805 32.3401C23.6442 31.6821 22.3338 30.9492 21.0681 30.9492H21.0267L20.9859 30.956L20.425 31.0495C19.1726 31.0658 17.8813 31.7896 16.9556 32.4401C16.4748 32.778 16.0668 33.1148 15.7791 33.3669C15.635 33.4933 15.5203 33.599 15.441 33.6737C15.4153 33.698 15.3933 33.719 15.3752 33.7365C15.3358 33.7554 15.2783 33.7823 15.2054 33.8143C15.0509 33.8819 14.8285 33.9716 14.5615 34.0577C14.0205 34.2321 13.3292 34.3808 12.6589 34.3259C12.0023 34.2721 11.3839 34.0265 10.9169 33.4218C10.4384 32.802 10.0681 31.7398 10.0681 29.9492Z" fill="#FAFAFA" stroke="#45A6CF"/>
</svg>