<svg width="128" height="144" viewBox="0 0 128 144" fill="none" xmlns="http://www.w3.org/2000/svg">
<path d="M57.6537 43.2263C49.5053 34.8072 37.9099 32.9652 31.6282 39.0494C25.6034 45.0032 27.3288 56.6812 35.3473 64.8444C43.4957 73.2636 55.0912 75.1055 61.3729 69.0214C67.5275 63.3236 65.8021 51.6455 57.6537 43.2263Z" fill="#F9F9F9"/>
<path d="M21.1112 76.8965C26.752 71.4594 37.4468 73.4364 45.3354 81.3436C53.2241 89.2508 55.2036 100.156 49.5627 105.593C43.9219 111.03 33.2271 109.053 25.3385 101.146C17.4499 93.239 15.4703 82.3336 21.1112 76.8965Z" fill="#F9F9F9"/>
<path d="M82.8303 59.1003C74.8545 60.572 66.963 52.0225 65.1077 40.0885C63.2524 28.1544 68.4836 17.4531 76.4595 15.9814C84.5652 14.7657 92.4567 23.3152 94.1821 34.9933C95.7805 47.0576 90.936 57.8846 82.8303 59.1003Z" fill="#F9F9F9"/>
<path d="M101.857 52.666C100.261 41.244 105.108 31.0593 112.827 29.718C120.546 28.3767 127.921 36.5446 129.387 47.7106C130.982 59.1327 126.135 69.3173 118.416 70.6587C110.697 72 103.322 63.8321 101.857 52.666Z" fill="#F9F9F9"/>
<path d="M72.9566 67.0102L74.4981 66.2281C74.4981 66.2281 105.097 56.4968 121.335 89.1373C130.946 108.08 111.118 107.84 111.118 107.84C111.118 107.84 101.061 104.574 95.409 107.442L93.7376 107.968C88.0854 110.836 84.7825 120.881 84.7825 120.881C84.7825 120.881 73.1396 137.41 63.6554 118.081C47.0335 85.957 72.9566 67.0102 72.9566 67.0102Z" fill="#F9F9F9"/>
</svg>
