<svg width="212" height="206" viewBox="0 0 212 206" fill="none" xmlns="http://www.w3.org/2000/svg">
<path d="M44.2771 149.955C46.0212 149.173 47.8265 148.944 49.3232 149.217C50.8188 149.49 51.9655 150.25 52.5087 151.416C53.5979 153.755 52.0563 157.06 48.395 158.77C46.652 159.551 44.8481 159.778 43.3523 159.506C41.8568 159.233 40.7101 158.473 40.1669 157.307C39.6211 156.135 39.7564 154.709 40.4933 153.346C41.2289 151.986 42.5476 150.731 44.2771 149.955Z" fill="#F1F1F1" stroke="white"/>
<path d="M43.7737 163.936C45.4512 163.09 47.1544 162.83 48.5654 163.053C49.9744 163.276 51.0599 163.97 51.6034 165.011C52.0731 165.966 51.956 167.179 51.2562 168.414C50.5573 169.646 49.3007 170.847 47.6174 171.695C45.9399 172.54 44.2366 172.8 42.8257 172.577C41.4167 172.355 40.3312 171.661 39.7877 170.619C39.318 169.665 39.4351 168.451 40.1349 167.217C40.8338 165.984 42.0904 164.784 43.7737 163.936Z" fill="#F1F1F1" stroke="white"/>
<path d="M40.795 138.777L40.8044 138.783L40.8139 138.788C41.9367 139.388 42.6045 140.594 42.7477 142.153C42.8908 143.712 42.4981 145.571 41.5517 147.34C40.6078 149.104 39.2698 150.422 37.9143 151.131C36.5549 151.842 35.2459 151.913 34.2641 151.334C33.1861 150.669 32.5174 149.444 32.3585 147.902C32.1995 146.359 32.5593 144.534 33.5037 142.769C34.4475 141.006 35.7856 139.687 37.141 138.978C38.5022 138.267 39.8128 138.196 40.795 138.777Z" fill="#F1F1F1" stroke="white"/>
<path d="M27.4521 138.951C28.4531 139.543 29.0624 140.687 29.1922 142.169C29.3218 143.649 28.9633 145.412 28.0832 147.117C27.2081 148.812 25.9744 150.031 24.7061 150.691C23.4436 151.348 22.1835 151.438 21.1798 150.969C20.1902 150.373 19.5878 149.234 19.4588 147.762C19.3292 146.282 19.6878 144.519 20.5678 142.814C21.4465 141.112 22.6864 139.827 23.9559 139.136C25.2255 138.444 26.4681 138.369 27.4521 138.951Z" fill="#F1F1F1" stroke="white"/>
<path d="M26.5526 171.395C26.5265 171.323 26.5067 171.265 26.4929 171.223C26.4938 171.201 26.4948 171.175 26.4958 171.146C26.4993 171.039 26.5025 170.885 26.5013 170.697C26.4988 170.32 26.4787 169.799 26.4078 169.223C26.2695 168.1 25.925 166.65 25.0311 165.706L24.6424 165.295C24.2174 164.847 23.644 164.524 23.0586 164.289C22.4688 164.052 21.8353 163.891 21.2604 163.781C20.6839 163.67 20.1554 163.608 19.7714 163.574C19.579 163.557 19.422 163.547 19.3122 163.541C19.2756 163.539 19.2442 163.538 19.2185 163.536C19.1779 163.521 19.1193 163.499 19.0463 163.468C18.892 163.404 18.6756 163.306 18.4314 163.174C17.9363 162.907 17.3579 162.515 16.941 161.999C16.5329 161.494 16.289 160.887 16.4065 160.142C16.527 159.378 17.0405 158.387 18.3336 157.163C22.7281 153.003 27.0454 152.557 30.2579 153.123C31.8747 153.408 33.2212 153.952 34.1637 154.425C34.6343 154.661 35.0023 154.878 35.2507 155.036C35.3749 155.114 35.469 155.177 35.531 155.22C35.5539 155.236 35.5724 155.249 35.5864 155.259L35.9111 155.602C35.9203 155.617 35.9322 155.636 35.9467 155.659C35.9861 155.724 36.044 155.821 36.1154 155.949C36.2582 156.205 36.4542 156.583 36.6621 157.063C37.0785 158.026 37.5391 159.39 37.719 161.001C38.0763 164.2 37.3356 168.415 32.8168 172.441L32.8064 172.45L32.7965 172.46C31.5351 173.717 30.5354 174.187 29.7766 174.27C29.0373 174.351 28.4415 174.074 27.9497 173.628C27.4483 173.174 27.0758 172.561 26.8253 172.04C26.7017 171.783 26.6115 171.556 26.5526 171.395Z" fill="#F1F1F1" stroke="white"/>
<path d="M105.043 133.708C105.782 132.342 107.074 131.052 108.74 130.21C110.481 129.431 112.282 129.204 113.776 129.477C115.272 129.749 116.419 130.51 116.962 131.676C118.051 134.014 116.509 137.319 112.848 139.029C111.105 139.81 109.301 140.038 107.805 139.765C106.312 139.493 105.166 138.734 104.622 137.571C104.142 136.474 104.301 135.082 105.043 133.708Z" fill="#F1F1F1" stroke="white"/>
<path d="M112.234 151.812L112.22 151.818L112.207 151.825C110.529 152.67 108.826 152.93 107.415 152.708C106.006 152.485 104.92 151.791 104.377 150.75C103.907 149.795 104.024 148.582 104.724 147.347C105.423 146.114 106.68 144.914 108.363 144.066C110.04 143.22 111.744 142.96 113.155 143.183C114.559 143.405 115.642 144.096 116.187 145.132C116.667 146.236 116.531 147.525 115.84 148.744C115.145 149.969 113.9 151.097 112.234 151.812Z" fill="#F1F1F1" stroke="white"/>
<path d="M105.248 119.036L105.257 119.041L105.266 119.046C106.389 119.646 107.057 120.852 107.2 122.412C107.343 123.971 106.951 125.83 106.004 127.598C105.06 129.362 103.722 130.68 102.367 131.389C101.006 132.101 99.6951 132.172 98.7129 131.591C97.7117 130.998 97.0685 129.819 96.9082 128.263C96.7488 126.716 97.0785 124.854 97.9612 123.019C98.9048 121.259 100.24 119.945 101.594 119.237C102.955 118.525 104.265 118.454 105.248 119.036Z" fill="#F1F1F1" stroke="white"/>
<path d="M92.0333 119.347C93.0343 119.939 93.6436 121.083 93.7734 122.565C93.903 124.045 93.5445 125.808 92.6644 127.513C91.7893 129.208 90.5557 130.427 89.2874 131.087C88.0249 131.744 86.7647 131.834 85.761 131.364C84.7714 130.769 84.169 129.63 84.04 128.158C83.9104 126.678 84.269 124.915 85.149 123.21C86.0277 121.508 87.2676 120.223 88.5371 119.532C89.8067 118.84 91.0493 118.765 92.0333 119.347Z" fill="#F1F1F1" stroke="white"/>
<path d="M91.1338 151.791C91.1078 151.719 91.0879 151.661 91.0742 151.619C91.0751 151.597 91.0761 151.571 91.0771 151.542C91.0806 151.435 91.0838 151.281 91.0825 151.093C91.0801 150.716 91.06 150.195 90.9891 149.619C90.8507 148.496 90.5063 147.046 89.6123 146.102L89.2236 145.692C88.7987 145.243 88.2252 144.92 87.6398 144.685C87.0501 144.448 86.4165 144.287 85.8416 144.177C85.2652 144.066 84.7367 144.004 84.3527 143.97C84.1603 143.953 84.0032 143.943 83.8934 143.937C83.8568 143.935 83.8255 143.934 83.7998 143.933C83.7592 143.917 83.7005 143.895 83.6275 143.864C83.4733 143.8 83.2569 143.702 83.0126 143.57C82.5175 143.303 81.9392 142.911 81.5222 142.395C81.1142 141.89 80.8703 141.283 80.9877 140.538C81.1083 139.774 81.6218 138.783 82.9149 137.559C87.3094 133.399 91.6266 132.953 94.8392 133.519C96.4559 133.804 97.8025 134.348 98.7449 134.821C99.2155 135.057 99.5836 135.274 99.832 135.432C99.9562 135.51 100.05 135.573 100.112 135.616C100.135 135.632 100.154 135.645 100.168 135.655L100.492 135.998C100.502 136.013 100.514 136.032 100.528 136.055C100.567 136.12 100.625 136.217 100.697 136.345C100.839 136.601 101.035 136.979 101.243 137.459C101.66 138.422 102.12 139.786 102.3 141.397C102.658 144.596 101.917 148.811 97.3981 152.837L97.3877 152.846L97.3778 152.856C96.1163 154.113 95.1166 154.583 94.3578 154.666C93.6186 154.747 93.0228 154.47 92.531 154.024C92.0295 153.57 91.657 152.957 91.4066 152.436C91.283 152.179 91.1928 151.952 91.1338 151.791Z" fill="#F1F1F1" stroke="white"/>
<path d="M122.528 61.3524C123.267 59.9863 124.559 58.6961 126.225 57.8536C127.966 57.075 129.767 56.8482 131.261 57.1206C132.757 57.3933 133.904 58.1537 134.447 59.3197C135.536 61.6579 133.994 64.9632 130.333 66.673C128.59 67.454 126.786 67.6818 125.29 67.409C123.797 67.1367 122.651 66.3781 122.107 65.2148C121.627 64.1182 121.786 62.7256 122.528 61.3524Z" fill="#F1F1F1" stroke="white"/>
<path d="M129.72 79.456L129.706 79.462L129.692 79.469C128.014 80.3143 126.311 80.5743 124.9 80.3515C123.491 80.129 122.406 79.4348 121.862 78.3934C121.393 77.439 121.51 76.2254 122.209 74.9909C122.908 73.7581 124.165 72.558 125.848 71.7097C127.526 70.8643 129.229 70.6044 130.64 70.8272C132.044 71.049 133.128 71.7396 133.673 72.7755C134.153 73.8799 134.016 75.1689 133.325 76.3877C132.631 77.6128 131.386 78.7412 129.72 79.456Z" fill="#F1F1F1" stroke="white"/>
<path d="M122.861 46.8172L122.871 46.8227L122.88 46.8279C124.003 47.4278 124.671 48.6337 124.814 50.1931C124.957 51.7525 124.565 53.6114 123.618 55.3799C122.674 57.1437 121.336 58.4618 119.981 59.1708C118.621 59.8818 117.312 59.9531 116.331 59.3744C115.253 58.7087 114.584 57.4843 114.425 55.942C114.266 54.3986 114.626 52.5743 115.57 50.8095C116.514 49.0457 117.852 47.7276 119.207 47.0186C120.569 46.3066 121.879 46.2361 122.861 46.8172Z" fill="#F1F1F1" stroke="white"/>
<path d="M109.519 46.9908C110.52 47.583 111.129 48.7272 111.259 50.2089C111.388 51.6885 111.03 53.4514 110.15 55.1567C109.275 56.8522 108.041 58.0704 106.773 58.7306C105.51 59.3878 104.25 59.4783 103.246 59.0084C102.257 58.413 101.654 57.2739 101.525 55.8017C101.396 54.3221 101.754 52.5592 102.634 50.8539C103.513 49.1514 104.753 47.8669 106.022 47.1756C107.292 46.4843 108.535 46.4086 109.519 46.9908Z" fill="#F1F1F1" stroke="white"/>
<path d="M108.612 79.7011C108.586 79.6297 108.566 79.5715 108.552 79.5295C108.553 79.5074 108.554 79.4818 108.555 79.4527C108.558 79.3454 108.562 79.1919 108.56 79.0032C108.558 78.6267 108.538 78.1059 108.467 77.53C108.329 76.4062 107.984 74.9569 107.09 74.0126L106.702 73.602C106.277 73.153 105.703 72.8309 105.118 72.5956C104.528 72.3586 103.894 72.1974 103.32 72.087C102.743 71.9764 102.215 71.9148 101.831 71.8808C101.638 71.8638 101.481 71.8536 101.371 71.8476C101.336 71.8457 101.306 71.8442 101.281 71.8431C101.24 71.827 101.18 71.803 101.106 71.7711C100.949 71.7031 100.728 71.5999 100.478 71.4607C99.9734 71.1789 99.3822 70.7662 98.9564 70.2257C98.5391 69.6959 98.2893 69.0578 98.4139 68.2793C98.5414 67.4825 99.0735 66.4588 100.4 65.2029C104.795 61.043 109.112 60.5972 112.324 61.1631C113.941 61.4479 115.288 61.9915 116.23 62.4644C116.701 62.7006 117.069 62.9182 117.317 63.0754C117.441 63.154 117.536 63.2173 117.598 63.2602C117.62 63.276 117.639 63.2891 117.653 63.299L117.978 63.6421C117.987 63.6565 117.999 63.6756 118.013 63.6992C118.053 63.7634 118.11 63.8607 118.182 63.9889C118.324 64.2453 118.52 64.6243 118.728 65.1067C119.145 66.0728 119.605 67.4457 119.785 69.0739C120.141 72.3076 119.398 76.5928 114.87 80.7523L114.863 80.7592L114.856 80.7664C113.594 82.0233 112.595 82.4934 111.836 82.5766C111.096 82.6577 110.501 82.3802 110.009 81.9348C109.507 81.4806 109.135 80.8673 108.884 80.3463C108.761 80.0893 108.671 79.8625 108.612 79.7011Z" fill="#F1F1F1" stroke="white"/>
<path d="M188.692 51.6624C189.431 50.2963 190.723 49.0061 192.389 48.1636C194.13 47.385 195.931 47.1582 197.425 47.4306C198.921 47.7033 200.068 48.4637 200.611 49.6297C201.7 51.9679 200.158 55.2732 196.497 56.983C194.754 57.764 192.95 57.9918 191.454 57.719C189.961 57.4467 188.815 56.6881 188.271 55.5248C187.791 54.4282 187.95 53.0356 188.692 51.6624Z" fill="#F1F1F1" stroke="white"/>
<path d="M195.884 69.7661L195.87 69.7721L195.856 69.7791C194.178 70.6245 192.475 70.8844 191.064 70.6616C189.655 70.4391 188.57 69.7449 188.026 68.7035C187.557 67.7491 187.674 66.5356 188.373 65.301C189.072 64.0683 190.329 62.8681 192.012 62.0198C193.69 61.1745 195.393 60.9145 196.804 61.1373C198.208 61.3591 199.292 62.0497 199.837 63.0856C200.317 64.19 200.18 65.479 199.489 66.6978C198.795 67.9229 197.55 69.0513 195.884 69.7661Z" fill="#F1F1F1" stroke="white"/>
<path d="M189.025 37.1272L189.035 37.1327L189.044 37.1379C190.167 37.7378 190.835 38.9437 190.978 40.5031C191.121 42.0625 190.729 43.9214 189.782 45.6899C188.838 47.4537 187.5 48.7718 186.145 49.4808C184.785 50.1918 183.476 50.2631 182.495 49.6844C181.417 49.0187 180.748 47.7943 180.589 46.252C180.43 44.7086 180.79 42.8843 181.734 41.1195C182.678 39.3557 184.016 38.0376 185.371 37.3286C186.733 36.6166 188.043 36.5461 189.025 37.1272Z" fill="#F1F1F1" stroke="white"/>
<path d="M175.683 37.3009C176.684 37.8931 177.293 39.0373 177.423 40.519C177.552 41.9986 177.194 43.7615 176.314 45.4668C175.439 47.1623 174.205 48.3805 172.937 49.0408C171.674 49.6979 170.414 49.7884 169.41 49.3185C168.421 48.7231 167.818 47.5841 167.689 46.1118C167.56 44.6322 167.918 42.8693 168.798 41.1641C169.677 39.4616 170.917 38.177 172.186 37.4857C173.456 36.7944 174.699 36.7188 175.683 37.3009Z" fill="#F1F1F1" stroke="white"/>
<path d="M174.783 69.7446C174.757 69.6733 174.737 69.6151 174.723 69.5731C174.724 69.551 174.725 69.5253 174.726 69.4963C174.73 69.3889 174.733 69.2355 174.732 69.0468C174.729 68.6702 174.709 68.1495 174.638 67.5735C174.5 66.4497 174.156 65.0005 173.262 64.0561L172.873 63.6455C172.448 63.1966 171.875 62.8744 171.289 62.6392C170.699 62.4022 170.066 62.2409 169.491 62.1306C168.914 62.0199 168.386 61.9583 168.002 61.9243C167.81 61.9073 167.653 61.8971 167.543 61.8912C167.506 61.8892 167.475 61.8877 167.449 61.8865C167.408 61.8713 167.35 61.8486 167.277 61.8182C167.123 61.754 166.906 61.6564 166.662 61.5244C166.167 61.2568 165.588 60.8646 165.172 60.349C164.763 59.8443 164.52 59.2367 164.637 58.4919C164.758 57.7276 165.271 56.7371 166.564 55.513C170.959 51.3531 175.276 50.9073 178.488 51.4732C180.105 51.758 181.452 52.3016 182.394 52.7745C182.865 53.0107 183.233 53.2283 183.481 53.3855C183.605 53.4641 183.7 53.5274 183.762 53.5703C183.784 53.5862 183.803 53.5992 183.817 53.6092L184.142 53.9522C184.151 53.9667 184.163 53.9858 184.177 54.0095C184.217 54.0736 184.275 54.1709 184.346 54.2988C184.489 54.5549 184.685 54.933 184.893 55.4134C185.309 56.3756 185.77 57.7402 185.95 59.3514C186.307 62.5501 185.566 66.7653 181.047 70.7907L181.037 70.8L181.027 70.8099C179.766 72.0668 178.766 72.537 178.007 72.6202C177.268 72.7012 176.672 72.4237 176.18 71.9783C175.679 71.5241 175.306 70.9108 175.056 70.3899C174.932 70.1328 174.842 69.906 174.783 69.7446Z" fill="#F1F1F1" stroke="white"/>
</svg>
