<svg width="137" height="136" viewBox="0 0 137 136" fill="none" xmlns="http://www.w3.org/2000/svg">
<g opacity="0.5">
<path d="M120.894 60.0822C124.945 67.3658 123.662 76.3593 117.959 82.2233C119.711 90.2132 116.057 98.5307 108.774 102.582C99.7379 107.607 88.2995 104.345 83.2739 95.3093C81.7505 92.5703 80.9642 89.5366 80.9538 86.4099L47.4383 76.8493C45.779 79.5042 43.5107 81.6667 40.7744 83.1886C31.7386 88.2142 20.3002 84.952 15.2746 75.9162C11.2236 68.6326 12.5072 59.6391 18.2096 53.7751C16.4581 45.7852 20.1116 37.4677 27.3952 33.4167C36.431 28.3911 47.8695 31.6533 52.895 40.6891C54.4184 43.4281 55.2048 46.4618 55.2152 49.5885L88.7292 59.1462C90.3873 56.4955 92.6555 54.333 95.3946 52.8095C104.431 47.7841 115.869 51.0462 120.894 60.0822ZM88.7359 92.2714C92.0868 98.2963 99.711 100.471 105.736 97.1197C110.995 94.1946 113.413 87.9299 111.484 82.2209C111.069 80.9919 111.456 79.6348 112.457 78.8092C117.107 74.9765 118.358 68.3791 115.432 63.1198C112.082 57.0949 104.457 54.9206 98.4325 58.2715C96.0935 59.5724 94.2683 61.5899 93.155 64.1087C92.5237 65.5353 90.9388 66.2771 89.4406 65.8499L51.0748 54.9081C49.5682 54.4784 48.6226 53.0105 48.8376 51.4696C49.2205 48.7425 48.734 46.0657 47.4331 43.7267C44.0822 37.7019 36.458 35.5275 30.4332 38.8784C25.1738 41.8036 22.7565 48.0682 24.6852 53.7772C25.0998 55.0062 24.7128 56.3634 23.7122 57.1889C19.0624 61.0216 17.8114 67.619 20.7366 72.8784C24.0875 78.9032 31.7117 81.0776 37.7365 77.7267C40.0728 76.4272 41.8965 74.4072 43.0125 71.8868C43.6453 70.4629 45.2302 69.721 46.7284 70.1483L85.0942 81.09C86.5949 81.509 87.5489 82.9794 87.3314 84.5285C86.9486 87.2558 87.435 89.9325 88.7359 92.2714Z" fill="#F1F1F1" fill-opacity="0.05"/>
<path d="M117.601 81.8747L117.413 82.0675L117.471 82.3303C119.176 90.1068 115.619 98.2021 108.531 102.145C99.7362 107.036 88.6022 103.861 83.7109 95.0663C82.2288 92.4016 81.4639 89.451 81.4538 86.4083L81.4525 86.0323L81.0909 85.9291L47.5755 76.3685L47.2137 76.2653L47.0143 76.5843C45.3996 79.1679 43.1933 81.2711 40.5314 82.7517C31.7369 87.643 20.6029 84.4677 15.7115 75.6732C11.7689 68.5845 13.018 59.8311 18.5681 54.1237L18.7556 53.9309L18.698 53.6681C16.9933 45.8916 20.5496 37.7963 27.6383 33.8537C36.4327 28.9623 47.5667 32.1377 52.4581 40.9322C53.9401 43.5968 54.705 46.5474 54.7152 49.5901L54.7164 49.9662L55.078 50.0693L88.5921 59.6271L88.9537 59.7302L89.1531 59.4114C90.7667 56.8318 92.9728 54.7286 95.6377 53.2465C104.432 48.3553 115.566 51.5306 120.457 60.3252C124.4 67.4139 123.151 76.1673 117.601 81.8747ZM84.9571 81.5709L84.9598 81.5716C86.2165 81.9225 87.0193 83.1553 86.8362 84.459L86.8362 84.4591C86.4388 87.2909 86.9436 90.0776 88.2989 92.5144C91.7841 98.7806 99.7127 101.042 105.979 97.5567C111.449 94.5141 113.963 87.9982 111.958 82.0611C111.609 81.0286 111.934 79.8885 112.775 79.1949C117.611 75.209 118.912 68.3473 115.869 62.8768C112.384 56.6106 104.456 54.3494 98.1895 57.8345C95.7527 59.1898 93.8537 61.2912 92.6977 63.9066C92.1673 65.1049 90.836 65.7279 89.5778 65.369L51.2119 54.4273C49.9465 54.0664 49.1521 52.8341 49.3328 51.5387C49.7303 48.7071 49.2253 45.9204 47.8701 43.4837C44.3849 37.2175 36.4563 34.9563 30.1901 38.4415C24.7196 41.4841 22.2057 48.0001 24.2115 53.9372C24.5597 54.9696 24.2346 56.1096 23.3942 56.8031C18.5585 60.789 17.2569 67.6508 20.2996 73.1214C23.7848 79.3876 31.7134 81.6488 37.9795 78.1636C40.4141 76.8095 42.3112 74.7055 43.4697 72.0893C44.0016 70.8932 45.3331 70.2703 46.5913 70.6291L84.9571 81.5709Z" stroke="#F2F2F2" stroke-opacity="0.1"/>
</g>
</svg>
