<svg width="40" height="41" viewBox="0 0 40 41" fill="none" xmlns="http://www.w3.org/2000/svg">
<path d="M24.9987 9.30772V7.64185H21.6654V25.9664C21.6654 28.7227 19.4229 30.9641 16.6654 30.9641C13.9078 30.9641 11.6654 28.7227 11.6654 25.9664C11.6654 23.2102 13.9078 20.9688 16.6654 20.9688H18.332V17.6371H16.6654C12.0702 17.6371 8.33203 21.3735 8.33203 25.9664C8.33203 30.5594 12.0702 34.2958 16.6654 34.2958C21.2605 34.2958 24.9987 30.5594 24.9987 25.9664V15.9553C26.3936 17.0059 28.1213 17.6371 29.9987 17.6371H31.6654V14.3053H29.9987C27.2411 14.3053 24.9987 12.064 24.9987 9.30772Z" fill="white"/>
</svg>
