<svg width="40" height="41" viewBox="0 0 40 41" fill="none" xmlns="http://www.w3.org/2000/svg">
<path d="M11.94 23.727C12.9429 25.0853 14.0953 26.2864 15.584 27.1361C17.2699 28.0993 19.085 28.3897 20.9993 28.3012C21.8936 28.2584 22.1626 28.0252 22.2038 27.1345C22.2315 26.5243 22.3021 25.9157 22.6027 25.3673C22.8981 24.8296 23.3462 24.7278 23.8633 25.0624C24.1207 25.2314 24.3375 25.443 24.5428 25.6694C25.0466 26.2191 25.5344 26.7884 26.0563 27.32C26.7125 27.9879 27.4909 28.3814 28.4674 28.3012L32.2509 28.3028C32.8598 28.2616 33.1765 27.5155 32.8269 26.8341C32.5808 26.3585 32.2576 25.9354 31.9161 25.5248C31.1429 24.5964 30.2319 23.8053 29.3704 22.9655C28.594 22.2078 28.5447 21.7679 29.1684 20.8936C29.8511 19.9385 30.583 19.0215 31.2708 18.0715C31.9126 17.1841 32.5711 16.2979 32.9071 15.2365C33.1223 14.559 32.9319 14.2605 32.2396 14.1407C32.1198 14.1211 31.9951 14.1211 31.8736 14.1211L27.7567 14.1159C27.2496 14.1079 26.9706 14.3294 26.7915 14.7786C26.5486 15.3859 26.2992 15.9929 26.0099 16.5771C25.3569 17.906 24.6262 19.1905 23.602 20.2767C23.3755 20.5159 23.1243 20.8196 22.747 20.695C22.276 20.5227 22.1365 19.7453 22.1446 19.4829L22.141 14.7329C22.0495 14.0557 21.8981 13.7521 21.2238 13.6204H16.9477C16.3784 13.6204 16.0911 13.8422 15.7857 14.198C15.6117 14.4051 15.5572 14.5378 15.9187 14.6067C16.6275 14.741 17.0299 15.2005 17.1349 15.9112C17.304 17.0482 17.2924 18.1897 17.1942 19.3299C17.1661 19.6629 17.1088 19.9946 16.977 20.3063C16.7705 20.7967 16.4355 20.8952 15.9973 20.5935C15.602 20.3211 15.323 19.9373 15.0485 19.5518C14.0228 18.1028 13.2054 16.5413 12.5373 14.9004C12.3453 14.426 12.0121 14.1391 11.5099 14.1307C10.2753 14.1111 9.03952 14.1082 7.80338 14.1324C7.06143 14.1456 6.83978 14.5065 7.14358 15.1808C8.48798 18.1717 9.98508 21.0788 11.94 23.727Z" fill="white"/>
</svg>
