<svg width="1108" height="1315" viewBox="0 0 1108 1315" fill="none" xmlns="http://www.w3.org/2000/svg">
<g filter="url(#filter0_d)">
<path d="M90.7817 548.581C44.3941 669.08 105.035 805.448 225.654 851.882C334.38 893.738 509.637 810.144 605.366 757.032L1039.66 956.734C1018.49 1067.46 1078.48 1180.19 1187.2 1222.04C1307.82 1268.48 1444.25 1207.97 1490.64 1087.47C1516.12 1021.28 1509.45 952.462 1479.26 894.072C1540.81 870.998 1592.56 822.714 1617.39 758.222C1663.77 637.723 1603.13 501.355 1482.52 454.922C1377.19 414.374 1260.1 455.042 1199.47 546.673L724.417 372.303C680.725 267.401 627.994 125.963 520.966 84.7612C400.348 38.3275 263.919 98.8311 217.531 219.33C192.05 285.52 198.717 354.342 228.906 412.732C168.01 434.109 116.262 482.392 90.7817 548.581Z" fill="url(#paint0_linear)"/>
</g>
<defs>
<filter id="filter0_d" x="0.499939" y="0.395264" width="1703.17" height="1314.01" filterUnits="userSpaceOnUse" color-interpolation-filters="sRGB">
<feFlood flood-opacity="0" result="BackgroundImageFix"/>
<feColorMatrix in="SourceAlpha" type="matrix" values="0 0 0 0 0 0 0 0 0 0 0 0 0 0 0 0 0 0 127 0"/>
<feOffset dx="-2" dy="4"/>
<feGaussianBlur stdDeviation="2"/>
<feColorMatrix type="matrix" values="0 0 0 0 0 0 0 0 0 0 0 0 0 0 0 0 0 0 0.25 0"/>
<feBlend mode="normal" in2="BackgroundImageFix" result="effect1_dropShadow"/>
<feBlend mode="normal" in="SourceGraphic" in2="effect1_dropShadow" result="shape"/>
</filter>
<linearGradient id="paint0_linear" x1="332.505" y1="160.309" x2="1123.84" y2="986.626" gradientUnits="userSpaceOnUse">
<stop stop-color="#FFCC01"/>
<stop offset="1" stop-color="#D2A800"/>
</linearGradient>
</defs>
</svg>
